<!-- This Source Code Form is subject to the terms of the Mozilla Public
   - License, v. 2.0. If a copy of the MPL was not distributed with this
   - file, You can obtain one at http://mozilla.org/MPL/2.0/. -->
<svg xmlns="http://www.w3.org/2000/svg" width="16" height="16" viewBox="0 0 16 16"><path class="icon-copy" fill="#0A8DFF" d="M14.707 8.293l-3-3A1 1 0 0 0 11 5h-1V4a1 1 0 0 0-.293-.707l-3-3A1 1 0 0 0 6 0H3a2 2 0 0 0-2 2v7a2 2 0 0 0 2 2h3v3a2 2 0 0 0 2 2h5a2 2 0 0 0 2-2V9a1 1 0 0 0-.293-.707zM12.586 9H11V7.414zm-5-5H6V2.414zM6 7v2H3V2h2v2.5a.5.5 0 0 0 .5.5H8a2 2 0 0 0-2 2zm2 7V7h2v2.5a.5.5 0 0 0 .5.5H13v4z"/></svg>
