<svg width="292" height="268" viewBox="0 0 292 268" xmlns="http://www.w3.org/2000/svg" xmlns:xlink="http://www.w3.org/1999/xlink"><title>Group</title><defs><rect id="a" y=".644" width="143.486" height="14.095" rx="7.048"/></defs><g fill="none" fill-rule="evenodd"><g transform="translate(.587 -1)" fill-rule="nonzero"><path d="M1.198 102.965a1.2 1.2 0 0 0-1.198 1.2 1.2 1.2 0 0 0 1.198 1.201h48.836v-2.401H1.198zm40.746-6.653a.6.6 0 0 0 0 1.2h8.15v-1.2h-8.15z" fill="#D9EBFF"/><path d="M180.121 36.987H220.7c-2.924-5.536-11.41-18.013-27.564-15.863-7.73 1.056-11.648 4.491-13.446 8.598-.21 2.43-.064 4.878.431 7.265zm66.992 12.033v2.402h42.304a1.2 1.2 0 0 0 1.198-1.2 1.2 1.2 0 0 0-1.198-1.202h-33.053c-2.816-5.26-10.33-17.58-19.785-19.394-8.617-1.645-12.368 3.915-13.842 7.361h12.056c6.676.017 12.132 5.346 12.32 12.033zm-68.55-14.566a21.3 21.3 0 0 0-.107 2.546h.479c-.204-.817-.372-1.67-.372-2.546z" fill="#FFF"/><path d="M262.692 168.725a1.2 1.2 0 0 0 1.198-1.2 1.2 1.2 0 0 0-1.198-1.201h-15.58v2.401h15.58zm27.935 6.605h-43.49v1.201h43.49a.6.6 0 0 0 0-1.2zM180.121 36.987a25.114 25.114 0 0 1-.395-7.205 14.56 14.56 0 0 1 1.654-5.584c2.18-3.939 6.375-6.353 12.463-7.205 19.87-2.702 28.007 17.809 28.091 18.013.102.245.347.4.611.384a.6.6 0 0 0 .54-.48c.095-.48 2.456-11.625 13.985-9.415 11.529 2.21 20.469 19.442 20.589 19.623a.599.599 0 0 0 .539.324h30.26a.6.6 0 0 0 0-1.201h-29.936c-1.33-2.522-9.791-17.773-21.236-19.959-9.911-1.885-13.71 5.428-14.909 8.779-2.396-4.804-11.145-19.683-28.69-17.281-6.483.888-10.977 3.506-13.35 7.782a18.612 18.612 0 0 0-1.774 10.892c.084.876.216 1.729.36 2.546l1.198-.013z" fill="#D9EBFF"/><path d="M27.18 12.009c-.15 1.49-.065 2.993.252 4.455h.803a19.753 19.753 0 0 1-1.055-4.455z" fill="#FFF"/><path d="M29.613 17.353a.602.602 0 0 0 0-.577s-1.978-4.527-1.199-8.49a7.371 7.371 0 0 1 .755-2.101c1.199-2.114 3.44-3.41 6.735-3.855 10.786-1.477 15.16 9.39 15.34 9.847a.6.6 0 1 0 1.15-.096c0-.252 1.307-6.197 7.467-5.032 6.351 1.201 11.205 9.932 11.253 10.016a.599.599 0 0 0 .527.312H88.42a.6.6 0 0 0 0-1.201H72.06c-.971-1.645-5.633-9.103-11.9-10.304a7.056 7.056 0 0 0-8.39 4.492C50.106 7.217 45.156-.144 35.81 1.14c-3.692.504-6.256 2.005-7.622 4.467a10.707 10.707 0 0 0-1.019 6.365 19.753 19.753 0 0 0 1.055 4.455H9.79a.6.6 0 0 0 0 1.201h19.318a.599.599 0 0 0 .504-.276z" fill="#D9EBFF"/><path d="M9.587 22.817h79.647a1.2 1.2 0 0 0 1.198-1.2 1.2 1.2 0 0 0-1.198-1.202H70.563c-1.475-2.786-5.717-9.955-11.11-10.988-6.807-1.297-8.16 5.5-8.16 5.5s-4.555-11.78-15.988-10.22c-3.523.48-5.62 1.85-6.807 3.603-.815 3.963 1.139 8.406 1.199 8.49a.602.602 0 0 1-.552.841h-1.438a18.1 18.1 0 0 0 .803 2.402H9.192l21.68.372H9.586a1.2 1.2 0 0 0-1.198 1.201 1.2 1.2 0 0 0 1.198 1.201z" fill="#FFF"/><ellipse fill="#D9EBFF" cx="148.387" cy="260.498" rx="93.416" ry="7.734"/></g><path d="M30.455 142.918l2.3-22.016a3.67 3.67 0 0 1 4.014-3.289l.041.005 32.946 3.477.01-.15c.821-8.039-5.009-15.238-13.042-16.107l-21.978-2.32c-8.037-.827-15.23 4.998-16.092 13.032l-3.065 29.282c-.82 8.038 5.01 15.238 13.043 16.106l21.978 2.32c7.967.846 15.122-4.863 16.065-12.82l-32.928-3.455a3.672 3.672 0 0 1-3.297-4.013l.005-.052" fill="#D9EBFF"/><path d="M28.255 136.852l2.3-22.016a3.67 3.67 0 0 1 4.055-3.285l32.946 3.478.01-.15c.821-8.039-5.01-15.238-13.042-16.107l-21.978-2.32c-8.037-.827-15.23 4.998-16.092 13.032l-3.065 29.282c-.82 8.038 5.01 15.237 13.043 16.106l21.977 2.32c7.968.846 15.123-4.863 16.065-12.82l-32.927-3.455a3.672 3.672 0 0 1-3.297-4.013l.005-.052" stroke="#59ACFF" stroke-width="2.4" fill="#F9F9FA"/><path d="M18.6 149.641a14.21 14.21 0 0 1-4.099-11.513l2.968-28.36c.835-7.78 7.802-13.42 15.586-12.62l21.284 2.247c3.873.419 6.818 2.384 8.855 5.205l-27.773-2.92c-6.591-.692-12.496 4.09-13.189 10.68l-3.642 34.653c-.094.893-.087 1.772.01 2.628zm152.488 26.593l-15.628-15.641c-5.725-5.701-14.981-5.701-20.707 0l-.11.11 23.408 23.428a3.678 3.678 0 0 1 0 5.224l-15.649 15.663a3.67 3.67 0 0 1-5.19.03l-.029-.03-23.393-23.414c-5.586 5.745-5.52 14.906.146 20.57l15.62 15.634c5.726 5.701 14.982 5.701 20.707 0l20.81-20.827c5.718-5.73 5.726-15.01.015-20.747" fill="#D9EBFF"/><path d="M171.088 170.23l-15.628-15.642c-5.725-5.7-14.981-5.7-20.707 0l-.11.11 23.408 23.429a3.678 3.678 0 0 1 0 5.223l-15.649 15.663a3.67 3.67 0 0 1-5.19.03l-.029-.03L113.79 175.6c-5.586 5.745-5.52 14.906.146 20.57l15.62 15.634c5.726 5.7 14.982 5.7 20.707 0l20.81-20.828c5.718-5.73 5.726-15.009.015-20.747" stroke="#59ACFF" stroke-width="2.4" fill="#F9F9FA"/><path d="M138.615 214.908c4.065.396 8.269-.96 11.388-4.065l20.11-20.128c5.527-5.538 5.534-14.505.015-20.05l-15.103-15.116a14.136 14.136 0 0 0-9.923-4.132l20.224 20.224c4.686 4.686 4.686 12.284 0 16.97l-24.63 24.632a12.04 12.04 0 0 1-2.081 1.665z" fill="#D9EBFF"/><g transform="rotate(18 -120.518 461.302)"><use fill="#F9F9FA" xlink:href="#a"/><rect stroke="#59ACFF" stroke-width="1.847" x=".923" y="1.567" width="141.639" height="12.248" rx="6.124"/></g><path d="M145.143 64.585l120.708 39.193a5.751 5.751 0 0 1 3.589 3.396c.354.915.51 2.02.313 1.958-.13-.04-42.064-13.666-125.803-40.876a1.93 1.93 0 0 1 1.193-3.671z" fill="#D9EBFF"/><path d="M184.968 115.442c-9.547 8.947-24.13 12.45-38.156 7.893-14.025-4.558-23.765-15.963-26.23-28.813 11.392-3.047 20.854-11.212 24.594-22.723a33.407 33.407 0 0 0 1.51-13.296c6.33-.573 13.292.355 20.332 2.643 7.04 2.287 13.218 5.628 18.003 9.813a33.407 33.407 0 0 0-6.594 11.644c-3.74 11.51-.884 23.679 6.54 32.84z" stroke="#59ACFF" stroke-width="1.847" fill="#D9EBFF"/><path d="M128.947 92.026a31.652 31.652 0 0 1-7.295 3.278c2.767 12.083 12.772 22.857 25.908 27.125 12.88 4.185 26.809 1.024 36.042-7.08a34.418 34.418 0 0 1-3.828-5.936c-9.182 4.275-19.42 5.966-28.863 2.898-9.817-3.19-17.186-11.007-21.964-20.285z" fill="#FFF"/><path d="M88.522 135.253a7.328 7.328 0 0 1 10.38 0l38.558 38.592c2.87 2.872 2.87 7.523 0 10.388a7.328 7.328 0 0 1-10.38 0L88.522 145.64c-2.87-2.865-2.87-7.516 0-10.388" fill="#D9EBFF"/><path d="M89.72 129.248a7.328 7.328 0 0 1 10.38 0l38.558 38.592c2.87 2.873 2.87 7.523 0 10.388a7.328 7.328 0 0 1-10.38 0L89.72 139.636c-2.87-2.865-2.87-7.515 0-10.388" stroke="#59ACFF" stroke-width="2.4" fill="#F9F9FA"/><path d="M98.944 129.763l39.383 39.524c1.523 1.99 1.675 4.12 1 5.721-.676 1.6-.769 2.39-4.093-.772l-40.554-40.64c-1.18-1.058-1.18-2.773 0-3.833 1.179-1.06 3.088-1.06 4.264 0z" fill="#D9EBFF"/><path d="M70.095 85.464l5.448 12.672M87.328 85.4l-.93 9.827m18.24-.232l-11.959 8.701" stroke="#59ACFF" stroke-width="4.32" stroke-linecap="round" stroke-linejoin="round"/></g></svg>