<?xml version="1.0" encoding="UTF-8"?>
<svg width="283px" height="223px" viewBox="0 0 283 223" version="1.1" xmlns="http://www.w3.org/2000/svg" xmlns:xlink="http://www.w3.org/1999/xlink">
    <!-- Generator: Sketch 45.2 (43514) - http://www.bohemiancoding.com/sketch -->
    <title>Untitled</title>
    <desc>Created with Sketch.</desc>
    <defs></defs>
    <g id="Page-1" stroke="none" stroke-width="1" fill="none" fill-rule="evenodd">
        <g id="illustration_download" transform="translate(0.000000, 1.000000)">
            <g id="Group-2" transform="translate(0.000000, 26.000000)">
                <g id="about-rights">
                    <path d="M103.1,83.3 L103.3,87.9 C103.7,89.9 104.6,91.8 105.8,93.5 C107.2,93.1 108.6,92.7 110.1,92.5 L110.9,92 C111.1,91.4 111.3,90.9 111.5,90.4 C111.5,85.3 112.8,80.2 115.2,75.7 C113.1,63.2 113.3,50.5 115.7,38.1 L106.4,44.9 C106.3,46.8 106.4,51.5 106.4,55.5 C106.6,67.9 106.5,70.5 105.9,71.7 C104.1,74.2 102.1,76.5 100,78.6 C101.8,79.4 103,81.2 103.1,83.3 L103.1,83.3 Z" id="Shape"></path>
                    <path d="M124.1,16 L108.9,26.8 L108.9,36.6 C111.1,35 114,32.9 117.8,30.1 C119,26.2 120.4,22.5 122.2,18.8 C122.6,17.8 123.3,16.8 124.1,16 L124.1,16 Z" id="Shape_1_"></path>
                    <path d="M71.1,8.9 C71,8.5 67.9,1 60.4,2 C58.1,2.3 56.5,3.2 55.7,4.7 C55.5,5.1 55.3,5.5 55.2,6 C56.4,4.6 58.1,3.7 59.9,3.6 C68,2.5 71.1,10.8 71.1,10.8 C71.2,10.2 71.5,9.6 71.8,9.1 C71.7,9.2 71.7,9.2 71.6,9.2 C71.4,9.2 71.1,9.1 71.1,8.9 Z" id="Shape_2_"></path>
                    <path d="M221.8,112.6 C222.4,112.6 222.8,112.2 222.8,111.6 C222.8,111 222.4,110.6 221.8,110.6 L194.4,110.6 C194.1,111.3 193.8,111.9 193.4,112.6 L221.8,112.6 Z" id="Shape_3_" fill="#D9EBFF" fill-rule="nonzero"></path>
                    <path d="M212.4,106.2 C212.7,106.2 212.9,106 212.9,105.7 C212.9,105.4 212.7,105.2 212.4,105.2 L196.3,105.2 C196.2,105.5 196.1,105.9 196,106.2 L212.4,106.2 Z" id="Shape_4_" fill="#D9EBFF" fill-rule="nonzero"></path>
                    <path d="M239.8,117 L191.2,117 C191.2,117.1 191.2,117.2 191.1,117.3 L191.4,118 L239.8,118 C240.1,118 240.3,117.8 240.3,117.5 C240.3,117.2 240.1,117 239.8,117 Z" id="Shape_5_" fill="#D9EBFF" fill-rule="nonzero"></path>
                    <path d="M139.2,151.5 L78.5,151.5 C77.9,151.5 77.5,151.9 77.5,152.5 C77.5,153.1 77.9,153.5 78.5,153.5 L138.9,153.5 C139.1,153.1 139.2,152.8 139.4,152.4 C139.3,152.1 139.3,151.8 139.2,151.5 Z" id="Shape_6_" fill="#D9EBFF" fill-rule="nonzero"></path>
                    <path d="M226.8,153.5 C227.4,153.5 227.8,153.1 227.8,152.5 C227.8,151.9 227.4,151.5 226.8,151.5 L162.6,151.5 C162.4,152.2 162.2,152.9 162,153.5 L226.8,153.5 Z" id="Shape_7_" fill="#D9EBFF" fill-rule="nonzero"></path>
                    <path d="M115.8,93.8 C115.8,93.9 115.7,94 115.7,94.2 L115.9,94.1 L115.8,93.8 Z" id="Shape_8_" fill="#FFFFFF" fill-rule="nonzero"></path>
                    <path d="M55.7,152.5 C55.7,151.9 55.3,151.5 54.7,151.5 L27.1,151.5 C26.5,151.5 26.1,151.9 26.1,152.5 C26.1,153.1 26.5,153.5 27.1,153.5 L54.8,153.5 C55.3,153.5 55.7,153 55.7,152.5 Z" id="Shape_9_" fill="#D9EBFF" fill-rule="nonzero"></path>
                    <path d="M31.1,68.3 L81,68.3 C81.6,68.3 82,67.9 82,67.3 C82,66.7 81.6,66.3 81,66.3 L31.1,66.3 C30.5,66.3 30.1,66.7 30.1,67.3 C30.1,67.8 30.6,68.3 31.1,68.3 Z" id="Shape_10_" fill="#D9EBFF" fill-rule="nonzero"></path>
                    <path d="M48.9,62 C48.6,62 48.4,62.2 48.4,62.5 C48.4,62.8 48.6,63 48.9,63 L72.9,63 C73.2,63 73.4,62.8 73.4,62.5 C73.4,62.2 73.2,62 72.9,62 L48.9,62 Z" id="Shape_11_" fill="#D9EBFF" fill-rule="nonzero"></path>
                    <polygon id="Shape_12_" fill="#F9F9FA" fill-rule="nonzero" points="116.6 103.8 117.1 103.7 117.1 103.7"></polygon>
                    <path d="M173.1,33.6 C173,35.5 173.2,37.5 173.6,39.3 L174.5,39.3 C173.9,37.5 173.4,35.6 173.1,33.6 L173.1,33.6 Z" id="Shape_13_" fill="#FFFFFF" fill-rule="nonzero"></path>
                    <path d="M205.8,40.1 C205.9,40 205.9,39.8 205.8,39.6 C205.8,39.5 203.6,34.5 204.2,29.7 C204.3,28.4 204.7,27.1 205.4,26 C206.9,23.3 209.8,21.6 214.1,21 C228,19.1 233.7,33.5 233.8,33.6 C233.9,33.8 234.1,33.9 234.3,33.9 C234.5,33.9 234.7,33.7 234.7,33.5 C234.8,33.2 236.4,25.4 244.5,27 C252.5,28.5 258.8,40.6 258.9,40.8 C259,41 259.2,41.1 259.4,41.1 L280.7,41.1 C281,41.1 281.2,40.9 281.2,40.6 C281.2,40.3 281,40.1 280.7,40.1 L259.7,40.1 C258.7,38.2 252.8,27.6 244.7,26.1 C237.8,24.8 235.1,29.7 234.2,32.1 C232.4,28.5 226.2,18.4 214,20.1 C209.4,20.7 206.2,22.6 204.6,25.6 C203.3,28.1 202.9,30.9 203.4,33.7 C203.6,35.7 204.1,37.6 204.8,39.4 L181.1,39.4 C180.8,39.4 180.6,39.6 180.6,39.9 C180.6,40.2 180.8,40.4 181.1,40.4 L205.5,40.4 C205.5,40.3 205.6,40.3 205.8,40.1 Z" id="Shape_14_" fill="#D9EBFF" fill-rule="nonzero"></path>
                    <path d="M281.2,43.3 L257.9,43.3 C255.9,39.5 250.6,31.1 244.1,29.9 C235.5,28.3 233.8,36.8 233.8,36.8 C233.8,36.8 228.1,21.9 213.6,23.9 C208.3,24.6 205.6,26.9 204.2,29.7 C203.6,34.5 205.8,39.6 205.8,39.6 C205.9,39.8 205.9,39.9 205.8,40.1 C205.7,40.2 205.5,40.3 205.4,40.3 L204,40.3 C204.3,41.3 204.6,42.2 205,43.1 L180.5,43.1 L186.4,43.2 L180.5,43.2 C179.9,43.2 179.5,43.6 179.5,44.2 C179.5,44.8 179.9,45.2 180.5,45.2 L281.2,45.2 C281.8,45.2 282.2,44.8 282.2,44.2 C282.2,43.6 281.8,43.3 281.2,43.3 L281.2,43.3 Z" id="Shape_15_" fill="#FFFFFF" fill-rule="nonzero"></path>
                    <path d="M54.2,9 C54.1,9.9 54.2,10.8 54.4,11.7 L54.9,11.7 C54.5,10.9 54.3,9.9 54.2,9 Z" id="Shape_16_" fill="#FFFFFF" fill-rule="nonzero"></path>
                    <path d="M16,12.5 C16.1,12.3 16.1,12.2 16,12 C15.2,10.1 14.9,8 15.2,5.9 C15.3,5.4 15.5,5 15.7,4.6 C16.5,3.1 18.1,2.2 20.4,1.9 C28,1 31,8.5 31.1,8.8 C31.2,9 31.4,9.1 31.6,9.1 C31.8,9.1 32,8.9 32,8.7 L32,8.7 C32.2,7.6 32.9,6.5 33.8,5.9 C34.7,5.3 36,5 37.1,5.3 C41.5,6.1 44.9,12.2 45,12.3 C45.1,12.5 45.3,12.6 45.4,12.6 L57.2,12.6 C57.5,12.6 57.7,12.4 57.7,12.1 C57.7,11.8 57.5,11.6 57.2,11.6 L45.8,11.6 C45.1,10.4 41.8,5.2 37.4,4.4 C34.9,3.8 32.4,5.1 31.5,7.4 C30.2,5.1 26.7,0.1 20.2,1 C17.6,1.4 15.8,2.4 14.8,4.2 C14.1,5.7 13.8,7.4 14.1,9.1 C14.2,10 14.4,11 14.8,11.8 L2,11.8 C1.7,11.8 1.5,12 1.5,12.3 C1.5,12.6 1.7,12.8 2,12.8 L15.6,12.8 C15.7,12.8 15.9,12.7 16,12.5 Z" id="Shape_17_" fill="#D9EBFF" fill-rule="nonzero"></path>
                    <path d="M1.8,16.5 L57.8,16.5 C58.4,16.5 58.8,16.1 58.8,15.5 C58.8,14.9 58.4,14.5 57.8,14.5 L44.6,14.5 C43.5,12.4 40.6,7.7 36.9,6.9 C35.1,6.4 33.1,7.1 32.1,8.7 L32.1,8.8 C32,8.9 32,9 31.8,9.1 C31.5,9.6 31.3,10.2 31.1,10.8 C31.1,10.8 28,2.5 19.9,3.6 C18.1,3.7 16.4,4.6 15.2,6 C14.9,8.1 15.2,10.2 16,12.1 C16.1,12.3 16.1,12.4 16,12.6 C15.9,12.7 15.7,12.8 15.6,12.8 L14.6,12.8 C14.7,13.3 14.9,13.9 15.2,14.4 L1.5,14.4 L8.7,14.5 L1.8,14.5 C1.2,14.5 0.8,14.9 0.8,15.5 C0.8,16 1.2,16.4 1.8,16.5 L1.8,16.5 Z" id="Shape_18_" fill="#FFFFFF" fill-rule="nonzero"></path>
                    <path d="M113.8,102.6 C114,101.9 114.4,101.3 114.9,100.8 L114.8,100.8 L114.1,101.7 C113.9,101.9 113.8,102.3 113.8,102.6 L113.8,102.6 Z" id="Shape_19_" fill="#D9EBFF" fill-rule="nonzero"></path>
                    <ellipse id="Oval" fill="#D9EBFF" fill-rule="nonzero" cx="144.3" cy="186.3" rx="50.3" ry="9.3"></ellipse>
                </g>
            </g>
            <g id="Group-4" transform="translate(150.884322, 101.489419) rotate(-44.000000) translate(-150.884322, -101.489419) translate(71.384322, 37.989419)">
                <g id="Group-3" transform="translate(19.920167, 38.320851) rotate(72.000000) translate(-19.920167, -38.320851) translate(-5.079833, 26.320851)">
                    <path d="M49.4,9.6 C48,1.4 40.7,-1.1 27.6,2.1 C7.9,6.9 3.3,-0.2 1.1,1 C-1.1,2.2 4,8.4 5.9,9.3 C7.8,10.2 3.4,8.8 5.2,12.2 C6.4,14.5 8.9,16.2 12.6,17.3 C11.1,18.7 13.5,20.4 19.8,22.2 C26.1,24 30.7,24 33.7,22.2 C33.2,23.4 34.3,23.9 36.9,23.5 C39.5,23.1 41.8,22.2 43.9,20.8 C45.9,19.4 47.4,17.8 48.3,15.8 C49.2,13.8 49.5,11.8 49.4,9.6 Z" id="Path-12" fill="#59ACFF" fill-rule="nonzero"></path>
                    <path d="M47.7,10.7 C47.3,6 44.8,3.2 40.2,2.3 C37,1.7 33.3,2.1 22.6,4.4 C8.1,7.6 0.9,-1.9 3.5,4.4 C6.1,10.7 14,9.5 15.8,9.9 C17.6,10.2 12.4,10.5 11.1,10.5 C7.7,10.5 7.5,10.4 7.1,11.3 C6.7,12.1 9.4,15.7 16,16.3 C17.8,16.5 20.5,16.9 23.3,16.9 C27.6,16.9 32.2,15 32.4,15.3 C32.6,15.6 27.5,17.2 23.3,17.6 C20.2,17.9 17,17.5 15.5,17.6 C12.2,17.9 19.2,21.7 26.1,22.2 C33,22.7 34.1,20.3 35.1,20.2 C36,20.1 33.1,21.8 34.5,22.2 C35.9,22.6 40.7,21.8 44.3,18.5 C46.6,16.3 47.7,13.7 47.7,10.7 Z" id="Path-13" fill="#FFFFFF" fill-rule="nonzero"></path>
                    <path d="M8.5,11.9 C11.2,14 15.4,15.1 20.9,15.2 C26.2,15.3 30.6,14.4 34.1,12.5" id="Line" stroke="#D9EBFF" stroke-width="3.3" stroke-linecap="round" stroke-linejoin="round"></path>
                </g>
                <g id="illustration" transform="translate(73.367530, 63.335344) rotate(19.000000) translate(-73.367530, -63.335344) translate(25.867530, 13.335344)">
                    <path d="M52.1,5.1 L9.2,4 L9.2,4 C7.9,4 6.7,4.7 6.1,5.9 L6.1,5.9 C-0.2,19.1 -1.3,35.1 2.8,53.9 C7,73.1 13.3,87.1 21.5,96 C21.9,96.4 22.3,96.7 22.9,96.9 L22.9,96.9 C26,97.9 32.4,98.7 42.2,99.2 C52.2,99.7 68.5,98.8 91.1,96.4 C91.6,96.3 92.1,96.2 92.5,95.9 C94,94.9 94.5,92.9 93.5,91.3 L93.5,91.3 C86.7,80.6 81.2,68.7 77,55.4 C73.5,44.5 73.5,32.9 76.8,20.6 L52.1,5.1 Z" id="Combined-Shape" stroke="#59ACFF" stroke-width="2" fill="#F9F9FA" fill-rule="nonzero" stroke-linecap="round" stroke-linejoin="round"></path>
                    <path d="M5.8,8.9 C6,8.2 6.3,7.4 6.6,6.7 L6.6,6.7 C7.1,5.4 8.4,4.6 9.8,4.6 L9.8,4.6 L51.5,6 L75.6,21.1 C72.5,31 72.7,42.2 76.2,54.5 C80.9,70.6 86.4,83 92.8,91.4 L92.8,91.4 C93.7,92.5 93.4,94.2 92.3,95 C91.9,95.3 91.5,95.5 91,95.5 L91,95.5 C90.5,95.6 90,95.6 89.5,95.6 C89.5,95.5 89.4,95.5 89.4,95.4 L89.4,95.4 C89.3,95.3 89.3,95.2 89.2,95.1 C83.9,85.8 77.9,74.9 73.5,61.6 C71.4,55.3 68.8,44.4 69.1,34.9 C69.4,25.4 65.7,27.1 57.8,28.6 C54.6,29.2 52,23.7 49.9,12.1 C49.6,10.5 48.3,9.4 46.7,9.4 L46.7,9.4 L5.8,8.9 L5.8,8.9 Z" id="Combined-Shape_1_" fill="#D9EBFF" fill-rule="nonzero"></path>
                    <g id="face" transform="translate(32.566124, 46.937395) rotate(5.000000) translate(-32.566124, -46.937395) translate(10.566124, 35.937395)">
                        <path d="M5.5,8.6 L6.2,11.8" id="Line_1_" stroke="#535A80" stroke-width="3.3"></path>
                        <path d="M39.5,7.5 L40.2,10.7" id="Line-Copy-3" stroke="#535A80" stroke-width="3.3"></path>
                        <path d="M43.9,3.6 C41.6,1.2 39.1,1 36.4,2.9" id="Path-5-Copy" stroke="#C8C8CC" stroke-width="2.2"></path>
                        <path d="M0.8,2.9 C2.7,0.6 5.2,0.3 8.4,1.9" id="Path-6" stroke="#C8C8CC" stroke-width="2.2"></path>
                        <path d="M33,16.7 C28,22.1 21.4,22.7 13,18.4" id="Path-6_1_" stroke="#C8C8CC" stroke-width="2"></path>
                    </g>
                    <g id="Path" transform="translate(64.484691, 12.991117) rotate(-14.000000) translate(-64.484691, -12.991117) translate(53.984691, 2.991117)" stroke="#5CAEFF" stroke-width="1.1" fill="#F9F9FA" fill-rule="nonzero">
                        <path d="M20.1,20 L4.7,20 C2.5,20 0.7,18.2 0.7,15.9 L0.7,0 L20.1,20 Z" id="path-1"></path>
                    </g>
                </g>
                <g id="Group-3_1_" transform="translate(124.343514, 68.259611) scale(-1, 1) rotate(22.000000) translate(-124.343514, -68.259611) translate(93.343514, 53.259611)">
                    <path d="M61.9,11.7 C60.1,1.3 50.9,-1.8 34.3,2.2 C9.5,8.4 3.6,-0.6 0.8,0.8 C-2,2.2 4.5,10.2 6.9,11.3 C9.3,12.4 3.8,10.6 6.1,15 C7.6,17.9 10.7,20.1 15.5,21.5 C13.6,23.3 16.7,25.4 24.5,27.7 C32.3,30 38.2,30 42.1,27.7 C41.5,29.3 42.8,29.8 46.1,29.4 C49.4,28.9 52.3,27.8 54.9,26 C57.5,24.3 59.3,22.2 60.4,19.7 C61.5,17.2 62.1,14.6 61.9,11.7 Z" id="Path-12_1_" fill="#59ACFF" fill-rule="nonzero"></path>
                    <path d="M60,13.3 C59.5,7.2 56.3,3.6 50.4,2.5 C46.3,1.7 41.5,2.3 27.9,5.2 C9.1,9.2 8.8817842e-16,-2.9 3.3,5.2 C6.6,13.3 16.8,11.7 19,12.2 C21.2,12.7 14.6,13 13,13 C8.6,13 8.4,12.9 7.9,14 C7.4,15.1 10.8,19.6 19.3,20.5 C21.6,20.7 25.1,21.2 28.6,21.2 C34.1,21.2 40,18.7 40.2,19.1 C40.4,19.5 33.9,21.6 28.6,22.1 C24.6,22.5 20.5,21.9 18.6,22.1 C14.3,22.5 23.3,27.4 32.2,28 C41.1,28.6 42.5,25.6 43.7,25.4 C44.9,25.2 41.1,27.4 43,28 C44.8,28.5 50.9,27.5 55.5,23.3 C58.5,20.4 60,17.1 60,13.3 Z" id="Path-13_1_" fill="#FFFFFF" fill-rule="nonzero"></path>
                    <path d="M9.4,14.4 C13.1,17.7 18.4,19.4 25.3,19.5 C31.9,19.6 37.2,18.7 41.1,16.7" id="Line_2_" stroke="#D9EBFF" stroke-width="3.3" stroke-linecap="round" stroke-linejoin="round"></path>
                </g>
            </g>
        </g>
    </g>
</svg>