<?xml version="1.0" encoding="utf-8"?>
<!-- Generator: Adobe Illustrator 21.1.0, SVG Export Plug-In . SVG Version: 6.00 Build 0)  -->
<svg version="1.1" id="圖層_1" xmlns="http://www.w3.org/2000/svg" xmlns:xlink="http://www.w3.org/1999/xlink" x="0px" y="0px"
	 viewBox="0 0 283 196"  xml:space="preserve">
<style type="text/css">
	.st0{fill:none;}
	.st1{fill:#D9EBFF;}
	.st2{fill:#FFFFFF;}
	.st3{fill:#F9F9FA;}
	.st4{fill:#59ACFF;}
	.st5{fill:none;stroke:#D9EBFF;stroke-width:3.3;stroke-linecap:round;stroke-linejoin:round;}
	.st6{fill:#F9F9FA;stroke:#59ACFF;stroke-width:2;stroke-linecap:round;stroke-linejoin:round;}
	.st7{fill:none;stroke:#535A80;stroke-width:3.3;}
	.st8{fill:none;stroke:#C8C8CC;stroke-width:2.2;}
	.st9{fill:none;stroke:#C8C8CC;stroke-width:2;}
	.st10{fill:#F9F9FA;stroke:#5CAEFF;stroke-width:1.1;}
</style>
<title>illustration_01</title>
<desc>Created with Sketch.</desc>
<g id="Page-1">
	<g id="Download-File" transform="translate(-579.000000, -430.000000)">
		<g id="illustration_01" transform="translate(579.000000, 404.000000)">
			<g id="Group-2" transform="translate(0.000000, 26.000000)">
				<g id="about-rights">
					<path id="Shape" class="st0" d="M103.1,83.3l0.2,4.6c0.4,2,1.3,3.9,2.5,5.6c1.4-0.4,2.8-0.8,4.3-1l0.8-0.5
						c0.2-0.6,0.4-1.1,0.6-1.6c0-5.1,1.3-10.2,3.7-14.7c-2.1-12.5-1.9-25.2,0.5-37.6l-9.3,6.8c-0.1,1.9,0,6.6,0,10.6
						c0.2,12.4,0.1,15-0.5,16.2c-1.8,2.5-3.8,4.8-5.9,6.9C101.8,79.4,103,81.2,103.1,83.3L103.1,83.3z"/>
					<path id="Shape_1_" class="st0" d="M124.1,16l-15.2,10.8v9.8c2.2-1.6,5.1-3.7,8.9-6.5c1.2-3.9,2.6-7.6,4.4-11.3
						C122.6,17.8,123.3,16.8,124.1,16L124.1,16z"/>
					<path id="Shape_2_" class="st0" d="M71.1,8.9C71,8.5,67.9,1,60.4,2c-2.3,0.3-3.9,1.2-4.7,2.7c-0.2,0.4-0.4,0.8-0.5,1.3
						c1.2-1.4,2.9-2.3,4.7-2.4c8.1-1.1,11.2,7.2,11.2,7.2c0.1-0.6,0.4-1.2,0.7-1.7c-0.1,0.1-0.1,0.1-0.2,0.1
						C71.4,9.2,71.1,9.1,71.1,8.9z"/>
					<path id="Shape_3_" class="st1" d="M221.8,112.6c0.6,0,1-0.4,1-1s-0.4-1-1-1h-27.4c-0.3,0.7-0.6,1.3-1,2H221.8z"/>
					<path id="Shape_4_" class="st1" d="M212.4,106.2c0.3,0,0.5-0.2,0.5-0.5c0-0.3-0.2-0.5-0.5-0.5h-16.1c-0.1,0.3-0.2,0.7-0.3,1
						H212.4z"/>
					<path id="Shape_5_" class="st1" d="M239.8,117h-48.6c0,0.1,0,0.2-0.1,0.3l0.3,0.7h48.4c0.3,0,0.5-0.2,0.5-0.5
						S240.1,117,239.8,117z"/>
					<path id="Shape_6_" class="st1" d="M139.2,151.5H78.5c-0.6,0-1,0.4-1,1c0,0.6,0.4,1,1,1h60.4c0.2-0.4,0.3-0.7,0.5-1.1
						C139.3,152.1,139.3,151.8,139.2,151.5z"/>
					<path id="Shape_7_" class="st1" d="M226.8,153.5c0.6,0,1-0.4,1-1c0-0.6-0.4-1-1-1h-64.2c-0.2,0.7-0.4,1.4-0.6,2H226.8z"/>
					<path id="Shape_8_" class="st2" d="M115.8,93.8c0,0.1-0.1,0.2-0.1,0.4l0.2-0.1L115.8,93.8z"/>
					<path id="Shape_9_" class="st1" d="M55.7,152.5c0-0.6-0.4-1-1-1H27.1c-0.6,0-1,0.4-1,1c0,0.6,0.4,1,1,1h27.7
						C55.3,153.5,55.7,153,55.7,152.5z"/>
					<path id="Shape_10_" class="st1" d="M31.1,68.3h49.9c0.6,0,1-0.4,1-1c0-0.6-0.4-1-1-1H31.1c-0.6,0-1,0.4-1,1
						C30.1,67.8,30.6,68.3,31.1,68.3z"/>
					<path id="Shape_11_" class="st1" d="M48.9,62c-0.3,0-0.5,0.2-0.5,0.5s0.2,0.5,0.5,0.5h24c0.3,0,0.5-0.2,0.5-0.5
						S73.2,62,72.9,62H48.9z"/>
					<polygon id="Shape_12_" class="st3" points="116.6,103.8 117.1,103.7 117.1,103.7 					"/>
					<path id="Shape_13_" class="st2" d="M173.1,33.6c-0.1,1.9,0.1,3.9,0.5,5.7h0.9C173.9,37.5,173.4,35.6,173.1,33.6L173.1,33.6z"
						/>
					<path id="Shape_14_" class="st1" d="M205.8,40.1c0.1-0.1,0.1-0.3,0-0.5c0-0.1-2.2-5.1-1.6-9.9c0.1-1.3,0.5-2.6,1.2-3.7
						c1.5-2.7,4.4-4.4,8.7-5c13.9-1.9,19.6,12.5,19.7,12.6c0.1,0.2,0.3,0.3,0.5,0.3c0.2,0,0.4-0.2,0.4-0.4c0.1-0.3,1.7-8.1,9.8-6.5
						c8,1.5,14.3,13.6,14.4,13.8c0.1,0.2,0.3,0.3,0.5,0.3h21.3c0.3,0,0.5-0.2,0.5-0.5c0-0.3-0.2-0.5-0.5-0.5h-21
						c-1-1.9-6.9-12.5-15-14c-6.9-1.3-9.6,3.6-10.5,6c-1.8-3.6-8-13.7-20.2-12c-4.6,0.6-7.8,2.5-9.4,5.5c-1.3,2.5-1.7,5.3-1.2,8.1
						c0.2,2,0.7,3.9,1.4,5.7h-23.7c-0.3,0-0.5,0.2-0.5,0.5s0.2,0.5,0.5,0.5h24.4C205.5,40.3,205.6,40.3,205.8,40.1z"/>
					<path id="Shape_15_" class="st2" d="M281.2,43.3h-23.3c-2-3.8-7.3-12.2-13.8-13.4c-8.6-1.6-10.3,6.9-10.3,6.9
						s-5.7-14.9-20.2-12.9c-5.3,0.7-8,3-9.4,5.8c-0.6,4.8,1.6,9.9,1.6,9.9c0.1,0.2,0.1,0.3,0,0.5c-0.1,0.1-0.3,0.2-0.4,0.2h-1.4
						c0.3,1,0.6,1.9,1,2.8h-24.5l5.9,0.1h-5.9c-0.6,0-1,0.4-1,1s0.4,1,1,1h100.7c0.6,0,1-0.4,1-1S281.8,43.3,281.2,43.3L281.2,43.3z
						"/>
					<path id="Shape_16_" class="st2" d="M54.2,9c-0.1,0.9,0,1.8,0.2,2.7h0.5C54.5,10.9,54.3,9.9,54.2,9z"/>
					<path id="Shape_17_" class="st1" d="M16,12.5c0.1-0.2,0.1-0.3,0-0.5c-0.8-1.9-1.1-4-0.8-6.1c0.1-0.5,0.3-0.9,0.5-1.3
						c0.8-1.5,2.4-2.4,4.7-2.7C28,1,31,8.5,31.1,8.8c0.1,0.2,0.3,0.3,0.5,0.3c0.2,0,0.4-0.2,0.4-0.4V8.7c0.2-1.1,0.9-2.2,1.8-2.8
						s2.2-0.9,3.3-0.6c4.4,0.8,7.8,6.9,7.9,7c0.1,0.2,0.3,0.3,0.4,0.3h11.8c0.3,0,0.5-0.2,0.5-0.5c0-0.3-0.2-0.5-0.5-0.5H45.8
						c-0.7-1.2-4-6.4-8.4-7.2c-2.5-0.6-5,0.7-5.9,3C30.2,5.1,26.7,0.1,20.2,1c-2.6,0.4-4.4,1.4-5.4,3.2c-0.7,1.5-1,3.2-0.7,4.9
						c0.1,0.9,0.3,1.9,0.7,2.7H2c-0.3,0-0.5,0.2-0.5,0.5c0,0.3,0.2,0.5,0.5,0.5h13.6C15.7,12.8,15.9,12.7,16,12.5z"/>
					<path id="Shape_18_" class="st2" d="M1.8,16.5h56c0.6,0,1-0.4,1-1c0-0.6-0.4-1-1-1H44.6c-1.1-2.1-4-6.8-7.7-7.6
						c-1.8-0.5-3.8,0.2-4.8,1.8v0.1C32,8.9,32,9,31.8,9.1c-0.3,0.5-0.5,1.1-0.7,1.7c0,0-3.1-8.3-11.2-7.2c-1.8,0.1-3.5,1-4.7,2.4
						c-0.3,2.1,0,4.2,0.8,6.1c0.1,0.2,0.1,0.3,0,0.5c-0.1,0.1-0.3,0.2-0.4,0.2h-1c0.1,0.5,0.3,1.1,0.6,1.6H1.5l7.2,0.1H1.8
						c-0.6,0-1,0.4-1,1C0.8,16,1.2,16.4,1.8,16.5L1.8,16.5z"/>
					<path id="Shape_19_" class="st1" d="M113.8,102.6c0.2-0.7,0.6-1.3,1.1-1.8h-0.1l-0.7,0.9C113.9,101.9,113.8,102.3,113.8,102.6
						L113.8,102.6z"/>
					<ellipse id="Oval" class="st1" cx="144.3" cy="186.3" rx="50.3" ry="9.3"/>
				</g>
			</g>

				<g id="Group-4" transform="translate(150.884322, 101.489419) rotate(-44.000000) translate(-150.884322, -101.489419) translate(71.384322, 37.989419)">

					<g id="Group-3" transform="translate(19.920167, 38.320851) rotate(72.000000) translate(-19.920167, -38.320851) translate(-5.079833, 26.320851)">
					<path id="Path-12" class="st4" d="M49.4,9.6C48,1.4,40.7-1.1,27.6,2.1C7.9,6.9,3.3-0.2,1.1,1S4,8.4,5.9,9.3
						c1.9,0.9-2.5-0.5-0.7,2.9c1.2,2.3,3.7,4,7.4,5.1c-1.5,1.4,0.9,3.1,7.2,4.9s10.9,1.8,13.9,0c-0.5,1.2,0.6,1.7,3.2,1.3
						c2.6-0.4,4.9-1.3,7-2.7c2-1.4,3.5-3,4.4-5S49.5,11.8,49.4,9.6z"/>
					<path id="Path-13" class="st2" d="M47.7,10.7c-0.4-4.7-2.9-7.5-7.5-8.4c-3.2-0.6-6.9-0.2-17.6,2.1C8.1,7.6,0.9-1.9,3.5,4.4
						S14,9.5,15.8,9.9c1.8,0.3-3.4,0.6-4.7,0.6c-3.4,0-3.6-0.1-4,0.8c-0.4,0.8,2.3,4.4,8.9,5c1.8,0.2,4.5,0.6,7.3,0.6
						c4.3,0,8.9-1.9,9.1-1.6c0.2,0.3-4.9,1.9-9.1,2.3c-3.1,0.3-6.3-0.1-7.8,0c-3.3,0.3,3.7,4.1,10.6,4.6c6.9,0.5,8-1.9,9-2
						c0.9-0.1-2,1.6-0.6,2c1.4,0.4,6.2-0.4,9.8-3.7C46.6,16.3,47.7,13.7,47.7,10.7z"/>
					<path id="Line" class="st5" d="M8.5,11.9c2.7,2.1,6.9,3.2,12.4,3.3c5.3,0.1,9.7-0.8,13.2-2.7"/>
				</g>

					<g id="illustration" transform="translate(73.367530, 63.335344) rotate(19.000000) translate(-73.367530, -63.335344) translate(25.867530, 13.335344)">
					<path id="Combined-Shape" class="st6" d="M52.1,5.1L9.2,4l0,0c-1.3,0-2.5,0.7-3.1,1.9l0,0c-6.3,13.2-7.4,29.2-3.3,48
						C7,73.1,13.3,87.1,21.5,96c0.4,0.4,0.8,0.7,1.4,0.9l0,0c3.1,1,9.5,1.8,19.3,2.3c10,0.5,26.3-0.4,48.9-2.8
						c0.5-0.1,1-0.2,1.4-0.5c1.5-1,2-3,1-4.6l0,0C86.7,80.6,81.2,68.7,77,55.4c-3.5-10.9-3.5-22.5-0.2-34.8L52.1,5.1z"/>
					<path id="Combined-Shape_1_" class="st1" d="M5.8,8.9C6,8.2,6.3,7.4,6.6,6.7l0,0c0.5-1.3,1.8-2.1,3.2-2.1l0,0L51.5,6l24.1,15.1
						c-3.1,9.9-2.9,21.1,0.6,33.4C80.9,70.6,86.4,83,92.8,91.4l0,0c0.9,1.1,0.6,2.8-0.5,3.6c-0.4,0.3-0.8,0.5-1.3,0.5l0,0
						c-0.5,0.1-1,0.1-1.5,0.1c0-0.1-0.1-0.1-0.1-0.2l0,0c-0.1-0.1-0.1-0.2-0.2-0.3c-5.3-9.3-11.3-20.2-15.7-33.5
						c-2.1-6.3-4.7-17.2-4.4-26.7c0.3-9.5-3.4-7.8-11.3-6.3c-3.2,0.6-5.8-4.9-7.9-16.5c-0.3-1.6-1.6-2.7-3.2-2.7l0,0L5.8,8.9
						L5.8,8.9z"/>

						<g id="face" transform="translate(33.064221, 46.980973) rotate(5.000000) translate(-33.064221, -46.980973) translate(10.564221, 35.980973)">
						<path id="Line_1_" class="st7" d="M5.5,8.6l0.7,3.2"/>
						<path id="Line-Copy-3" class="st7" d="M39.5,7.5l0.7,3.2"/>
						<path id="Path-5-Copy" class="st8" d="M43.9,3.6c-2.3-2.4-4.8-2.6-7.5-0.7"/>
						<path id="Path-6" class="st8" d="M0.8,2.9c1.9-2.3,4.4-2.6,7.6-1"/>
						<path id="Path-6_1_" class="st9" d="M33,16.7c-5,5.4-11.6,6-20,1.7"/>
					</g>

						<g id="Path" transform="translate(64.605652, 13.476265) rotate(-14.000000) translate(-64.605652, -13.476265) translate(54.105652, 2.976265)">
						<path id="path-1" class="st10" d="M20.1,20L4.7,20c-2.2,0-4-1.8-4-4.1l0-15.9L20.1,20z"/>
					</g>
				</g>

					<g id="Group-3_1_" transform="translate(124.343514, 68.259611) scale(-1, 1) rotate(22.000000) translate(-124.343514, -68.259611) translate(93.343514, 53.259611)">
					<path id="Path-12_1_" class="st4" d="M61.9,11.7c-1.8-10.4-11-13.5-27.6-9.5C9.5,8.4,3.6-0.6,0.8,0.8s3.7,9.4,6.1,10.5
						s-3.1-0.7-0.8,3.7c1.5,2.9,4.6,5.1,9.4,6.5c-1.9,1.8,1.2,3.9,9,6.2s13.7,2.3,17.6,0c-0.6,1.6,0.7,2.1,4,1.7
						c3.3-0.5,6.2-1.6,8.8-3.4c2.6-1.7,4.4-3.8,5.5-6.3S62.1,14.6,61.9,11.7z"/>
					<path id="Path-13_1_" class="st2" d="M60,13.3c-0.5-6.1-3.7-9.7-9.6-10.8c-4.1-0.8-8.9-0.2-22.5,2.7C9.1,9.2,0-2.9,3.3,5.2
						s13.5,6.5,15.7,7s-4.4,0.8-6,0.8c-4.4,0-4.6-0.1-5.1,1s2.9,5.6,11.4,6.5c2.3,0.2,5.8,0.7,9.3,0.7c5.5,0,11.4-2.5,11.6-2.1
						c0.2,0.4-6.3,2.5-11.6,3c-4,0.4-8.1-0.2-10,0c-4.3,0.4,4.7,5.3,13.6,5.9c8.9,0.6,10.3-2.4,11.5-2.6c1.2-0.2-2.6,2-0.7,2.6
						c1.8,0.5,7.9-0.5,12.5-4.7C58.5,20.4,60,17.1,60,13.3z"/>
					<path id="Line_2_" class="st5" d="M9.4,14.4c3.7,3.3,9,5,15.9,5.1c6.6,0.1,11.9-0.8,15.8-2.8"/>
				</g>
			</g>
		</g>
	</g>
</g>
</svg>
