<?xml version="1.0" encoding="UTF-8" standalone="no"?>
<svg width="325px" height="231px" viewBox="0 0 325 231" version="1.1" xmlns="http://www.w3.org/2000/svg" xmlns:xlink="http://www.w3.org/1999/xlink">
    <!-- Generator: Sketch 45.1 (43504) - http://www.bohemiancoding.com/sketch -->
    <title>illustration</title>
    <desc>Created with Sketch.</desc>
    <defs></defs>
    <g id="Page-1" stroke="none" stroke-width="1" fill="none" fill-rule="evenodd">
        <g id="error-page" transform="translate(-558.000000, -385.000000)">
            <g id="Group" transform="translate(558.000000, 370.000000)">
                <g id="illustration">
                    <g id="error-session-restore" transform="translate(0.000000, 21.000000)">
                        <path d="M260.38,33.18 C260.25,32.84 257.1,24.97 249.23,26.03 C246.84,26.36 245.23,27.29 244.35,28.81 C244.111723,29.2463732 243.93664,29.7143814 243.83,30.2 C245.041808,28.7248507 246.814238,27.8223249 248.72,27.71 C257.09,26.57 260.4,35.17 260.4,35.17 C260.552835,34.543462 260.798914,33.9434348 261.13,33.39 C261.009136,33.4906008 260.84666,33.5256193 260.695086,33.4837371 C260.543512,33.4418549 260.422066,33.3283842 260.37,33.18 L260.38,33.18 Z" id="Shape"></path>
                        <path d="M271.38,57.08 C271.59,56.77 271.9,56.21 271.59,55.91 C271.334533,55.7185638 271.018346,55.6261945 270.7,55.65 C269.955456,55.6728912 269.2375,55.9320558 268.65,56.39 C267.43,57.31 266.31,58.78 266.55,59.55 C268.72,59 270.65,58.14 271.38,57.08 Z" id="Shape"></path>
                        <path d="M265.87,87.06 C266.08,86.75 266.39,86.19 266.08,85.89 C265.824533,85.6985638 265.508346,85.6061945 265.19,85.63 C264.445456,85.6528912 263.7275,85.9120558 263.14,86.37 C261.92,87.29 260.8,88.76 261.04,89.53 C263.21,89 265.14,88.12 265.87,87.06 Z" id="Shape"></path>
                        <path d="M109.06,14.88 C108.921459,16.9356605 109.103638,19.0003604 109.6,21 L110.6,21 C109.836224,19.0313219 109.318961,16.9757068 109.06,14.88 L109.06,14.88 Z" id="Shape" fill="#FFFFFF" fill-rule="nonzero"></path>
                        <path d="M111.73,21.72 C111.811821,21.5704604 111.811821,21.3895396 111.73,21.24 C111.73,21.17 109.42,15.96 110.02,10.96 C110.15747,9.60544751 110.558315,8.29081256 111.2,7.09 C112.79,4.24 115.84,2.49 120.27,1.88 C134.74,-0.12 140.68,14.88 140.74,14.98 C140.822184,15.186339 141.028456,15.3157647 141.25,15.3 C141.472463,15.2820442 141.656086,15.1188236 141.7,14.9 C141.77,14.56 143.49,6.48 151.85,8.08 C160.21,9.68 166.78,22.26 166.85,22.39 C166.93692,22.5578112 167.111028,22.6622761 167.3,22.66 L189.42,22.66 C189.696142,22.66 189.92,22.4361424 189.92,22.16 C189.92,21.8838576 189.696142,21.66 189.42,21.66 L167.62,21.66 C166.62,19.72 160.41,8.66 152.07,7.09 C144.91,5.73 142.07,10.88 141.15,13.4 C139.32,9.73 132.89,-0.85 120.15,0.89 C115.39,1.54 112.09,3.46 110.34,6.6 C109.05659,9.15779928 108.598859,12.0509372 109.03,14.88 C109.288961,16.9757068 109.806224,19.0313219 110.57,21 L85.9,21 C85.6238576,21 85.4,21.2238576 85.4,21.5 C85.4,21.7761424 85.6238576,22 85.9,22 L111.31,22 C111.490295,21.9893722 111.650845,21.8823387 111.73,21.72 L111.73,21.72 Z" id="Shape" fill="#D9ECFF" fill-rule="nonzero"></path>
                        <path d="M85.46,27.09 L190.18,27.09 C190.732285,27.09 191.18,26.6422847 191.18,26.09 C191.18,25.5377153 190.732285,25.09 190.18,25.09 L165.94,25.09 C163.83,21.19 158.38,12.37 151.54,11.09 C142.54,9.38 140.8,18.31 140.8,18.31 C140.8,18.31 134.85,2.84 119.8,4.89 C114.25,5.65 111.4,8.07 110.05,10.99 C109.45,15.99 111.73,21.21 111.76,21.27 C111.827589,21.4248619 111.81239,21.6033839 111.719596,21.744592 C111.626803,21.8858 111.468968,21.9705893 111.3,21.97 L109.85,21.97 C110.115158,22.9914486 110.449257,23.9937465 110.85,24.97 L85.47,24.97 L93.65,25.13 L85.46,25.13 C84.9077153,25.13 84.46,25.5777153 84.46,26.13 C84.46,26.6822847 84.9077153,27.13 85.46,27.13 L85.46,27.09 Z" id="Shape" fill="#FFFFFF" fill-rule="nonzero"></path>
                        <path d="M229.64,135.12 C230.192285,135.12 230.64,134.672285 230.64,134.12 C230.64,133.567715 230.192285,133.12 229.64,133.12 C226.176767,133.210914 222.761707,132.293746 219.81,130.48 C219.776667,131.22 219.74,131.956667 219.7,132.69 C222.733794,134.380994 226.168221,135.220597 229.64,135.12 L229.64,135.12 Z" id="Shape" fill="#D9ECFF" fill-rule="nonzero"></path>
                        <g id="Group-12" transform="translate(0.000000, 54.000000)" fill-rule="nonzero" fill="#D9ECFF">
                            <path d="M18.4527368,15.47 C21.6438175,15.5591249 24.7884143,14.5382302 27.5086316,12.53 C29.9816324,10.6847401 32.8483357,9.74646251 35.7578947,9.83 C38.6702658,9.74450732 41.5400884,10.68286 44.0154737,12.53 C49.6132403,16.4476377 56.5294965,16.4476377 62.1272632,12.53 C67.2323758,8.93488653 73.55394,8.93488653 78.6590526,12.53 C84.2572886,16.4455453 91.1726061,16.4455453 96.7708421,12.53 C101.875955,8.93488653 108.197519,8.93488653 113.302632,12.53 C116.023038,14.5377033 119.167503,15.5585552 122.358526,15.47 C122.817795,15.47 123.190105,15.0222847 123.190105,14.47 C123.190105,13.9177153 122.817795,13.47 122.358526,13.47 C119.443343,13.55745 116.570401,12.6190223 114.092632,10.77 C108.494396,6.85445473 101.579078,6.85445473 95.9808421,10.77 C90.8757295,14.3651135 84.5541653,14.3651135 79.4490526,10.77 C73.851286,6.85236226 66.9350298,6.85236226 61.3372632,10.77 C56.2347235,14.3633274 49.9163291,14.3633274 44.8137895,10.77 C42.0937614,8.76124228 38.9490326,7.74030478 35.7578947,7.83 C32.5668141,7.74087509 29.4222173,8.76176977 26.702,10.77 C24.2242306,12.6190223 21.3512881,13.55745 18.4361053,13.47 C15.5209224,13.55745 12.6479799,12.6190223 10.1702105,10.77 C7.44999327,8.76176977 4.30539642,7.74087509 1.11431579,7.83 C0.655047419,7.83 0.282736842,8.27771525 0.282736842,8.83 C0.282736842,9.38228475 0.655047419,9.83 1.11431579,9.83 C4.02949861,9.74255001 6.90244116,10.6809777 9.38021053,12.53 C12.1052102,14.5419585 15.2560332,15.5629993 18.4527368,15.47 L18.4527368,15.47 Z" id="Shape"></path>
                            <path d="M88.0974737,6.63 C85.115123,6.7194274 82.1759033,5.76021078 79.6403158,3.87 C74.1669921,0.0339077325 67.4010079,0.0339077325 61.9276842,3.87 C56.7011633,7.54694193 50.2315736,7.54694193 45.0050526,3.87 C42.3441488,1.9083402 39.2690074,0.911802144 36.1487368,1 C35.9191027,1 35.7329474,1.22385763 35.7329474,1.5 C35.7329474,1.77614237 35.9191027,2 36.1487368,2 C39.1338405,1.90919832 42.076044,2.86844547 44.6142105,4.76 C50.0875342,8.59609227 56.8535184,8.59609227 62.3268421,4.76 C67.5533631,1.08305807 74.0229527,1.08305807 79.2494737,4.76 C84.7227974,8.59609227 91.4887816,8.59609227 96.9621053,4.76 C102.189102,1.08517088 108.65774,1.08517088 113.884737,4.76 C119.360633,8.59787847 126.129788,8.59787847 131.605684,4.76 C136.834778,1.081272 143.307538,1.081272 148.536632,4.76 C151.196837,6.72463987 154.271907,7.72462712 157.392947,7.64 C157.622582,7.64 157.808737,7.41614237 157.808737,7.14 C157.808737,6.86385763 157.622582,6.64 157.392947,6.64 C154.407902,6.73021887 151.465835,5.7710161 148.927474,3.88 C143.451577,0.0421215342 136.682423,0.0421215342 131.206526,3.88 C125.979529,7.55482912 119.510892,7.55482912 114.283895,3.88 C108.8101,0.0460058246 102.045058,0.0460058246 96.5712632,3.88 C94.0298133,5.76992999 91.0845517,6.72575613 88.0974737,6.63 Z" id="Shape"></path>
                        </g>
                        <g id="Group-11" transform="translate(12.000000, 84.000000)" fill-rule="nonzero" fill="#D9ECFF">
                            <path d="M272.78,7 C272.79589,7.26436194 273.015161,7.47047711 273.28,7.47 L273.28,7.47 C275.086553,7.36608535 276.880286,7.10171059 278.64,6.68 C279.52,7.39 281.28,7.6 283.98,7.3 C290.24,6.6 293.55,4.04 293.69,3.93 C293.908152,3.75879173 293.946208,3.44315248 293.775,3.225 C293.603792,3.00684752 293.288152,2.96879173 293.07,3.14 C290.322647,4.95995687 287.155808,6.0476969 283.87,6.3 C282.63167,6.50389721 281.36833,6.50389721 280.13,6.3 C282.13,5.68 283.89,4.81 284.68,3.67 C285.68,2.3 285.06,1.49 284.77,1.21 C283.89,0.36 281.95,0.55 280.53,1.61 C279.46,2.41 277.64,4.28 278.05,5.81 C276.46476,6.16879338 274.852629,6.39623098 273.23,6.49 C272.969669,6.51608174 272.773464,6.73844775 272.78,7 L272.78,7 Z M281.15,2.39 C281.7375,1.93205585 282.455456,1.67289121 283.2,1.65 C283.518346,1.62619445 283.834533,1.71856378 284.09,1.91 C284.4,2.21 284.09,2.77 283.88,3.08 C283.15,4.14 281.22,4.97 279.05,5.55 C278.81,4.76 279.92,3.29 281.15,2.37 L281.15,2.39 Z" id="Shape"></path>
                            <path d="M248.85,13 C252.603287,13.0857662 256.301474,12.0856933 259.5,10.12 C262.549358,8.23032717 266.083699,7.27115493 269.67,7.36 C269.946142,7.36 270.17,7.13614237 270.17,6.86 C270.17,6.58385763 269.946142,6.36 269.67,6.36 C265.911015,6.26792988 262.205574,7.26461365 259,9.23 C255.957925,11.1204971 252.430684,12.0831037 248.85,12 C246.339947,12.0694933 243.843122,11.6130477 241.52,10.66 C241.52,11.02 241.52,11.39 241.52,11.75 C243.859143,12.6381025 246.348722,13.0626554 248.85,13 Z" id="Shape"></path>
                            <path d="M301.16,25 C294.877465,28.673043 287.102535,28.673043 280.82,25 C277.621474,23.0343067 273.923287,22.0342338 270.17,22.12 C269.893858,22.12 269.67,22.3438576 269.67,22.62 C269.67,22.8961424 269.893858,23.12 270.17,23.12 C273.756441,23.0299896 277.29111,23.9892507 280.34,25.88 C286.921277,29.7181928 295.058723,29.7181928 301.64,25.88 C304.68889,23.9892507 308.223559,23.0299896 311.81,23.12 C312.086142,23.12 312.31,22.8961424 312.31,22.62 C312.31,22.3438576 312.086142,22.12 311.81,22.12 C308.056713,22.0342338 304.358526,23.0343067 301.16,25 L301.16,25 Z" id="Shape"></path>
                            <path d="M54.42,46.42 C51.1490802,44.4112423 47.3674443,43.3903048 43.53,43.48 C39.6925557,43.3903048 35.9109198,44.4112423 32.64,46.42 C29.6632709,48.26714 26.2122184,49.2054927 22.71,49.12 C19.2077816,49.2054927 15.7567291,48.26714 12.78,46.42 C9.50908016,44.4112423 5.72744432,43.3903048 1.89,43.48 C1.33771525,43.48 0.89,43.9277153 0.89,44.48 C0.89,45.0322847 1.33771525,45.48 1.89,45.48 C5.3922184,45.3945073 8.84327086,46.33286 11.82,48.18 C15.0909198,50.1887577 18.8725557,51.2096952 22.71,51.12 C26.5474443,51.2096952 30.3290802,50.1887577 33.6,48.18 C39.7348141,44.582431 47.3351859,44.582431 53.47,48.18 C55.3373398,49.2875707 57.3596564,50.1099795 59.47,50.62 C59.47,49.9533333 59.47,49.2633333 59.47,48.55 C57.7003514,48.0650843 56.0023796,47.3489101 54.42,46.42 L54.42,46.42 Z" id="Shape"></path>
                            <path d="M249.52,21.19 C253.357375,21.2791249 257.138853,20.2582302 260.41,18.25 C266.54539,14.6545531 274.14461,14.6545531 280.28,18.25 C287.008962,22.163759 295.321038,22.163759 302.05,18.25 C305.029596,16.4009777 308.4844,15.46255 311.99,15.55 C312.542285,15.55 312.99,15.1022847 312.99,14.55 C312.99,13.9977153 312.542285,13.55 311.99,13.55 C308.152625,13.4608751 304.371147,14.4817698 301.1,16.49 C294.96461,20.0854469 287.36539,20.0854469 281.23,16.49 C274.501038,12.576241 266.188962,12.576241 259.46,16.49 C256.480404,18.3390223 253.0256,19.27745 249.52,19.19 C246.283422,19.2861678 243.083977,18.4793815 240.28,16.86 C239.975906,17.4569457 239.624798,18.0287499 239.23,18.57 C242.350608,20.3808189 245.913386,21.2879597 249.52,21.19 Z" id="Shape"></path>
                        </g>
                        <path d="M242.76,33.28 C242.691452,34.2578989 242.758758,35.2405798 242.96,36.2 L243.47,36.2 C243.133116,35.2538015 242.895179,34.2752432 242.76,33.28 L242.76,33.28 Z" id="Shape" fill="#FFFFFF" fill-rule="nonzero"></path>
                        <path d="M274.63,37 C274.711821,36.8504604 274.711821,36.6695396 274.63,36.52 C273.782172,34.538981 273.498391,32.3621697 273.81,30.23 C273.91664,29.7443814 274.091723,29.2763732 274.33,28.84 C275.18,27.32 276.82,26.38 279.21,26.06 C287.08,25 290.21,32.87 290.36,33.21 C290.423651,33.447733 290.647995,33.6060998 290.893318,33.586474 C291.138641,33.5668481 291.334954,33.3748287 291.36,33.13 L291.36,33.13 C291.43,32.82 292.36,28.7 296.74,29.53 C301.36,30.41 304.89,36.74 304.93,36.81 C305.017949,36.9707402 305.186773,37.0705001 305.37,37.07 L317.67,37.07 C317.946142,37.07 318.17,36.8461424 318.17,36.57 C318.17,36.2938576 317.946142,36.07 317.67,36.07 L305.67,36.07 C304.92,34.8 301.51,29.42 296.94,28.55 C294.377478,27.9009676 291.735791,29.2777422 290.8,31.75 C289.52,29.38 285.89,24.17 279.13,25.1 C276.41,25.47 274.52,26.58 273.51,28.39 C272.743663,29.9195049 272.487812,31.6543894 272.78,33.34 C272.915179,34.3352432 273.153116,35.3138015 273.49,36.26 L260.09,36.26 C259.813858,36.26 259.59,36.4838576 259.59,36.76 C259.59,37.0361424 259.813858,37.26 260.09,37.26 L274.22,37.26 C274.392396,37.2499506 274.547402,37.1516537 274.63,37 L274.63,37 Z" id="Shape" fill="#D9ECFF" fill-rule="nonzero"></path>
                        <path d="M259.9,41.06 L318.13,41.06 C318.682285,41.06 319.13,40.6122847 319.13,40.06 C319.13,39.5077153 318.682285,39.06 318.13,39.06 L304.44,39.06 C303.31,36.95 300.25,31.9 296.38,31.17 C294.474168,30.6736901 292.463823,31.4456624 291.38,33.09 L291.38,33.09 C291.351588,33.2081174 291.280312,33.3114689 291.18,33.38 C290.848914,33.9334348 290.602835,34.533462 290.45,35.16 C290.45,35.16 287.14,26.56 278.77,27.7 C276.864238,27.8123249 275.091808,28.7148507 273.88,30.19 C273.568391,32.3221697 273.852172,34.498981 274.7,36.48 C274.767589,36.6348619 274.75239,36.8133839 274.659596,36.954592 C274.566803,37.0958 274.408968,37.1805893 274.24,37.18 L273.24,37.18 C273.391957,37.7489342 273.582395,38.3068859 273.81,38.85 L259.64,38.85 L269.1,39.03 L259.9,39.03 C259.347715,39.03 258.9,39.4777153 258.9,40.03 C258.9,40.5822847 259.347715,41.03 259.9,41.03 L259.9,41.06 Z" id="Shape" fill="#FFFFFF" fill-rule="nonzero"></path>
                        <g id="Group-13" transform="translate(52.000000, 158.000000)" fill-rule="nonzero">
                            <path d="M66.49,14.41 C66.49,13.8577153 66.0422847,13.41 65.49,13.41 L1.8,13.41 C1.24771525,13.41 0.8,13.8577153 0.8,14.41 C0.8,14.9622847 1.24771525,15.41 1.8,15.41 L65.49,15.41 C66.0422847,15.41 66.49,14.9622847 66.49,14.41 Z" id="Shape" fill="#D9ECFF"></path>
                            <path d="M148.88,13.41 C148.327715,13.41 147.88,13.8577153 147.88,14.41 C147.88,14.9622847 148.327715,15.41 148.88,15.41 L170.47,15.41 C171.022285,15.41 171.47,14.9622847 171.47,14.41 C171.47,13.8577153 171.022285,13.41 170.47,13.41 L148.88,13.41 Z" id="Shape" fill="#D9ECFF"></path>
                            <path d="M64.64,62 L61.73,62 L60.8,62.87 C60.5008174,63.1500985 60.4028291,63.5843962 60.5527547,63.9658247 C60.7026804,64.3472533 61.0701666,64.5985898 61.48,64.6 L61.48,64.6 L108.22,64.38 C108.654448,64.374675 109.035748,64.0894289 109.163523,63.674161 C109.291298,63.258893 109.136307,62.8086344 108.78,62.56 L108.23,62.18 L104.69,62.18 L64.64,62 Z" id="Shape" fill="#D9ECFF"></path>
                            <path d="M150.63,57.76 C150.07,58.14 149.48,58.52 148.85,58.89 C145.165027,61.119942 141.094767,62.639506 136.85,63.37 C133.135462,63.9922794 129.376288,64.3100032 125.61,64.32 C124.42,64.32 123.5,64.32 122.89,64.25 L122.03,64.19 C121.877994,64.1739198 121.741693,64.0891924 121.66,63.96 L120.14,61.56 L117.92,58.06 L116.68,56.12 L114.23,56.24 C113.834581,56.2609045 113.488739,56.5131591 113.348046,56.8832922 C113.207352,57.2534252 113.298308,57.6717142 113.58,57.95 L122.28,66.43 C122.467867,66.6110851 122.719072,66.7115675 122.98,66.71 L123.04,66.71 L156.52,64.71 C156.934367,64.6876085 157.291849,64.4116296 157.418403,64.0164267 C157.544956,63.6212239 157.414282,63.1889252 157.09,62.93 L150.63,57.76 Z" id="Shape" fill="#D9ECFF"></path>
                            <path d="M122.48,45.25 C121,45.85 116.74,46.11 110.11,46.03 L111.85,47.77 C111.987104,47.9088697 112.030886,48.1148156 111.96213,48.2974488 C111.893374,48.4800819 111.724646,48.6060242 111.53,48.62 C111.53,48.62 110.24,48.71 108.24,48.71 C103.85,48.71 95.83,48.27 88.81,45.57 L82.47,49.71 L113.08,50.33 C113.041845,50.2233086 113.041845,50.1066914 113.08,50 C113.161828,49.8415364 113.321866,49.7386547 113.5,49.73 C117.460512,49.5103338 121.39491,48.9516225 125.26,48.06 L122.48,45.25 Z" id="Shape" fill="#FFFFFF"></path>
                            <path d="M110.34,47.68 L104.83,42.17 C103.41,42.57 97.37,43.94 92.28,40.05 C88.78,37.37 87.39,32.13 87,30.28 L75.48,35.89 C76.48,37.14 80.1,40.95 88.54,44.4 C96.98,47.85 107,47.8 110.34,47.68 Z" id="Shape" fill="#FFFFFF"></path>
                            <path d="M136.71,62.39 C143.936695,61.0666515 150.575019,57.5343641 155.71,52.28 L143.42,38.45 C142.47,39.91 139.55,43.65 132.94,46.62 C126.11,49.69 117.22,50.51 114.45,50.69 L122.45,63.22 C127.219423,63.4813081 132.0031,63.2028753 136.71,62.39 Z" id="Shape" fill="#FFFFFF"></path>
                            <path d="M96.53,24.51 L99.53,17.27 C103.606766,16.0232804 107.296997,13.7547524 110.25,10.68 C111.623774,9.16106649 112.699184,7.3969865 113.42,5.48 L121.65,5.72 C119.87185,8.42751719 117.80288,10.9324133 115.48,13.19 C109.03,19.55 99.65,23.36 96.53,24.51 Z M114.42,50.76 C117.19,50.57 126.08,49.76 132.91,46.69 C139.52,43.69 142.44,39.98 143.39,38.52 L155.68,52.35 C150.545019,57.6043641 143.906695,61.1366515 136.68,62.46 C131.956704,63.2766479 127.156039,63.5550931 122.37,63.29 L114.42,50.76 Z" id="Shape" stroke="#59ACFF"></path>
                            <path d="M67.74,55.7 L62.23,61 L107.64,61.18 L100.77,56.45 C82.15,57.11 70.4,56.85 67.74,55.7 Z" id="Shape" fill="#FFFFFF"></path>
                            <path d="M101.19,55.48 C101.100836,55.4215587 100.996609,55.3902906 100.89,55.39 C71.97,56.5 68.42,55 68.04,54.76 C67.9721327,54.6808657 67.8812275,54.624924 67.78,54.6 C67.6131348,54.5542084 67.4344895,54.5998199 67.31,54.72 L60.63,61.08 C60.4840682,61.2206178 60.4374484,61.4354154 60.5119567,61.6238776 C60.586465,61.8123397 60.7673635,61.9371883 60.97,61.94 L64.63,61.94 L104.63,62.1 L109.19,62.1 C109.407224,62.0973375 109.597874,61.9547144 109.661762,61.7470805 C109.725649,61.5394465 109.648154,61.3143172 109.47,61.19 L101.19,55.48 Z M62.19,60.95 L67.71,55.69 C70.37,56.84 82.12,57.1 100.71,56.39 L107.58,61.12 L62.19,60.95 Z" id="Shape" fill="#59ACFF"></path>
                            <path d="M167.92,35.69 C164.874118,33.1299941 162.147801,30.2122982 159.8,27 L151.14,31.48 C152.39,32.84 156.83,37.13 165.55,40.23 C173.39,43.02 182.75,43.98 185.98,44.23 L183.59,41.37 C182.13,41.19 173.15,39.69 167.92,35.69 Z" id="Shape" fill="#FFFFFF"></path>
                            <path d="M186.84,9.76 C183.940565,12.856812 180.299103,15.1628416 176.26,16.46 L171.69,22.93 C174.98,22.48 184.96,20.8 192.63,16 C200.3,11.2 203.27,6.81 204.06,5.4 L191.59,1.77 C190.538075,4.71535807 188.924966,7.4287778 186.84,9.76 Z" id="Shape" fill="#FFFFFF"></path>
                            <path d="M205.32,5.25 C205.39732,4.98490332 205.245097,4.70731986 204.98,4.63 L191.4,0.63 C191.134903,0.552680135 190.85732,0.70490332 190.78,0.97 C189.781232,3.94855583 188.18919,6.69380766 186.1,9.04 C183.276545,12.0301894 179.739006,14.2531957 175.82,15.5 C175.707421,15.5288667 175.608415,15.5960496 175.54,15.69 L170.22,23.22 C170.111164,23.3728557 170.097074,23.5737802 170.183511,23.7403298 C170.269948,23.9068794 170.442359,24.0110121 170.63,24.01 L170.63,24.01 C170.76,24.01 183.63,22.73 193.11,16.8 C201.85,11.33 204.57,6.51 205.11,5.47 C205.201563,5.420797 205.275107,5.34375111 205.32,5.25 Z M192.63,16 C184.96,20.8 174.98,22.48 171.69,22.93 L176.26,16.46 C180.299103,15.1628416 183.940565,12.856812 186.84,9.76 C188.922497,7.424966 190.532233,4.70811181 191.58,1.76 L204.05,5.39 C203.27,6.81 200.36,11.17 192.63,16 Z" id="Shape" fill="#59ACFF"></path>
                            <path d="M225.74,13.41 L203.37,13.41 C202.817715,13.41 202.37,13.8577153 202.37,14.41 C202.37,14.9622847 202.817715,15.41 203.37,15.41 L225.74,15.41 C226.292285,15.41 226.74,14.9622847 226.74,14.41 C226.74,13.8577153 226.292285,13.41 225.74,13.41 Z" id="Shape" fill="#D9ECFF"></path>
                        </g>
                    </g>
                    <g id="file_buttom" transform="translate(142.342267, 146.023764) scale(-1, 1) rotate(-76.000000) translate(-142.342267, -146.023764) translate(101.842267, 106.523764)">
                        <g id="Group-3" transform="translate(40.599389, 36.948681) rotate(211.000000) translate(-40.599389, -36.948681) translate(8.099389, 13.448681)" fill="#D9EBFF">
                            <path d="M64.3500095,46.0330974 C64.8630499,40.7206561 64.7103377,35.0106712 63.8918727,28.9031429 C60.6751317,4.8992603 53.1537255,1.18966685 50.4795217,0.760354481 C47.805318,0.331042109 18.7923048,1.92218998 2.99479428,4.13993974 L2.99479428,4.13993974 C2.5335121,4.20469732 2.0962985,4.38578335 1.72431715,4.6661486 C0.51375565,5.57855825 0.272055819,7.2995664 1.18446547,8.5101279 L1.18443968,8.51014734 C6.56087921,15.6434681 9.39744932,23.5586088 9.69415001,32.2555694 C9.82802182,36.1796514 9.37191263,40.338757 8.32582244,44.7328864 L10.1298828,46.8623047 L15.8867188,39.6933594 L25.1103516,46.8623047 L34.7773438,39.6933594 L45.0898438,46.8623047 L54.0117188,38.2402344 L64.3500095,46.0330974 Z" id="Combined-Shape"></path>
                        </g>
                        <path d="M43.0112615,61.7877824 C38.3020076,68.6852278 37.4763027,74.1608744 40.5341469,78.2147219" id="Path-3" stroke="#D9EBFF" stroke-width="2"></path>
                        <path d="M22.0112615,50.7877824 C17.3020076,57.6852278 16.4763027,63.1608744 19.5341469,67.2147219" id="Path-3-Copy" stroke="#D9EBFF" stroke-width="2"></path>
                    </g>
                    <g id="file_buttom" transform="translate(143.985148, 136.879039) scale(-1, 1) rotate(-76.000000) translate(-143.985148, -136.879039) translate(99.485148, 92.379039)" stroke="#59ACFF" stroke-width="2.2">
                        <g id="Group-3" transform="translate(44.437777, 41.365549) rotate(211.000000) translate(-44.437777, -41.365549) translate(8.437777, 15.365549)" fill="#F9F9FA">
                            <path d="M70.705566,50.6364071 C71.2692771,44.7927217 71.1014821,38.5117383 70.2021811,31.7934571 C66.6677373,5.38918633 58.4034761,1.30863354 55.4651535,0.836389929 C52.5268309,0.36414632 20.648335,2.11440898 3.29057643,4.55393372 C3.29057643,4.55393372 3.29057643,4.55393372 3.29057643,4.55393372 L3.29057643,4.55393372 C2.78396852,4.6251343 2.30377045,4.82393334 1.89508268,5.13165952 C0.563388692,6.13437391 0.296698031,8.0267858 1.29941242,9.35847979 L1.29940567,9.35848487 C7.2081583,17.2058345 10.3255554,25.9133817 10.6515969,35.4811264 C10.7986906,39.7976165 10.2975336,44.3726327 9.1481259,49.206175 L11.1303651,51.5485352 L17.4557774,43.6626953 L27.5903863,51.5485352 L38.2121431,43.6626953 L49.5431617,51.5485352 L59.3462095,42.0642578 L70.705566,50.6364071 Z" id="Combined-Shape"></path>
                        </g>
                        <path d="M46.4589753,70.3 C41.2846099,77.88719 40.377354,83.9104012 43.7372074,88.3696335" id="Path-3"></path>
                        <path d="M23.3849012,58.2 C18.2105359,65.78719 17.3032799,71.8104012 20.6631333,76.2696335" id="Path-3-Copy"></path>
                    </g>
                    <g id="file_top" transform="translate(198.171010, 59.469846) rotate(-20.000000) translate(-198.171010, -59.469846) translate(142.171010, 16.969846)">
                        <g id="Group-3" transform="translate(63.316320, 42.190842) rotate(-4.000000) translate(-63.316320, -42.190842) translate(17.816320, 3.190842)">
                            <path d="M16.6497631,74.6450099 C17.5633397,68.0358436 17.6628954,61.3910158 16.94843,54.7105263 C15.4017159,40.2482323 11.8101453,25.0582045 6.17371821,9.14044279 L6.17371813,9.14044282 C5.56537524,7.42242944 6.46494091,5.53654507 8.18295429,4.92820218 C8.58599086,4.78548825 9.01292009,4.72245535 9.44000275,4.74260838 L9.44000275,4.74260838 L58.4523315,7.05538566 L83.318583,28.0183523 C86.038069,35.1904505 88.0072091,42.781818 89.2260036,50.7924548 C90.3925953,58.4599845 90.8457702,66.3409383 90.5855284,74.4353162 L81.6909239,67.6865748 L71.8943553,77.2162315 L60.5708259,69.2926604 L49.9560894,77.2162315 L39.8281788,69.2926604 L33.5069472,77.2162315 L25.4861139,67.6865748 L16.6497631,74.6450099 Z" id="Combined-Shape" fill="#D9EBFF"></path>
                            <path d="M16.2266088,68.013431 C17.1401854,61.4042647 17.239741,54.7594368 16.5252757,48.0789474 C15.0141139,33.9490796 9.89545135,19.9787482 1.16928794,6.16795338 L1.16928805,6.16795332 C0.195781087,4.62719545 0.655628805,2.58898109 2.19638667,1.61547413 C2.72389655,1.28217417 3.33509335,1.10526316 3.95907696,1.10526316 L3.95907696,1.10526316 L58.8375202,1.10526316 L82.8954287,21.3867733 C85.6149146,28.5588716 87.5840548,36.1502391 88.8028493,44.1608758 C89.969441,51.8284056 90.4226159,59.7093594 90.1623741,67.8037373 L81.2677696,61.0549959 L71.471201,70.5846525 L60.1476716,62.6610814 L49.532935,70.5846525 L39.4050245,62.6610814 L33.0837929,70.5846525 L25.0629596,61.0549959 L16.2266088,68.013431 Z" id="Combined-Shape" stroke="#59ACFF" stroke-width="2.2" fill="#F9F9FA"></path>
                            <path d="M7.69658131,7.83317704 C7.5949905,7.69120717 7.49242904,7.55165953 7.38889693,7.41453412 L7.38889696,7.41453411 C6.29070783,5.96001307 6.57957192,3.89063261 8.03409295,2.79244348 C8.60916469,2.35825414 9.31054615,2.12422488 10.0311184,2.12609797 L10.0311184,2.12609797 L59.43132,2.25451103 L82.5749824,21.7652854 C85.1865454,28.6527585 87.0775401,35.942862 88.2479666,43.6355961 C89.3599861,50.9444449 89.7969856,58.455231 89.558965,66.1679545 L85.9776033,63.3648299 C85.7138795,55.5413909 85.0827679,48.2994165 84.0842682,41.6389068 C81.6794714,25.5976665 78.7480062,26.5342306 62.3488999,25.8761341 C51.7254083,25.4498131 60.5850923,10.9349095 54.1317252,8.69821811 C49.9181441,7.23782071 34.4397628,6.94947368 7.69658131,7.83317704 Z" id="Combined-Shape" fill="#D9EBFF"></path>
                            <path d="M81.5819547,22.1268503 L64.9865892,22.1268503 C62.6297805,22.1268503 60.7192096,20.2037098 60.7192096,17.8313958 L60.7192096,1.12685033 L81.5819547,22.1268503 Z" id="Path" stroke="#5CAEFF" stroke-width="1.1" fill="#F9F9FA" transform="translate(71.150582, 11.626850) rotate(-4.000000) translate(-71.150582, -11.626850) "></path>
                        </g>
                        <g id="face" transform="translate(38.431373, 26.526316)">
                            <path d="M5.49019608,6.63157895 L6.17508165,9.87491047" id="Line" stroke="#535A80" stroke-width="3.3" stroke-linecap="round" stroke-linejoin="round"></path>
                            <path d="M39.5294118,5.52631579 L40.2142973,8.76964731" id="Line-Copy-3" stroke="#535A80" stroke-width="3.3" stroke-linecap="round" stroke-linejoin="round"></path>
                            <path d="M22.6348043,20.2134837 C24.7921234,21.5384696 27.0205751,19.5203095 27.0205751,15.8577896 C27.0205751,12.1952697 26.2742772,10.147833 24.3035718,10.3367888 C22.3328664,10.5257446 23.2200542,11.6523826 23.2200542,15.3149025 C23.2200542,18.9774224 20.4774853,18.8884978 22.6348043,20.2134837 Z" id="Oval-2" fill="#D8D8D8" transform="translate(24.413938, 15.473216) rotate(-10.000000) translate(-24.413938, -15.473216) "></path>
                            <path d="M37.0384498,11.4061215 C39.5547896,13.6074733 42.0711295,13.6218647 44.5874694,11.4492958" id="Path-5-Copy" stroke="#C8C8CC" stroke-width="2.2" stroke-linecap="round" stroke-linejoin="round" transform="translate(40.812960, 12.237061) rotate(-6.000000) translate(-40.812960, -12.237061) "></path>
                            <path d="M3.29411765,15.2756753 C5.19316789,12.9615306 7.73023897,12.6431198 10.9053309,14.320443" id="Path-6" stroke="#C8C8CC" stroke-width="2.2" stroke-linecap="round" stroke-linejoin="round"></path>
                        </g>
                        <path d="M105.910922,40.8947368 C99.9671132,53.1993233 92.2012644,60.2821326 84.5490196,49.9867136" id="Path-7-Copy" stroke="#5CAEFF" stroke-width="2"></path>
                        <path d="M30.0952975,37.9680501 C24.4445266,46.8886158 19.427918,53.6122833 9.30873758,49.4933476" id="Path-7" stroke="#5CAEFF" stroke-width="2" transform="translate(19.702018, 44.351079) rotate(21.000000) translate(-19.702018, -44.351079) "></path>
                        <g id="Group-9" transform="translate(5.298790, 43.442023) rotate(-28.000000) translate(-5.298790, -43.442023) translate(2.004672, 39.573602)" stroke="#59ACFF" stroke-width="2">
                            <path d="M5.34650735,6.49773849 C2.32689951,7.22882401 0.817095588,5.95122327 0.817095588,2.66493627" id="Path-8"></path>
                            <path d="M4.39215686,6.69849918 C6.54957195,5.2558318 6.84838731,3.02299874 5.28860294,0" id="Path-9"></path>
                        </g>
                        <g id="Group-9" transform="translate(82.161535, 48.968339) rotate(-28.000000) translate(-82.161535, -48.968339) translate(78.867417, 45.099918)" stroke="#59ACFF" stroke-width="2">
                            <path d="M5.34650735,6.49773849 C2.32689951,7.22882401 0.817095588,5.95122327 0.817095588,2.66493627" id="Path-8"></path>
                            <path d="M4.39215686,6.69849918 C6.54957195,5.2558318 6.84838731,3.02299874 5.28860294,0" id="Path-9"></path>
                        </g>
                    </g>
                </g>
            </g>
        </g>
    </g>
</svg>