<svg width="283" height="223" viewBox="0 0 283 223" xmlns="http://www.w3.org/2000/svg"><title>Untitled</title><g fill="none" fill-rule="evenodd"><g transform="translate(0 27)"><path d="M103.1 83.3l.2 4.6c.4 2 1.3 3.9 2.5 5.6 1.4-.4 2.8-.8 4.3-1l.8-.5c.2-.6.4-1.1.6-1.6 0-5.1 1.3-10.2 3.7-14.7-2.1-12.5-1.9-25.2.5-37.6l-9.3 6.8c-.1 1.9 0 6.6 0 10.6.2 12.4.1 15-.5 16.2-1.8 2.5-3.8 4.8-5.9 6.9 1.8.8 3 2.6 3.1 4.7zm21-67.3l-15.2 10.8v9.8c2.2-1.6 5.1-3.7 8.9-6.5 1.2-3.9 2.6-7.6 4.4-11.3.4-1 1.1-2 1.9-2.8zm-53-7.1C71 8.5 67.9 1 60.4 2c-2.3.3-3.9 1.2-4.7 2.7-.2.4-.4.8-.5 1.3 1.2-1.4 2.9-2.3 4.7-2.4 8.1-1.1 11.2 7.2 11.2 7.2.1-.6.4-1.2.7-1.7-.1.1-.1.1-.2.1-.2 0-.5-.1-.5-.3z"/><path d="M221.8 112.6c.6 0 1-.4 1-1s-.4-1-1-1h-27.4c-.3.7-.6 1.3-1 2h28.4zm-9.4-6.4c.3 0 .5-.2.5-.5s-.2-.5-.5-.5h-16.1c-.1.3-.2.7-.3 1h16.4zm27.4 10.8h-48.6c0 .1 0 .2-.1.3l.3.7h48.4c.3 0 .5-.2.5-.5s-.2-.5-.5-.5zm-100.6 34.5H78.5c-.6 0-1 .4-1 1s.4 1 1 1h60.4c.2-.4.3-.7.5-1.1-.1-.3-.1-.6-.2-.9zm87.6 2c.6 0 1-.4 1-1s-.4-1-1-1h-64.2c-.2.7-.4 1.4-.6 2h64.8z" fill="#D9EBFF" fill-rule="nonzero"/><path d="M115.8 93.8c0 .1-.1.2-.1.4l.2-.1-.1-.3z" fill="#FFF" fill-rule="nonzero"/><path d="M55.7 152.5c0-.6-.4-1-1-1H27.1c-.6 0-1 .4-1 1s.4 1 1 1h27.7c.5 0 .9-.5.9-1zM31.1 68.3H81c.6 0 1-.4 1-1s-.4-1-1-1H31.1c-.6 0-1 .4-1 1 0 .5.5 1 1 1zM48.9 62c-.3 0-.5.2-.5.5s.2.5.5.5h24c.3 0 .5-.2.5-.5s-.2-.5-.5-.5h-24z" fill="#D9EBFF" fill-rule="nonzero"/><path fill="#F9F9FA" fill-rule="nonzero" d="M116.6 103.8l.5-.1z"/><path d="M173.1 33.6c-.1 1.9.1 3.9.5 5.7h.9c-.6-1.8-1.1-3.7-1.4-5.7z" fill="#FFF" fill-rule="nonzero"/><path d="M205.8 40.1c.1-.1.1-.3 0-.5 0-.1-2.2-5.1-1.6-9.9.1-1.3.5-2.6 1.2-3.7 1.5-2.7 4.4-4.4 8.7-5 13.9-1.9 19.6 12.5 19.7 12.6.1.2.3.3.5.3s.4-.2.4-.4c.1-.3 1.7-8.1 9.8-6.5 8 1.5 14.3 13.6 14.4 13.8.1.2.3.3.5.3h21.3c.3 0 .5-.2.5-.5s-.2-.5-.5-.5h-21c-1-1.9-6.9-12.5-15-14-6.9-1.3-9.6 3.6-10.5 6-1.8-3.6-8-13.7-20.2-12-4.6.6-7.8 2.5-9.4 5.5-1.3 2.5-1.7 5.3-1.2 8.1.2 2 .7 3.9 1.4 5.7h-23.7c-.3 0-.5.2-.5.5s.2.5.5.5h24.4c0-.1.1-.1.3-.3z" fill="#D9EBFF" fill-rule="nonzero"/><path d="M281.2 43.3h-23.3c-2-3.8-7.3-12.2-13.8-13.4-8.6-1.6-10.3 6.9-10.3 6.9s-5.7-14.9-20.2-12.9c-5.3.7-8 3-9.4 5.8-.6 4.8 1.6 9.9 1.6 9.9.1.2.1.3 0 .5-.1.1-.3.2-.4.2H204c.3 1 .6 1.9 1 2.8h-24.5l5.9.1h-5.9c-.6 0-1 .4-1 1s.4 1 1 1h100.7c.6 0 1-.4 1-1s-.4-.9-1-.9zM54.2 9c-.1.9 0 1.8.2 2.7h.5c-.4-.8-.6-1.8-.7-2.7z" fill="#FFF" fill-rule="nonzero"/><path d="M16 12.5c.1-.2.1-.3 0-.5-.8-1.9-1.1-4-.8-6.1.1-.5.3-.9.5-1.3.8-1.5 2.4-2.4 4.7-2.7C28 1 31 8.5 31.1 8.8c.1.2.3.3.5.3s.4-.2.4-.4c.2-1.1.9-2.2 1.8-2.8.9-.6 2.2-.9 3.3-.6 4.4.8 7.8 6.9 7.9 7 .1.2.3.3.4.3h11.8c.3 0 .5-.2.5-.5s-.2-.5-.5-.5H45.8c-.7-1.2-4-6.4-8.4-7.2-2.5-.6-5 .7-5.9 3C30.2 5.1 26.7.1 20.2 1c-2.6.4-4.4 1.4-5.4 3.2-.7 1.5-1 3.2-.7 4.9.1.9.3 1.9.7 2.7H2c-.3 0-.5.2-.5.5s.2.5.5.5h13.6c.1 0 .3-.1.4-.3z" fill="#D9EBFF" fill-rule="nonzero"/><path d="M1.8 16.5h56c.6 0 1-.4 1-1s-.4-1-1-1H44.6c-1.1-2.1-4-6.8-7.7-7.6-1.8-.5-3.8.2-4.8 1.8v.1c-.1.1-.1.2-.3.3-.3.5-.5 1.1-.7 1.7 0 0-3.1-8.3-11.2-7.2-1.8.1-3.5 1-4.7 2.4-.3 2.1 0 4.2.8 6.1.1.2.1.3 0 .5-.1.1-.3.2-.4.2h-1c.1.5.3 1.1.6 1.6H1.5l7.2.1H1.8c-.6 0-1 .4-1 1 0 .5.4.9 1 1z" fill="#FFF" fill-rule="nonzero"/><path d="M113.8 102.6c.2-.7.6-1.3 1.1-1.8h-.1l-.7.9c-.2.2-.3.6-.3.9z" fill="#D9EBFF" fill-rule="nonzero"/><ellipse fill="#D9EBFF" fill-rule="nonzero" cx="144.3" cy="186.3" rx="50.3" ry="9.3"/></g><path d="M113.206 135.1c2.613-7.897-2.658-13.531-15.727-16.856-19.648-5.01-20.376-13.439-22.882-13.412-2.506.027-.914 7.895.342 9.582 1.255 1.686-1.973-1.615-1.98 2.232-.02 2.594 1.389 5.269 4.14 7.977-1.982.532-.661 3.16 4.056 7.706 4.718 4.547 8.78 6.707 12.273 6.526-1.005.825-.268 1.783 2.215 2.65 2.484.868 4.937 1.153 7.449.903 2.423-.298 4.498-1.006 6.232-2.35 1.734-1.343 2.937-2.968 3.882-4.957z" fill="#59ACFF" fill-rule="nonzero"/><path d="M111.188 135.274c1.854-4.338.961-7.984-2.678-10.938-2.544-2.032-5.998-3.416-16.526-6.408-14.305-3.982-16.202-15.75-16.864-8.967-.662 6.783 6.877 9.432 8.278 10.63 1.449 1.11-3.284-1.066-4.431-1.676-3.003-1.597-3.132-1.779-3.908-1.172-.729.519-.035 4.965 5.511 8.593 1.495 1.022 3.692 2.643 6.164 3.957 3.797 2.019 8.75 2.5 8.786 2.86.036.358-5.219-.623-9.115-2.242-2.878-1.19-5.515-3.046-6.887-3.662-3.054-1.284 1.342 5.357 7.2 9.038 5.858 3.681 7.955 2.078 8.885 2.46.842.334-2.517.473-1.468 1.484 1.048 1.01 5.662 2.557 10.39 1.334 3.063-.863 5.255-2.642 6.663-5.291z" fill="#FFF" fill-rule="nonzero"/><path d="M76.014 117.93c1.398 3.122 4.59 6.065 9.399 8.735 4.633 2.577 8.94 3.848 12.922 3.813" stroke="#D9EBFF" stroke-width="3.3" stroke-linecap="round" stroke-linejoin="round"/><path d="M131.552 63.994L92.207 81.127c-1.179.55-1.97 1.691-2.007 3.032-.131 14.626 5.634 29.592 17.295 44.898 11.92 15.626 23.547 25.652 34.74 30.252.532.194 1.02.297 1.65.224 3.231-.404 9.37-2.383 18.463-6.072 9.274-3.773 23.667-11.477 43.135-23.204.411-.301.822-.603 1.058-1.044.936-1.54.544-3.565-1.038-4.592-10.685-6.824-20.699-15.284-30.126-25.563-7.779-8.4-12.681-18.913-14.889-31.455l-28.936-3.61z" stroke="#59ACFF" stroke-width="2" fill="#F9F9FA" fill-rule="nonzero" stroke-linecap="round" stroke-linejoin="round"/><path d="M91.196 87.005c-.115-.72-.18-1.57-.205-2.332-.096-1.39.744-2.664 2.013-3.256l38.385-16.354 28.223 3.5c1.375 10.283 6.29 20.349 14.66 30.017 11.063 12.605 21.288 21.52 30.639 26.427 1.28.617 1.727 2.285 1.068 3.474-.236.441-.514.792-.967 1.003-.41.302-.864.513-1.317.725-.042-.091-.133-.049-.175-.14-.133-.048-.175-.138-.308-.187-8.734-6.189-18.778-13.532-28.387-23.726-4.566-4.822-11.529-13.602-15.272-22.339-3.743-8.737-6.378-5.632-12.903-.934-2.647 1.896-7.328-1.99-14.133-11.615-.949-1.324-2.592-1.771-4.042-1.095L91.196 87.005z" fill="#D9EBFF" fill-rule="nonzero"/><path d="M115.204 113.555l1.752 2.767m29.821-15.43l1.752 2.768" stroke="#535A80" stroke-width="3.3"/><path d="M149.578 95.723c-2.982-1.469-5.4-.802-7.287 1.907m-33.453 12.176c.999-2.811 3.245-3.948 6.8-3.54" stroke="#C8C8CC" stroke-width="2.2"/><path d="M143.816 111.76c-2.852 6.785-8.849 9.606-18.213 8.439" stroke="#C8C8CC" stroke-width="2"/><path d="M159.865 67.641l-11.968 9.692c-1.71 1.384-4.241 1.118-5.689-.669l-10.006-12.357 27.663 3.334z" stroke="#5CAEFF" stroke-width="1.1" fill="#F9F9FA" fill-rule="nonzero"/><path d="M170.865 101.649c-8.768-5.875-7.858-15.54 2.548-29.078 15.75-20.134 9.929-29.185 12.346-31.173 2.418-1.989 7.083 7.203 7.112 9.843.028 2.64.621-3.117 3.705.774 2.04 2.55 2.788 6.277 2.115 11.231 2.417-1.004 3.075 2.683 2.003 10.744-1.071 8.06-3.471 13.45-7.158 16.078 1.705.103 1.633 1.494-.074 4.346-1.8 2.811-3.984 5.013-6.686 6.656-2.61 1.684-5.26 2.474-7.992 2.462-2.731-.012-5.35-.521-7.919-1.883z" fill="#59ACFF" fill-rule="nonzero"/><path d="M173.1 100.564c-5.37-2.938-7.357-7.326-5.962-13.163.937-4.071 3.438-8.212 11.618-19.457 11.301-15.547 3.949-28.782 10.006-22.473 6.058 6.31.447 14.977.01 17.19-.439 2.213 2.52-3.694 3.17-5.156 1.79-4.02 1.78-4.243 2.988-4.252 1.209-.01 3.937 4.927 1.302 13.058-.753 2.182-1.72 5.583-3.144 8.78-2.237 5.025-6.92 9.398-6.636 9.744.284.345 4.846-4.739 7.459-9.377 1.992-3.492 3.112-7.481 4.067-9.136 2.114-3.765 2.93 6.45-.142 14.824-3.071 8.375-6.382 8.433-7.052 9.448-.671 1.015 2.884-1.561 2.66.418-.276 1.848-3.67 7.014-9.378 9.508-3.87 1.561-7.495 1.59-10.966.044z" fill="#FFF" fill-rule="nonzero"/><path d="M194.686 54.786c1.51 4.722.907 10.255-1.808 16.6-2.593 6.07-5.571 10.545-8.985 13.295" stroke="#D9EBFF" stroke-width="3.3" stroke-linecap="round" stroke-linejoin="round"/></g></svg>