<?xml version="1.0" encoding="UTF-8" standalone="no"?>
<svg width="292px" height="268px" viewBox="0 0 292 268" version="1.1" xmlns="http://www.w3.org/2000/svg" xmlns:xlink="http://www.w3.org/1999/xlink">
    <!-- Generator: Sketch 45.1 (43504) - http://www.bohemiancoding.com/sketch -->
    <title>Group</title>
    <desc>Created with Sketch.</desc>
    <defs>
        <rect id="path-1" x="-2.91322522e-13" y="0.643868413" width="143.486028" height="14.0951405" rx="7.04757025"></rect>
    </defs>
    <g id="Page-1" stroke="none" stroke-width="1" fill="none" fill-rule="evenodd">
        <g id="link-expired" transform="translate(-579.000000, -305.000000)">
            <g id="Group" transform="translate(569.000000, 304.000000)">
                <g id="image">
                    <g id="about-license" transform="translate(10.587302, 0.000000)" fill-rule="nonzero">
                        <path d="M1.1984127,102.964554 C0.536547641,102.964554 0,103.502212 0,104.165446 C0,104.828681 0.536547641,105.366339 1.1984127,105.366339 L50.0337302,105.366339 L50.0337302,102.964554 L1.1984127,102.964554 Z" id="Shape" fill="#D9EBFF"></path>
                        <path d="M41.9444444,96.3116071 C41.6135119,96.3116071 41.3452381,96.5804362 41.3452381,96.9120536 C41.3452381,97.243671 41.6135119,97.5125 41.9444444,97.5125 L50.0936508,97.5125 L50.0936508,96.3116071 L41.9444444,96.3116071 Z" id="Shape" fill="#D9EBFF"></path>
                        <path d="M180.121429,36.9875 L220.699683,36.9875 C217.775556,31.4513839 209.290794,18.9741071 193.13619,21.1237054 C185.406429,22.1804911 181.487619,25.6150446 179.69,29.7220982 C179.480252,32.1520335 179.625593,34.5996367 180.121429,36.9875 L180.121429,36.9875 Z" id="Shape" fill="#FFFFFF"></path>
                        <path d="M247.112698,49.0204464 C247.112698,49.1285268 247.112698,49.2486161 247.112698,49.3566964 L247.112698,51.4222321 L289.416667,51.4222321 C290.078532,51.4222321 290.615079,50.8845741 290.615079,50.2213393 C290.615079,49.5581045 290.078532,49.0204464 289.416667,49.0204464 L256.364444,49.0204464 C253.548175,43.7605357 246.034127,31.439375 236.578651,29.6260268 C227.962063,27.9808036 224.211032,33.5409375 222.736984,36.9875 L234.793016,36.9875 C241.469431,37.0043207 246.924924,42.3328392 247.112698,49.0204464 L247.112698,49.0204464 Z" id="Shape" fill="#FFFFFF"></path>
                        <path d="M178.563492,34.4536161 C178.476764,35.299322 178.440747,36.1494802 178.455635,36.9995089 L178.935,36.9995089 C178.73127,36.1829018 178.563492,35.3302679 178.563492,34.4536161 Z" id="Shape" fill="#FFFFFF"></path>
                        <path d="M262.692063,168.725446 C263.353929,168.725446 263.890476,168.187788 263.890476,167.524554 C263.890476,166.861319 263.353929,166.323661 262.692063,166.323661 L247.112698,166.323661 L247.112698,168.725446 L262.692063,168.725446 Z" id="Shape" fill="#D9EBFF"></path>
                        <path d="M290.627063,175.330357 L247.136667,175.330357 L247.136667,176.53125 L290.627063,176.53125 C290.957996,176.53125 291.22627,176.262421 291.22627,175.930804 C291.22627,175.599186 290.957996,175.330357 290.627063,175.330357 Z" id="Shape" fill="#D9EBFF"></path>
                        <path d="M180.121429,36.9875 C179.64343,34.6174066 179.510224,32.1904702 179.725952,29.7821429 C179.895772,27.8280449 180.458324,25.9285662 181.379762,24.1979911 C183.560873,20.2590625 187.755317,17.8452679 193.843254,16.9926339 C213.712937,14.290625 221.850159,34.801875 221.934048,35.0060268 C222.035529,35.2513026 222.280696,35.4054515 222.545238,35.3903125 C222.811841,35.3687495 223.031897,35.172739 223.084524,34.9099554 C223.180397,34.4295982 225.54127,23.2853125 237.07,25.4949554 C248.59873,27.7045982 257.538889,44.9374107 257.65873,45.1175446 C257.762896,45.3190679 257.971549,45.444519 258.198016,45.4417857 L288.457937,45.4417857 C288.788869,45.4417857 289.057143,45.1729567 289.057143,44.8413393 C289.057143,44.5097219 288.788869,44.2408929 288.457937,44.2408929 L258.521587,44.2408929 C257.191349,41.7190179 248.730556,26.4676786 237.285714,24.2820536 C227.374841,22.3966518 223.575873,29.7100893 222.37746,33.0605804 C219.980635,28.2570089 211.232222,13.3779464 193.68746,15.7797321 C187.204048,16.6683929 182.71,19.2863393 180.337143,23.5615179 C178.658548,26.9283664 178.040034,30.7267032 178.563492,34.4536161 C178.647381,35.3302679 178.779206,36.1829018 178.923016,36.9995089 L180.121429,36.9875 Z" id="Shape" fill="#D9EBFF"></path>
                        <path d="M27.18,12.0089286 C27.0297519,13.4980583 27.114683,15.0016132 27.4316667,16.4642411 L28.2346032,16.4642411 C27.7116035,15.0252147 27.3576836,13.5300323 27.18,12.0089286 Z" id="Shape" fill="#FFFFFF"></path>
                        <path d="M29.6127778,17.3529018 C29.7108331,17.1733208 29.7108331,16.9560542 29.6127778,16.7764732 C29.6127778,16.7764732 27.6353968,12.2491071 28.4143651,8.28616071 C28.5578939,7.55123595 28.8124905,6.84255959 29.1693651,6.18459821 C30.3677778,4.07102679 32.6088095,2.7740625 35.9044444,2.32973214 C46.6901587,0.852633929 51.0643651,11.7207143 51.244127,12.1770536 C51.3426177,12.4248447 51.5898169,12.580271 51.8553175,12.5613393 C52.1219199,12.5397763 52.3419763,12.3437658 52.3946032,12.0809821 C52.3946032,11.8287946 53.700873,5.884375 59.8607143,7.04924107 C66.2123016,8.25013393 71.065873,16.980625 71.1138095,17.0646875 C71.2192082,17.2577193 71.4215296,17.3775202 71.6411111,17.3769196 L88.4188889,17.3769196 C88.7498214,17.3769196 89.0180952,17.1080906 89.0180952,16.7764732 C89.0180952,16.4448558 88.7498214,16.1760268 88.4188889,16.1760268 L72.0605556,16.1760268 C71.0898413,14.5308036 66.4280159,7.07325893 60.1603175,5.87236607 C56.6260982,4.9735751 52.9903668,6.92011455 51.7714286,10.3637054 C50.1056349,7.21736607 45.1561905,-0.144107143 35.8085714,1.14084821 C32.1174603,1.64522321 29.5528571,3.14633929 28.1866667,5.60816964 C27.2015365,7.57413721 26.8458028,9.79683204 27.1680159,11.9729018 C27.3456994,13.4940055 27.6996194,14.9891879 28.222619,16.4282143 L9.79103175,16.4282143 C9.46009922,16.4282143 9.1918254,16.6970433 9.1918254,17.0286607 C9.1918254,17.3602781 9.46009922,17.6291071 9.79103175,17.6291071 L29.1094444,17.6291071 C29.3131699,17.6287671 29.5027662,17.5247256 29.6127778,17.3529018 Z" id="Shape" fill="#D9EBFF"></path>
                        <path d="M9.58730159,22.8169643 L89.2338095,22.8169643 C89.8956746,22.8169643 90.4322222,22.2793062 90.4322222,21.6160714 C90.4322222,20.9528366 89.8956746,20.4151786 89.2338095,20.4151786 L70.5625397,20.4151786 C69.0884921,17.6291071 64.8461111,10.4597768 59.453254,9.42700893 C52.6462698,8.13004464 51.2920635,14.9270982 51.2920635,14.9270982 C51.2920635,14.9270982 46.7380952,3.14633929 35.3052381,4.7075 C31.7819048,5.18785714 29.6846825,6.556875 28.498254,8.31017857 C27.6833333,12.273125 29.636746,16.7164286 29.6966667,16.8004911 C29.7776656,16.9864636 29.7594519,17.2008495 29.6482466,17.3704252 C29.5370413,17.5400009 29.3478898,17.6418237 29.1453968,17.6411161 L27.7073016,17.6411161 C27.9183739,18.4595994 28.1866825,19.2621783 28.5102381,20.0429018 L9.1918254,20.0429018 L30.8711111,20.4151786 L9.58730159,20.4151786 C8.92543653,20.4151786 8.38888889,20.9528366 8.38888889,21.6160714 C8.38888889,22.2793062 8.92543653,22.8169643 9.58730159,22.8169643 Z" id="Shape" fill="#FFFFFF"></path>
                        <ellipse id="Oval" fill="#D9EBFF" cx="148.38746" cy="260.497679" rx="93.4162698" ry="7.73375"></ellipse>
                    </g>
                    <g id="Page-1" transform="translate(0.000000, 51.638393)">
                        <g id="link01" transform="translate(51.200038, 79.481594) rotate(-5.000000) translate(-51.200038, -79.481594) translate(4.200038, 30.481594)">
                            <path d="M32.4261152,51.9875445 L48.0682471,36.3245109 C49.492261,34.8845697 51.8191291,34.8698764 53.2578235,36.2951243 C53.2651638,36.302471 53.2798444,36.3171642 53.2871846,36.3245109 L76.7026708,59.7602882 L76.8054346,59.6500886 C82.5014902,53.9197105 82.5014902,44.6555991 76.8054346,38.925221 L61.1853235,23.2915739 C55.4599069,17.5905823 46.2038166,17.5905823 40.4783999,23.2915739 L19.6687124,44.1192945 C13.9726569,49.8496726 13.9726569,59.113784 19.6687124,64.8441621 L35.2888235,80.4778092 C40.9481777,86.1494142 50.1015041,86.215534 55.8416013,80.624742 L32.4261152,57.2183512 C30.9800805,55.7931033 30.9653999,53.4715655 32.3894138,52.0242777 C32.4040944,52.0095844 32.4114346,52.0022378 32.4261152,51.9875445" id="Fill-3" fill="#D9EBFF" transform="translate(48.237074, 51.895441) rotate(-34.000000) translate(-48.237074, -51.895441) "></path>
                            <path d="M30.7630426,45.7526616 L46.4051746,30.0896279 C47.8291885,28.6496868 50.1560565,28.6349935 51.594751,30.0602414 C51.6020912,30.067588 51.6167718,30.0822813 51.6241121,30.0896279 L75.0395982,53.5254053 L75.1423621,53.4152057 C80.8384176,47.6848275 80.8384176,38.4207162 75.1423621,32.690338 L59.522251,17.056691 C53.7968343,11.3556994 44.540744,11.3556994 38.8153274,17.056691 L18.0056399,37.8844116 C12.3095843,43.6147897 12.3095843,52.8789011 18.0056399,58.6092792 L33.625751,74.2429263 C39.2851051,79.9145313 48.4384315,79.9806511 54.1785287,74.389859 L30.7630426,50.9834683 C29.3170079,49.5582204 29.3023274,47.2366826 30.7263412,45.7893948 C30.7410218,45.7747015 30.7483621,45.7673548 30.7630426,45.7526616" id="Fill-3" stroke="#59ACFF" stroke-width="2.4" fill="#F9F9FA" transform="translate(46.574001, 45.660558) rotate(-34.000000) translate(-46.574001, -45.660558) "></path>
                            <path d="M22.7852013,66.4771835 C20.1303235,63.3103395 18.8690387,59.0205045 19.7048387,54.6506479 L25.1334542,26.6581207 C26.6429564,18.9800676 34.0747233,13.9672776 41.7591596,15.4439409 L62.7672969,19.5369522 C66.5889916,20.2917347 69.3507086,22.5057298 71.1340568,25.4935526 L43.7214737,20.1650863 L43.7214737,20.1650863 C37.215821,18.9005155 30.9168103,23.1492518 29.6522395,29.6549045 L29.6522395,29.6549045 L23.0037386,63.8584767 C22.8325515,64.739158 22.7623985,65.6160524 22.7852013,66.4771835 Z" id="Combined-Shape" fill="#D9EBFF"></path>
                        </g>
                        <g id="link03" transform="translate(119.642857, 99.674107)">
                            <path d="M61.4449253,25.9212017 L45.8174739,10.280208 C40.0920572,4.57921639 30.8359669,4.57921639 25.1105503,10.280208 L25.0004461,10.3904076 L48.4085919,33.8188382 C49.8472864,35.2440861 49.8619669,37.5729706 48.437953,39.0129118 C48.4306128,39.0202584 48.4159322,39.0349517 48.4085919,39.0422983 L32.7591197,54.7053319 C31.3351058,56.1452731 29.0082378,56.1599664 27.5695433,54.7347185 C27.562203,54.7273718 27.5475225,54.7126786 27.5401822,54.7053319 L4.14671692,31.2915945 C-1.43923447,37.036666 -1.37317197,46.1979244 4.29352248,51.8621828 L19.9136336,67.4958298 C25.6390503,73.1968214 34.8951405,73.1968214 40.6205572,67.4958298 L61.4302447,46.6681092 C67.1483211,40.9377311 67.1556614,31.6589265 61.4449253,25.9212017" id="Fill-6-Copy" fill="#D9EBFF"></path>
                            <path d="M61.4449253,19.9167374 L45.8174739,4.2757437 C40.0920572,-1.4252479 30.8359669,-1.4252479 25.1105503,4.2757437 L25.0004461,4.38594328 L48.4085919,27.8143739 C49.8472864,29.2396218 49.8619669,31.5685063 48.437953,33.0084475 C48.4306128,33.0157941 48.4159322,33.0304874 48.4085919,33.037834 L32.7591197,48.7008676 C31.3351058,50.1408088 29.0082378,50.1555021 27.5695433,48.7302542 C27.562203,48.7229076 27.5475225,48.7082143 27.5401822,48.7008676 L4.14671692,25.2871303 C-1.43923447,31.0322017 -1.37317197,40.1934601 4.29352248,45.8577185 L19.9136336,61.4913655 C25.6390503,67.1923571 34.8951405,67.1923571 40.6205572,61.4913655 L61.4302447,40.663645 C67.1483211,34.9332668 67.1556614,25.6544622 61.4449253,19.9167374" id="Fill-6" stroke="#59ACFF" stroke-width="2.4" fill="#F9F9FA"></path>
                            <path d="M28.9721426,64.5955022 C33.037388,64.9913171 37.2408193,63.6363114 40.3599522,60.530485 L60.4706829,40.4023269 C65.9967002,34.864421 66.003794,25.8972733 60.4848704,20.3522675 L45.3823146,5.23662428 C42.6367933,2.50281564 39.0511726,1.12551866 35.4591646,1.10473334 L55.6831284,21.3286971 C60.3694199,26.0149886 60.3694199,33.6129683 55.6831284,38.2992598 L31.0523493,62.9300389 C30.408826,63.5735622 29.7103974,64.1287166 28.9721426,64.5955022 Z" id="Combined-Shape" fill="#D9EBFF"></path>
                        </g>
                        <g id="ax" transform="translate(205.481878, 54.454149) rotate(-342.000000) translate(-205.481878, -54.454149) translate(130.981878, 21.454149)">
                            <g id="Group-3" transform="translate(4.559033, 8.122758)">
                                <g id="Rectangle-8">
                                    <use fill="#F9F9FA" fill-rule="evenodd" xlink:href="#path-1"></use>
                                    <rect stroke="#59ACFF" stroke-width="1.8468" x="0.9234" y="1.56726841" width="141.639228" height="12.2483405" rx="6.12417025"></rect>
                                </g>
                                <path d="M9.54867971,1.90762584 L136.460275,1.88177654 L136.460275,1.88178443 C138.190838,1.88143195 139.829572,2.66032787 140.92204,4.00247611 C140.92204,4.00247611 140.92204,4.00247611 140.92204,4.00247611 C141.541511,4.76352577 142.032088,5.76502414 141.82571,5.76792408 C141.689118,5.7698434 97.5967761,5.76985727 9.54868272,5.76796569 L9.54868272,5.76796852 C8.482791,5.76794562 7.61872717,4.90386323 7.61872717,3.8379715 L7.61872717,3.8379715 L7.61872717,3.8379715 C7.61872717,2.77202455 8.48273278,1.90784295 9.54867971,1.90762584 Z" id="Rectangle-8-Copy" fill="#D9EBFF"></path>
                            </g>
                            <path d="M67.6986862,46.0921461 C61.3840241,57.5514148 48.5965128,65.3889885 33.8493431,65.3889885 C19.1021734,65.3889885 6.31466215,57.5514148 3.67483821e-13,46.0921461 C9.8920909,39.6742414 16.3684706,28.9843012 16.3684706,16.8813685 C16.3684706,12.2503037 15.4202426,7.82611974 13.6952561,3.76899042 C19.5389076,1.26816793 26.4468798,0 33.8486047,0 C41.2507068,0 48.1591892,1.26829722 54.0032676,3.76937286 C52.2783841,7.82639776 51.3302156,12.2504492 51.3302156,16.8813685 C51.3302156,28.9843012 57.8065953,39.6742414 67.6986862,46.0921461 Z" id="Combined-Shape" stroke="#59ACFF" stroke-width="1.8468" fill="#D9EBFF"></path>
                            <path d="M7.18388785,41.1333186 C5.44746205,43.1597598 3.46343366,44.9673834 1.25902501,46.5052523 C7.6243987,57.1419041 20.4689713,64.297037 34.2810271,64.297037 C47.823154,64.297037 60.0941977,56.9864836 66.3712076,46.4260246 C64.3851767,45.1209212 62.5513804,43.6234286 60.8962544,41.9630049 C53.4841358,48.8659776 44.2694174,53.6379571 34.3407963,53.6379571 C24.019118,53.6379571 14.5949461,48.4806697 7.18388785,41.1333186 Z" id="Combined-Shape" fill="#FFFFFF"></path>
                        </g>
                        <g id="link02" transform="translate(95.674603, 75.549215)">
                            <path d="M2.84730873,9.06507395 L2.84730873,9.06507395 C5.71735734,6.19253824 10.3637532,6.19253824 13.2264615,9.06507395 L51.7849407,47.6569668 C54.6549893,50.5295025 54.6549893,55.1799248 51.7849407,58.0451139 C48.9222323,60.9176496 44.2758365,60.9176496 41.4057879,58.0451139 L2.84730873,19.453221 C-0.022739881,16.5880319 -0.022739881,11.9376097 2.84730873,9.06507395" id="Fill-1" fill="#D9EBFF"></path>
                            <path d="M4.04572143,3.06060966 L4.04572143,3.06060966 C6.91577004,0.18807395 11.5621659,0.18807395 14.4248742,3.06060966 L52.9833534,41.6525025 C55.853402,44.5250382 55.853402,49.1754605 52.9833534,52.0406496 C50.120645,54.9131853 45.4742492,54.9131853 42.6042006,52.0406496 L4.04572143,13.4487567 C1.17567282,10.5835676 1.17567282,5.93314538 4.04572143,3.06060966" id="Fill-1" stroke="#59ACFF" stroke-width="2.4" fill="#F9F9FA"></path>
                            <path d="M13.2696945,3.57543392 L52.6520395,43.0992044 C54.1752174,45.0889162 54.3276522,47.2197973 53.6517896,48.8204503 C52.975927,50.4211033 52.8836176,51.2108017 49.5589052,48.0481964 L9.00506495,7.40787554 C7.82580742,6.35083719 7.82580742,4.63518263 9.00506495,3.57543392 C10.1843225,2.51568521 12.093453,2.51568521 13.2696945,3.57543392 Z" id="Fill-1" fill="#D9EBFF"></path>
                        </g>
                        <g id="Group-2" transform="translate(80.095238, 34.825893)" stroke="#59ACFF" stroke-width="4.32" stroke-linecap="round" stroke-linejoin="round">
                            <path d="M0,0 C1.81577682,4.22397383 3.63155363,8.44794767 5.44733045,12.6719215" id="Path-3"></path>
                            <path d="M12.954188,1.71632963 C15.4962756,3.80499361 18.0383631,5.89365759 20.5804506,7.98232157" id="Path-3" transform="translate(16.767319, 4.849326) rotate(56.000000) translate(-16.767319, -4.849326) "></path>
                            <path d="M24.7504965,7.54529155 C27.2925841,11.7692654 29.8346716,15.9932392 32.3767592,20.2172131" id="Path-3" transform="translate(28.563628, 13.881252) rotate(85.000000) translate(-28.563628, -13.881252) "></path>
                        </g>
                    </g>
                </g>
            </g>
        </g>
    </g>
</svg>