<?xml version="1.0" encoding="UTF-8" standalone="no"?>
<svg width="81px" height="26px" viewBox="0 0 81 26" version="1.1" xmlns="http://www.w3.org/2000/svg" xmlns:xlink="http://www.w3.org/1999/xlink">
    <!-- Generator: Sketch 45.2 (43514) - http://www.bohemiancoding.com/sketch -->
    <title>Send</title>
    <desc>Created with Sketch.</desc>
    <defs></defs>
    <g id="logo" stroke="none" stroke-width="1" fill="none" fill-rule="evenodd">
        <g id="Send_logo_FINAL" transform="translate(-74.000000, -124.000000)" fill="#3E3D40">
            <g id="PageShots-Copy" transform="translate(31.000000, 116.000000)">
                <path d="M48.8085938,28.40625 C49.2789086,28.9312526 49.9023399,29.3359361 50.6789062,29.6203125 C51.4554726,29.9046889 52.3414013,30.046875 53.3367188,30.046875 C54.2554733,30.046875 55.0812463,29.9019546 55.8140625,29.6121094 C56.5468787,29.3222642 57.1183573,28.9175807 57.5285156,28.3980469 C57.9386739,27.878513 58.14375,27.2906283 58.14375,26.634375 C58.14375,25.7812457 57.8019565,25.0867214 57.1183594,24.5507812 C56.4347622,24.0148411 55.3328201,23.5718767 53.8125,23.221875 L50.7445313,22.5164062 C48.6007705,22.0351538 47.0121145,21.2503961 45.9785156,20.1621094 C44.9449167,19.0738227 44.428125,17.6492276 44.428125,15.8882812 C44.428125,14.4663991 44.7945276,13.2168023 45.5273438,12.1394531 C46.2601599,11.062104 47.291009,10.2253936 48.6199219,9.62929687 C49.9488348,9.03320014 51.4882725,8.73515625 53.2382812,8.73515625 C54.8789145,8.73515625 56.3499935,9.02773145 57.6515625,9.61289062 C58.9531315,10.1980498 59.9867149,11.0156197 60.7523438,12.065625 C61.5179726,13.1156303 61.9335934,14.3132745 61.9992187,15.6585937 L57.946875,15.6585937 C57.8046868,14.6195261 57.3070355,13.7937531 56.4539063,13.18125 C55.600777,12.5687469 54.523444,12.2625 53.221875,12.2625 C52.3249955,12.2625 51.534769,12.3992174 50.8511719,12.6726562 C50.1675747,12.9460951 49.6371113,13.3343725 49.2597656,13.8375 C48.88242,14.3406275 48.69375,14.9257779 48.69375,15.5929688 C48.69375,16.3914102 49.016403,17.0394506 49.6617187,17.5371094 C50.3070345,18.0347681 51.3624927,18.4531233 52.828125,18.7921875 L55.5515625,19.415625 C57.159383,19.7765643 58.4636669,20.2496064 59.4644531,20.8347656 C60.4652394,21.4199248 61.2007789,22.1417926 61.6710937,23.0003906 C62.1414086,23.8589887 62.3765625,24.8953064 62.3765625,26.109375 C62.3765625,27.6296951 62.0019569,28.9531194 61.2527344,30.0796875 C60.5035119,31.2062556 59.4289133,32.0730438 58.0289063,32.6800781 C56.6288993,33.2871124 54.9773533,33.590625 53.0742188,33.590625 C51.2804598,33.590625 49.7000068,33.3035185 48.3328125,32.7292969 C46.9656182,32.1550753 45.8910195,31.3402397 45.1089844,30.2847656 C44.3269492,29.2292916 43.9031253,27.9906321 43.8375,26.56875 L47.971875,26.56875 C48.0593754,27.2687535 48.3382789,27.8812474 48.8085938,28.40625 Z M80.8007812,30.8835937 C80.0789026,31.6820352 79.1628962,32.2945291 78.0527344,32.7210937 C76.9425726,33.1476584 75.687507,33.3609375 74.2875,33.3609375 C72.5374913,33.3609375 71.0281313,32.9890662 69.759375,32.2453125 C68.4906187,31.5015588 67.5171909,30.4351632 66.8390625,29.0460937 C66.1609341,27.6570243 65.821875,26.0054783 65.821875,24.0914062 C65.821875,22.1773342 66.1636685,20.5148508 66.8472656,19.1039063 C67.5308628,17.6929617 68.5070249,16.6046913 69.7757812,15.8390625 C71.0445376,15.0734337 72.5374914,14.690625 74.2546875,14.690625 C75.9500085,14.690625 77.4128845,15.0515589 78.6433594,15.7734375 C79.8738343,16.4953161 80.8144499,17.5371026 81.4652344,18.8988281 C82.1160189,20.2605537 82.4414062,21.8765531 82.4414062,23.746875 L82.4414062,25.059375 L69.9070313,25.059375 L69.9070313,25.2726563 C69.9398439,26.2570362 70.1421856,27.1156213 70.5140625,27.8484375 C70.8859394,28.5812537 71.4054654,29.1445293 72.0726562,29.5382812 C72.7398471,29.9320332 73.5164018,30.1289062 74.4023438,30.1289062 C75.4085988,30.1289062 76.2535122,29.9511737 76.9371094,29.5957031 C77.6207065,29.2402326 78.1101548,28.7289096 78.4054687,28.0617188 L82.2609375,28.0617188 C82.0093737,29.1445367 81.5226599,30.0851523 80.8007812,30.8835937 Z M72.0890625,18.4640625 C71.4546843,18.8250018 70.94883,19.3363248 70.5714844,19.9980469 C70.1941387,20.6597689 69.9781253,21.4226519 69.9234375,22.2867187 L78.3726563,22.2867187 C78.3507811,21.4117144 78.1648455,20.6433627 77.8148437,19.9816406 C77.464842,19.3199186 76.9835968,18.8113299 76.3710938,18.4558594 C75.7585907,18.1003888 75.0476603,17.9226562 74.2382812,17.9226562 C73.4398398,17.9226562 72.7234407,18.1031232 72.0890625,18.4640625 Z M90.4476563,15.0515625 L90.4476563,17.9226562 L90.7265625,17.9226562 C91.1640647,16.8945261 91.8339799,16.0988309 92.7363281,15.5355469 C93.6386764,14.9722628 94.7460872,14.690625 96.0585938,14.690625 C98.0492287,14.690625 99.577729,15.2703067 100.644141,16.4296875 C101.710552,17.5890683 102.24375,19.2406143 102.24375,21.384375 L102.24375,33 L98.175,33 L98.175,22.3523437 C98.175,20.9742119 97.8796905,19.9433628 97.2890625,19.2597656 C96.6984345,18.5761685 95.7851624,18.234375 94.5492188,18.234375 C93.7507773,18.234375 93.0535186,18.4093733 92.4574219,18.759375 C91.8613251,19.1093767 91.4019547,19.6097624 91.0792969,20.2605469 C90.756639,20.9113314 90.5953125,21.6742144 90.5953125,22.5492188 L90.5953125,33 L86.5265625,33 L86.5265625,15.0515625 L90.4476563,15.0515625 Z M109.642969,32.1632812 C108.527338,31.40859 107.671487,30.3339913 107.075391,28.9394531 C106.479294,27.5449149 106.18125,25.901572 106.18125,24.009375 C106.18125,22.1281156 106.482028,20.4929757 107.083594,19.1039063 C107.685159,17.7148368 108.54101,16.6429725 109.651172,15.8882812 C110.761334,15.13359 112.065618,14.75625 113.564063,14.75625 C114.789069,14.75625 115.882808,15.0351535 116.845313,15.5929688 C117.807817,16.150784 118.529685,16.9218701 119.010938,17.90625 L119.289844,17.90625 L119.289844,8.11171875 L123.358594,8.11171875 L123.358594,33 L119.421094,33 L119.421094,30.1617187 L119.142188,30.1617187 C118.628122,31.1460987 117.881646,31.9144504 116.902734,32.4667969 C115.923823,33.0191434 114.810944,33.2953125 113.564063,33.2953125 C112.065618,33.2953125 110.758599,32.9179725 109.642969,32.1632812 Z M112.440234,18.9152344 C111.767575,19.3800804 111.250783,20.0499956 110.889844,20.925 C110.528904,21.8000044 110.348438,22.8335878 110.348438,24.0257813 C110.348438,25.2289123 110.528904,26.26523 110.889844,27.1347656 C111.250783,28.0043012 111.767575,28.6714821 112.440234,29.1363281 C113.112894,29.6011742 113.908589,29.8335937 114.827344,29.8335937 C115.757036,29.8335937 116.560934,29.6011742 117.239063,29.1363281 C117.917191,28.6714821 118.436717,28.0015669 118.797656,27.1265625 C119.158596,26.2515581 119.339063,25.2179747 119.339063,24.0257813 C119.339063,22.8445253 119.155861,21.8164106 118.789453,20.9414062 C118.423045,20.0664019 117.900785,19.3937524 117.222656,18.9234375 C116.544528,18.4531226 115.746098,18.2179687 114.827344,18.2179687 C113.908589,18.2179687 113.112894,18.4503883 112.440234,18.9152344 Z" id="Send"></path>
            </g>
        </g>
    </g>
</svg>
