<?xml version="1.0" encoding="UTF-8" standalone="no"?>
<svg width="30px" height="27px" viewBox="0 0 30 27" version="1.1" xmlns="http://www.w3.org/2000/svg" xmlns:xlink="http://www.w3.org/1999/xlink">
    <!-- Generator: Sketch 45.2 (43514) - http://www.bohemiancoding.com/sketch -->
    <title>send logo</title>
    <desc>Created with Sketch.</desc>
    <defs></defs>
    <g id="logo" stroke="none" stroke-width="1" fill="none" fill-rule="evenodd">
        <g id="Send_logo_FINAL" transform="translate(-30.000000, -124.000000)" stroke="#3E3D40">
            <g id="PageShots-Copy" transform="translate(31.000000, 116.000000)">
                <g id="icon_01-copy" transform="translate(14.000000, 22.000000) rotate(-360.000000) translate(-14.000000, -22.000000) translate(0.000000, 9.000000)">
                    <g id="send-logo">
                        <g id="icon" transform="translate(0.800000, 0.376744)">
                            <path d="M20.5639947,18.6120569 L18.4111528,16.5092811 C17.681129,15.7962346 16.5375329,15.7519656 15.7459993,16.3582923 L19.1476513,19.6816267 C19.3645542,19.8926948 19.3645542,20.2357793 19.1476513,20.4468474 L16.6824046,22.8547628 C16.466311,23.0666214 16.1150579,23.0666214 15.898155,22.8547628 L12.4997403,19.5361716 C11.9137789,20.3077164 11.9712419,21.3986301 12.6883163,22.0990284 L14.8411582,24.2018042 C15.6286451,24.9717679 16.9065915,24.9717679 17.6956971,24.2018042 L20.5639947,21.4002111 C21.3522909,20.6302474 21.3522909,19.3820207 20.5639947,18.6120569 M6.97033593,13.3685562 C6.7542424,13.5804149 6.7542424,13.9227088 6.97033593,14.1345674 L10.3687506,17.4539492 C9.5788357,18.0270742 8.46113846,17.9701569 7.74406406,17.2705492 L5.59122218,15.1677734 C4.80292594,14.3970191 4.80292594,13.149583 5.59122218,12.3788287 L8.45951979,9.57723567 C9.24862536,8.80806242 10.5265717,8.80806242 11.3140586,9.57723567 L13.4669005,11.6800115 C14.1969243,12.393058 14.2422473,13.5100588 13.6214843,14.2831847 L10.2198322,10.9606408 C10.0029294,10.7495727 9.65248555,10.7495727 9.43558269,10.9606408 L6.97033593,13.3685562 Z M16.4342612,19.0505568 C16.7507128,19.3596491 16.7507128,19.8592559 16.4342612,20.1683482 C16.1178097,20.4774404 15.6063074,20.4774404 15.2898558,20.1683482 L9.68922955,14.697969 C9.37277798,14.3896673 9.37277798,13.8892699 9.68922955,13.5801777 C10.0056811,13.2710855 10.5171834,13.2710855 10.833635,13.5801777 L16.4342612,19.0505568 Z" id="Fill-1" stroke-width="0.61812" fill="#3E3D40"></path>
                            <path d="M4.26479492,19.2293105 C1.35166016,17.6433242 0.277490234,15.5730807 0.277490234,12.7617324 C0.277490234,9.95038403 2.5418457,6.33646439 6.06289062,6.47253134 C6.16279736,6.47639213 6.61272996,6.46664776 6.71166992,6.47253134 C7.60652694,3.20243504 9.22035098,0.119592569 13.6099121,0.119592569 C18.1668756,0.119592569 20.9464355,3.83546512 20.3599121,7.90445358 C20.4390641,7.89974671 21.5923993,8.07389043 21.6708008,8.09019917 C24.7664551,8.73414449 26.585498,11.3654433 26.585498,13.2704726 C26.585498,15.1755019 26.4779785,16.2990371 24.5618164,18.2176894" id="Stroke-4" stroke-width="2.4" stroke-linecap="round" stroke-linejoin="round"></path>
                        </g>
                    </g>
                </g>
            </g>
        </g>
    </g>
</svg>
