<?xml version="1.0" encoding="UTF-8" standalone="no"?>
<svg width="180px" height="25px" viewBox="0 0 180 25" version="1.1" xmlns="http://www.w3.org/2000/svg" xmlns:xlink="http://www.w3.org/1999/xlink">
    <!-- Generator: Sketch 45.2 (43514) - http://www.bohemiancoding.com/sketch -->
    <title>logo design_01 copy</title>
    <desc>Created with Sketch.</desc>
    <defs></defs>
    <g id="logo" stroke="none" stroke-width="1" fill="none" fill-rule="evenodd">
        <g id="Send_logo_Final" transform="translate(-81.000000, -120.000000)" fill="#3E3D40">
            <g id="Group" transform="translate(32.000000, 114.000000)">
                <g id="logo-design_01-copy" transform="translate(49.000000, 6.000000)">
                    <path d="M82.6524712,0.599906811 L88.0603407,0.599906811 L88.0603407,1.89873418 L84.1690259,1.89873418 L84.1690259,4.34495612 L87.7252879,4.34495612 L87.7252879,5.59718879 L84.1690259,5.59718879 L84.1690259,9.0044265 L82.6524712,9.0044265 L82.6524712,0.599906811 Z M89.6768234,1.37163159 C89.5083165,1.2221395 89.4240643,1.03090899 89.4240643,0.797934301 C89.4240643,0.564959618 89.5083165,0.3737291 89.6768234,0.224237012 C89.8453303,0.0747449231 90.0608592,0 90.3234165,0 C90.5898926,0 90.8064011,0.0747449231 90.9729487,0.224237012 C91.1394962,0.3737291 91.2227687,0.564959618 91.2227687,0.797934301 C91.2227687,1.03090899 91.1394962,1.2221395 90.9729487,1.37163159 C90.8064011,1.52112368 90.5898926,1.5958686 90.3234165,1.5958686 C90.0608592,1.5958686 89.8453303,1.52112368 89.6768234,1.37163159 Z M91.0523033,2.63260076 L91.0523033,9.0044265 L89.6004079,9.0044265 L89.6004079,2.63260076 L91.0523033,2.63260076 Z M94.2617562,2.63260076 L94.2617562,3.62273822 L94.3616843,3.62273822 C94.4204657,3.413061 94.5311692,3.22571334 94.693798,3.0606896 C94.8564268,2.89566587 95.0572605,2.76559029 95.2963052,2.67045896 C95.5353499,2.57532763 95.7900658,2.52776268 96.0604607,2.52776268 C96.1701861,2.52776268 96.2818692,2.53358696 96.3955134,2.54523569 C96.5091576,2.55688443 96.5992879,2.57241584 96.6659069,2.5918304 L96.6659069,3.93142813 C96.6110442,3.91201357 96.5042594,3.89357002 96.3455494,3.87609692 C96.1868394,3.85862382 96.0447863,3.8498874 95.9193858,3.8498874 C95.6058845,3.8498874 95.3276564,3.91104233 95.0846929,4.03335404 C94.8417294,4.15566575 94.6526518,4.32845272 94.5174544,4.55172012 C94.382257,4.77498753 94.3146593,5.03222655 94.3146593,5.3234449 L94.3146593,9.0044265 L92.8568858,9.0044265 L92.8568858,2.63260076 L94.2617562,2.63260076 Z M102.74976,8.2530869 C102.491122,8.53653943 102.16293,8.75397921 101.765175,8.90541275 C101.36742,9.0568463 100.917749,9.13256193 100.416147,9.13256193 C99.7891443,9.13256193 99.2483628,9.00054493 98.793786,8.73650695 C98.3392092,8.47246898 97.9904443,8.09389079 97.7474808,7.60076105 C97.5045173,7.1076313 97.3830374,6.52132047 97.3830374,5.84181098 C97.3830374,5.16230149 97.505497,4.57210781 97.7504199,4.07121224 C97.9953427,3.57031667 98.3450873,3.18397278 98.7996641,2.91216898 C99.2542409,2.64036519 99.7891444,2.50446533 100.404391,2.50446533 C101.011799,2.50446533 101.535926,2.63259948 101.976787,2.88887163 C102.417649,3.14514378 102.754657,3.51498555 102.987824,3.99840801 C103.22099,4.48183048 103.337572,5.05552204 103.337572,5.71949988 L103.337572,6.18544692 L98.8466891,6.18544692 L98.8466891,6.26116331 C98.8584454,6.61062534 98.9309414,6.91542931 99.0641795,7.17558438 C99.1974175,7.43573944 99.3835561,7.63570638 99.6226008,7.77549119 C99.8616455,7.915276 100.139874,7.98516735 100.457294,7.98516735 C100.81782,7.98516735 101.12054,7.92207099 101.365463,7.79587637 C101.610386,7.66968175 101.785748,7.48815836 101.891555,7.25130077 L103.272913,7.25130077 C103.182781,7.635709 103.008399,7.96963437 102.74976,8.2530869 Z M99.6284789,3.84406306 C99.4011905,3.97219913 99.2199503,4.15372252 99.0847529,4.38863866 C98.9495555,4.6235548 98.872161,4.8943838 98.8525672,5.2011338 L101.879798,5.2011338 C101.871961,4.89050089 101.805343,4.61773046 101.679942,4.38281432 C101.554542,4.14789818 101.382119,3.96734551 101.162668,3.84115089 C100.943217,3.71495627 100.688501,3.65185991 100.398512,3.65185991 C100.112443,3.65185991 99.8557673,3.71592698 99.6284789,3.84406306 Z M104.21929,3.82659004 L104.21929,2.67337113 L105.271473,2.67337113 L105.271473,2.05016696 C105.271473,1.4133695 105.450754,0.949368545 105.809321,0.65815019 C106.167888,0.366931836 106.70769,0.221324843 107.428743,0.221324843 C107.652112,0.221324843 107.897032,0.242680535 108.163508,0.28539256 L108.163508,1.36289508 C107.99892,1.33183179 107.812781,1.31630038 107.605086,1.31630038 C107.299423,1.31630038 107.073117,1.38425031 106.926164,1.52015221 C106.77921,1.65605411 106.705734,1.86961103 106.705734,2.16082939 L106.705734,2.67337113 L108.104726,2.67337113 L108.104726,3.82659004 L106.723369,3.82659004 L106.723369,9.0044265 L105.271473,9.0044265 L105.271473,3.82659004 L104.21929,3.82659004 Z M110.394254,8.73650695 C109.92988,8.47246898 109.574257,8.09097865 109.327375,7.59202454 C109.080493,7.09307043 108.957054,6.50190603 108.957054,5.81851363 C108.957054,5.13900414 109.081473,4.54978117 109.330314,4.05082706 C109.579156,3.55187294 109.936738,3.16941191 110.403071,2.90343248 C110.869404,2.63745305 111.418023,2.50446533 112.048944,2.50446533 C112.683784,2.50446533 113.233383,2.63745305 113.697757,2.90343248 C114.16213,3.16941191 114.518733,3.55090223 114.767574,4.04791489 C115.016416,4.54492755 115.140835,5.13512122 115.140835,5.81851363 C115.140835,6.50190603 115.016416,7.09307043 114.767574,7.59202454 C114.518733,8.09097865 114.16213,8.47246898 113.697757,8.73650695 C113.233383,9.00054493 112.683784,9.13256193 112.048944,9.13256193 C111.410186,9.13256193 110.858628,9.00054493 110.394254,8.73650695 Z M113.227507,7.3706997 C113.50378,7.00376457 113.641915,6.48637439 113.641915,5.81851363 C113.641915,5.15453578 113.5028,4.63811631 113.224568,4.26923973 C112.946336,3.90036315 112.554465,3.71592762 112.048944,3.71592762 C111.539505,3.71592762 111.145675,3.90036315 110.867442,4.26923973 C110.58921,4.63811631 110.450096,5.15453578 110.450096,5.81851363 C110.450096,6.48637439 110.58921,7.00376457 110.867442,7.3706997 C111.145675,7.73763482 111.539505,7.92109964 112.048944,7.92109964 C112.558384,7.92109964 112.951234,7.73763482 113.227507,7.3706997 Z M117.368642,9.0044265 L115.799184,9.0044265 L117.880038,5.84181098 L115.78155,2.63260076 L117.46857,2.63260076 L118.75,4.82255184 L118.849928,4.82255184 L120.119602,2.63260076 L121.724328,2.63260076 L119.649352,5.7835676 L121.747841,9.0044265 L120.101967,9.0044265 L118.785269,6.80865108 L118.685341,6.80865108 L117.368642,9.0044265 Z M128.507678,1.89873418 L125.897793,1.89873418 L125.897793,0.599906811 L132.639995,0.599906811 L132.639995,1.89873418 L130.024232,1.89873418 L130.024232,9.0044265 L128.507678,9.0044265 L128.507678,1.89873418 Z M138.200696,8.2530869 C137.942057,8.53653943 137.613866,8.75397921 137.216111,8.90541275 C136.818356,9.0568463 136.368685,9.13256193 135.867083,9.13256193 C135.24008,9.13256193 134.699298,9.00054493 134.244722,8.73650695 C133.790145,8.47246898 133.44138,8.09389079 133.198417,7.60076105 C132.955453,7.1076313 132.833973,6.52132047 132.833973,5.84181098 C132.833973,5.16230149 132.956433,4.57210781 133.201356,4.07121224 C133.446278,3.57031667 133.796023,3.18397278 134.2506,2.91216898 C134.705177,2.64036519 135.24008,2.50446533 135.855326,2.50446533 C136.462735,2.50446533 136.986862,2.63259948 137.427723,2.88887163 C137.868584,3.14514378 138.205593,3.51498555 138.43876,3.99840801 C138.671926,4.48183048 138.788508,5.05552204 138.788508,5.71949988 L138.788508,6.18544692 L134.297625,6.18544692 L134.297625,6.26116331 C134.309381,6.61062534 134.381877,6.91542931 134.515115,7.17558438 C134.648353,7.43573944 134.834492,7.63570638 135.073536,7.77549119 C135.312581,7.915276 135.590809,7.98516735 135.908229,7.98516735 C136.268756,7.98516735 136.571476,7.92207099 136.816399,7.79587637 C137.061322,7.66968175 137.236684,7.48815836 137.34249,7.25130077 L138.723848,7.25130077 C138.633717,7.635709 138.459334,7.96963437 138.200696,8.2530869 Z M135.079415,3.84406306 C134.852126,3.97219913 134.670886,4.15372252 134.535689,4.38863866 C134.400491,4.6235548 134.323097,4.8943838 134.303503,5.2011338 L137.330734,5.2011338 C137.322897,4.89050089 137.256279,4.61773046 137.130878,4.38281432 C137.005478,4.14789818 136.833055,3.96734551 136.613604,3.84115089 C136.394153,3.71495627 136.139437,3.65185991 135.849448,3.65185991 C135.563378,3.65185991 135.306703,3.71592698 135.079415,3.84406306 Z M140.431442,3.44218374 C140.648933,3.14708247 140.952633,2.91702342 141.34255,2.75199969 C141.732468,2.58697596 142.17822,2.50446533 142.679822,2.50446533 C143.185343,2.50446533 143.627177,2.57629811 144.005338,2.71996583 C144.383499,2.86363355 144.680341,3.07233691 144.895873,3.34608216 C145.111405,3.61982742 145.236804,3.94889922 145.272073,4.33330745 L143.902471,4.33330745 C143.847608,4.10421568 143.715352,3.92463372 143.505698,3.79455619 C143.296044,3.66447865 143.022714,3.59944086 142.685701,3.59944086 C142.46625,3.59944086 142.268355,3.63244512 142.092011,3.69845461 C141.915666,3.7644641 141.776552,3.85571115 141.674664,3.97219849 C141.572776,4.08868584 141.521833,4.22264427 141.521833,4.37407781 C141.521833,4.55269174 141.599227,4.70024016 141.754019,4.8167275 C141.90881,4.93321484 142.148831,5.02834474 142.474088,5.10212006 L143.608565,5.35839093 C144.22773,5.49817574 144.6823,5.70590838 144.972289,5.98159509 C145.262278,6.2572818 145.40727,6.62809428 145.40727,7.09404364 C145.40727,7.49398352 145.290688,7.84829387 145.057522,8.15698532 C144.824355,8.46567678 144.500082,8.70544296 144.084693,8.87629106 C143.669304,9.04713916 143.1971,9.13256193 142.668066,9.13256193 C142.135114,9.13256193 141.670747,9.05975844 141.274952,8.91414926 C140.879157,8.76854008 140.56664,8.55692458 140.337392,8.27929642 C140.108144,8.00166826 139.975888,7.67065502 139.940619,7.2862468 L141.380758,7.2862468 C141.451296,7.5269873 141.599227,7.71239354 141.824556,7.84247107 C142.049885,7.9725486 142.342808,8.03758639 142.703335,8.03758639 C142.946298,8.03758639 143.161827,8.00458214 143.349928,7.93857265 C143.538029,7.87256316 143.68498,7.77937468 143.790787,7.65900443 C143.896594,7.53863417 143.949496,7.40079289 143.949496,7.24547643 C143.949496,7.0629796 143.87798,6.91348975 143.734945,6.79700241 C143.59191,6.68051507 143.367564,6.58926802 143.0619,6.52325852 L141.921545,6.26116331 C141.30238,6.1213785 140.844871,5.90490944 140.549004,5.61174963 C140.253138,5.31858982 140.105206,4.93321665 140.105206,4.45561854 C140.105206,4.07509323 140.21395,3.737285 140.431442,3.44218374 Z M148.757798,2.67337113 L150.133277,2.67337113 L150.133277,3.82659004 L148.757798,3.82659004 L148.757798,6.95425953 C148.757798,7.26877536 148.828334,7.4988344 148.96941,7.64444358 C149.110485,7.79005276 149.333852,7.86285626 149.639515,7.86285626 C149.772753,7.86285626 149.937339,7.85314912 150.133277,7.83373457 L150.133277,8.96365613 C149.890314,9.01025107 149.635598,9.03354819 149.369122,9.03354819 C148.871439,9.03354819 148.47271,8.97530539 148.172925,8.85881805 C147.873139,8.74233071 147.653692,8.55789518 147.514575,8.30550594 C147.375459,8.0531167 147.305902,7.71919133 147.305902,7.30371981 L147.305902,3.82659004 L146.288988,3.82659004 L146.288988,2.67337113 L147.305902,2.67337113 L147.305902,1.07167819 L148.757798,1.07167819 L148.757798,2.67337113 Z M159.861564,0.958103596 C160.292629,1.19690265 160.627678,1.53082802 160.866723,1.95988973 C161.105767,2.38895143 161.225288,2.8830445 161.225288,3.44218374 C161.225288,3.98967424 161.101849,4.4760016 160.854966,4.9011804 C160.608084,5.3263592 160.264218,5.65737243 159.823357,5.89423002 C159.382495,6.13108762 158.877962,6.24951464 158.309741,6.24951464 L156.46989,6.24951464 L156.46989,9.0044265 L154.953335,9.0044265 L154.953335,0.599906811 L158.3744,0.599906811 C158.934784,0.599906811 159.4305,0.719304545 159.861564,0.958103596 Z M157.96881,5.00310631 C158.513518,5.00310631 158.935759,4.86720645 159.235545,4.59540266 C159.53533,4.32359886 159.685221,3.9391964 159.685221,3.44218374 C159.685221,2.92963943 159.53729,2.53747127 159.241423,2.26566747 C158.945556,1.99386367 158.523315,1.85796381 157.974688,1.85796381 L156.46989,1.85796381 L156.46989,5.00310631 L157.96881,5.00310631 Z M162.835893,1.37163159 C162.667386,1.2221395 162.583133,1.03090899 162.583133,0.797934301 C162.583133,0.564959618 162.667386,0.3737291 162.835893,0.224237012 C163.004399,0.0747449231 163.219928,0 163.482486,0 C163.748962,0 163.96547,0.0747449231 164.132018,0.224237012 C164.298565,0.3737291 164.381838,0.564959618 164.381838,0.797934301 C164.381838,1.03090899 164.298565,1.2221395 164.132018,1.37163159 C163.96547,1.52112368 163.748962,1.5958686 163.482486,1.5958686 C163.219928,1.5958686 163.004399,1.52112368 162.835893,1.37163159 Z M164.211372,2.63260076 L164.211372,9.0044265 L162.759477,9.0044265 L162.759477,2.63260076 L164.211372,2.63260076 Z M167.53251,0.168905801 L167.53251,9.0044265 L166.074736,9.0044265 L166.074736,0.168905801 L167.53251,0.168905801 Z M170.492143,8.73650695 C170.027769,8.47246898 169.672146,8.09097865 169.425264,7.59202454 C169.178382,7.09307043 169.054942,6.50190603 169.054942,5.81851363 C169.054942,5.13900414 169.179361,4.54978117 169.428203,4.05082706 C169.677045,3.55187294 170.034627,3.16941191 170.50096,2.90343248 C170.967293,2.63745305 171.515912,2.50446533 172.146833,2.50446533 C172.781673,2.50446533 173.331272,2.63745305 173.795645,2.90343248 C174.260019,3.16941191 174.616621,3.55090223 174.865463,4.04791489 C175.114305,4.54492755 175.238724,5.13512122 175.238724,5.81851363 C175.238724,6.50190603 175.114305,7.09307043 174.865463,7.59202454 C174.616621,8.09097865 174.260019,8.47246898 173.795645,8.73650695 C173.331272,9.00054493 172.781673,9.13256193 172.146833,9.13256193 C171.508074,9.13256193 170.956516,9.00054493 170.492143,8.73650695 Z M173.325396,7.3706997 C173.601669,7.00376457 173.739803,6.48637439 173.739803,5.81851363 C173.739803,5.15453578 173.600689,4.63811631 173.322457,4.26923973 C173.044224,3.90036315 172.652354,3.71592762 172.146833,3.71592762 C171.637393,3.71592762 171.243563,3.90036315 170.965331,4.26923973 C170.687099,4.63811631 170.547985,5.15453578 170.547985,5.81851363 C170.547985,6.48637439 170.687099,7.00376457 170.965331,7.3706997 C171.243563,7.73763482 171.637393,7.92109964 172.146833,7.92109964 C172.656273,7.92109964 173.049123,7.73763482 173.325396,7.3706997 Z M178.62452,2.67337113 L180,2.67337113 L180,3.82659004 L178.62452,3.82659004 L178.62452,6.95425953 C178.62452,7.26877536 178.695057,7.4988344 178.836132,7.64444358 C178.977208,7.79005276 179.200574,7.86285626 179.506238,7.86285626 C179.639476,7.86285626 179.804062,7.85314912 180,7.83373457 L180,8.96365613 C179.757037,9.01025107 179.502321,9.03354819 179.235845,9.03354819 C178.738161,9.03354819 178.339433,8.97530539 178.039647,8.85881805 C177.739862,8.74233071 177.520414,8.55789518 177.381298,8.30550594 C177.242182,8.0531167 177.172625,7.71919133 177.172625,7.30371981 L177.172625,3.82659004 L176.15571,3.82659004 L176.15571,2.67337113 L177.172625,2.67337113 L177.172625,1.07167819 L178.62452,1.07167819 L178.62452,2.67337113 Z M87.7958253,22.9207113 L86.2381238,17.7137532 L86.1617083,17.7137532 L84.6040067,22.9207113 L83.7928263,22.9207113 L82,16.6478994 L82.7817898,16.6478994 L84.1866603,21.9713443 L84.2571977,21.9713443 L85.8207774,16.6478994 L86.5908109,16.6478994 L88.1543906,21.9713443 L88.224928,21.9713443 L89.6415547,16.6478994 L90.4174664,16.6478994 L88.6128839,22.9207113 L87.7958253,22.9207113 Z M96.1985964,22.2509125 C95.9536736,22.4994188 95.6529129,22.6906493 95.2963052,22.8246098 C94.9396975,22.9585702 94.5419488,23.0255494 94.103047,23.0255494 C93.5269885,23.0255494 93.0263737,22.8935324 92.6011876,22.6294944 C92.1760016,22.3654565 91.8478099,21.9897904 91.6166027,21.5024851 C91.3853955,21.0151797 91.2697937,20.4434295 91.2697937,19.7872175 C91.2697937,19.1348884 91.3853955,18.564109 91.6166027,18.0748622 C91.8478099,17.5856153 92.1769812,17.2080079 92.6041267,16.9420284 C93.0312721,16.676049 93.5289479,16.5430613 94.0971689,16.5430613 C94.6536336,16.5430613 95.1366142,16.6682833 95.5461252,16.9187311 C95.9556362,17.1691789 96.2701125,17.5283428 96.4895633,17.9962336 C96.7090142,18.4641244 96.818738,19.0145189 96.818738,19.6474334 L96.818738,19.985245 L92.0633397,19.985245 L92.0633397,20.020191 C92.075096,20.4900233 92.1671856,20.8996643 92.3396113,21.2491263 C92.512037,21.5985884 92.7510781,21.8684467 93.0567418,22.0587093 C93.3624056,22.248972 93.7170485,22.3441019 94.1206814,22.3441019 C94.5674207,22.3441019 94.9475352,22.2596498 95.2610365,22.0907432 C95.5745377,21.9218365 95.7998634,21.6820704 95.9370202,21.3714374 L96.71881,21.3714374 C96.6169221,21.7092507 96.4435193,22.0024062 96.1985964,22.2509125 Z M93.0743762,17.4836919 C92.77655,17.6603643 92.5404479,17.9098376 92.3660629,18.2321193 C92.1916778,18.5544009 92.0927304,18.9290963 92.0692179,19.3562165 L96.0134357,19.3562165 C96.0095169,18.9290963 95.9272241,18.5544009 95.7665547,18.2321193 C95.6058853,17.9098376 95.3815393,17.6603643 95.0935101,17.4836919 C94.8054808,17.3070194 94.471411,17.2186845 94.0912908,17.2186845 C93.7111705,17.2186845 93.3722024,17.3070194 93.0743762,17.4836919 Z M100.216291,22.6644405 C99.8322518,22.4237 99.5461862,22.091716 99.3580854,21.6684787 L99.2816699,21.6684787 L99.2816699,22.9207113 L98.546905,22.9207113 L98.546905,14.1492584 L99.3169386,14.1492584 L99.3169386,17.865186 L99.387476,17.865186 C99.5638205,17.4574803 99.844008,17.1352035 100.228047,16.8983459 C100.612086,16.6614883 101.043144,16.5430613 101.521233,16.5430613 C102.050267,16.5430613 102.516593,16.6770197 102.920226,16.9449406 C103.323858,17.2128615 103.635396,17.5914397 103.854846,18.0806865 C104.074297,18.5699333 104.184021,19.1368299 104.184021,19.7813932 C104.184021,20.4220736 104.073318,20.9879994 103.851907,21.4791877 C103.630497,21.970376 103.31896,22.3508956 102.917286,22.6207579 C102.515613,22.8906203 102.050267,23.0255494 101.521233,23.0255494 C101.035306,23.0255494 100.60033,22.905181 100.216291,22.6644405 Z M100.278011,17.5448474 C99.9664692,17.7545246 99.7254687,18.0525336 99.5550024,18.4388833 C99.3845361,18.825233 99.2993042,19.2727318 99.2993042,19.7813932 C99.2993042,20.2900546 99.3845361,20.7375534 99.5550024,21.1239031 C99.7254687,21.5102528 99.9664692,21.8082617 100.278011,22.017939 C100.589553,22.2276162 100.951054,22.3324532 101.362524,22.3324532 C101.773994,22.3324532 102.132556,22.2285869 102.43822,22.0208511 C102.743883,21.8131154 102.979006,21.5160771 103.143594,21.1297274 C103.308182,20.7433777 103.390475,20.2919961 103.390475,19.7755688 C103.390475,19.2591416 103.308182,18.8097014 103.143594,18.4272346 C102.979006,18.0447678 102.743883,17.749671 102.43822,17.5419352 C102.132556,17.3341995 101.773994,17.2303332 101.362524,17.2303332 C100.951054,17.2303332 100.589553,17.3351702 100.278011,17.5448474 Z M113.715391,22.2509125 C113.470468,22.4994188 113.169707,22.6906493 112.8131,22.8246098 C112.456492,22.9585702 112.058743,23.0255494 111.619842,23.0255494 C111.043783,23.0255494 110.543168,22.8935324 110.117982,22.6294944 C109.692796,22.3654565 109.364604,21.9897904 109.133397,21.5024851 C108.90219,21.0151797 108.786588,20.4434295 108.786588,19.7872175 C108.786588,19.1348884 108.90219,18.564109 109.133397,18.0748622 C109.364604,17.5856153 109.693776,17.2080079 110.120921,16.9420284 C110.548067,16.676049 111.045743,16.5430613 111.613964,16.5430613 C112.170428,16.5430613 112.653409,16.6682833 113.06292,16.9187311 C113.472431,17.1691789 113.786907,17.5283428 114.006358,17.9962336 C114.225809,18.4641244 114.335533,19.0145189 114.335533,19.6474334 L114.335533,19.985245 L109.580134,19.985245 L109.580134,20.020191 C109.591891,20.4900233 109.68398,20.8996643 109.856406,21.2491263 C110.028832,21.5985884 110.267873,21.8684467 110.573536,22.0587093 C110.8792,22.248972 111.233843,22.3441019 111.637476,22.3441019 C112.084215,22.3441019 112.46433,22.2596498 112.777831,22.0907432 C113.091332,21.9218365 113.316658,21.6820704 113.453815,21.3714374 L114.235605,21.3714374 C114.133717,21.7092507 113.960314,22.0024062 113.715391,22.2509125 Z M110.591171,17.4836919 C110.293345,17.6603643 110.057243,17.9098376 109.882857,18.2321193 C109.708472,18.5544009 109.609525,18.9290963 109.586012,19.3562165 L113.53023,19.3562165 C113.526312,18.9290963 113.444019,18.5544009 113.283349,18.2321193 C113.12268,17.9098376 112.898334,17.6603643 112.610305,17.4836919 C112.322275,17.3070194 111.988206,17.2186845 111.608085,17.2186845 C111.227965,17.2186845 110.888997,17.3070194 110.591171,17.4836919 Z M116.15775,22.9207113 L115.276032,22.9207113 L117.509717,19.7639202 L115.258397,16.6478994 L116.18714,16.6478994 L117.909429,19.1523647 L117.979966,19.1523647 L119.690499,16.6478994 L120.578095,16.6478994 L118.356166,19.7347985 L120.601607,22.9207113 L119.678743,22.9207113 L117.956454,20.3580026 L117.885917,20.3580026 L116.15775,22.9207113 Z M126.376859,16.9449406 C126.778533,17.2128615 127.09007,17.5914397 127.31148,18.0806865 C127.532891,18.5699333 127.643594,19.1368299 127.643594,19.7813932 C127.643594,20.4259565 127.532891,20.992853 127.31148,21.4820999 C127.09007,21.9713467 126.778533,22.3508956 126.376859,22.6207579 C125.975186,22.8906203 125.509839,23.0255494 124.980806,23.0255494 C124.49096,23.0255494 124.056964,22.9100345 123.678803,22.6790013 C123.300642,22.4479681 123.023393,22.1305448 122.847049,21.7267221 L122.776512,21.7267221 L122.776512,25 L122.006478,25 L122.006478,16.6478994 L122.741243,16.6478994 L122.741243,17.9292537 L122.81178,17.9292537 C123.007719,17.4982505 123.297703,17.1594716 123.681742,16.9129067 C124.065781,16.6663419 124.498798,16.5430613 124.980806,16.5430613 C125.509839,16.5430613 125.975186,16.6770197 126.376859,16.9449406 Z M125.891915,22.0208511 C126.197578,21.8131154 126.43368,21.5180185 126.600228,21.1355518 C126.766775,20.753085 126.850048,20.3036447 126.850048,19.7872175 C126.850048,19.2707903 126.766775,18.8194086 126.600228,18.4330589 C126.43368,18.0467093 126.197578,17.749671 125.891915,17.5419352 C125.586251,17.3341995 125.227689,17.2303332 124.816219,17.2303332 C124.404748,17.2303332 124.043248,17.3361409 123.731706,17.5477596 C123.420164,17.7593782 123.179164,18.0573872 123.008697,18.4417954 C122.838231,18.8262037 122.752999,19.2727318 122.752999,19.7813932 C122.752999,20.2900546 122.838231,20.7365827 123.008697,21.1209909 C123.179164,21.5053991 123.420164,21.8034081 123.731706,22.0150268 C124.043248,22.2266455 124.402789,22.3324532 124.810341,22.3324532 C125.22573,22.3324532 125.586251,22.2285869 125.891915,22.0208511 Z M133.918486,22.2509125 C133.673563,22.4994188 133.372802,22.6906493 133.016195,22.8246098 C132.659587,22.9585702 132.261838,23.0255494 131.822937,23.0255494 C131.246878,23.0255494 130.746263,22.8935324 130.321077,22.6294944 C129.895891,22.3654565 129.567699,21.9897904 129.336492,21.5024851 C129.105285,21.0151797 128.989683,20.4434295 128.989683,19.7872175 C128.989683,19.1348884 129.105285,18.564109 129.336492,18.0748622 C129.567699,17.5856153 129.896871,17.2080079 130.324016,16.9420284 C130.751162,16.676049 131.248838,16.5430613 131.817059,16.5430613 C132.373523,16.5430613 132.856504,16.6682833 133.266015,16.9187311 C133.675526,17.1691789 133.990002,17.5283428 134.209453,17.9962336 C134.428904,18.4641244 134.538628,19.0145189 134.538628,19.6474334 L134.538628,19.985245 L129.783229,19.985245 L129.783229,20.020191 C129.794986,20.4900233 129.887075,20.8996643 130.059501,21.2491263 C130.231927,21.5985884 130.470968,21.8684467 130.776631,22.0587093 C131.082295,22.248972 131.436938,22.3441019 131.840571,22.3441019 C132.28731,22.3441019 132.667425,22.2596498 132.980926,22.0907432 C133.294427,21.9218365 133.519753,21.6820704 133.65691,21.3714374 L134.4387,21.3714374 C134.336812,21.7092507 134.163409,22.0024062 133.918486,22.2509125 Z M130.794266,17.4836919 C130.49644,17.6603643 130.260338,17.9098376 130.085952,18.2321193 C129.911567,18.5544009 129.81262,18.9290963 129.789107,19.3562165 L133.733325,19.3562165 C133.729407,18.9290963 133.647114,18.5544009 133.486444,18.2321193 C133.325775,17.9098376 133.101429,17.6603643 132.8134,17.4836919 C132.52537,17.3070194 132.191301,17.2186845 131.81118,17.2186845 C131.43106,17.2186845 131.092092,17.3070194 130.794266,17.4836919 Z M136.942778,16.6478994 L136.942778,17.6788072 L137.019194,17.6788072 C137.089732,17.4535983 137.210232,17.2555728 137.380698,17.0847247 C137.551164,16.9138766 137.757876,16.7808889 138.00084,16.6857576 C138.243803,16.5906262 138.504397,16.5430613 138.78263,16.5430613 C139.033431,16.5430613 139.231325,16.5605341 139.37632,16.5954803 L139.37632,17.3584686 C139.305782,17.339054 139.201936,17.3215812 139.064779,17.3060495 C138.927622,17.2905179 138.802224,17.2827522 138.68858,17.2827522 C138.367241,17.2827522 138.076277,17.3574971 137.815679,17.5069892 C137.555081,17.6564813 137.350329,17.8622725 137.201416,18.124369 C137.052502,18.3864655 136.978047,18.6805917 136.978047,19.0067562 L136.978047,22.9207113 L136.208013,22.9207113 L136.208013,16.6478994 L136.942778,16.6478994 Z M140.795885,15.0811524 C140.6842,14.968548 140.628359,14.8345896 140.628359,14.6792731 C140.628359,14.5239567 140.6842,14.3909689 140.795885,14.280306 C140.90757,14.169643 141.041786,14.1143123 141.198536,14.1143123 C141.355287,14.1143123 141.490482,14.169643 141.604127,14.280306 C141.717771,14.3909689 141.774592,14.5239567 141.774592,14.6792731 C141.774592,14.8345896 141.718751,14.968548 141.607066,15.0811524 C141.495381,15.1937569 141.359206,15.2500582 141.198536,15.2500582 C141.041786,15.2500582 140.90757,15.1937569 140.795885,15.0811524 Z M141.586492,16.6478994 L141.586492,22.9207113 L140.816459,22.9207113 L140.816459,16.6478994 L141.586492,16.6478994 Z M144.337452,16.6478994 L144.337452,17.7778209 L144.413868,17.7778209 C144.551024,17.3934127 144.781248,17.0915209 145.104547,16.8721364 C145.427845,16.6527519 145.80698,16.5430613 146.241963,16.5430613 C146.676946,16.5430613 147.050202,16.6527519 147.361744,16.8721364 C147.673286,17.0915209 147.897632,17.3934127 148.034789,17.7778209 L148.111204,17.7778209 C148.275793,17.3972956 148.533448,17.0963745 148.884177,16.8750485 C149.234907,16.6537226 149.635594,16.5430613 150.086252,16.5430613 C150.721092,16.5430613 151.21387,16.7245847 151.564599,17.0876369 C151.915329,17.4506891 152.090691,17.9641964 152.090691,18.6281743 L152.090691,22.9207113 L151.320657,22.9207113 L151.320657,18.8029044 C151.320657,18.2903601 151.196238,17.9001334 150.947397,17.6322125 C150.698555,17.3642916 150.335095,17.2303332 149.857006,17.2303332 C149.539586,17.2303332 149.257439,17.3050781 149.010557,17.4545702 C148.763674,17.6040623 148.571658,17.8088828 148.434501,18.0690378 C148.297344,18.3291929 148.228767,18.6204069 148.228767,18.9426885 L148.228767,22.9207113 L147.458733,22.9207113 L147.458733,18.7213637 C147.458733,18.4223795 147.397993,18.1602869 147.276512,17.935078 C147.15503,17.7098692 146.984566,17.5361115 146.765115,17.4137998 C146.545664,17.2914881 146.290948,17.2303332 146.00096,17.2303332 C145.699215,17.2303332 145.423926,17.3118731 145.175084,17.4749553 C144.926242,17.6380376 144.730307,17.860331 144.587272,18.141842 C144.444237,18.4233531 144.372721,18.7330107 144.372721,19.0708239 L144.372721,22.9207113 L143.602687,22.9207113 L143.602687,16.6478994 L144.337452,16.6478994 Z M158.630098,22.2509125 C158.385176,22.4994188 158.084415,22.6906493 157.727807,22.8246098 C157.371199,22.9585702 156.973451,23.0255494 156.534549,23.0255494 C155.95849,23.0255494 155.457876,22.8935324 155.03269,22.6294944 C154.607503,22.3654565 154.279312,21.9897904 154.048105,21.5024851 C153.816897,21.0151797 153.701296,20.4434295 153.701296,19.7872175 C153.701296,19.1348884 153.816897,18.564109 154.048105,18.0748622 C154.279312,17.5856153 154.608483,17.2080079 155.035629,16.9420284 C155.462774,16.676049 155.96045,16.5430613 156.528671,16.5430613 C157.085136,16.5430613 157.568116,16.6682833 157.977627,16.9187311 C158.387138,17.1691789 158.701614,17.5283428 158.921065,17.9962336 C159.140516,18.4641244 159.25024,19.0145189 159.25024,19.6474334 L159.25024,19.985245 L154.494842,19.985245 L154.494842,20.020191 C154.506598,20.4900233 154.598688,20.8996643 154.771113,21.2491263 C154.943539,21.5985884 155.18258,21.8684467 155.488244,22.0587093 C155.793907,22.248972 156.14855,22.3441019 156.552183,22.3441019 C156.998923,22.3441019 157.379037,22.2596498 157.692538,22.0907432 C158.00604,21.9218365 158.231365,21.6820704 158.368522,21.3714374 L159.150312,21.3714374 C159.048424,21.7092507 158.875021,22.0024062 158.630098,22.2509125 Z M155.505878,17.4836919 C155.208052,17.6603643 154.97195,17.9098376 154.797565,18.2321193 C154.62318,18.5544009 154.524232,18.9290963 154.50072,19.3562165 L158.444938,19.3562165 C158.441019,18.9290963 158.358726,18.5544009 158.198057,18.2321193 C158.037387,17.9098376 157.813041,17.6603643 157.525012,17.4836919 C157.236983,17.3070194 156.902913,17.2186845 156.522793,17.2186845 C156.142672,17.2186845 155.803704,17.3070194 155.505878,17.4836919 Z M161.654391,16.6478994 L161.654391,17.7778209 L161.730806,17.7778209 C161.899313,17.3856469 162.157948,17.0818136 162.506718,16.866312 C162.855488,16.6508104 163.278708,16.5430613 163.776392,16.5430613 C164.481769,16.5430613 165.027449,16.7439989 165.413448,17.1458803 C165.799446,17.5477616 165.992442,18.1136874 165.992442,18.8436748 L165.992442,22.9207113 L165.222409,22.9207113 L165.222409,19.0358779 C165.222409,18.4379096 165.084274,17.9874986 164.808001,17.6846315 C164.531728,17.3817644 164.119285,17.2303332 163.570657,17.2303332 C163.202293,17.2303332 162.876061,17.3118731 162.591951,17.4749553 C162.30784,17.6380376 162.086433,17.8680967 161.927723,18.1651394 C161.769013,18.4621821 161.689659,18.8048439 161.689659,19.193135 L161.689659,22.9207113 L160.919626,22.9207113 L160.919626,16.6478994 L161.654391,16.6478994 Z M169.096089,16.6478994 L170.559741,16.6478994 L170.559741,17.2944009 L169.096089,17.2944009 L169.096089,21.1850586 C169.096089,21.5694669 169.174463,21.8480616 169.331214,22.0208511 C169.487965,22.1936407 169.74464,22.2800342 170.101248,22.2800342 C170.277592,22.2800342 170.430422,22.2742099 170.559741,22.2625612 L170.559741,22.914887 C170.497041,22.9265357 170.411809,22.9362429 170.304043,22.9440087 C170.196277,22.9517745 170.101248,22.9556574 170.018954,22.9556574 C169.611402,22.9556574 169.28419,22.9022681 169.037308,22.7954881 C168.790426,22.688708 168.610165,22.5188332 168.496521,22.2858585 C168.382877,22.0528838 168.326056,21.744197 168.326056,21.3597888 L168.326056,17.2944009 L167.291507,17.2944009 L167.291507,16.6478994 L168.326056,16.6478994 L168.326056,15.0170847 L169.096089,15.0170847 L169.096089,16.6478994 Z" id="Firefox-Test-Pilot-w"></path>
                    <path d="M4.73857729,19.1165486 C5.18689377,19.6110778 5.78116485,19.9922717 6.52140835,20.2601417 C7.26165185,20.5280116 8.10614233,20.6619446 9.05490512,20.6619446 C9.93068616,20.6619446 10.7178347,20.525436 11.4163743,20.2524147 C12.114914,19.9793934 12.6596625,19.5981995 13.0506361,19.1088216 C13.4416098,18.6194438 13.6370937,18.0656824 13.6370937,17.4475209 C13.6370937,16.643911 13.3112872,15.9896999 12.6596644,15.484868 C12.0080416,14.9800361 10.9576414,14.5627834 9.50843232,14.2330972 L6.58396383,13.5685769 C4.54047473,13.1152585 3.02612607,12.3760515 2.0408724,11.3509337 C1.05561873,10.3258159 0.562999282,8.98391042 0.562999282,7.32517708 C0.562999282,5.98582717 0.912263862,4.80876232 1.6108035,3.7939472 C2.30934314,2.77913208 3.29197558,1.990988 4.5587303,1.42949131 C5.82548502,0.867994617 7.29291754,0.587250483 8.96107191,0.587250483 C10.5249666,0.587250483 11.9272378,0.862843348 13.1679277,1.41403735 C14.4086175,1.96523135 15.3938563,2.73534599 16.1236739,3.72440438 C16.8534914,4.71346277 17.2496721,5.84159057 17.3122279,7.10882164 L13.4494273,7.10882164 C13.3138898,6.13006594 12.8395155,5.35222439 12.0262902,4.77527366 C11.213065,4.19832294 10.1861228,3.9098519 8.94543304,3.9098519 C8.09050393,3.9098519 7.33723927,4.03863361 6.68561647,4.2962009 C6.03399368,4.55376819 5.52834197,4.91950825 5.16864619,5.39343207 C4.8089504,5.86735588 4.62910521,6.41854161 4.62910521,7.0470058 C4.62910521,7.79910228 4.93666655,8.4095276 5.55179848,8.87830006 C6.1669304,9.34707253 7.1730209,9.74114457 8.57010018,10.060528 L11.1661524,10.6477785 C12.6987692,10.9877673 13.9420469,11.433352 14.8960227,11.984546 C15.8499984,12.53574 16.5511341,13.2157075 16.9994505,14.0244688 C17.447767,14.8332301 17.6719219,15.8093954 17.6719219,16.9529942 C17.6719219,18.3850683 17.314838,19.6316753 16.6006594,20.6928525 C15.8864808,21.7540298 14.8621451,22.5705058 13.5276216,23.1423052 C12.1930981,23.7141046 10.6188011,24 8.80468322,24 C7.094825,24 5.58829569,23.7295584 4.28505009,23.1886671 C2.9818045,22.6477758 1.95746882,21.8802368 1.21201234,20.886027 C0.466555863,19.8918173 0.0625557886,18.725055 0,17.3857051 L3.94099497,17.3857051 C4.02440269,18.0450773 4.29026081,18.6220194 4.73857729,19.1165486 Z M34.6338391,21.4500966 C33.9457255,22.2021931 33.072564,22.7791351 32.0143286,23.1809401 C30.9560932,23.5827451 29.7597317,23.7836446 28.4252082,23.7836446 C26.7570538,23.7836446 25.3182923,23.4333583 24.1088803,22.7327753 C22.8994684,22.0321922 21.9715715,21.0276949 21.3251617,19.7192531 C20.6787519,18.4108112 20.3555518,16.8551281 20.3555518,15.0521571 C20.3555518,13.2491861 20.6813583,11.6832005 21.3329811,10.3541533 C21.9846039,9.02510604 22.9151073,8.00000361 24.1245192,7.2788152 C25.3339311,6.55762679 26.757054,6.19703799 28.3939304,6.19703799 C30.009955,6.19703799 31.4044068,6.53702171 32.5773279,7.21699936 C33.7502489,7.896977 34.6468684,8.87829365 35.2672133,10.1609788 C35.8875582,11.4436639 36.197726,12.9658637 36.197726,14.727624 L36.197726,15.9639408 L24.2496302,15.9639408 L24.2496302,16.1648422 C24.2809081,17.0920845 24.4737855,17.9008336 24.8282683,18.591114 C25.1827511,19.2813943 25.677977,19.811975 26.3139609,20.1828719 C26.9499447,20.5537688 27.6901771,20.7392144 28.5346803,20.7392144 C29.493869,20.7392144 30.2992627,20.5717982 30.9508855,20.2369607 C31.6025083,19.9021232 32.0690632,19.4204796 32.3505643,18.7920155 L36.0256985,18.7920155 C35.7859013,19.8119819 35.3219528,20.6980001 34.6338391,21.4500966 Z M26.3295997,9.75144881 C25.7248938,10.0914376 25.2427001,10.5730812 24.8830044,11.1963941 C24.5233086,11.8197069 24.3173989,12.5383089 24.265269,13.3522215 L32.3192865,13.3522215 C32.2984346,12.5280062 32.1211959,11.804253 31.787565,11.1809401 C31.4539341,10.5576273 30.9951986,10.0785593 30.4113445,9.74372183 C29.8274905,9.40888435 29.149813,9.24146813 28.3782916,9.24146813 C27.6171961,9.24146813 26.9343057,9.41145999 26.3295997,9.75144881 Z M43.2289615,6.53702511 L43.2289615,9.24146813 L43.4948223,9.24146813 C43.9118609,8.27301512 44.5504416,7.52350555 45.4105837,6.99291693 C46.2707258,6.46232832 47.3263389,6.19703799 48.5774547,6.19703799 C50.4749803,6.19703799 51.931987,6.74307245 52.9485185,7.83515776 C53.9650501,8.92724307 54.4733083,10.4829262 54.4733083,12.5022537 L54.4733083,23.4436574 L50.5948688,23.4436574 L50.5948688,13.4140373 C50.5948688,12.1158982 50.3133719,11.1448841 49.7503698,10.5009659 C49.1873677,9.85704765 48.3168127,9.53509337 47.1386787,9.53509337 C46.3775833,9.53509337 45.712938,9.69993396 45.1447229,10.0296201 C44.5765079,10.3593062 44.1386239,10.8306473 43.8310579,11.4436574 C43.523492,12.0566676 43.3697113,12.7752695 43.3697113,13.5994849 L43.3697113,23.4436574 L39.4912718,23.4436574 L39.4912718,6.53702511 L43.2289615,6.53702511 Z M60.9259056,22.6555055 C59.8624572,21.9446198 59.0466377,20.9323955 58.4784226,19.6188023 C57.9102075,18.3052091 57.6261042,16.757253 57.6261042,14.9748873 C57.6261042,13.2028244 57.9128139,11.6625951 58.486242,10.3541533 C59.0596701,9.04571142 59.8754896,8.03606279 60.933725,7.32517708 C61.9919604,6.61429136 63.2352381,6.25885383 64.6635952,6.25885383 C65.8313033,6.25885383 66.8738841,6.52156853 67.791369,7.0470058 C68.7088539,7.57244307 69.3969573,8.29877193 69.8556997,9.22601417 L70.1215605,9.22601417 L70.1215605,0 L74,0 L74,23.4436574 L70.2466715,23.4436574 L70.2466715,20.7701223 L69.9808107,20.7701223 C69.4907903,21.6973646 68.7792289,22.4211178 67.8461051,22.9414037 C66.9129812,23.4616897 65.8521552,23.7218287 64.6635952,23.7218287 C63.2352381,23.7218287 61.989354,23.3663912 60.9259056,22.6555055 Z M63.5923327,10.1764327 C62.9511359,10.6142971 62.4585164,11.2453275 62.1144596,12.0695428 C61.7704028,12.8937581 61.5983769,13.8673479 61.5983769,14.9903413 C61.5983769,16.1236373 61.7704028,17.0998027 62.1144596,17.9188667 C62.4585164,18.7379307 62.9511359,19.3663854 63.5923327,19.8042498 C64.2335296,20.2421142 64.9920071,20.4610431 65.8677881,20.4610431 C66.7539952,20.4610431 67.5202921,20.2421142 68.1667019,19.8042498 C68.8131117,19.3663854 69.3083376,18.7353551 69.6523944,17.9111397 C69.9964513,17.0869244 70.1684771,16.1133347 70.1684771,14.9903413 C70.1684771,13.8776506 69.9938448,12.9092121 69.644575,12.0849968 C69.2953052,11.2607815 68.7974728,10.6271754 68.151063,10.1841597 C67.5046532,9.74114395 66.7435692,9.51963941 65.8677881,9.51963941 C64.9920071,9.51963941 64.2335296,9.73856832 63.5923327,10.1764327 Z" id="Send"></path>
                </g>
            </g>
        </g>
    </g>
</svg>
