<svg width="30" height="27" viewBox="0 0 30 27" xmlns="http://www.w3.org/2000/svg"><title>send logo</title><g stroke="#3E3D40" fill="none" fill-rule="evenodd"><path d="M22.364 19.989l-2.153-2.103a2.046 2.046 0 0 0-2.665-.151l3.402 3.323a.531.531 0 0 1 0 .766l-2.466 2.408a.563.563 0 0 1-.784 0l-3.398-3.32a1.932 1.932 0 0 0 .188 2.564l2.153 2.103c.788.77 2.066.77 2.855 0l2.868-2.802a1.94 1.94 0 0 0 0-2.788M8.77 14.745a.534.534 0 0 0 0 .766l3.399 3.32a2.05 2.05 0 0 1-2.625-.184l-2.153-2.102a1.94 1.94 0 0 1 0-2.79l2.869-2.801a2.052 2.052 0 0 1 2.854 0l2.153 2.103c.73.713.775 1.83.154 2.603l-3.401-3.323a.565.565 0 0 0-.784 0L8.77 14.745zm9.464 5.682a.777.777 0 0 1 0 1.118.822.822 0 0 1-1.144 0l-5.6-5.47a.777.777 0 0 1 0-1.118.822.822 0 0 1 1.144 0l5.6 5.47z" stroke-width=".618" fill="#3E3D40"/><path d="M6.065 20.606c-2.913-1.586-3.988-3.656-3.988-6.468 0-2.81 2.265-6.425 5.786-6.289.1.004.55-.006.649 0 .895-3.27 2.508-6.353 6.898-6.353 4.557 0 7.336 3.716 6.75 7.785.08-.005 1.232.17 1.31.186 3.096.644 4.915 3.275 4.915 5.18 0 1.905-.107 3.029-2.023 4.947" stroke-width="2.4" stroke-linecap="round" stroke-linejoin="round"/></g></svg>