<svg width="820" height="282" viewBox="0 0 820 282" xmlns="http://www.w3.org/2000/svg" xmlns:xlink="http://www.w3.org/1999/xlink"><title>Untitled</title><defs><filter x="-.8%" y="-1.8%" width="101.6%" height="105%" filterUnits="objectBoundingBox" id="a"><feOffset dy="2" in="SourceAlpha" result="shadowOffsetOuter1"/><feGaussianBlur stdDeviation="2" in="shadowOffsetOuter1" result="shadowBlurOuter1"/><feColorMatrix values="0 0 0 0 0 0 0 0 0 0 0 0 0 0 0 0 0 0 0.5 0" in="shadowBlurOuter1" result="shadowMatrixOuter1"/><feMerge><feMergeNode in="shadowMatrixOuter1"/><feMergeNode in="SourceGraphic"/></feMerge></filter><path id="b" d="M0 .083h900v281H0z"/></defs><g filter="url(#a)" transform="translate(-40 2)" fill="none" fill-rule="evenodd"><path d="M0 .415h900v281H0z" fill-rule="nonzero" fill="#FFF"/><mask id="c" fill="#fff"><use xlink:href="#b"/></mask><g mask="url(#c)"><g opacity=".4" stroke="#D7D7DB"><path d="M205.704 39.364l-30.51-7.044c-3.356-.775-5.475-4.127-4.708-7.45l9.762-42.283c.767-3.322 4.14-5.406 7.497-4.632l18.306 4.227L220.174 4.53 213.2 34.732c-.767 3.322-4.14 5.407-7.497 4.632z" stroke-width="3.331" stroke-linecap="round" stroke-linejoin="round"/><path d="M186.49 8.015l19.746 4.558m-21.502 3.053l19.745 4.558m-21.503 3.053l19.745 4.558" stroke-width="1.11" stroke-linecap="square"/><path stroke-width="2.22" stroke-linecap="round" stroke-linejoin="round" d="M204.558-12.344L201.42 1.252l13.735 3.17"/></g><g opacity=".4" stroke="#D7D7DB"><path d="M31.032 217.816L5.172 176.43c-2.845-4.552-1.503-10.57 2.982-13.372l57.08-35.668c4.485-2.803 10.482-1.37 13.327 3.181l15.516 24.831-8.947 40.117-40.772 25.477c-4.485 2.803-10.481 1.37-13.326-3.181z" stroke-width="5.181" stroke-linecap="round" stroke-linejoin="round"/><path d="M44.24 162.2l16.735 26.781M33.966 168.62L50.7 195.402M23.691 175.04l16.735 26.782" stroke-width="1.727" stroke-linecap="square"/><path stroke-width="3.454" stroke-linecap="round" stroke-linejoin="round" d="M86.434 159.769l-18.353 11.468 11.64 18.63"/></g><g opacity=".38" stroke="#FFF"><path d="M254.051 166.08l-16.238-12.237c-1.787-1.346-2.152-3.902-.812-5.68l17.056-22.634c1.34-1.778 3.898-2.132 5.684-.786l9.743 7.342 2.434 17.042-12.182 16.167c-1.34 1.778-3.898 2.132-5.685.786z" stroke-width="2.176" stroke-linecap="round" stroke-linejoin="round"/><path d="M250.992 142.331l10.509 7.919m-13.579-3.845l10.509 7.92m-13.579-3.846l10.509 7.92" stroke-width=".725" stroke-linecap="square"/><path stroke-width="1.451" stroke-linecap="round" stroke-linejoin="round" d="M267.14 134.955l-5.484 7.278 7.31 5.508"/></g><g opacity=".4" transform="rotate(-23 7.57 -22.38)"><path d="M70.272 103.618h-58.56C5.27 103.618 0 98.438 0 92.105V11.513C0 5.181 5.27 0 11.712 0h35.136l35.136 34.54v57.565c0 6.332-5.27 11.513-11.712 11.513z" stroke="#D7D7DB" stroke-width="6.217" stroke-linecap="round" stroke-linejoin="round"/><path d="M9.664 90.35l15.671-35.62a2.072 2.072 0 0 1 3.693-.2L40.58 74.58a2.072 2.072 0 0 0 2.429.938l14.373-4.61a2.072 2.072 0 0 1 2.372.846l11.86 18.303a2.072 2.072 0 0 1-1.74 3.2H11.56a2.072 2.072 0 0 1-1.896-2.907z" fill="#D7D7DB"/><path d="M10.612 90.767a1.036 1.036 0 0 0 .948 1.453h58.315a1.036 1.036 0 0 0 .87-1.6l-11.86-18.303a1.036 1.036 0 0 0-1.186-.423l-14.372 4.61a3.109 3.109 0 0 1-3.643-1.407L28.13 55.047a1.036 1.036 0 0 0-1.846.1l-15.672 35.62z" stroke="#FFF" stroke-width="2.072"/><ellipse fill="#D7D7DB" fill-rule="nonzero" cx="54.656" cy="55.954" rx="8.409" ry="8.289"/><path stroke="#D7D7DB" stroke-width="4.145" stroke-linecap="round" stroke-linejoin="round" d="M46.43 10.53v25.914h26.361"/></g><g opacity=".4" transform="rotate(-31 246.483 -950.839)"><path d="M36.6 54.656H6.1c-3.355 0-6.1-2.733-6.1-6.073V6.073C0 2.733 2.745 0 6.1 0h18.3l18.3 18.219v30.364c0 3.34-2.745 6.073-6.1 6.073z" stroke="#D7D7DB" stroke-width="3.279" stroke-linecap="round" stroke-linejoin="round"/><path d="M5.031 47.662l8.152-18.765a1.093 1.093 0 0 1 1.952-.105l5.996 10.537c.256.45.794.66 1.288.499l7.45-2.42c.474-.155.991.03 1.26.45l6.174 9.65a1.093 1.093 0 0 1-.921 1.682H6.034a1.093 1.093 0 0 1-1.003-1.528z" fill="#D7D7DB"/><path d="M5.532 47.88a.547.547 0 0 0 .502.764h30.348a.547.547 0 0 0 .46-.841l-6.174-9.65a.547.547 0 0 0-.63-.226l-7.45 2.42a1.64 1.64 0 0 1-1.932-.748L14.66 29.063a.547.547 0 0 0-.976.052L5.532 47.88z" stroke="#FFF" stroke-width="1.093"/><ellipse fill="#D7D7DB" fill-rule="nonzero" cx="28.467" cy="29.514" rx="4.379" ry="4.372"/></g><g opacity=".4" transform="rotate(-47 599.89 -816.57)"><path d="M58.56 88.816H9.76c-5.368 0-9.76-4.441-9.76-9.869V9.868C0 4.441 4.392 0 9.76 0h29.28l29.28 29.605v49.342c0 5.428-4.392 9.869-9.76 9.869z" stroke="#D7D7DB" stroke-width="5.311" stroke-linecap="round" stroke-linejoin="round"/><path d="M8.042 77.468l13.03-30.462a1.77 1.77 0 0 1 3.172-.17l9.557 17.058a1.77 1.77 0 0 0 2.099.816l11.862-3.914a1.77 1.77 0 0 1 2.053.738l9.881 15.686a1.77 1.77 0 0 1-1.498 2.714H9.67a1.77 1.77 0 0 1-1.628-2.466z" fill="#D7D7DB"/><path d="M8.856 77.816a.885.885 0 0 0 .814 1.233h48.528a.885.885 0 0 0 .75-1.357l-9.882-15.686a.885.885 0 0 0-1.026-.369l-11.863 3.914a2.656 2.656 0 0 1-3.149-1.224L23.472 47.27a.885.885 0 0 0-1.586.084L8.856 77.816z" stroke="#FFF" stroke-width="1.77"/><ellipse fill="#D7D7DB" fill-rule="nonzero" cx="45.547" cy="47.961" rx="7.007" ry="7.105"/><path stroke="#D7D7DB" stroke-width="3.541" stroke-linecap="round" stroke-linejoin="round" d="M38.692 9.026v22.211H60.66"/></g><g opacity=".615"><path d="M349.344 13.434l-24.07 6.002c-2.648.66-5.351-.955-6.008-3.588l-8.356-33.513c-.656-2.634.973-5.328 3.62-5.988l14.442-3.601 18.023 10.762 5.969 23.938c.656 2.634-.973 5.328-3.62 5.988z" stroke="#D7D7DB" stroke-width="2.664" opacity=".4" stroke-linecap="round" stroke-linejoin="round"/><path d="M338.44-8.362l-.27.11c-.07-.064-.137-.129-.207-.19l.05.253-10.643 4.3c-.047-.043-.092-.087-.14-.129l.034.171-.133.054.513 2.058c.417 1.884.848 3.808 1.334 5.755.431 1.73.9 3.41 1.382 5.068-.66-.41-1.687-.603-2.806-.464-1.832.229-3.211 1.26-3.082 2.304.13 1.044 1.72 1.706 3.55 1.477 1.833-.228 3.212-1.26 3.083-2.303-.005-.04-.015-.076-.024-.114.013-.038.028-.075.04-.114a136.729 136.729 0 0 0-1.358-6.05c-.492-1.972-.891-3.93-1.449-5.81l10.11-4.104c.382 1.87.808 3.767 1.286 5.686.431 1.73.9 3.41 1.383 5.067-.661-.409-1.688-.603-2.806-.463-1.832.228-3.212 1.26-3.082 2.304.129 1.044 1.719 1.705 3.55 1.477 1.832-.229 3.212-1.26 3.082-2.304-.005-.039-.015-.076-.024-.114.012-.038.028-.075.04-.113a136.729 136.729 0 0 0-1.358-6.05 135.566 135.566 0 0 0-1.554-5.698l-.5-2.064z" fill="#D7D7DB" fill-rule="nonzero"/></g><g opacity=".4"><path d="M693.556 30.014l-45.638-14.828c-5.02-1.631-7.808-7.027-6.195-11.99l20.525-63.172c1.613-4.963 7.04-7.69 12.06-6.058l27.383 8.897 18.586 35.97-14.661 45.123c-1.613 4.963-7.04 7.69-12.06 6.058z" stroke="#D7D7DB" stroke-width="5.173" stroke-linecap="round" stroke-linejoin="round"/><path d="M697.93-16.662l-.557-.098c-.049-.174-.093-.348-.145-.522l-.179.465-21.86-3.874c-.033-.118-.061-.236-.097-.352l-.12.313-.274-.049-1.26 3.88c-1.24 3.498-2.498 7.074-3.69 10.745a253.696 253.696 0 0 0-2.909 9.674c-.667-1.343-2.154-2.708-4.132-3.625-3.24-1.5-6.558-1.23-7.413.604-.854 1.834 1.08 4.538 4.319 6.038 3.24 1.501 6.558 1.231 7.413-.603.031-.069.052-.14.076-.21.06-.05.124-.094.182-.144a261.4 261.4 0 0 0 3.951-11.25c1.209-3.718 2.554-7.32 3.56-10.953l20.786 3.648a258.936 258.936 0 0 0-3.698 10.582 253.696 253.696 0 0 0-2.908 9.674c-.667-1.342-2.154-2.708-4.132-3.625-3.24-1.5-6.559-1.23-7.412.605-.855 1.834 1.078 4.537 4.318 6.037 3.24 1.502 6.558 1.231 7.412-.603.032-.069.053-.14.077-.21.059-.05.123-.094.182-.144a261.4 261.4 0 0 0 3.951-11.25 259.176 259.176 0 0 0 3.272-10.878l1.286-3.875z" fill="#D7D7DB" fill-rule="nonzero"/></g><g opacity=".4"><path d="M808.281 87.93l-42.558-42.56c-4.681-4.681-4.727-12.296-.102-16.921l58.866-58.866c4.625-4.625 12.24-4.58 16.921.102L866.943-4.78l.307 50.763-42.047 42.048c-4.626 4.625-12.24 4.579-16.922-.103z" stroke="#D7D7DB" stroke-width="6.405" stroke-linecap="round" stroke-linejoin="round"/><path stroke="#D7D7DB" stroke-width="4.27" stroke-linecap="round" stroke-linejoin="round" d="M858.948 2.61l-18.927 18.927 19.157 19.158"/><text transform="rotate(45 399.202 990.538)" font-size="38.43" font-family="Helvetica" fill="#D7D7DB"><tspan x=".274" y="38.954">{ }</tspan></text></g></g></g></svg>