<svg xmlns="http://www.w3.org/2000/svg" xmlns:xlink="http://www.w3.org/1999/xlink" width="24" height="24" viewBox="0 0 24 24">
  <defs>
    <polygon id="addfiles-a" points="11.143 6 11.143 11.143 6 11.143 6 12.857 11.143 12.857 11.143 18 12.857 18 12.857 12.857 18 12.857 18 11.143 12.857 11.143 12.857 6"/>
  </defs>
  <g fill="none" fill-rule="evenodd">
    <path fill="#0060df" fill-rule="nonzero" d="M12,22.6666667 C17.8910373,22.6666667 22.6666667,17.8910373 22.6666667,12 C22.6666667,6.10896267 17.8910373,1.33333333 12,1.33333333 C6.10896267,1.33333333 1.33333333,6.10896267 1.33333333,12 C1.33333333,17.8910373 6.10896267,22.6666667 12,22.6666667 Z M12,24 C5.372583,24 0,18.627417 0,12 C0,5.372583 5.372583,0 12,0 C18.627417,0 24,5.372583 24,12 C24,18.627417 18.627417,24 12,24 Z"/>
    <use fill="#0060df" xlink:href="#addfiles-a"/>
  </g>
</svg>
