<?xml version="1.0" encoding="UTF-8"?>
<svg width="33px" height="33px" viewBox="0 0 33 33" version="1.1" xmlns="http://www.w3.org/2000/svg" xmlns:xlink="http://www.w3.org/1999/xlink">
    <!-- Generator: Sketch 51.1 (57501) - http://www.bohemiancoding.com/sketch -->
    <title>Shape</title>
    <desc>Created with Sketch.</desc>
    <defs></defs>
    <g id="Page-1" stroke="none" stroke-width="1" fill="none" fill-rule="evenodd">
        <path d="M13.799417,16.627417 L9.213417,21.213417 C8.45547258,21.9981748 8.46631225,23.2455866 9.23777985,24.0170541 C10.0092474,24.7885217 11.2566592,24.7993614 12.041417,24.041417 L16.627417,19.455417 L21.213417,24.041417 C21.9981748,24.7993614 23.2455866,24.7885217 24.0170541,24.0170541 C24.7885217,23.2455866 24.7993614,21.9981748 24.041417,21.213417 L19.455417,16.627417 L24.041417,12.041417 C24.5613302,11.5392681 24.7698422,10.7956612 24.5868113,10.0964024 C24.4037804,9.39714349 23.8576905,8.85105357 23.1584316,8.66802268 C22.4591728,8.4849918 21.7155659,8.69350383 21.213417,9.213417 L16.627417,13.799417 L12.041417,9.213417 C11.2566592,8.45547258 10.0092474,8.46631225 9.23777985,9.23777985 C8.46631225,10.0092474 8.45547258,11.2566592 9.213417,12.041417 L13.799417,16.627417 Z M16.627417,0.627416998 C25.463973,0.627416998 32.627417,7.790861 32.627417,16.627417 C32.627417,25.463973 25.463973,32.627417 16.627417,32.627417 C7.790861,32.627417 0.627416998,25.463973 0.627416998,16.627417 C0.627416998,7.790861 7.790861,0.627416998 16.627417,0.627416998 Z" id="Shape" fill="#737373" transform="translate(16.627417, 16.627417) rotate(45.000000) translate(-16.627417, -16.627417) "></path>
    </g>
</svg>