<?xml version="1.0" encoding="UTF-8"?>
<svg width="1440px" height="909px" viewBox="0 0 1440 909" version="1.1" xmlns="http://www.w3.org/2000/svg" xmlns:xlink="http://www.w3.org/1999/xlink">
    <!-- Generator: sketchtool 53 (72520) - https://sketchapp.com -->
    <title>71CDA8D6-6870-4A28-B45F-707A97F95302</title>
    <desc>Created with sketchtool.</desc>
    <defs>
        <rect id="path-1" x="0" y="0.791595976" width="1440" height="938.017204"></rect>
    </defs>
    <g id="Page-1" stroke="none" stroke-width="1" fill="none" fill-rule="evenodd">
        <g id="Send_Home-Spec">
            <g id="Pattern-3">
                <g id="bg-shapes-01" transform="translate(0.000000, -0.791596)">
                    <mask id="mask-2" fill="white">
                        <use xlink:href="#path-1"></use>
                    </mask>
                    <use id="Mask" fill-opacity="0" fill="#FFFFFF" xlink:href="#path-1"></use>
                    <g mask="url(#mask-2)" fill="#FFFFFF" fill-rule="nonzero">
                        <g transform="translate(-41.000000, -205.881720)">
                            <ellipse id="Oval" cx="43.4808403" cy="716.468133" rx="43.4511199" ry="43.6380065"></ellipse>
                            <path d="M398.104382,765.687158 C432.728564,765.687158 460.784554,737.505523 460.784554,702.737394 C460.784554,667.96429 432.723611,639.787629 398.104382,639.787629 C284.468706,639.787629 192.023625,546.944935 192.023625,432.820504 C192.023625,318.696074 284.468706,225.853379 398.104382,225.853379 C432.728564,225.853379 460.784554,197.671744 460.784554,162.903615 C460.784554,128.135486 432.723611,99.9538503 398.104382,99.9538503 C215.34913,99.9538503 66.6583273,249.284183 66.6583273,432.825479 C66.6583273,616.366775 215.34913,765.687158 398.104382,765.687158 Z" id="Path"></path>
                            <path d="M107.784833,1107.52553 L220.731988,994.092583 C225.670516,989.132814 228.444413,982.402054 228.444413,975.387737 C228.444413,968.37342 225.670516,961.642661 220.731988,956.682892 L107.784833,843.254918 C97.4966464,832.922481 80.8185889,832.922481 70.5304019,843.254918 C60.2422149,853.587355 60.2422149,870.337147 70.5304019,880.669584 L164.852817,975.392712 L70.5304019,1070.11087 C60.2422149,1080.4433 60.2422149,1097.19309 70.5304019,1107.52553 C75.6769721,1112.69424 82.4135798,1115.2761 89.1600944,1115.2761 C95.8967021,1115.27113 102.643217,1112.68926 107.784833,1107.52553 Z" id="Path"></path>
                            <path d="M1243.53296,742.3701 L1551.67595,432.907005 C1565.14873,419.376274 1572.71935,401.017629 1572.71935,381.87353 C1572.71935,362.729432 1565.14873,344.370786 1551.67595,330.840055 L1243.53296,21.3769605 C1215.46119,-6.80507938 1169.96447,-6.80507938 1141.8927,21.3769605 C1113.83136,49.5590004 1113.83136,95.2618701 1141.8927,123.44391 L1399.22598,381.87353 L1141.8927,640.30315 C1113.83136,668.48519 1113.83136,714.18806 1141.8927,742.3701 C1155.92859,756.466356 1174.3181,763.509248 1192.71283,763.509248 C1211.09713,763.509248 1229.49707,756.46112 1243.53296,742.3701 Z" id="Path"></path>
                            <ellipse id="Oval" cx="1417.39037" cy="673.515125" rx="30" ry="30.1290323"></ellipse>
                            <path d="M1068.44288,969.593673 C1068.44288,985.323653 1081.13346,998.068816 1096.79607,998.068816 C1112.45869,998.068816 1125.14927,985.323653 1125.14927,969.593673 C1125.14927,917.971285 1166.96577,875.969952 1218.37203,875.969952 C1269.77829,875.969952 1311.59479,917.96631 1311.59479,969.593673 C1311.59479,985.323653 1324.28537,998.068816 1339.94799,998.068816 C1355.6106,998.068816 1368.30118,985.323653 1368.30118,969.593673 C1368.30118,886.571023 1301.04408,819.019668 1218.37203,819.019668 C1135.69998,819.019668 1068.44288,886.566048 1068.44288,969.593673 Z" id="Path"></path>
                        </g>
                    </g>
                </g>
            </g>
        </g>
    </g>
</svg>