<?xml version="1.0" encoding="UTF-8"?>
<svg version="1.1" xmlns="http://www.w3.org/2000/svg" xmlns:xlink="http://www.w3.org/1999/xlink">
    <symbol id="icon" viewBox="0 0 26 32">
    <defs>
        <path d="M21.848475,31.6653183 L2.89005487,31.6653183 C1.32717435,31.6653183 0.104050469,30.3742431 0.104050469,28.8793139 L0.104050469,2.7860044 C0.104050469,1.22312388 1.39512568,0 2.89005487,0 L14.7135857,0 C15.4610503,0 16.2085149,0.271805307 16.6841742,0.815415921 L23.8190635,7.95030523 C24.3626741,8.49391584 24.6344794,9.17342911 24.6344794,9.9208937 L24.6344794,28.8793139 C24.6344794,30.3742431 23.4113555,31.6653183 21.848475,31.6653183 Z" id="path-1"></path>
    </defs>
    <g id="Page-1" stroke="none" stroke-width="1" fill="none" fill-rule="evenodd">
        <g id="Send_Ready_to_Send-Spec" transform="translate(-277.000000, -206.000000)">
            <g id="List-Item-1" transform="translate(253.000000, 192.000000)">
                <g id="Locked-File-Icon" transform="translate(24.000000, 14.000000)">
                    <g id="File-Icon">
                        <mask id="mask-2" fill="white">
                            <use xlink:href="#path-1"></use>
                        </mask>
                        <use id="Mask" fill="#45a1ff" xlink:href="#path-1"></use>
                        <path d="M24.3031318,10.6474633 L16.7826187,10.6474633 C15.2742552,10.6474633 14.051485,9.42469306 14.051485,7.91632957 L14.051485,0.395816478" id="Path" stroke="currentColor" stroke-width="2" stroke-linecap="round" mask="url(#mask-2)"></path>
                        <path d="M7.2830232,8.93885547 L8.91906464,8.93885547" id="Path" stroke="currentColor" stroke-width="2" stroke-linecap="round" mask="url(#mask-2)"></path>
                        <path d="M7.2830232,15.7798836 L17.5412669,15.7798836" id="Path" stroke="currentColor" stroke-width="2" stroke-linecap="round" mask="url(#mask-2)"></path>
                        <path d="M7.2830232,22.6209117 L17.5412669,22.6209117" id="Path" stroke="currentColor" stroke-width="2" stroke-linecap="round" mask="url(#mask-2)"></path>
                    </g>
                </g>
            </g>
        </g>
    </g>
    </symbol>
</svg>