<?xml version="1.0" encoding="UTF-8"?>
<svg width="336px" height="210px" viewBox="0 0 336 210" version="1.1" xmlns="http://www.w3.org/2000/svg" xmlns:xlink="http://www.w3.org/1999/xlink">
    <!-- Generator: sketchtool 53.1 (72631) - https://sketchapp.com -->
    <title>CC310D7B-7EC7-4AEF-90E5-10044C2FA0F1</title>
    <desc>Created with sketchtool.</desc>
    <defs>
        <linearGradient x1="-28.184294%" y1="-47.2118902%" x2="84.470028%" y2="96.7133243%" id="linearGradient-1">
            <stop stop-color="#FA357F" offset="0%"></stop>
            <stop stop-color="#7878FF" offset="99.91%"></stop>
        </linearGradient>
        <linearGradient x1="20.1958296%" y1="50.3861311%" x2="169.064414%" y2="48.680104%" id="linearGradient-2">
            <stop stop-color="#FFF361" offset="0%"></stop>
            <stop stop-color="#FFA80A" offset="100%"></stop>
        </linearGradient>
        <linearGradient x1="7.13940616%" y1="-13.3627152%" x2="84.3212705%" y2="120.017199%" id="linearGradient-3">
            <stop stop-color="#FF5162" offset="0%"></stop>
            <stop stop-color="#83219D" offset="100%"></stop>
        </linearGradient>
        <linearGradient x1="50.0466667%" y1="98.7466885%" x2="50.0466667%" y2="63.9770799%" id="linearGradient-4">
            <stop stop-color="#008787" offset="0.4302823%"></stop>
            <stop stop-color="#005E5E" offset="99.91%"></stop>
        </linearGradient>
        <linearGradient x1="34.0866057%" y1="25.5581764%" x2="59.4765337%" y2="63.0992243%" id="linearGradient-5">
            <stop stop-color="#FFD943" offset="0%"></stop>
            <stop stop-color="#FFA80A" offset="100%"></stop>
        </linearGradient>
        <linearGradient x1="21.6627829%" y1="-7.19090722%" x2="65.1350317%" y2="106.40324%" id="linearGradient-6">
            <stop stop-color="#FF8748" offset="0%"></stop>
            <stop stop-color="#FE7852" offset="13.28%"></stop>
            <stop stop-color="#FC546A" offset="50.49%"></stop>
            <stop stop-color="#FA3D79" offset="80.73%"></stop>
            <stop stop-color="#FA357F" offset="100%"></stop>
        </linearGradient>
    </defs>
    <g id="Page-1" stroke="none" stroke-width="1" fill="none" fill-rule="evenodd">
        <g id="Send_Download-Completed" transform="translate(-552.000000, -339.000000)" fill-rule="nonzero">
            <g id="firefox-send_illustrations-03" transform="translate(552.000000, 339.000000)">
                <ellipse id="Oval" fill="#EDEDF0" opacity="0.5" cx="165.886875" cy="198.410625" rx="73.52625" ry="11.563125"></ellipse>
                <g id="Group" transform="translate(0.000000, 39.375000)" fill="#EDEDF0" opacity="0.5">
                    <g transform="translate(30.187500, 116.812500)">
                        <g transform="translate(21.000000, 5.250000)" id="Path">
                            <path d="M1.575,3.255 L91.546875,3.255 C92.26875,3.255 92.859375,2.664375 92.859375,1.9425 C92.859375,1.220625 92.26875,0.63 91.546875,0.63 L1.575,0.63 C0.853125,0.63 0.2625,1.220625 0.2625,1.9425 C0.2625,2.664375 0.853125,3.255 1.575,3.255 Z"></path>
                        </g>
                        <g transform="translate(76.125000, 0.000000)" id="Path">
                            <path d="M1.693125,1.8375 L24.268125,1.8375 C24.635625,1.8375 24.924375,1.54875 24.924375,1.18125 C24.924375,0.81375 24.635625,0.525 24.268125,0.525 L1.693125,0.525 C1.325625,0.525 1.036875,0.81375 1.036875,1.18125 C1.036875,1.54875 1.325625,1.8375 1.693125,1.8375 Z"></path>
                        </g>
                        <g transform="translate(0.000000, 11.812500)" id="Shape">
                            <path d="M0.525,1.89 C0.525,1.5225 0.81375,1.23375 1.18125,1.23375 L5.11875,1.23375 C5.48625,1.23375 5.775,1.5225 5.775,1.89 C5.775,2.2575 5.48625,2.54625 5.11875,2.54625 L1.18125,2.54625 C0.81375,2.54625 0.525,2.2575 0.525,1.89 Z M14.9625,1.89 C14.9625,1.5225 15.25125,1.23375 15.61875,1.23375 L31.36875,1.23375 C31.73625,1.23375 32.025,1.5225 32.025,1.89 C32.025,2.2575 31.73625,2.54625 31.36875,2.54625 L15.61875,2.54625 C15.25125,2.54625 14.9625,2.2575 14.9625,1.89 Z M42.525,1.89 C42.525,1.5225 42.81375,1.23375 43.18125,1.23375 L44.49375,1.23375 C44.86125,1.23375 45.15,1.5225 45.15,1.89 C45.15,2.2575 44.86125,2.54625 44.49375,2.54625 L43.18125,2.54625 C42.81375,2.54625 42.525,2.2575 42.525,1.89 Z M49.0875,1.89 C49.0875,1.5225 49.37625,1.23375 49.74375,1.23375 L53.68125,1.23375 C54.04875,1.23375 54.3375,1.5225 54.3375,1.89 C54.3375,2.2575 54.04875,2.54625 53.68125,2.54625 L49.74375,2.54625 C49.37625,2.54625 49.0875,2.2575 49.0875,1.89 Z M63.525,1.89 C63.525,1.5225 63.81375,1.23375 64.18125,1.23375 L79.93125,1.23375 C80.29875,1.23375 80.5875,1.5225 80.5875,1.89 C80.5875,2.2575 80.29875,2.54625 79.93125,2.54625 L64.18125,2.54625 C63.81375,2.54625 63.525,2.2575 63.525,1.89 Z"></path>
                        </g>
                    </g>
                    <g transform="translate(123.375000, 72.187500)">
                        <g transform="translate(26.250000, 5.250000)" id="Path">
                            <path d="M1.771875,3.163125 L147.039375,3.163125 C147.76125,3.163125 148.351875,2.5725 148.351875,1.850625 C148.351875,1.12875 147.76125,0.538125 147.039375,0.538125 L1.771875,0.538125 C1.05,0.538125 0.459375,1.12875 0.459375,1.850625 C0.459375,2.5725 1.05,3.163125 1.771875,3.163125 Z"></path>
                        </g>
                        <g transform="translate(45.937500, 0.000000)" id="Path">
                            <path d="M1.70625,1.850625 L38.14125,1.850625 C38.50875,1.850625 38.7975,1.561875 38.7975,1.194375 C38.7975,0.826875 38.50875,0.538125 38.14125,0.538125 L1.70625,0.538125 C1.33875,0.538125 1.05,0.826875 1.05,1.194375 C1.05,1.561875 1.351875,1.850625 1.70625,1.850625 Z"></path>
                        </g>
                        <g transform="translate(0.000000, 11.812500)" id="Shape">
                            <path d="M1.2075,1.666875 C1.2075,1.299375 1.49625,1.010625 1.86375,1.010625 L17.61375,1.010625 C17.98125,1.010625 18.27,1.299375 18.27,1.666875 C18.27,2.034375 17.98125,2.323125 17.61375,2.323125 L1.86375,2.323125 C1.49625,2.323125 1.2075,2.034375 1.2075,1.666875 Z M27.4575,1.666875 C27.4575,1.299375 27.74625,1.010625 28.11375,1.010625 L32.05125,1.010625 C32.41875,1.010625 32.7075,1.299375 32.7075,1.666875 C32.7075,2.034375 32.41875,2.323125 32.05125,2.323125 L28.11375,2.323125 C27.74625,2.323125 27.4575,2.034375 27.4575,1.666875 Z M36.645,1.666875 C36.645,1.299375 36.93375,1.010625 37.30125,1.010625 L38.61375,1.010625 C38.98125,1.010625 39.27,1.299375 39.27,1.666875 C39.27,2.034375 38.98125,2.323125 38.61375,2.323125 L37.30125,2.323125 C36.93375,2.323125 36.645,2.034375 36.645,1.666875 Z M49.77,1.666875 C49.77,1.299375 50.05875,1.010625 50.42625,1.010625 L66.17625,1.010625 C66.54375,1.010625 66.8325,1.299375 66.8325,1.666875 C66.8325,2.034375 66.54375,2.323125 66.17625,2.323125 L50.42625,2.323125 C50.05875,2.323125 49.77,2.034375 49.77,1.666875 Z M76.02,1.666875 C76.02,1.299375 76.30875,1.010625 76.67625,1.010625 L80.61375,1.010625 C80.98125,1.010625 81.27,1.299375 81.27,1.666875 C81.27,2.034375 80.98125,2.323125 80.61375,2.323125 L76.67625,2.323125 C76.30875,2.323125 76.02,2.034375 76.02,1.666875 Z M85.2075,1.666875 C85.2075,1.299375 85.49625,1.010625 85.86375,1.010625 L87.17625,1.010625 C87.54375,1.010625 87.8325,1.299375 87.8325,1.666875 C87.8325,2.034375 87.54375,2.323125 87.17625,2.323125 L85.86375,2.323125 C85.49625,2.323125 85.2075,2.034375 85.2075,1.666875 Z M98.3325,1.666875 C98.3325,1.299375 98.62125,1.010625 98.98875,1.010625 L114.73875,1.010625 C115.10625,1.010625 115.395,1.299375 115.395,1.666875 C115.395,2.034375 115.10625,2.323125 114.73875,2.323125 L98.98875,2.323125 C98.62125,2.323125 98.3325,2.034375 98.3325,1.666875 Z M124.5825,1.666875 C124.5825,1.299375 124.87125,1.010625 125.23875,1.010625 L129.17625,1.010625 C129.54375,1.010625 129.8325,1.299375 129.8325,1.666875 C129.8325,2.034375 129.54375,2.323125 129.17625,2.323125 L125.23875,2.323125 C124.87125,2.323125 124.5825,2.034375 124.5825,1.666875 Z M133.77,1.666875 C133.77,1.299375 134.05875,1.010625 134.42625,1.010625 L135.73875,1.010625 C136.10625,1.010625 136.395,1.299375 136.395,1.666875 C136.395,2.034375 136.10625,2.323125 135.73875,2.323125 L134.42625,2.323125 C134.05875,2.323125 133.77,2.034375 133.77,1.666875 Z M146.895,1.666875 C146.895,1.299375 147.18375,1.010625 147.55125,1.010625 L163.30125,1.010625 C163.66875,1.010625 163.9575,1.299375 163.9575,1.666875 C163.9575,2.034375 163.66875,2.323125 163.30125,2.323125 L147.55125,2.323125 C147.18375,2.323125 146.895,2.034375 146.895,1.666875 Z M173.145,1.666875 C173.145,1.299375 173.43375,1.010625 173.80125,1.010625 L177.73875,1.010625 C178.10625,1.010625 178.395,1.299375 178.395,1.666875 C178.395,2.034375 178.10625,2.323125 177.73875,2.323125 L173.80125,2.323125 C173.43375,2.323125 173.145,2.034375 173.145,1.666875 Z M182.3325,1.666875 C182.3325,1.299375 182.62125,1.010625 182.98875,1.010625 L184.30125,1.010625 C184.66875,1.010625 184.9575,1.299375 184.9575,1.666875 C184.9575,2.034375 184.66875,2.323125 184.30125,2.323125 L182.98875,2.323125 C182.62125,2.323125 182.3325,2.034375 182.3325,1.666875 Z M195.4575,1.666875 C195.4575,1.299375 195.74625,1.010625 196.11375,1.010625 L211.86375,1.010625 C212.23125,1.010625 212.52,1.299375 212.52,1.666875 C212.52,2.034375 212.23125,2.323125 211.86375,2.323125 L196.11375,2.323125 C195.74625,2.323125 195.4575,2.034375 195.4575,1.666875 Z"></path>
                        </g>
                    </g>
                    <g>
                        <path d="M2.139375,33.2325 L35.503125,33.2325 C35.503125,33.2325 25.06875,9.89625 47.22375,6.8775 C66.99,4.186875 74.799375,24.504375 74.799375,24.504375 C74.799375,24.504375 77.14875,12.78375 88.895625,15.028125 C100.485,17.233125 109.0425,35.88375 109.0425,35.88375 L138.10125,35.88375" id="Path"></path>
                        <g transform="translate(1.312500, 0.000000)" id="Shape">
                            <path d="M137.36625,30.37125 L128.7825,30.37125 C128.349375,30.37125 128.008125,30.03 128.008125,29.596875 C128.008125,29.16375 128.349375,28.8225 128.7825,28.8225 L137.36625,28.8225 C137.799375,28.8225 138.140625,29.16375 138.140625,29.596875 C138.140625,30.03 137.799375,30.37125 137.36625,30.37125 Z M114.883125,30.37125 L113.334375,30.37125 C112.90125,30.37125 112.56,30.03 112.56,29.596875 C112.56,29.16375 112.90125,28.8225 113.334375,28.8225 L114.883125,28.8225 C115.31625,28.8225 115.6575,29.16375 115.6575,29.596875 C115.6575,30.03 115.303125,30.37125 114.883125,30.37125 Z M34.755,29.439375 L32.274375,29.439375 C31.84125,29.439375 31.5,29.098125 31.5,28.665 C31.5,28.231875 31.84125,27.890625 32.274375,27.890625 L33.613125,27.890625 C33.508125,27.615 33.39,27.27375 33.25875,26.893125 C33.1275,26.48625 33.3375,26.053125 33.744375,25.90875 C34.15125,25.7775 34.584375,25.9875 34.72875,26.394375 C35.135625,27.58875 35.46375,28.32375 35.46375,28.336875 C35.56875,28.573125 35.5425,28.84875 35.41125,29.071875 C35.266875,29.308125 35.0175,29.439375 34.755,29.439375 Z M19.92375,29.439375 L1.39125,29.439375 C0.958125,29.439375 0.616875,29.098125 0.616875,28.665 C0.616875,28.231875 0.958125,27.890625 1.39125,27.890625 L19.92375,27.890625 C20.356875,27.890625 20.698125,28.231875 20.698125,28.665 C20.698125,29.098125 20.34375,29.439375 19.92375,29.439375 Z M107.769375,29.360625 C107.49375,29.360625 107.23125,29.21625 107.1,28.966875 C106.60125,28.0875 105.7875,26.69625 104.698125,25.06875 C104.461875,24.714375 104.55375,24.22875 104.908125,23.9925 C105.2625,23.75625 105.748125,23.848125 105.984375,24.2025 C107.1,25.869375 107.94,27.3 108.451875,28.205625 C108.661875,28.573125 108.530625,29.045625 108.15,29.255625 C108.01875,29.32125 107.8875,29.360625 107.769375,29.360625 Z M32.55,21.42 C32.169375,21.42 31.84125,21.144375 31.78875,20.750625 C31.71,20.23875 31.6575,19.700625 31.618125,19.1625 C31.57875,18.7425 31.906875,18.361875 32.326875,18.335625 C32.773125,18.309375 33.1275,18.61125 33.15375,19.044375 C33.193125,19.55625 33.245625,20.055 33.324375,20.540625 C33.39,20.960625 33.088125,21.354375 32.668125,21.406875 C32.62875,21.42 32.589375,21.42 32.55,21.42 Z M72.778125,18.020625 C72.5025,18.020625 72.24,17.87625 72.095625,17.61375 C71.8725,17.206875 71.623125,16.760625 71.3475,16.30125 C71.124375,15.93375 71.2425,15.46125 71.61,15.238125 C71.9775,15.015 72.45,15.133125 72.673125,15.500625 C72.961875,15.98625 73.224375,16.445625 73.460625,16.87875 C73.6575,17.259375 73.52625,17.71875 73.145625,17.92875 C73.0275,17.994375 72.89625,18.020625 72.778125,18.020625 Z M97.295625,16.051875 C97.111875,16.051875 96.94125,15.98625 96.796875,15.868125 C93.84375,13.335 90.90375,11.773125 88.029375,11.221875 C85.2075,10.68375 82.71375,10.959375 80.64,12.0225 C80.259375,12.219375 79.8,12.061875 79.603125,11.694375 C79.40625,11.31375 79.550625,10.854375 79.93125,10.6575 C82.306875,9.42375 85.155,9.10875 88.318125,9.7125 C91.455,10.31625 94.644375,11.983125 97.8075,14.7 C98.135625,14.975625 98.161875,15.46125 97.88625,15.789375 C97.715625,15.96 97.505625,16.051875 97.295625,16.051875 Z M68.394375,11.668125 C68.184375,11.668125 67.96125,11.57625 67.816875,11.405625 C66.80625,10.2375 65.716875,9.174375 64.60125,8.2425 C64.273125,7.966875 64.23375,7.48125 64.509375,7.153125 C64.785,6.825 65.270625,6.785625 65.59875,7.06125 C66.78,8.045625 67.921875,9.174375 68.985,10.395 C69.260625,10.723125 69.234375,11.20875 68.90625,11.484375 C68.74875,11.6025 68.565,11.668125 68.394375,11.668125 Z M36.553125,7.16625 C36.343125,7.16625 36.133125,7.074375 35.975625,6.916875 C35.686875,6.601875 35.713125,6.11625 36.028125,5.8275 C38.495625,3.59625 41.97375,2.1525 46.370625,1.561875 C49.06125,1.194375 51.699375,1.23375 54.193125,1.666875 C54.613125,1.745625 54.88875,2.139375 54.823125,2.559375 C54.744375,2.979375 54.350625,3.268125 53.930625,3.189375 C51.594375,2.7825 49.11375,2.75625 46.580625,3.0975 C42.49875,3.661875 39.29625,4.96125 37.065,6.9825 C36.920625,7.100625 36.736875,7.16625 36.553125,7.16625 Z"></path>
                        </g>
                        <g transform="translate(0.000000, 32.812500)" id="Path">
                            <path d="M139.636875,3.49125 L2.12625,3.49125 C1.273125,3.49125 0.5775,2.795625 0.5775,1.9425 C0.5775,1.089375 1.273125,0.39375 2.12625,0.39375 L139.636875,0.39375 C140.49,0.39375 141.185625,1.089375 141.185625,1.9425 C141.185625,2.795625 140.49,3.49125 139.636875,3.49125 Z"></path>
                        </g>
                    </g>
                    <g transform="translate(217.875000, 1.312500)">
                        <path d="M2.034375,19.359375 L20.65875,19.359375 C20.65875,19.359375 14.83125,6.339375 27.195,4.659375 C38.22,3.163125 42.590625,14.49 42.590625,14.49 C42.590625,14.49 43.903125,7.95375 50.465625,9.200625 C56.93625,10.434375 61.71375,20.8425 61.71375,20.8425 L77.923125,20.8425" id="Path"></path>
                        <g transform="translate(1.312500, 0.000000)" id="Shape">
                            <path d="M19.884375,17.2725 L1.28625,17.2725 C0.853125,17.2725 0.511875,16.93125 0.511875,16.498125 C0.511875,16.065 0.853125,15.72375 1.28625,15.72375 L19.884375,15.72375 C20.3175,15.72375 20.65875,16.065 20.65875,16.498125 C20.65875,16.93125 20.3175,17.2725 19.884375,17.2725 Z M77.175,17.023125 L76.453125,17.023125 C76.02,17.023125 75.67875,16.681875 75.67875,16.24875 C75.67875,15.815625 76.02,15.474375 76.453125,15.474375 L77.175,15.474375 C77.608125,15.474375 77.949375,15.815625 77.949375,16.24875 C77.949375,16.681875 77.608125,17.023125 77.175,17.023125 Z M70.258125,17.023125 L65.611875,17.023125 C65.17875,17.023125 64.8375,16.681875 64.8375,16.24875 C64.8375,15.815625 65.17875,15.474375 65.611875,15.474375 L70.258125,15.474375 C70.69125,15.474375 71.0325,15.815625 71.0325,16.24875 C71.0325,16.681875 70.69125,17.023125 70.258125,17.023125 Z M41.855625,12.39 C41.540625,12.39 41.251875,12.18 41.13375,11.89125 L41.015625,11.615625 C40.858125,11.26125 40.989375,10.84125 41.3175,10.644375 C42.039375,8.47875 44.07375,5.394375 48.129375,5.394375 C48.680625,5.394375 49.27125,5.446875 49.875,5.565 C52.185,5.998125 54.508125,7.35 56.791875,9.555 C57.09375,9.856875 57.106875,10.3425 56.805,10.644375 C56.503125,10.959375 56.0175,10.959375 55.715625,10.6575 C53.655,8.6625 51.594375,7.455 49.58625,7.074375 C49.074375,6.9825 48.58875,6.93 48.129375,6.93 C43.666875,6.93 42.65625,11.563125 42.616875,11.76 C42.538125,12.140625 42.223125,12.39 41.855625,12.39 Z M20.29125,5.473125 C20.1075,5.473125 19.936875,5.4075 19.7925,5.289375 C19.464375,5.01375 19.425,4.528125 19.700625,4.2 C20.724375,2.9925 22.155,2.1 23.953125,1.535625 C24.36,1.404375 24.793125,1.640625 24.924375,2.0475 C25.055625,2.454375 24.819375,2.8875 24.4125,3.01875 C22.903125,3.49125 21.721875,4.22625 20.881875,5.1975 C20.7375,5.38125 20.514375,5.473125 20.29125,5.473125 Z M31.828125,2.874375 C31.7625,2.874375 31.696875,2.86125 31.618125,2.848125 C31.15875,2.73 30.68625,2.625 30.200625,2.559375 C29.780625,2.49375 29.47875,2.1 29.544375,1.68 C29.61,1.26 30.00375,0.984375 30.42375,1.02375 C30.975,1.1025 31.513125,1.220625 32.025,1.351875 C32.431875,1.47 32.68125,1.89 32.57625,2.296875 C32.484375,2.638125 32.169375,2.874375 31.828125,2.874375 Z"></path>
                        </g>
                        <g transform="translate(0.000000, 18.375000)" id="Path">
                            <path d="M79.1175,4.095 L2.375625,4.095 C1.5225,4.095 0.826875,3.399375 0.826875,2.54625 C0.826875,1.693125 1.5225,0.9975 2.375625,0.9975 L79.1175,0.9975 C79.970625,0.9975 80.66625,1.693125 80.66625,2.54625 C80.66625,3.399375 79.970625,4.095 79.1175,4.095 Z"></path>
                        </g>
                    </g>
                </g>
                <path d="M199.014375,201.705 L133.363125,201.980625 C127.995,202.006875 123.61125,197.6625 123.598125,192.294375 L123.230625,102.08625 C123.204375,96.705 127.561875,92.32125 132.943125,92.295 L173.8275,92.124375 C176.413125,92.11125 178.89375,93.121875 180.718125,94.94625 L205.56375,119.51625 C207.40125,121.340625 208.45125,123.82125 208.464375,126.406875 L208.74,191.91375 C208.753125,197.295 204.40875,201.67875 199.014375,201.705 Z" id="Path" fill="#2AC3A2"></path>
                <g id="Group" transform="translate(90.562500, 0.000000)">
                    <path d="M127.089375,21.105 C116.851875,11.1825 104.23875,4.580625 90.58875,1.75875 C99.015,5.210625 106.785,11.52375 113.26875,20.356875 C123.598125,34.426875 129.504375,53.26125 129.898125,73.42125 C129.924375,74.655 129.59625,75.83625 128.9925,76.715625 C128.835,76.951875 128.65125,77.14875 128.4675,77.3325 L145.254375,77.188125 C146.44875,77.175 147.590625,76.689375 148.4175,75.83625 C149.244375,74.983125 149.70375,73.828125 149.664375,72.63375 C149.191875,53.038125 141.1725,34.741875 127.089375,21.105 Z" id="Path" fill="url(#linearGradient-1)"></path>
                    <path d="M21.42,74.379375 C21.459375,54.2325 27.0375,35.28 37.1175,21.039375 C43.60125,11.878125 51.463125,5.355 60.06,1.81125 C46.055625,4.75125 33.193125,11.68125 22.876875,22.036875 C9.03,35.91 1.33875,54.3375 1.2075,73.933125 C1.194375,75.1275 1.666875,76.269375 2.52,77.1225 C3.36,77.9625 4.515,78.435 5.709375,78.421875 L22.929375,78.264375 C22.7325,78.09375 22.561875,77.896875 22.39125,77.660625 C21.774375,76.78125 21.42,75.6 21.42,74.379375 Z" id="Path" fill="url(#linearGradient-2)"></path>
                    <path d="M129.898125,73.42125 C129.504375,53.274375 123.585,34.426875 113.26875,20.356875 C106.785,11.52375 99.015,5.210625 90.58875,1.75875 C86.296875,0.879375 81.9,0.3675 77.450625,0.249375 C82.2675,2.52 86.75625,9.68625 90.365625,21 C94.801875,34.925625 97.400625,53.52375 97.663125,73.395 C97.67625,74.6025 97.545,75.770625 97.295625,76.636875 C97.1775,77.056875 97.033125,77.385 96.875625,77.608125 L128.480625,77.3325 C128.664375,77.14875 128.848125,76.951875 129.005625,76.715625 C129.59625,75.83625 129.924375,74.655 129.898125,73.42125 Z" id="Path" fill="url(#linearGradient-3)"></path>
                    <path d="M75.67875,111.22125 C72.410625,111.22125 69.7725,108.583125 69.7725,105.315 L69.7725,28.940625 C69.7725,25.6725 72.410625,23.034375 75.67875,23.034375 C78.946875,23.034375 81.585,25.6725 81.585,28.940625 L81.585,105.315 C81.585,108.57 78.946875,111.22125 75.67875,111.22125 Z" id="Path" fill="url(#linearGradient-4)"></path>
                    <path d="M52.185,77.030625 C51.9225,76.164375 51.765,74.99625 51.765,73.78875 C51.68625,53.9175 53.94375,35.266875 58.14375,21.275625 C61.53,9.988125 65.848125,2.7825 70.573125,0.3675 C67.01625,0.60375 63.49875,1.07625 60.06,1.798125 C51.463125,5.341875 43.588125,11.878125 37.1175,21.02625 C27.0375,35.266875 21.4725,54.219375 21.42,74.36625 C21.42,75.6 21.76125,76.78125 22.378125,77.6475 C22.54875,77.88375 22.719375,78.080625 22.91625,78.25125 L52.618125,77.98875 C52.47375,77.77875 52.31625,77.450625 52.185,77.030625 Z" id="Path" fill="url(#linearGradient-5)"></path>
                    <path d="M70.573125,0.3675 C65.848125,2.7825 61.516875,9.988125 58.14375,21.275625 C53.956875,35.266875 51.68625,53.9175 51.765,73.78875 C51.765,74.99625 51.9225,76.164375 52.185,77.030625 C52.31625,77.450625 52.460625,77.765625 52.63125,78.001875 L96.8625,77.608125 C97.02,77.371875 97.164375,77.056875 97.2825,76.636875 C97.531875,75.770625 97.663125,74.6025 97.65,73.395 C97.374375,53.52375 94.78875,34.925625 90.3525,21 C86.743125,9.68625 82.254375,2.52 77.4375,0.249375 C76.558125,0.223125 75.67875,0.196875 74.78625,0.21 C73.381875,0.223125 71.9775,0.28875 70.573125,0.3675 Z" id="Path" fill="url(#linearGradient-6)"></path>
                </g>
                <path d="M160.88625,175.966875 C159.166875,175.966875 157.513125,175.284375 156.2925,174.06375 L136.78875,154.56 C134.2425,152.01375 134.2425,147.905625 136.78875,145.359375 C139.335,142.813125 143.443125,142.813125 145.989375,145.359375 L160.02,159.39 L184.681875,124.280625 C186.7425,121.340625 190.785,120.61875 193.738125,122.679375 C196.678125,124.74 197.4,128.795625 195.339375,131.735625 L166.24125,173.1975 C165.13875,174.7725 163.393125,175.783125 161.476875,175.940625 C161.266875,175.95375 161.083125,175.966875 160.88625,175.966875 Z" id="Path" fill="#008787"></path>
            </g>
        </g>
    </g>
</svg>