<?xml version="1.0" encoding="utf-8"?>
<!-- Generator: Adobe Illustrator 23.0.2, SVG Export Plug-In . SVG Version: 6.00 Build 0)  -->
<svg version="1.1" id="Layer_1" xmlns="http://www.w3.org/2000/svg" xmlns:xlink="http://www.w3.org/1999/xlink" x="0px" y="0px"
	 viewBox="0 0 287.78 187.28" style="enable-background:new 0 0 287.78 187.28;" xml:space="preserve">
<style type="text/css">
	.st0{opacity:0.5;}
	.st1{fill:#EDEDF0;}
	.st2{fill:url(#SVGID_1_);}
	.st3{fill:url(#SVGID_2_);}
	.st4{fill:url(#SVGID_3_);}
	.st5{fill:url(#SVGID_4_);}
	.st6{opacity:0.5;fill:#EDEDF0;}
	.st7{fill:url(#SVGID_5_);}
	.st8{fill:url(#SVGID_6_);}
	.st9{fill:#2AC3A2;}
	.st10{fill:url(#SVGID_7_);}
	.st11{fill:url(#SVGID_8_);}
	.st12{fill:url(#SVGID_9_);}
	.st13{fill:url(#SVGID_10_);}
	.st14{fill:url(#SVGID_11_);}
	.st15{fill:url(#SVGID_12_);}
	.st16{fill:#0060DF;}
	.st17{fill:url(#SVGID_13_);}
	.st18{fill:url(#SVGID_14_);}
	.st19{fill:url(#SVGID_15_);}
	.st20{fill:url(#SVGID_16_);}
	.st21{fill:url(#SVGID_17_);}
	.st22{fill:url(#SVGID_18_);}
	.st23{fill:#008787;}
</style>
<ellipse class="st6" cx="142.39" cy="167.17" rx="56.02" ry="8.81"/>
<g>
	<g class="st0">
		<g>
			<path class="st1" d="M56.2,141.48h68.55c0.55,0,1-0.45,1-1s-0.45-1-1-1H56.2c-0.55,0-1,0.45-1,1S55.65,141.48,56.2,141.48z"/>
		</g>
		<g>
			<path class="st1" d="M98.29,136.4h17.2c0.28,0,0.5-0.22,0.5-0.5s-0.22-0.5-0.5-0.5h-17.2c-0.28,0-0.5,0.22-0.5,0.5
				S98.01,136.4,98.29,136.4z"/>
		</g>
		<g>
			<path class="st1" d="M39.4,145.44c0-0.28,0.22-0.5,0.5-0.5h3c0.28,0,0.5,0.22,0.5,0.5s-0.22,0.5-0.5,0.5h-3
				C39.62,145.94,39.4,145.72,39.4,145.44z M50.4,145.44c0-0.28,0.22-0.5,0.5-0.5h12c0.28,0,0.5,0.22,0.5,0.5s-0.22,0.5-0.5,0.5h-12
				C50.62,145.94,50.4,145.72,50.4,145.44z M71.4,145.44c0-0.28,0.22-0.5,0.5-0.5h1c0.28,0,0.5,0.22,0.5,0.5s-0.22,0.5-0.5,0.5h-1
				C71.62,145.94,71.4,145.72,71.4,145.44z M76.4,145.44c0-0.28,0.22-0.5,0.5-0.5h3c0.28,0,0.5,0.22,0.5,0.5s-0.22,0.5-0.5,0.5h-3
				C76.62,145.94,76.4,145.72,76.4,145.44z M87.4,145.44c0-0.28,0.22-0.5,0.5-0.5h12c0.28,0,0.5,0.22,0.5,0.5s-0.22,0.5-0.5,0.5h-12
				C87.62,145.94,87.4,145.72,87.4,145.44z"/>
		</g>
	</g>
	<g class="st0">
		<g>
			<path class="st1" d="M131.35,107.41h110.68c0.55,0,1-0.45,1-1s-0.45-1-1-1H131.35c-0.55,0-1,0.45-1,1S130.8,107.41,131.35,107.41
				z"/>
		</g>
		<g>
			<path class="st1" d="M146.3,102.41h27.76c0.28,0,0.5-0.22,0.5-0.5s-0.22-0.5-0.5-0.5H146.3c-0.28,0-0.5,0.22-0.5,0.5
				S146.03,102.41,146.3,102.41z"/>
		</g>
		<g>
			<path class="st1" d="M110.92,111.27c0-0.28,0.22-0.5,0.5-0.5h12c0.28,0,0.5,0.22,0.5,0.5s-0.22,0.5-0.5,0.5h-12
				C111.14,111.77,110.92,111.55,110.92,111.27z M130.92,111.27c0-0.28,0.22-0.5,0.5-0.5h3c0.28,0,0.5,0.22,0.5,0.5
				s-0.22,0.5-0.5,0.5h-3C131.14,111.77,130.92,111.55,130.92,111.27z M137.92,111.27c0-0.28,0.22-0.5,0.5-0.5h1
				c0.28,0,0.5,0.22,0.5,0.5s-0.22,0.5-0.5,0.5h-1C138.14,111.77,137.92,111.55,137.92,111.27z M147.92,111.27
				c0-0.28,0.22-0.5,0.5-0.5h12c0.28,0,0.5,0.22,0.5,0.5s-0.22,0.5-0.5,0.5h-12C148.14,111.77,147.92,111.55,147.92,111.27z
				 M167.92,111.27c0-0.28,0.22-0.5,0.5-0.5h3c0.28,0,0.5,0.22,0.5,0.5s-0.22,0.5-0.5,0.5h-3
				C168.14,111.77,167.92,111.55,167.92,111.27z M174.92,111.27c0-0.28,0.22-0.5,0.5-0.5h1c0.28,0,0.5,0.22,0.5,0.5
				s-0.22,0.5-0.5,0.5h-1C175.14,111.77,174.92,111.55,174.92,111.27z M184.92,111.27c0-0.28,0.22-0.5,0.5-0.5h12
				c0.28,0,0.5,0.22,0.5,0.5s-0.22,0.5-0.5,0.5h-12C185.14,111.77,184.92,111.55,184.92,111.27z M204.92,111.27
				c0-0.28,0.22-0.5,0.5-0.5h3c0.28,0,0.5,0.22,0.5,0.5s-0.22,0.5-0.5,0.5h-3C205.14,111.77,204.92,111.55,204.92,111.27z
				 M211.92,111.27c0-0.28,0.22-0.5,0.5-0.5h1c0.28,0,0.5,0.22,0.5,0.5s-0.22,0.5-0.5,0.5h-1
				C212.14,111.77,211.92,111.55,211.92,111.27z M221.92,111.27c0-0.28,0.22-0.5,0.5-0.5h12c0.28,0,0.5,0.22,0.5,0.5
				s-0.22,0.5-0.5,0.5h-12C222.14,111.77,221.92,111.55,221.92,111.27z M241.92,111.27c0-0.28,0.22-0.5,0.5-0.5h3
				c0.28,0,0.5,0.22,0.5,0.5s-0.22,0.5-0.5,0.5h-3C242.14,111.77,241.92,111.55,241.92,111.27z M248.92,111.27
				c0-0.28,0.22-0.5,0.5-0.5h1c0.28,0,0.5,0.22,0.5,0.5s-0.22,0.5-0.5,0.5h-1C249.14,111.77,248.92,111.55,248.92,111.27z
				 M258.92,111.27c0-0.28,0.22-0.5,0.5-0.5h12c0.28,0,0.5,0.22,0.5,0.5s-0.22,0.5-0.5,0.5h-12
				C259.14,111.77,258.92,111.55,258.92,111.27z"/>
		</g>
	</g>
	<g class="st0">
		<path class="st1" d="M17.63,71.32h25.42c0,0-7.95-17.78,8.93-20.08c15.06-2.05,21.01,13.43,21.01,13.43s1.79-8.93,10.74-7.22
			c8.83,1.68,15.35,15.89,15.35,15.89h22.14"/>
		<g>
			<path class="st1" d="M121.66,69.14h-6.54c-0.33,0-0.59-0.26-0.59-0.59c0-0.33,0.26-0.59,0.59-0.59h6.54
				c0.33,0,0.59,0.26,0.59,0.59C122.25,68.88,121.99,69.14,121.66,69.14z M104.53,69.14h-1.18c-0.33,0-0.59-0.26-0.59-0.59
				c0-0.33,0.26-0.59,0.59-0.59h1.18c0.33,0,0.59,0.26,0.59,0.59C105.12,68.88,104.85,69.14,104.53,69.14z M43.48,68.43h-1.89
				c-0.33,0-0.59-0.26-0.59-0.59c0-0.33,0.26-0.59,0.59-0.59h1.02c-0.08-0.21-0.17-0.47-0.27-0.76c-0.1-0.31,0.06-0.64,0.37-0.75
				c0.31-0.1,0.64,0.06,0.75,0.37c0.31,0.91,0.56,1.47,0.56,1.48c0.08,0.18,0.06,0.39-0.04,0.56
				C43.87,68.33,43.68,68.43,43.48,68.43z M32.18,68.43H18.06c-0.33,0-0.59-0.26-0.59-0.59c0-0.33,0.26-0.59,0.59-0.59h14.12
				c0.33,0,0.59,0.26,0.59,0.59C32.77,68.17,32.5,68.43,32.18,68.43z M99.11,68.37c-0.21,0-0.41-0.11-0.51-0.3
				c-0.38-0.67-1-1.73-1.83-2.97c-0.18-0.27-0.11-0.64,0.16-0.82c0.27-0.18,0.64-0.11,0.82,0.16c0.85,1.27,1.49,2.36,1.88,3.05
				c0.16,0.28,0.06,0.64-0.23,0.8C99.3,68.34,99.2,68.37,99.11,68.37z M41.8,62.32c-0.29,0-0.54-0.21-0.58-0.51
				c-0.06-0.39-0.1-0.8-0.13-1.21c-0.03-0.32,0.22-0.61,0.54-0.63c0.34-0.02,0.61,0.21,0.63,0.54c0.03,0.39,0.07,0.77,0.13,1.14
				c0.05,0.32-0.18,0.62-0.5,0.66C41.86,62.32,41.83,62.32,41.8,62.32z M72.45,59.73c-0.21,0-0.41-0.11-0.52-0.31
				c-0.17-0.31-0.36-0.65-0.57-1c-0.17-0.28-0.08-0.64,0.2-0.81c0.28-0.17,0.64-0.08,0.81,0.2c0.22,0.37,0.42,0.72,0.6,1.05
				c0.15,0.29,0.05,0.64-0.24,0.8C72.64,59.71,72.54,59.73,72.45,59.73z M91.13,58.23c-0.14,0-0.27-0.05-0.38-0.14
				c-2.25-1.93-4.49-3.12-6.68-3.54c-2.15-0.41-4.05-0.2-5.63,0.61c-0.29,0.15-0.64,0.03-0.79-0.25c-0.15-0.29-0.04-0.64,0.25-0.79
				c1.81-0.94,3.98-1.18,6.39-0.72c2.39,0.46,4.82,1.73,7.23,3.8c0.25,0.21,0.27,0.58,0.06,0.83
				C91.45,58.16,91.29,58.23,91.13,58.23z M69.11,54.89c-0.16,0-0.33-0.07-0.44-0.2c-0.77-0.89-1.6-1.7-2.45-2.41
				c-0.25-0.21-0.28-0.58-0.07-0.83c0.21-0.25,0.58-0.28,0.83-0.07c0.9,0.75,1.77,1.61,2.58,2.54c0.21,0.25,0.19,0.62-0.06,0.83
				C69.38,54.84,69.24,54.89,69.11,54.89z M44.85,51.46c-0.16,0-0.32-0.07-0.44-0.19c-0.22-0.24-0.2-0.61,0.04-0.83
				c1.88-1.7,4.53-2.8,7.88-3.25c2.05-0.28,4.06-0.25,5.96,0.08c0.32,0.06,0.53,0.36,0.48,0.68c-0.06,0.32-0.36,0.54-0.68,0.48
				c-1.78-0.31-3.67-0.33-5.6-0.07c-3.11,0.43-5.55,1.42-7.25,2.96C45.13,51.41,44.99,51.46,44.85,51.46z"/>
		</g>
		<g>
			<path class="st1" d="M122.39,73.66H17.62c-0.65,0-1.18-0.53-1.18-1.18c0-0.65,0.53-1.18,1.18-1.18h104.77
				c0.65,0,1.18,0.53,1.18,1.18C123.57,73.13,123.04,73.66,122.39,73.66z"/>
		</g>
	</g>
	<g class="st0">
		<path class="st1" d="M183.55,61.75h14.19c0,0-4.44-9.92,4.98-11.2c8.4-1.14,11.73,7.49,11.73,7.49s1-4.98,6-4.03
			c4.93,0.94,8.57,8.87,8.57,8.87h12.35"/>
		<g>
			<path class="st1" d="M198.15,60.16h-14.17c-0.33,0-0.59-0.26-0.59-0.59s0.26-0.59,0.59-0.59h14.17c0.33,0,0.59,0.26,0.59,0.59
				S198.48,60.16,198.15,60.16z M241.8,59.97h-0.55c-0.33,0-0.59-0.26-0.59-0.59c0-0.33,0.26-0.59,0.59-0.59h0.55
				c0.33,0,0.59,0.26,0.59,0.59C242.39,59.71,242.13,59.97,241.8,59.97z M236.53,59.97h-3.54c-0.33,0-0.59-0.26-0.59-0.59
				c0-0.33,0.26-0.59,0.59-0.59h3.54c0.33,0,0.59,0.26,0.59,0.59C237.12,59.71,236.86,59.97,236.53,59.97z M214.89,56.44
				c-0.24,0-0.46-0.16-0.55-0.38l-0.09-0.21c-0.12-0.27-0.02-0.59,0.23-0.74c0.55-1.65,2.1-4,5.19-4c0.42,0,0.87,0.04,1.33,0.13
				c1.76,0.33,3.53,1.36,5.27,3.04c0.23,0.23,0.24,0.6,0.01,0.83c-0.23,0.24-0.6,0.24-0.83,0.01c-1.57-1.52-3.14-2.44-4.67-2.73
				c-0.39-0.07-0.76-0.11-1.11-0.11c-3.4,0-4.17,3.53-4.2,3.68C215.41,56.25,215.17,56.44,214.89,56.44z M198.46,51.17
				c-0.14,0-0.27-0.05-0.38-0.14c-0.25-0.21-0.28-0.58-0.07-0.83c0.78-0.92,1.87-1.6,3.24-2.03c0.31-0.1,0.64,0.08,0.74,0.39
				c0.1,0.31-0.08,0.64-0.39,0.74c-1.15,0.36-2.05,0.92-2.69,1.66C198.8,51.1,198.63,51.17,198.46,51.17z M207.25,49.19
				c-0.05,0-0.1-0.01-0.16-0.02c-0.35-0.09-0.71-0.17-1.08-0.22c-0.32-0.05-0.55-0.35-0.5-0.67c0.05-0.32,0.35-0.53,0.67-0.5
				c0.42,0.06,0.83,0.15,1.22,0.25c0.31,0.09,0.5,0.41,0.42,0.72C207.75,49.01,207.51,49.19,207.25,49.19z"/>
		</g>
		<g>
			<path class="st1" d="M242.28,64.12h-58.47c-0.65,0-1.18-0.53-1.18-1.18c0-0.65,0.53-1.18,1.18-1.18h58.47
				c0.65,0,1.18,0.53,1.18,1.18C243.46,63.59,242.93,64.12,242.28,64.12z"/>
		</g>
	</g>
</g>
<path class="st9" d="M167.63,169.68l-50.02,0.21c-4.09,0.02-7.43-3.29-7.44-7.38l-0.28-68.73c-0.02-4.1,3.3-7.44,7.4-7.46
	l31.15-0.13c1.97-0.01,3.86,0.76,5.25,2.15l18.93,18.72c1.4,1.39,2.2,3.28,2.21,5.25l0.21,49.91
	C175.05,166.32,171.74,169.66,167.63,169.68z"/>
<g>
	
		<linearGradient id="SVGID_1_" gradientUnits="userSpaceOnUse" x1="-22.8859" y1="891.4442" x2="24.6033" y2="998.678" gradientTransform="matrix(0.9326 -0.3608 0.3608 0.9326 -181.3524 -849.4627)">
		<stop  offset="0" style="stop-color:#FA357F"/>
		<stop  offset="0.9991" style="stop-color:#7878FF"/>
	</linearGradient>
	<path class="st2" d="M181.83,32.08c-7.8-7.56-17.41-12.59-27.81-14.74c6.42,2.63,12.34,7.44,17.28,14.17
		c7.87,10.72,12.37,25.07,12.67,40.43c0.02,0.94-0.23,1.84-0.69,2.51c-0.12,0.18-0.26,0.33-0.4,0.47l12.79-0.11
		c0.91-0.01,1.78-0.38,2.41-1.03c0.63-0.65,0.98-1.53,0.95-2.44C198.67,56.41,192.56,42.47,181.83,32.08z"/>
	<g>
		
			<linearGradient id="SVGID_2_" gradientUnits="userSpaceOnUse" x1="-35.1206" y1="466.8987" x2="77.9938" y2="466.8987" gradientTransform="matrix(1 -8.803578e-03 8.803578e-03 1 116.7041 -420.4174)">
			<stop  offset="0" style="stop-color:#FFF361"/>
			<stop  offset="1" style="stop-color:#FFA80A"/>
		</linearGradient>
		<path class="st3" d="M101.32,72.67c0.03-15.35,4.28-29.79,11.96-40.64c4.94-6.98,10.93-11.95,17.48-14.65
			c-10.67,2.24-20.47,7.52-28.33,15.41C91.88,43.36,86.02,57.4,85.92,72.33c-0.01,0.91,0.35,1.78,1,2.43c0.64,0.64,1.52,1,2.43,0.99
			l13.12-0.12c-0.15-0.13-0.28-0.28-0.41-0.46C101.59,74.5,101.32,73.6,101.32,72.67z"/>
	</g>
	
		<linearGradient id="SVGID_3_" gradientUnits="userSpaceOnUse" x1="-22.1693" y1="911.1924" x2="12.0434" y2="1008.7241" gradientTransform="matrix(0.9326 -0.3608 0.3608 0.9326 -181.3524 -849.4627)">
		<stop  offset="0" style="stop-color:#FF5162"/>
		<stop  offset="1" style="stop-color:#83219D"/>
	</linearGradient>
	<path class="st4" d="M183.97,71.94c-0.3-15.35-4.81-29.71-12.67-40.43c-4.94-6.73-10.86-11.54-17.28-14.17
		c-3.27-0.67-6.62-1.06-10.01-1.15c3.67,1.73,7.09,7.19,9.84,15.81c3.38,10.61,5.36,24.78,5.56,39.92c0.01,0.92-0.09,1.81-0.28,2.47
		c-0.09,0.32-0.2,0.57-0.32,0.74l24.08-0.21c0.14-0.14,0.28-0.29,0.4-0.47C183.74,73.78,183.99,72.88,183.97,71.94z"/>
	<g>
		<linearGradient id="SVGID_4_" gradientUnits="userSpaceOnUse" x1="142.6642" y1="99.8979" x2="142.6642" y2="76.5362">
			<stop  offset="4.302823e-03" style="stop-color:#008787"/>
			<stop  offset="0.9991" style="stop-color:#005E5E"/>
		</linearGradient>
		<path class="st5" d="M142.66,100.74c-2.49,0-4.5-2.01-4.5-4.5V38.05c0-2.49,2.01-4.5,4.5-4.5s4.5,2.01,4.5,4.5v58.19
			C147.16,98.72,145.15,100.74,142.66,100.74z"/>
	</g>
	<g>
		
			<linearGradient id="SVGID_5_" gradientUnits="userSpaceOnUse" x1="-50.7069" y1="924.9559" x2="-36.4794" y2="954.347" gradientTransform="matrix(0.9326 -0.3608 0.3608 0.9326 -181.3524 -849.4627)">
			<stop  offset="0" style="stop-color:#FFD943"/>
			<stop  offset="1" style="stop-color:#FFA80A"/>
		</linearGradient>
		<path class="st7" d="M124.76,74.69c-0.2-0.66-0.32-1.55-0.32-2.47c-0.06-15.14,1.66-29.35,4.86-40.01
			c2.58-8.6,5.87-14.09,9.47-15.93c-2.71,0.18-5.39,0.54-8.01,1.09c-6.55,2.7-12.55,7.68-17.48,14.65
			c-7.68,10.85-11.92,25.29-11.96,40.64c0,0.94,0.26,1.84,0.73,2.5c0.13,0.18,0.26,0.33,0.41,0.46l22.63-0.2
			C124.98,75.26,124.86,75.01,124.76,74.69z"/>
	</g>
	
		<linearGradient id="SVGID_6_" gradientUnits="userSpaceOnUse" x1="-7.0651" y1="432.2503" x2="36.0228" y2="499.9599" gradientTransform="matrix(1 -8.803578e-03 8.803578e-03 1 116.7041 -420.4174)">
		<stop  offset="0" style="stop-color:#FF8748"/>
		<stop  offset="0.1328" style="stop-color:#FE7852"/>
		<stop  offset="0.5049" style="stop-color:#FC546A"/>
		<stop  offset="0.8073" style="stop-color:#FA3D79"/>
		<stop  offset="1" style="stop-color:#FA357F"/>
	</linearGradient>
	<path class="st8" d="M138.77,16.28c-3.6,1.84-6.9,7.33-9.47,15.93c-3.19,10.66-4.92,24.87-4.86,40.01c0,0.92,0.12,1.81,0.32,2.47
		c0.1,0.32,0.21,0.56,0.34,0.74l33.7-0.3c0.12-0.18,0.23-0.42,0.32-0.74c0.19-0.66,0.29-1.55,0.28-2.47
		c-0.21-15.14-2.18-29.31-5.56-39.92c-2.75-8.62-6.17-14.08-9.84-15.81c-0.67-0.02-1.34-0.04-2.02-0.03
		C140.91,16.17,139.84,16.22,138.77,16.28z"/>
</g>
<path class="st23" d="M138.58,150.07c-1.31,0-2.57-0.52-3.5-1.45l-14.86-14.86c-1.94-1.94-1.94-5.07,0-7.01
	c1.94-1.94,5.07-1.94,7.01,0l10.69,10.69l18.79-26.75c1.57-2.24,4.65-2.79,6.9-1.22c2.24,1.57,2.79,4.66,1.22,6.9l-22.17,31.59
	c-0.84,1.2-2.17,1.97-3.63,2.09C138.87,150.06,138.73,150.07,138.58,150.07z"/>
</svg>
