<?xml version="1.0" encoding="UTF-8"?>
<svg width="12px" height="16px" version="1.1" xmlns="http://www.w3.org/2000/svg" xmlns:xlink="http://www.w3.org/1999/xlink">
    <symbol id="icon" viewBox="0 0 12 16">
    <g stroke="none" stroke-width="1" fill="none" fill-rule="evenodd">
        <g transform="translate(-770.000000, -481.000000)" fill="currentColor">
            <g transform="translate(744.000000, 350.000000)">
                <g transform="translate(26.000000, 131.000000)">
                    <path d="M5.293,12.707 C5.6835,13.097382 6.316501,13.097383 6.707001,12.707 L11.707,7.707 C12.08597,7.31462 12.08054,6.69092 11.69481,6.305189 C11.30908,5.91946 10.68538,5.91403 10.293,6.293 L7,9.586 L7,1 C7,0.44772 6.552285,0 6,0 C5.447715,0 5,0.44772 5,1 L5,9.586 L1.707,6.293 C1.314621,5.91403 0.690915,5.91945 0.305181,6.305182 C-0.080553,6.690915 -0.085973,7.314622 0.293,7.707001 L5.293,12.707 Z M11,14 L1,14 C0.447715,14 0,14.447715 0,15 C0,15.5522852 0.447715,16 1,16 L11,16 C11.55228,16 12,15.5522852 12,15 C12,14.447715 11.55229,14 11,14 Z"></path>
                </g>
            </g>
        </g>
    </g>
    </symbol>
</svg>