<?xml version="1.0" encoding="utf-8"?>
<!-- Generator: Adobe Illustrator 23.0.2, SVG Export Plug-In . SVG Version: 6.00 Build 0)  -->
<svg version="1.1" id="Layer_1" xmlns="http://www.w3.org/2000/svg" xmlns:xlink="http://www.w3.org/1999/xlink" x="0px" y="0px"
	 viewBox="0 0 287.78 187.28" style="enable-background:new 0 0 287.78 187.28;" xml:space="preserve">
<style type="text/css">
	.st2{fill:url(#SVGID_1_);}
	.st3{fill:url(#SVGID_2_);}
	.st4{fill:url(#SVGID_3_);}
	.st5{fill:url(#SVGID_4_);}
	.st6{fill:url(#SVGID_5_);}
	.st7{fill:url(#SVGID_6_);}
	.st8{fill:#0060DF;}
	.st9{fill:url(#SVGID_7_);}
	.st10{fill:url(#SVGID_8_);}
	.st11{fill:url(#SVGID_9_);}
	.st12{fill:url(#SVGID_10_);}
	.st13{fill:url(#SVGID_11_);}
	.st14{fill:url(#SVGID_12_);}
</style>
<g>
	<g opacity="0.5">
		<g>
			<path fill="#ededf0" d="M57.23,142.42h68.55c0.55,0,1-0.45,1-1s-0.45-1-1-1H57.23c-0.55,0-1,0.45-1,1S56.68,142.42,57.23,142.42z"/>
		</g>
		<g>
			<path fill="#ededf0" d="M99.33,137.34h17.2c0.28,0,0.5-0.22,0.5-0.5s-0.22-0.5-0.5-0.5h-17.2c-0.28,0-0.5,0.22-0.5,0.5
				S99.05,137.34,99.33,137.34z"/>
		</g>
		<g>
			<path fill="#ededf0" d="M40.43,146.38c0-0.28,0.22-0.5,0.5-0.5h3c0.28,0,0.5,0.22,0.5,0.5s-0.22,0.5-0.5,0.5h-3
				C40.66,146.88,40.43,146.65,40.43,146.38z M51.43,146.38c0-0.28,0.22-0.5,0.5-0.5h12c0.28,0,0.5,0.22,0.5,0.5s-0.22,0.5-0.5,0.5
				h-12C51.66,146.88,51.43,146.65,51.43,146.38z M72.43,146.38c0-0.28,0.22-0.5,0.5-0.5h1c0.28,0,0.5,0.22,0.5,0.5
				s-0.22,0.5-0.5,0.5h-1C72.66,146.88,72.43,146.65,72.43,146.38z M77.43,146.38c0-0.28,0.22-0.5,0.5-0.5h3
				c0.28,0,0.5,0.22,0.5,0.5s-0.22,0.5-0.5,0.5h-3C77.66,146.88,77.43,146.65,77.43,146.38z M88.43,146.38c0-0.28,0.22-0.5,0.5-0.5
				h12c0.28,0,0.5,0.22,0.5,0.5s-0.22,0.5-0.5,0.5h-12C88.66,146.88,88.43,146.65,88.43,146.38z"/>
		</g>
	</g>
	<g opacity="0.5">
		<g>
			<path fill="#ededf0" d="M132.39,108.34h110.68c0.55,0,1-0.45,1-1s-0.45-1-1-1H132.39c-0.55,0-1,0.45-1,1
				S131.83,108.34,132.39,108.34z"/>
		</g>
		<g>
			<path fill="#ededf0" d="M147.34,103.34h27.76c0.28,0,0.5-0.22,0.5-0.5s-0.22-0.5-0.5-0.5h-27.76c-0.28,0-0.5,0.22-0.5,0.5
				S147.06,103.34,147.34,103.34z"/>
		</g>
		<g>
			<path fill="#ededf0" d="M111.95,112.21c0-0.28,0.22-0.5,0.5-0.5h12c0.28,0,0.5,0.22,0.5,0.5s-0.22,0.5-0.5,0.5h-12
				C112.18,112.71,111.95,112.49,111.95,112.21z M131.95,112.21c0-0.28,0.22-0.5,0.5-0.5h3c0.28,0,0.5,0.22,0.5,0.5
				s-0.22,0.5-0.5,0.5h-3C132.18,112.71,131.95,112.49,131.95,112.21z M138.95,112.21c0-0.28,0.22-0.5,0.5-0.5h1
				c0.28,0,0.5,0.22,0.5,0.5s-0.22,0.5-0.5,0.5h-1C139.18,112.71,138.95,112.49,138.95,112.21z M148.95,112.21
				c0-0.28,0.22-0.5,0.5-0.5h12c0.28,0,0.5,0.22,0.5,0.5s-0.22,0.5-0.5,0.5h-12C149.18,112.71,148.95,112.49,148.95,112.21z
				 M168.95,112.21c0-0.28,0.22-0.5,0.5-0.5h3c0.28,0,0.5,0.22,0.5,0.5s-0.22,0.5-0.5,0.5h-3
				C169.18,112.71,168.95,112.49,168.95,112.21z M175.95,112.21c0-0.28,0.22-0.5,0.5-0.5h1c0.28,0,0.5,0.22,0.5,0.5
				s-0.22,0.5-0.5,0.5h-1C176.18,112.71,175.95,112.49,175.95,112.21z M185.95,112.21c0-0.28,0.22-0.5,0.5-0.5h12
				c0.28,0,0.5,0.22,0.5,0.5s-0.22,0.5-0.5,0.5h-12C186.18,112.71,185.95,112.49,185.95,112.21z M205.95,112.21
				c0-0.28,0.22-0.5,0.5-0.5h3c0.28,0,0.5,0.22,0.5,0.5s-0.22,0.5-0.5,0.5h-3C206.18,112.71,205.95,112.49,205.95,112.21z
				 M212.95,112.21c0-0.28,0.22-0.5,0.5-0.5h1c0.28,0,0.5,0.22,0.5,0.5s-0.22,0.5-0.5,0.5h-1
				C213.18,112.71,212.95,112.49,212.95,112.21z M222.95,112.21c0-0.28,0.22-0.5,0.5-0.5h12c0.28,0,0.5,0.22,0.5,0.5
				s-0.22,0.5-0.5,0.5h-12C223.18,112.71,222.95,112.49,222.95,112.21z M242.95,112.21c0-0.28,0.22-0.5,0.5-0.5h3
				c0.28,0,0.5,0.22,0.5,0.5s-0.22,0.5-0.5,0.5h-3C243.18,112.71,242.95,112.49,242.95,112.21z M249.95,112.21
				c0-0.28,0.22-0.5,0.5-0.5h1c0.28,0,0.5,0.22,0.5,0.5s-0.22,0.5-0.5,0.5h-1C250.18,112.71,249.95,112.49,249.95,112.21z
				 M259.95,112.21c0-0.28,0.22-0.5,0.5-0.5h12c0.28,0,0.5,0.22,0.5,0.5s-0.22,0.5-0.5,0.5h-12
				C260.18,112.71,259.95,112.49,259.95,112.21z"/>
		</g>
	</g>
	<g opacity="0.5">
		<path fill="#ededf0" d="M18.66,72.26h25.42c0,0-7.95-17.78,8.93-20.08c15.06-2.05,21.01,13.43,21.01,13.43s1.79-8.93,10.74-7.22
			c8.83,1.68,15.35,15.89,15.35,15.89h22.14"/>
		<g>
			<path fill="#ededf0" d="M122.7,70.08h-6.54c-0.33,0-0.59-0.26-0.59-0.59s0.26-0.59,0.59-0.59h6.54c0.33,0,0.59,0.26,0.59,0.59
				S123.02,70.08,122.7,70.08z M105.56,70.08h-1.18c-0.33,0-0.59-0.26-0.59-0.59s0.26-0.59,0.59-0.59h1.18
				c0.33,0,0.59,0.26,0.59,0.59S105.89,70.08,105.56,70.08z M44.52,69.37h-1.89c-0.33,0-0.59-0.26-0.59-0.59
				c0-0.33,0.26-0.59,0.59-0.59h1.02c-0.08-0.21-0.17-0.47-0.27-0.76c-0.1-0.31,0.06-0.64,0.37-0.75c0.31-0.1,0.64,0.06,0.75,0.37
				c0.31,0.91,0.56,1.47,0.56,1.48c0.08,0.18,0.06,0.39-0.04,0.56C44.9,69.27,44.72,69.37,44.52,69.37z M33.21,69.37H19.1
				c-0.33,0-0.59-0.26-0.59-0.59c0-0.33,0.26-0.59,0.59-0.59h14.12c0.33,0,0.59,0.26,0.59,0.59C33.8,69.1,33.54,69.37,33.21,69.37z
				 M100.14,69.3c-0.21,0-0.41-0.11-0.51-0.3c-0.38-0.67-1-1.73-1.83-2.97c-0.18-0.27-0.11-0.64,0.16-0.82
				c0.27-0.18,0.64-0.11,0.82,0.16c0.85,1.27,1.49,2.36,1.88,3.05c0.16,0.28,0.06,0.64-0.23,0.8
				C100.34,69.28,100.24,69.3,100.14,69.3z M42.84,63.26c-0.29,0-0.54-0.21-0.58-0.51c-0.06-0.39-0.1-0.8-0.13-1.21
				c-0.03-0.32,0.22-0.61,0.54-0.63c0.34-0.02,0.61,0.21,0.63,0.54c0.03,0.39,0.07,0.77,0.13,1.14c0.05,0.32-0.18,0.62-0.5,0.66
				C42.89,63.26,42.86,63.26,42.84,63.26z M73.48,60.67c-0.21,0-0.41-0.11-0.52-0.31c-0.17-0.31-0.36-0.65-0.57-1
				c-0.17-0.28-0.08-0.64,0.2-0.81c0.28-0.17,0.64-0.08,0.81,0.2c0.22,0.37,0.42,0.72,0.6,1.05c0.15,0.29,0.05,0.64-0.24,0.8
				C73.67,60.64,73.58,60.67,73.48,60.67z M92.16,59.16c-0.14,0-0.27-0.05-0.38-0.14c-2.25-1.93-4.49-3.12-6.68-3.54
				c-2.15-0.41-4.05-0.2-5.63,0.61c-0.29,0.15-0.64,0.03-0.79-0.25c-0.15-0.29-0.04-0.64,0.25-0.79c1.81-0.94,3.98-1.18,6.39-0.72
				c2.39,0.46,4.82,1.73,7.23,3.8c0.25,0.21,0.27,0.58,0.06,0.83C92.49,59.09,92.33,59.16,92.16,59.16z M70.14,55.83
				c-0.16,0-0.33-0.07-0.44-0.2c-0.77-0.89-1.6-1.7-2.45-2.41c-0.25-0.21-0.28-0.58-0.07-0.83c0.21-0.25,0.58-0.28,0.83-0.07
				c0.9,0.75,1.77,1.61,2.58,2.54c0.21,0.25,0.19,0.62-0.06,0.83C70.42,55.78,70.28,55.83,70.14,55.83z M45.88,52.4
				c-0.16,0-0.32-0.07-0.44-0.19c-0.22-0.24-0.2-0.61,0.04-0.83c1.88-1.7,4.53-2.8,7.88-3.25c2.05-0.28,4.06-0.25,5.96,0.08
				c0.32,0.06,0.53,0.36,0.48,0.68c-0.06,0.32-0.36,0.54-0.68,0.48c-1.78-0.31-3.67-0.33-5.6-0.07c-3.11,0.43-5.55,1.42-7.25,2.96
				C46.16,52.35,46.02,52.4,45.88,52.4z"/>
		</g>
		<g>
			<path fill="#ededf0" d="M123.43,74.59H18.66c-0.65,0-1.18-0.53-1.18-1.18c0-0.65,0.53-1.18,1.18-1.18h104.77
				c0.65,0,1.18,0.53,1.18,1.18C124.6,74.07,124.08,74.59,123.43,74.59z"/>
		</g>
	</g>
	<g opacity="0.5">
		<path fill="#ededf0" d="M184.59,62.68h14.19c0,0-4.44-9.92,4.98-11.2c8.4-1.14,11.73,7.49,11.73,7.49s1-4.98,6-4.03
			c4.93,0.94,8.57,8.87,8.57,8.87h12.35"/>
		<g>
			<path fill="#ededf0" d="M199.19,61.09h-14.17c-0.33,0-0.59-0.26-0.59-0.59c0-0.33,0.26-0.59,0.59-0.59h14.17
				c0.33,0,0.59,0.26,0.59,0.59C199.78,60.83,199.52,61.09,199.19,61.09z M242.84,60.91h-0.55c-0.33,0-0.59-0.26-0.59-0.59
				s0.26-0.59,0.59-0.59h0.55c0.33,0,0.59,0.26,0.59,0.59S243.16,60.91,242.84,60.91z M237.57,60.91h-3.54
				c-0.33,0-0.59-0.26-0.59-0.59s0.26-0.59,0.59-0.59h3.54c0.33,0,0.59,0.26,0.59,0.59S237.9,60.91,237.57,60.91z M215.92,57.38
				c-0.24,0-0.46-0.16-0.55-0.38l-0.09-0.21c-0.12-0.27-0.02-0.59,0.23-0.74c0.55-1.65,2.1-4,5.19-4c0.42,0,0.87,0.04,1.33,0.13
				c1.76,0.33,3.53,1.36,5.27,3.04c0.23,0.23,0.24,0.6,0.01,0.83c-0.23,0.24-0.6,0.24-0.83,0.01c-1.57-1.52-3.14-2.44-4.67-2.73
				c-0.39-0.07-0.76-0.11-1.11-0.11c-3.4,0-4.17,3.53-4.2,3.68C216.44,57.18,216.2,57.38,215.92,57.38z M199.5,52.11
				c-0.14,0-0.27-0.05-0.38-0.14c-0.25-0.21-0.28-0.58-0.07-0.83c0.78-0.92,1.87-1.6,3.24-2.03c0.31-0.1,0.64,0.08,0.74,0.39
				c0.1,0.31-0.08,0.64-0.39,0.74c-1.15,0.36-2.05,0.92-2.69,1.66C199.83,52.04,199.67,52.11,199.5,52.11z M208.28,50.12
				c-0.05,0-0.1-0.01-0.16-0.02c-0.35-0.09-0.71-0.17-1.08-0.22c-0.32-0.05-0.55-0.35-0.5-0.67c0.05-0.32,0.35-0.53,0.67-0.5
				c0.42,0.06,0.83,0.15,1.22,0.25c0.31,0.09,0.5,0.41,0.42,0.72C208.78,49.95,208.54,50.12,208.28,50.12z"/>
		</g>
		<g>
			<path fill="#ededf0" d="M243.32,65.05h-58.47c-0.65,0-1.18-0.53-1.18-1.18c0-0.65,0.53-1.18,1.18-1.18h58.47
				c0.65,0,1.18,0.53,1.18,1.18C244.5,64.52,243.97,65.05,243.32,65.05z"/>
		</g>
	</g>
</g>
<g>
	<path class="st8" d="M162.73,139.58c-1.23,0.01-2.38,0.5-3.24,1.37l-11.11,11.31l-0.29-32.52l-9.22-3.74l0.32,36.34l-11.31-11.11
		c-0.88-0.86-2.03-1.33-3.26-1.32c-1.23,0.01-2.38,0.5-3.24,1.37c-0.86,0.88-1.33,2.03-1.32,3.26c0.01,1.23,0.5,2.38,1.37,3.24
		l19.22,18.88c0.88,0.86,2.03,1.33,3.26,1.32c1.23-0.01,2.38-0.5,3.24-1.37l18.88-19.22c0.86-0.88,1.33-2.03,1.32-3.26
		c-0.01-1.23-0.5-2.38-1.37-3.24C165.11,140.04,163.95,139.57,162.73,139.58z"/>

		<linearGradient id="SVGID_1_" gradientUnits="userSpaceOnUse" x1="-14.1717" y1="904.7627" x2="-14.1717" y2="848.8684" gradientTransform="matrix(0.9326 -0.3608 0.3608 0.9326 -160.6184 -738.4082)">
		<stop  offset="4.302823e-03" style="stop-color:#0A5CC7"/>
		<stop  offset="0.9991" style="stop-color:#83219D"/>
	</linearGradient>
	<path class="st2" d="M147.85,74.96c-0.02-2.53-2.1-4.57-4.63-4.55c-2.53,0.02-4.57,2.1-4.55,4.63L138.87,99l9.22,3.74L147.85,74.96
		z"/>

		<linearGradient id="SVGID_2_" gradientUnits="userSpaceOnUse" x1="-1.5244" y1="781.6367" x2="45.9649" y2="888.8705" gradientTransform="matrix(0.9326 -0.3608 0.3608 0.9326 -160.6184 -738.4082)">
		<stop  offset="0" style="stop-color:#FA357F"/>
		<stop  offset="0.9991" style="stop-color:#7878FF"/>
	</linearGradient>
	<path class="st3" d="M182.86,33.02c-7.8-7.56-17.41-12.59-27.81-14.74c6.42,2.63,12.34,7.44,17.28,14.17
		C180.2,43.17,184.7,57.53,185,72.88c0.02,0.94-0.23,1.84-0.69,2.51c-0.12,0.18-0.26,0.33-0.4,0.47l12.79-0.11
		c0.91-0.01,1.78-0.38,2.41-1.03c0.63-0.65,0.98-1.53,0.95-2.44C199.7,57.35,193.59,43.41,182.86,33.02z"/>
	<g>

			<linearGradient id="SVGID_3_" gradientUnits="userSpaceOnUse" x1="-34.0817" y1="465.1348" x2="79.0326" y2="465.1348" gradientTransform="matrix(1 -8.803578e-03 8.803578e-03 1 116.716 -417.7079)">
			<stop  offset="0" style="stop-color:#FFF361"/>
			<stop  offset="1" style="stop-color:#FFA80A"/>
		</linearGradient>
		<path class="st4" d="M102.36,73.6c0.03-15.35,4.28-29.79,11.96-40.64c4.94-6.98,10.93-11.95,17.48-14.65
			c-10.67,2.24-20.47,7.52-28.33,15.41C92.92,44.3,87.06,58.34,86.96,73.26c-0.01,0.91,0.35,1.78,1,2.43c0.64,0.64,1.52,1,2.43,0.99
			l13.12-0.12c-0.15-0.13-0.28-0.28-0.41-0.46C102.62,75.44,102.36,74.54,102.36,73.6z"/>
	</g>

		<linearGradient id="SVGID_4_" gradientUnits="userSpaceOnUse" x1="-0.8077" y1="801.3849" x2="33.405" y2="898.9166" gradientTransform="matrix(0.9326 -0.3608 0.3608 0.9326 -160.6184 -738.4082)">
		<stop  offset="0" style="stop-color:#FF5162"/>
		<stop  offset="1" style="stop-color:#83219D"/>
	</linearGradient>
	<path class="st5" d="M185,72.88c-0.3-15.35-4.81-29.71-12.67-40.43c-4.94-6.73-10.86-11.54-17.28-14.17
		c-3.27-0.67-6.62-1.06-10.01-1.15c3.67,1.73,7.09,7.19,9.84,15.81c3.38,10.61,5.36,24.78,5.56,39.92c0.01,0.92-0.09,1.81-0.28,2.47
		c-0.09,0.32-0.2,0.57-0.32,0.74l24.08-0.21c0.14-0.14,0.28-0.29,0.4-0.47C184.77,74.72,185.02,73.81,185,72.88z"/>
	<g>

			<linearGradient id="SVGID_5_" gradientUnits="userSpaceOnUse" x1="-29.3453" y1="815.1485" x2="-15.1178" y2="844.5395" gradientTransform="matrix(0.9326 -0.3608 0.3608 0.9326 -160.6184 -738.4082)">
			<stop  offset="0" style="stop-color:#FFD943"/>
			<stop  offset="1" style="stop-color:#FFA80A"/>
		</linearGradient>
		<path class="st6" d="M125.8,75.63c-0.2-0.66-0.32-1.55-0.32-2.47c-0.06-15.14,1.66-29.35,4.86-40.01
			c2.58-8.6,5.87-14.09,9.47-15.93c-2.71,0.18-5.39,0.54-8.01,1.09c-6.55,2.7-12.55,7.68-17.48,14.65
			c-7.68,10.85-11.92,25.29-11.96,40.64c0,0.94,0.26,1.84,0.73,2.5c0.13,0.18,0.26,0.33,0.41,0.46l22.63-0.2
			C126.01,76.19,125.9,75.95,125.8,75.63z"/>
	</g>

		<linearGradient id="SVGID_6_" gradientUnits="userSpaceOnUse" x1="-6.0263" y1="430.4864" x2="37.0616" y2="498.196" gradientTransform="matrix(1 -8.803578e-03 8.803578e-03 1 116.716 -417.7079)">
		<stop  offset="0" style="stop-color:#FF8748"/>
		<stop  offset="0.1328" style="stop-color:#FE7852"/>
		<stop  offset="0.5049" style="stop-color:#FC546A"/>
		<stop  offset="0.8073" style="stop-color:#FA3D79"/>
		<stop  offset="1" style="stop-color:#FA357F"/>
	</linearGradient>
	<path class="st7" d="M139.8,17.22c-3.6,1.84-6.9,7.33-9.47,15.93c-3.19,10.66-4.92,24.87-4.86,40.01c0,0.92,0.12,1.81,0.32,2.47
		c0.1,0.32,0.21,0.56,0.34,0.74l33.7-0.3c0.12-0.18,0.23-0.42,0.32-0.74c0.19-0.66,0.29-1.55,0.28-2.47
		c-0.21-15.14-2.18-29.31-5.56-39.92c-2.75-8.62-6.17-14.08-9.84-15.81c-0.67-0.02-1.34-0.04-2.02-0.03
		C141.94,17.1,140.87,17.15,139.8,17.22z"/>
</g>
</svg>
