<?xml version="1.0" encoding="UTF-8"?>
<svg width="356px" height="210px" viewBox="0 0 356 210" version="1.1" xmlns="http://www.w3.org/2000/svg" xmlns:xlink="http://www.w3.org/1999/xlink">
    <!-- Generator: sketchtool 53.1 (72631) - https://sketchapp.com -->
    <title>5A8EEB55-E89B-49C5-8493-6FC78CEDF580</title>
    <desc>Created with sketchtool.</desc>
    <defs>
        <linearGradient x1="58.3126473%" y1="123.961053%" x2="40.1375665%" y2="-37.2724424%" id="linearGradient-1">
            <stop stop-color="#0A5CC7" offset="0.4302823%"></stop>
            <stop stop-color="#83219D" offset="99.91%"></stop>
        </linearGradient>
        <linearGradient x1="-28.1745341%" y1="-47.2105072%" x2="84.4799145%" y2="96.7146446%" id="linearGradient-2">
            <stop stop-color="#FA357F" offset="0%"></stop>
            <stop stop-color="#7878FF" offset="99.91%"></stop>
        </linearGradient>
        <linearGradient x1="20.1896063%" y1="50.397188%" x2="169.058059%" y2="48.6911625%" id="linearGradient-3">
            <stop stop-color="#FFF361" offset="0%"></stop>
            <stop stop-color="#FFA80A" offset="100%"></stop>
        </linearGradient>
        <linearGradient x1="7.14778295%" y1="-13.3614253%" x2="84.3296473%" y2="120.018489%" id="linearGradient-4">
            <stop stop-color="#FF5162" offset="0%"></stop>
            <stop stop-color="#83219D" offset="100%"></stop>
        </linearGradient>
        <linearGradient x1="34.0837535%" y1="25.5596147%" x2="59.4736431%" y2="63.1005055%" id="linearGradient-5">
            <stop stop-color="#FFD943" offset="0%"></stop>
            <stop stop-color="#FFA80A" offset="100%"></stop>
        </linearGradient>
        <linearGradient x1="21.6679292%" y1="-7.19688832%" x2="65.140178%" y2="106.397259%" id="linearGradient-6">
            <stop stop-color="#FF8748" offset="0%"></stop>
            <stop stop-color="#FE7852" offset="13.28%"></stop>
            <stop stop-color="#FC546A" offset="50.49%"></stop>
            <stop stop-color="#FA3D79" offset="80.73%"></stop>
            <stop stop-color="#FA357F" offset="100%"></stop>
        </linearGradient>
    </defs>
    <g id="Page-1" stroke="none" stroke-width="1" fill="none" fill-rule="evenodd">
        <g id="Send_Went_Wrong" transform="translate(-542.000000, -304.000000)" fill-rule="nonzero">
            <g id="firefox-send_illustrations-02" transform="translate(541.986755, 304.000000)">
                <g id="Group" transform="translate(0.000000, 41.721854)" fill="#EDEDF0" opacity="0.5">
                    <g transform="translate(31.986755, 123.774834)">
                        <g transform="translate(22.251656, 5.562914)" id="Path">
                            <path d="M1.71059603,3.36556291 L97.0450331,3.36556291 C97.8099338,3.36556291 98.4357616,2.7397351 98.4357616,1.97483444 C98.4357616,1.20993377 97.8099338,0.58410596 97.0450331,0.58410596 L1.71059603,0.58410596 C0.945695364,0.58410596 0.31986755,1.20993377 0.31986755,1.97483444 C0.31986755,2.7397351 0.945695364,3.36556291 1.71059603,3.36556291 Z"></path>
                        </g>
                        <g transform="translate(80.662252, 0.000000)" id="Path">
                            <path d="M1.84966887,1.86357616 L25.7701987,1.86357616 C26.1596026,1.86357616 26.4655629,1.55761589 26.4655629,1.16821192 C26.4655629,0.778807947 26.1596026,0.472847682 25.7701987,0.472847682 L1.84966887,0.472847682 C1.4602649,0.472847682 1.15430464,0.778807947 1.15430464,1.16821192 C1.15430464,1.55761589 1.4602649,1.86357616 1.84966887,1.86357616 Z"></path>
                        </g>
                        <g transform="translate(0.000000, 12.516556)" id="Shape">
                            <path d="M0.598013245,1.9192053 C0.598013245,1.52980132 0.90397351,1.22384106 1.29337748,1.22384106 L5.46556291,1.22384106 C5.85496689,1.22384106 6.16092715,1.52980132 6.16092715,1.9192053 C6.16092715,2.30860927 5.85496689,2.61456954 5.46556291,2.61456954 L1.29337748,2.61456954 C0.917880795,2.61456954 0.598013245,2.29470199 0.598013245,1.9192053 Z M15.8960265,1.9192053 C15.8960265,1.52980132 16.2019868,1.22384106 16.5913907,1.22384106 L33.2801325,1.22384106 C33.6695364,1.22384106 33.9754967,1.52980132 33.9754967,1.9192053 C33.9754967,2.30860927 33.6695364,2.61456954 33.2801325,2.61456954 L16.5913907,2.61456954 C16.215894,2.61456954 15.8960265,2.29470199 15.8960265,1.9192053 Z M45.1013245,1.9192053 C45.1013245,1.52980132 45.4072848,1.22384106 45.7966887,1.22384106 L47.1874172,1.22384106 C47.5768212,1.22384106 47.8827815,1.52980132 47.8827815,1.9192053 C47.8827815,2.30860927 47.5768212,2.61456954 47.1874172,2.61456954 L45.7966887,2.61456954 C45.4211921,2.61456954 45.1013245,2.29470199 45.1013245,1.9192053 Z M52.0549669,1.9192053 C52.0549669,1.52980132 52.3609272,1.22384106 52.7503311,1.22384106 L56.9225166,1.22384106 C57.3119205,1.22384106 57.6178808,1.52980132 57.6178808,1.9192053 C57.6178808,2.30860927 57.3119205,2.61456954 56.9225166,2.61456954 L52.7503311,2.61456954 C52.3748344,2.61456954 52.0549669,2.29470199 52.0549669,1.9192053 Z M67.3529801,1.9192053 C67.3529801,1.52980132 67.6589404,1.22384106 68.0483444,1.22384106 L84.7370861,1.22384106 C85.1264901,1.22384106 85.4324503,1.52980132 85.4324503,1.9192053 C85.4324503,2.30860927 85.1264901,2.61456954 84.7370861,2.61456954 L68.0483444,2.61456954 C67.6728477,2.61456954 67.3529801,2.29470199 67.3529801,1.9192053 Z"></path>
                        </g>
                    </g>
                    <g transform="translate(130.728477, 76.490066)">
                        <g transform="translate(27.814570, 5.562914)" id="Path">
                            <path d="M1.93311258,3.25430464 L155.85894,3.25430464 C156.623841,3.25430464 157.249669,2.62847682 157.249669,1.86357616 C157.249669,1.0986755 156.623841,0.472847682 155.85894,0.472847682 L1.93311258,0.472847682 C1.16821192,0.472847682 0.542384106,1.0986755 0.542384106,1.86357616 C0.542384106,2.62847682 1.15430464,3.25430464 1.93311258,3.25430464 Z"></path>
                        </g>
                        <g transform="translate(48.675497, 0.000000)" id="Path">
                            <path d="M1.86357616,1.86357616 L40.4701987,1.86357616 C40.8596026,1.86357616 41.1655629,1.55761589 41.1655629,1.16821192 C41.1655629,0.778807947 40.8596026,0.472847682 40.4701987,0.472847682 L1.86357616,0.472847682 C1.47417219,0.472847682 1.16821192,0.778807947 1.16821192,1.16821192 C1.16821192,1.55761589 1.47417219,1.86357616 1.86357616,1.86357616 Z"></path>
                        </g>
                        <g transform="translate(0.000000, 12.516556)" id="Shape">
                            <path d="M1.32119205,1.68278146 C1.32119205,1.29337748 1.62715232,0.987417219 2.01655629,0.987417219 L18.705298,0.987417219 C19.094702,0.987417219 19.4006623,1.29337748 19.4006623,1.68278146 C19.4006623,2.07218543 19.094702,2.3781457 18.705298,2.3781457 L2.01655629,2.3781457 C1.6410596,2.3781457 1.32119205,2.07218543 1.32119205,1.68278146 Z M29.1357616,1.68278146 C29.1357616,1.29337748 29.4417219,0.987417219 29.8311258,0.987417219 L34.0033113,0.987417219 C34.3927152,0.987417219 34.6986755,1.29337748 34.6986755,1.68278146 C34.6986755,2.07218543 34.3927152,2.3781457 34.0033113,2.3781457 L29.8311258,2.3781457 C29.4556291,2.3781457 29.1357616,2.07218543 29.1357616,1.68278146 Z M38.8708609,1.68278146 C38.8708609,1.29337748 39.1768212,0.987417219 39.5662252,0.987417219 L40.9569536,0.987417219 C41.3463576,0.987417219 41.6523179,1.29337748 41.6523179,1.68278146 C41.6523179,2.07218543 41.3463576,2.3781457 40.9569536,2.3781457 L39.5662252,2.3781457 C39.1907285,2.3781457 38.8708609,2.07218543 38.8708609,1.68278146 Z M52.7781457,1.68278146 C52.7781457,1.29337748 53.084106,0.987417219 53.4735099,0.987417219 L70.1622517,0.987417219 C70.5516556,0.987417219 70.8576159,1.29337748 70.8576159,1.68278146 C70.8576159,2.07218543 70.5516556,2.3781457 70.1622517,2.3781457 L53.4735099,2.3781457 C53.0980132,2.3781457 52.7781457,2.07218543 52.7781457,1.68278146 Z M80.5927152,1.68278146 C80.5927152,1.29337748 80.8986755,0.987417219 81.2880795,0.987417219 L85.4602649,0.987417219 C85.8496689,0.987417219 86.1556291,1.29337748 86.1556291,1.68278146 C86.1556291,2.07218543 85.8496689,2.3781457 85.4602649,2.3781457 L81.2880795,2.3781457 C80.9125828,2.3781457 80.5927152,2.07218543 80.5927152,1.68278146 Z M90.3278146,1.68278146 C90.3278146,1.29337748 90.6337748,0.987417219 91.0231788,0.987417219 L92.4139073,0.987417219 C92.8033113,0.987417219 93.1092715,1.29337748 93.1092715,1.68278146 C93.1092715,2.07218543 92.8033113,2.3781457 92.4139073,2.3781457 L91.0231788,2.3781457 C90.6476821,2.3781457 90.3278146,2.07218543 90.3278146,1.68278146 Z M104.235099,1.68278146 C104.235099,1.29337748 104.54106,0.987417219 104.930464,0.987417219 L121.619205,0.987417219 C122.008609,0.987417219 122.31457,1.29337748 122.31457,1.68278146 C122.31457,2.07218543 122.008609,2.3781457 121.619205,2.3781457 L104.930464,2.3781457 C104.554967,2.3781457 104.235099,2.07218543 104.235099,1.68278146 Z M132.049669,1.68278146 C132.049669,1.29337748 132.355629,0.987417219 132.745033,0.987417219 L136.917219,0.987417219 C137.306623,0.987417219 137.612583,1.29337748 137.612583,1.68278146 C137.612583,2.07218543 137.306623,2.3781457 136.917219,2.3781457 L132.745033,2.3781457 C132.369536,2.3781457 132.049669,2.07218543 132.049669,1.68278146 Z M141.784768,1.68278146 C141.784768,1.29337748 142.090728,0.987417219 142.480132,0.987417219 L143.870861,0.987417219 C144.260265,0.987417219 144.566225,1.29337748 144.566225,1.68278146 C144.566225,2.07218543 144.260265,2.3781457 143.870861,2.3781457 L142.480132,2.3781457 C142.104636,2.3781457 141.784768,2.07218543 141.784768,1.68278146 Z M155.692053,1.68278146 C155.692053,1.29337748 155.998013,0.987417219 156.387417,0.987417219 L173.076159,0.987417219 C173.465563,0.987417219 173.771523,1.29337748 173.771523,1.68278146 C173.771523,2.07218543 173.465563,2.3781457 173.076159,2.3781457 L156.387417,2.3781457 C156.011921,2.3781457 155.692053,2.07218543 155.692053,1.68278146 Z M183.506623,1.68278146 C183.506623,1.29337748 183.812583,0.987417219 184.201987,0.987417219 L188.374172,0.987417219 C188.763576,0.987417219 189.069536,1.29337748 189.069536,1.68278146 C189.069536,2.07218543 188.763576,2.3781457 188.374172,2.3781457 L184.201987,2.3781457 C183.82649,2.3781457 183.506623,2.07218543 183.506623,1.68278146 Z M193.241722,1.68278146 C193.241722,1.29337748 193.547682,0.987417219 193.937086,0.987417219 L195.327815,0.987417219 C195.717219,0.987417219 196.023179,1.29337748 196.023179,1.68278146 C196.023179,2.07218543 195.717219,2.3781457 195.327815,2.3781457 L193.937086,2.3781457 C193.561589,2.3781457 193.241722,2.07218543 193.241722,1.68278146 Z M207.149007,1.68278146 C207.149007,1.29337748 207.454967,0.987417219 207.844371,0.987417219 L224.533113,0.987417219 C224.922517,0.987417219 225.228477,1.29337748 225.228477,1.68278146 C225.228477,2.07218543 224.922517,2.3781457 224.533113,2.3781457 L207.844371,2.3781457 C207.468874,2.3781457 207.149007,2.07218543 207.149007,1.68278146 Z"></path>
                        </g>
                    </g>
                    <g>
                        <path d="M2.30860927,35.1298013 L37.6609272,35.1298013 C37.6609272,35.1298013 26.6046358,10.402649 50.0801325,7.20397351 C71.0245033,4.35298013 79.2993377,25.881457 79.2993377,25.881457 C79.2993377,25.881457 81.7887417,13.4622517 94.2357616,15.8403974 C106.515894,18.1768212 115.583444,37.9390728 115.583444,37.9390728 L146.374172,37.9390728" id="Path"></path>
                        <g transform="translate(1.390728, 0.000000)" id="Shape">
                            <path d="M145.609272,32.0980132 L136.513907,32.0980132 C136.054967,32.0980132 135.693377,31.7364238 135.693377,31.2774834 C135.693377,30.818543 136.054967,30.4569536 136.513907,30.4569536 L145.609272,30.4569536 C146.068212,30.4569536 146.429801,30.818543 146.429801,31.2774834 C146.429801,31.7364238 146.054305,32.0980132 145.609272,32.0980132 Z M121.772185,32.0980132 L120.131126,32.0980132 C119.672185,32.0980132 119.310596,31.7364238 119.310596,31.2774834 C119.310596,30.818543 119.672185,30.4569536 120.131126,30.4569536 L121.772185,30.4569536 C122.231126,30.4569536 122.592715,30.818543 122.592715,31.2774834 C122.592715,31.7364238 122.231126,32.0980132 121.772185,32.0980132 Z M36.8821192,31.110596 L34.2536424,31.110596 C33.794702,31.110596 33.4331126,30.7490066 33.4331126,30.2900662 C33.4331126,29.8311258 33.794702,29.4695364 34.2536424,29.4695364 L35.6721854,29.4695364 C35.5609272,29.1774834 35.4357616,28.815894 35.2966887,28.4125828 C35.1576159,27.981457 35.3801325,27.5225166 35.8112583,27.3695364 C36.2423841,27.2304636 36.7013245,27.4529801 36.8543046,27.884106 C37.2854305,29.1496689 37.6331126,29.9284768 37.6331126,29.9423841 C37.7443709,30.1927152 37.7165563,30.4847682 37.5774834,30.7211921 C37.410596,30.9715232 37.1602649,31.110596 36.8821192,31.110596 Z M21.1529801,31.110596 L1.52980132,31.110596 C1.07086093,31.110596 0.709271523,30.7490066 0.709271523,30.2900662 C0.709271523,29.8311258 1.07086093,29.4695364 1.52980132,29.4695364 L21.1668874,29.4695364 C21.6258278,29.4695364 21.9874172,29.8311258 21.9874172,30.2900662 C21.9735099,30.7350993 21.6119205,31.110596 21.1529801,31.110596 Z M114.234437,31.013245 C113.942384,31.013245 113.664238,30.8602649 113.525166,30.5960265 C112.996689,29.6642384 112.134437,28.1900662 110.980132,26.4655629 C110.729801,26.0900662 110.827152,25.5754967 111.202649,25.3251656 C111.578146,25.0748344 112.092715,25.1721854 112.343046,25.5476821 C113.525166,27.3139073 114.415232,28.8298013 114.957616,29.789404 C115.180132,30.1788079 115.04106,30.6794702 114.637748,30.9019868 C114.512583,30.9854305 114.37351,31.013245 114.234437,31.013245 Z M34.5456954,22.613245 C34.1423841,22.613245 33.794702,22.3211921 33.7390728,21.9039735 C33.6556291,21.3615894 33.6,20.7913907 33.5582781,20.2211921 C33.5165563,19.7761589 33.8642384,19.3728477 34.3092715,19.3450331 C34.7821192,19.3172185 35.1576159,19.6370861 35.1854305,20.0960265 C35.2271523,20.6384106 35.2827815,21.1668874 35.3662252,21.681457 C35.4357616,22.1264901 35.115894,22.5437086 34.6708609,22.5993377 C34.6152318,22.613245 34.5735099,22.613245 34.5456954,22.613245 Z M77.1576159,19.0112583 C76.8655629,19.0112583 76.5874172,18.8582781 76.4344371,18.5801325 C76.1980132,18.1490066 75.9337748,17.6761589 75.6417219,17.189404 C75.405298,16.8 75.5304636,16.2993377 75.9198675,16.0629139 C76.3092715,15.8264901 76.8099338,15.9516556 77.0463576,16.3410596 C77.3523179,16.8556291 77.6304636,17.3423841 77.8807947,17.8013245 C78.089404,18.2046358 77.9503311,18.6913907 77.5470199,18.9139073 C77.4218543,18.9695364 77.2966887,19.0112583 77.1576159,19.0112583 Z M103.136424,16.9112583 C102.941722,16.9112583 102.760927,16.8417219 102.607947,16.7165563 C99.4788079,14.0324503 96.3635762,12.3774834 93.3178808,11.7933775 C90.3278146,11.2231788 87.6854305,11.5152318 85.4880795,12.6417219 C85.0847682,12.8503311 84.5980132,12.6834437 84.389404,12.2940397 C84.1807947,11.8907285 84.3337748,11.4039735 84.7370861,11.1953642 C87.2543046,9.88807947 90.2721854,9.55430464 93.6238411,10.1940397 C96.9476821,10.8337748 100.327152,12.6 103.678808,15.4788079 C104.02649,15.7708609 104.054305,16.2854305 103.762252,16.6331126 C103.595364,16.8139073 103.372848,16.9112583 103.136424,16.9112583 Z M72.5125828,12.2801325 C72.2900662,12.2801325 72.0536424,12.1827815 71.9006623,12.0019868 C70.8298013,10.7642384 69.6754967,9.63774834 68.4933775,8.65033113 C68.1456954,8.35827815 68.1039735,7.84370861 68.3960265,7.49602649 C68.6880795,7.14834437 69.202649,7.10662252 69.5503311,7.3986755 C70.8019868,8.44172185 72.0119205,9.63774834 73.1384106,10.9311258 C73.4304636,11.2788079 73.402649,11.7933775 73.0549669,12.0854305 C72.9019868,12.210596 72.7072848,12.2801325 72.5125828,12.2801325 Z M38.7735099,7.50993377 C38.5509934,7.50993377 38.3284768,7.41258278 38.1615894,7.24569536 C37.8556291,6.91192053 37.8834437,6.39735099 38.2172185,6.09139073 C40.8317881,3.72715232 44.5172185,2.19735099 49.1761589,1.57152318 C52.0271523,1.18211921 54.8225166,1.22384106 57.4649007,1.68278146 C57.9099338,1.76622517 58.2019868,2.18344371 58.1324503,2.62847682 C58.0490066,3.07350993 57.6317881,3.3794702 57.186755,3.29602649 C54.7112583,2.86490066 52.0827815,2.83708609 49.3986755,3.1986755 C45.0735099,3.79668874 41.6801325,5.17350993 39.315894,7.31523179 C39.1629139,7.44039735 38.9682119,7.50993377 38.7735099,7.50993377 Z"></path>
                        </g>
                        <g transform="translate(0.000000, 34.768212)" id="Path">
                            <path d="M148.015232,3.60198675 L2.30860927,3.60198675 C1.40463576,3.60198675 0.667549669,2.86490066 0.667549669,1.96092715 C0.667549669,1.05695364 1.40463576,0.31986755 2.30860927,0.31986755 L148.015232,0.31986755 C148.919205,0.31986755 149.656291,1.05695364 149.656291,1.96092715 C149.642384,2.87880795 148.919205,3.60198675 148.015232,3.60198675 Z"></path>
                        </g>
                    </g>
                    <g transform="translate(230.860927, 1.390728)">
                        <path d="M2.21125828,20.415894 L21.9456954,20.415894 C21.9456954,20.415894 15.7708609,6.61986755 28.8715232,4.8397351 C40.5536424,3.25430464 45.1847682,15.2562914 45.1847682,15.2562914 C45.1847682,15.2562914 46.5754967,8.33046358 53.5291391,9.65165563 C60.3854305,10.9589404 65.4476821,21.9874172 65.4476821,21.9874172 L82.6231788,21.9874172" id="Path"></path>
                        <g transform="translate(1.390728, 0.000000)" id="Shape">
                            <path d="M21.1251656,18.2046358 L1.41854305,18.2046358 C0.959602649,18.2046358 0.598013245,17.8430464 0.598013245,17.384106 C0.598013245,16.9251656 0.959602649,16.5635762 1.41854305,16.5635762 L21.1251656,16.5635762 C21.584106,16.5635762 21.9456954,16.9251656 21.9456954,17.384106 C21.9456954,17.8430464 21.584106,18.2046358 21.1251656,18.2046358 Z M81.8304636,17.9543046 L81.0655629,17.9543046 C80.6066225,17.9543046 80.2450331,17.5927152 80.2450331,17.1337748 C80.2450331,16.6748344 80.6066225,16.313245 81.0655629,16.313245 L81.8304636,16.313245 C82.289404,16.313245 82.6509934,16.6748344 82.6509934,17.1337748 C82.6509934,17.5927152 82.2754967,17.9543046 81.8304636,17.9543046 Z M74.5013245,17.9543046 L69.5781457,17.9543046 C69.1192053,17.9543046 68.7576159,17.5927152 68.7576159,17.1337748 C68.7576159,16.6748344 69.1192053,16.313245 69.5781457,16.313245 L74.5013245,16.313245 C74.9602649,16.313245 75.3218543,16.6748344 75.3218543,17.1337748 C75.3218543,17.5927152 74.9602649,17.9543046 74.5013245,17.9543046 Z M44.392053,13.0450331 C44.0582781,13.0450331 43.7523179,12.8225166 43.6271523,12.5165563 L43.5019868,12.2245033 C43.3350993,11.8490066 43.4741722,11.4039735 43.8218543,11.1953642 C44.586755,8.90066225 46.7423841,5.63245033 51.0397351,5.63245033 C51.6238411,5.63245033 52.2496689,5.68807947 52.889404,5.81324503 C55.3370861,6.27218543 57.7986755,7.70463576 60.218543,10.0410596 C60.5384106,10.3609272 60.5523179,10.8754967 60.2324503,11.1953642 C59.9125828,11.5291391 59.3980132,11.5291391 59.0781457,11.2092715 C56.894702,9.09536424 54.7112583,7.81589404 52.5834437,7.41258278 C52.0410596,7.31523179 51.5264901,7.25960265 51.0397351,7.25960265 C46.3112583,7.25960265 45.2403974,12.1688742 45.1986755,12.3774834 C45.1152318,12.7668874 44.781457,13.0450331 44.392053,13.0450331 Z M21.5562914,5.71589404 C21.3615894,5.71589404 21.1807947,5.64635762 21.0278146,5.52119205 C20.6801325,5.22913907 20.6384106,4.71456954 20.9304636,4.36688742 C22.0152318,3.08741722 23.5311258,2.14172185 25.4364238,1.54370861 C25.8675497,1.40463576 26.3264901,1.65496689 26.4655629,2.08609272 C26.6046358,2.51721854 26.3543046,2.97615894 25.9231788,3.11523179 C24.3238411,3.61589404 23.0721854,4.39470199 22.1821192,5.42384106 C22.0152318,5.61854305 21.7927152,5.71589404 21.5562914,5.71589404 Z M33.7668874,2.94834437 C33.697351,2.94834437 33.6278146,2.93443709 33.5443709,2.9205298 C33.0576159,2.79536424 32.5569536,2.68410596 32.0423841,2.61456954 C31.597351,2.54503311 31.2774834,2.12781457 31.3470199,1.68278146 C31.4165563,1.23774834 31.8337748,0.945695364 32.2788079,0.987417219 C32.8629139,1.07086093 33.4331126,1.19602649 33.9754967,1.33509934 C34.4066225,1.4602649 34.6708609,1.90529801 34.5596026,2.33642384 C34.4622517,2.71192053 34.1284768,2.94834437 33.7668874,2.94834437 Z"></path>
                        </g>
                        <g transform="translate(0.000000, 19.470199)" id="Path">
                            <path d="M83.8887417,4.24172185 L2.57284768,4.24172185 C1.66887417,4.24172185 0.931788079,3.50463576 0.931788079,2.60066225 C0.931788079,1.69668874 1.66887417,0.959602649 2.57284768,0.959602649 L83.8887417,0.959602649 C84.7927152,0.959602649 85.5298013,1.69668874 85.5298013,2.60066225 C85.5298013,3.50463576 84.7927152,4.24172185 83.8887417,4.24172185 Z"></path>
                        </g>
                    </g>
                </g>
                <g id="Group" transform="translate(95.960265, 0.000000)">
                    <path d="M106.710596,170.475497 C105,170.489404 103.400662,171.170861 102.204636,172.380795 L86.7536424,188.109934 L86.3503311,142.883444 L73.5278146,137.682119 L73.9728477,188.221192 L58.2437086,172.770199 C57.0198675,171.574172 55.4205298,170.92053 53.7099338,170.934437 C51.9993377,170.948344 50.4,171.629801 49.2039735,172.839735 C48.007947,174.063576 47.3543046,175.662914 47.3682119,177.37351 C47.3821192,179.084106 48.0635762,180.683444 49.2735099,181.87947 L76.0033113,208.136424 C77.2271523,209.33245 78.8264901,209.986093 80.5370861,209.972185 C82.2476821,209.958278 83.8470199,209.276821 85.0430464,208.066887 L111.3,181.337086 C112.496026,180.113245 113.149669,178.513907 113.135762,176.803311 C113.121854,175.092715 112.440397,173.493377 111.230464,172.297351 C110.02053,171.115232 108.407285,170.461589 106.710596,170.475497 Z" id="Path" fill="#0060DF"></path>
                    <path d="M86.0165563,80.6066225 C85.9887417,77.0880795 83.0960265,74.2509934 79.5774834,74.2788079 C76.0589404,74.3066225 73.2218543,77.1993377 73.2496689,80.7178808 L73.5278146,114.039735 L86.3503311,119.24106 L86.0165563,80.6066225 Z" id="Path" fill="url(#linearGradient-1)"></path>
                    <path d="M134.70596,22.2794702 C123.858278,11.7655629 110.493377,4.77019868 96.0298013,1.78013245 C104.958278,5.43774834 113.191391,12.1271523 120.061589,21.486755 C131.006623,36.3953642 137.264901,56.3662252 137.682119,77.7139073 C137.709934,79.0211921 137.362252,80.2728477 136.722517,81.2046358 C136.555629,81.4549669 136.360927,81.6635762 136.166225,81.8582781 L153.953642,81.705298 C155.219205,81.6913907 156.429139,81.1768212 157.305298,80.2728477 C158.181457,79.3688742 158.668212,78.1450331 158.62649,76.8794702 C158.125828,56.115894 149.628477,36.7291391 134.70596,22.2794702 Z" id="Path" fill="url(#linearGradient-2)"></path>
                    <path d="M22.7523179,78.7152318 C22.7940397,57.3675497 28.7046358,37.2854305 39.3854305,22.1960265 C46.2556291,12.4887417 54.5860927,5.57682119 63.6953642,1.8218543 C48.8562914,4.93708609 35.2271523,12.2801325 24.2960265,23.2529801 C9.62384106,37.9668874 1.47417219,57.4927152 1.33509934,78.2423841 C1.32119205,79.507947 1.8218543,80.7178808 2.72582781,81.6218543 C3.61589404,82.5119205 4.8397351,83.0125828 6.10529801,82.9986755 L24.3516556,82.8317881 C24.1430464,82.6509934 23.9622517,82.4423841 23.781457,82.192053 C23.1139073,81.2741722 22.7523179,80.0225166 22.7523179,78.7152318 Z" id="Path" fill="url(#linearGradient-3)"></path>
                    <path d="M137.682119,77.7139073 C137.264901,56.3662252 130.992715,36.3953642 120.061589,21.486755 C113.191391,12.1271523 104.958278,5.43774834 96.0298013,1.78013245 C91.4821192,0.848344371 86.8231788,0.305960265 82.1086093,0.180794702 C87.2125828,2.58675497 91.9688742,10.1801325 95.7933775,22.1682119 C100.49404,36.9238411 103.247682,56.6304636 103.525828,77.6860927 C103.539735,78.9655629 103.400662,80.2033113 103.136424,81.1211921 C103.011258,81.5662252 102.858278,81.9139073 102.691391,82.1503311 L136.180132,81.8582781 C136.374834,81.6635762 136.569536,81.4549669 136.736424,81.2046358 C137.362252,80.2728477 137.709934,79.0072848 137.682119,77.7139073 Z" id="Path" fill="url(#linearGradient-4)"></path>
                    <path d="M55.3509934,81.5384106 C55.0728477,80.6205298 54.9059603,79.3827815 54.9059603,78.1033113 C54.8225166,57.0476821 57.2145695,37.2854305 61.6649007,22.4602649 C65.2529801,10.5 69.8284768,2.86490066 74.8350993,0.305960265 C71.0662252,0.556291391 67.3390728,1.05695364 63.6953642,1.8218543 C54.5860927,5.57682119 46.2417219,12.502649 39.3854305,22.1960265 C28.7046358,37.2854305 22.807947,57.3675497 22.7523179,78.7152318 C22.7523179,80.0225166 23.1139073,81.2741722 23.7675497,82.192053 C23.9483444,82.4423841 24.1291391,82.6509934 24.3377483,82.8317881 L55.8099338,82.5536424 C55.6430464,82.3172185 55.4900662,81.9834437 55.3509934,81.5384106 Z" id="Path" fill="url(#linearGradient-5)"></path>
                    <path d="M74.8211921,0.305960265 C69.8145695,2.86490066 65.2251656,10.5 61.6509934,22.4602649 C57.2145695,37.2854305 54.8086093,57.0476821 54.892053,78.1033113 C54.892053,79.3827815 55.0589404,80.6205298 55.3370861,81.5384106 C55.4761589,81.9834437 55.6291391,82.3172185 55.8099338,82.5675497 L102.677483,82.1503311 C102.844371,81.9 102.997351,81.5662252 103.122517,81.1211921 C103.386755,80.2033113 103.525828,78.9655629 103.511921,77.6860927 C103.219868,56.6304636 100.480132,36.9238411 95.7794702,22.1682119 C91.9549669,10.1801325 87.1986755,2.58675497 82.094702,0.180794702 C81.1629139,0.152980132 80.2311258,0.125165563 79.2854305,0.139072848 C77.797351,0.139072848 76.3092715,0.208609272 74.8211921,0.305960265 Z" id="Path" fill="url(#linearGradient-6)"></path>
                </g>
            </g>
        </g>
    </g>
</svg>