<svg width="15" height="13" viewBox="0 0 15 13" xmlns="http://www.w3.org/2000/svg"><title>Combined Shape</title><path d="M10.274 9.193a5.957 5.957 0 0 1-2.98.778C4.37 9.97 2 7.963 2 5.485 2 3.008 4.37 1 7.294 1c2.924 0 5.294 2.008 5.294 4.485 0 .843-.274 1.632-.751 2.305l.577 2.21-2.14-.807zm-5.983-2.96a.756.756 0 0 0 .763-.748.756.756 0 0 0-.763-.747.756.756 0 0 0-.764.747c0 .413.342.748.764.748zm3.054 0a.756.756 0 0 0 .764-.748.756.756 0 0 0-.764-.747.756.756 0 0 0-.764.747c0 .413.342.748.764.748zm3.054 0a.756.756 0 0 0 .764-.748.756.756 0 0 0-.764-.747.756.756 0 0 0-.763.747c0 .413.342.748.763.748z" fill="#FFF" fill-rule="evenodd"/></svg>