<svg  viewBox="0 0 65 64" height="64" width="65" xmlns="http://www.w3.org/2000/svg" xmlns:xlink="http://www.w3.org/1999/xlink">
<defs>
<linearGradient id="linear-gradient" x1="46.37" y1="59.71" x2="15.42" y2="6.11" gradientTransform="matrix(1, 0, 0, -1, 0, 64)" gradientUnits="userSpaceOnUse">
<stop offset="0" stop-color="#ff980e"/>
<stop offset="0.21" stop-color="#ff7139"/>
<stop offset="0.36" stop-color="#ff5854"/>
<stop offset="0.46" stop-color="#ff4f5e"/>
<stop offset="0.69" stop-color="#ff3750"/>
<stop offset="0.86" stop-color="#f92261"/>
<stop offset="1" stop-color="#f5156c"/>
</linearGradient>
<linearGradient id="linear-gradient-2" x1="46.37" y1="59.71" x2="15.42" y2="6.11" gradientTransform="matrix(1, 0, 0, -1, 0, 64)" gradientUnits="userSpaceOnUse">
<stop offset="0" stop-color="#fff44f" stop-opacity="0.8"/>
<stop offset="0.09" stop-color="#fff44f" stop-opacity="0.7"/>
<stop offset="0.75" stop-color="#fff44f" stop-opacity="0"/>
</linearGradient>
<linearGradient id="linear-gradient-3" x1="40.19" y1="26.08" x2="54.32" y2="50.55" gradientTransform="matrix(1, 0, 0, -1, 0, 64)" gradientUnits="userSpaceOnUse">
<stop offset="0" stop-color="#3a8ee6"/>
<stop offset="0.24" stop-color="#5c79f0"/>
<stop offset="0.63" stop-color="#9059ff"/>
<stop offset="1" stop-color="#c139e6"/>
</linearGradient>
<linearGradient id="linear-gradient-4" x1="54.32" y1="50.58" x2="48.39" y2="40.31" gradientTransform="matrix(1, 0, 0, -1, 0, 64)" gradientUnits="userSpaceOnUse">
<stop offset="0" stop-color="#6e008b" stop-opacity="0.5"/>
<stop offset="0.5" stop-color="#c846cb" stop-opacity="0"/>
</linearGradient>
<linearGradient id="linear-gradient-5" x1="56.96" y1="22.5" x2="41.98" y2="37.46" gradientTransform="matrix(1, 0, 0, -1, 0, 64)" gradientUnits="userSpaceOnUse">
<stop offset="0.14" stop-color="#6a2bea" stop-opacity="0"/>
<stop offset="0.34" stop-color="#642de4" stop-opacity="0.03"/>
<stop offset="0.55" stop-color="#5131d3" stop-opacity="0.12"/>
<stop offset="0.76" stop-color="#3139b7" stop-opacity="0.27"/>
<stop offset="0.98" stop-color="#054490" stop-opacity="0.48"/>
<stop offset="1" stop-color="#00458b" stop-opacity="0.5"/>
</linearGradient>
</defs>
<path d="M32.56,0C14.61,0,0,14.33,0,31.94a3.42,3.42,0,0,0,3.42,3.42H29.14V52.3l-8-8a3.42,3.42,0,1,0-4.84,4.84L30.14,63a2.73,2.73,0,0,0,.25.23l.23.17h.05l.24.14.27.13.28.1.29.07L32,64h1.27l.29-.07.29-.1.27-.13.24-.14.24-.17L35,63,48.8,49.18A3.43,3.43,0,0,0,44,44.34l-8,8v-17H61.7a3.42,3.42,0,0,0,3.42-3.42h0C65.12,14.33,50.51,0,32.56,0ZM7.09,28.51A25.54,25.54,0,0,1,32.56,6.85,25.55,25.55,0,0,1,58,28.51Z"  fill="url(#linear-gradient)"/>
<path d="M32.56,0C14.61,0,0,14.33,0,31.94a3.42,3.42,0,0,0,3.42,3.42H29.14V52.3l-8-8a3.42,3.42,0,1,0-4.84,4.84L30.14,63a2.73,2.73,0,0,0,.25.23l.23.17h.05l.24.14.27.13.28.1.29.07L32,64h1.27l.29-.07.29-.1.27-.13.24-.14.24-.17L35,63,48.8,49.18A3.43,3.43,0,0,0,44,44.34l-8,8v-17H61.7a3.42,3.42,0,0,0,3.42-3.42h0C65.12,14.33,50.51,0,32.56,0ZM7.09,28.51A25.54,25.54,0,0,1,32.56,6.85,25.55,25.55,0,0,1,58,28.51Z"  fill="url(#linear-gradient-2)"/>
<path d="M36,7.08A25.45,25.45,0,0,1,58,28.51H42.85A6.85,6.85,0,0,0,36,35.36H61.7a3.43,3.43,0,0,0,3.42-3.43c0-12.2-8.63-18.13-16-21.59A35.75,35.75,0,0,0,36,7.08Z" fill="url(#linear-gradient-3)"/>
<path d="M57.89,27.76c2.31,1.86,4.63,3.71,6.9,5.61a3.27,3.27,0,0,0,.33-1.44c0-12.2-8.63-18.13-16-21.59A35.75,35.75,0,0,0,36,7.08,25.47,25.47,0,0,1,57.89,27.76Z" fill="url(#linear-gradient-4)"/>
<path d="M57.5,28.51H42.85A6.85,6.85,0,0,0,36,35.36H61.7a3.36,3.36,0,0,0,2.64-1.28C62.09,32.19,59.79,30.36,57.5,28.51Z" opacity=".9" fill="url(#linear-gradient-5)"/>
</svg>