<svg width="325" height="231" viewBox="0 0 325 231" xmlns="http://www.w3.org/2000/svg"><title>illustration</title><g fill="none" fill-rule="evenodd"><path d="M260.38 39.18c-.13-.34-3.28-8.21-11.15-7.15-2.39.33-4 1.26-4.88 2.78a5.25 5.25 0 0 0-.52 1.39 6.85 6.85 0 0 1 4.89-2.49c8.37-1.14 11.68 7.46 11.68 7.46a6.44 6.44 0 0 1 .73-1.78.48.48 0 0 1-.76-.21h.01zm11 23.9c.21-.31.52-.87.21-1.17a1.32 1.32 0 0 0-.89-.26 3.51 3.51 0 0 0-2.05.74c-1.22.92-2.34 2.39-2.1 3.16 2.17-.55 4.1-1.41 4.83-2.47zm-5.51 29.98c.21-.31.52-.87.21-1.17a1.32 1.32 0 0 0-.89-.26 3.51 3.51 0 0 0-2.05.74c-1.22.92-2.34 2.39-2.1 3.16 2.17-.53 4.1-1.41 4.83-2.47z"/><path d="M109.06 20.88a19.86 19.86 0 0 0 .54 6.12h1a25.6 25.6 0 0 1-1.54-6.12z" fill="#FFF" fill-rule="nonzero"/><path d="M111.73 27.72a.5.5 0 0 0 0-.48c0-.07-2.31-5.28-1.71-10.28a10.45 10.45 0 0 1 1.18-3.87c1.59-2.85 4.64-4.6 9.07-5.21 14.47-2 20.41 13 20.47 13.1a.51.51 0 0 0 .51.32.5.5 0 0 0 .45-.4c.07-.34 1.79-8.42 10.15-6.82 8.36 1.6 14.93 14.18 15 14.31a.5.5 0 0 0 .45.27h22.12a.5.5 0 0 0 0-1h-21.8c-1-1.94-7.21-13-15.55-14.57-7.16-1.36-10 3.79-10.92 6.31-1.83-3.67-8.26-14.25-21-12.51-4.76.65-8.06 2.57-9.81 5.71a13.82 13.82 0 0 0-1.31 8.28 25.6 25.6 0 0 0 1.54 6.12H85.9a.5.5 0 1 0 0 1h25.41a.5.5 0 0 0 .42-.28z" fill="#D9ECFF" fill-rule="nonzero"/><path d="M85.46 33.09h104.72a1 1 0 1 0 0-2h-24.24c-2.11-3.9-7.56-12.72-14.4-14-9-1.71-10.74 7.22-10.74 7.22s-5.95-15.47-21-13.42c-5.55.76-8.4 3.18-9.75 6.1-.6 5 1.68 10.22 1.71 10.28a.5.5 0 0 1-.46.7h-1.45a23.35 23.35 0 0 0 1 3H85.47l8.18.16h-8.19a1 1 0 0 0 0 2v-.04z" fill="#FFF" fill-rule="nonzero"/><path d="M229.64 141.12a1 1 0 1 0 0-2 17.88 17.88 0 0 1-9.83-2.64c-.033.74-.07 1.477-.11 2.21a19.27 19.27 0 0 0 9.94 2.43z" fill="#D9ECFF" fill-rule="nonzero"/><g fill-rule="nonzero" fill="#D9ECFF"><path d="M18.453 75.47c3.19.09 6.335-.932 9.056-2.94 2.473-1.845 5.34-2.784 8.249-2.7 2.912-.085 5.782.853 8.257 2.7 5.598 3.918 12.514 3.918 18.112 0 5.105-3.595 11.427-3.595 16.532 0 5.598 3.916 12.514 3.916 18.112 0 5.105-3.595 11.427-3.595 16.532 0 2.72 2.008 5.865 3.029 9.056 2.94.459 0 .831-.448.831-1s-.372-1-.831-1c-2.916.087-5.789-.851-8.266-2.7-5.599-3.916-12.514-3.916-18.112 0-5.105 3.595-11.427 3.595-16.532 0-5.598-3.918-12.514-3.918-18.112 0-5.102 3.593-11.42 3.593-16.523 0-2.72-2.009-5.865-3.03-9.056-2.94-3.191-.09-6.336.932-9.056 2.94-2.478 1.849-5.35 2.787-8.266 2.7-2.915.087-5.788-.851-8.266-2.7-2.72-2.008-5.865-3.03-9.056-2.94-.459 0-.831.448-.831 1s.372 1 .831 1c2.915-.087 5.788.851 8.266 2.7 2.725 2.012 5.876 3.033 9.073 2.94z"/><path d="M88.097 66.63c-2.982.09-5.921-.87-8.457-2.76-5.473-3.836-12.239-3.836-17.712 0-5.227 3.677-11.696 3.677-16.923 0-2.66-1.962-5.736-2.958-8.856-2.87-.23 0-.416.224-.416.5s.186.5.416.5c2.985-.09 5.927.868 8.465 2.76 5.474 3.836 12.24 3.836 17.713 0 5.226-3.677 11.696-3.677 16.922 0 5.474 3.836 12.24 3.836 17.713 0 5.227-3.675 11.696-3.675 16.923 0 5.476 3.838 12.245 3.838 17.72 0 5.23-3.679 11.703-3.679 16.932 0 2.66 1.965 5.735 2.965 8.856 2.88.23 0 .416-.224.416-.5s-.186-.5-.416-.5c-2.985.09-5.927-.869-8.466-2.76-5.475-3.838-12.245-3.838-17.72 0-5.227 3.675-11.696 3.675-16.923 0-5.474-3.834-12.239-3.834-17.713 0-2.541 1.89-5.486 2.846-8.474 2.75z"/></g><g fill-rule="nonzero" fill="#D9ECFF"><path d="M284.78 97a.5.5 0 0 0 .5.47 30.52 30.52 0 0 0 5.36-.79c.88.71 2.64.92 5.34.62 6.26-.7 9.57-3.26 9.71-3.37a.502.502 0 0 0-.62-.79 19.34 19.34 0 0 1-9.2 3.16 11.51 11.51 0 0 1-3.74 0c2-.62 3.76-1.49 4.55-2.63 1-1.37.38-2.18.09-2.46-.88-.85-2.82-.66-4.24.4-1.07.8-2.89 2.67-2.48 4.2a29.56 29.56 0 0 1-4.82.68.5.5 0 0 0-.45.51zm8.37-4.61a3.51 3.51 0 0 1 2.05-.74 1.32 1.32 0 0 1 .89.26c.31.3 0 .86-.21 1.17-.73 1.06-2.66 1.89-4.83 2.47-.24-.79.87-2.26 2.1-3.18v.02zM260.85 103a19.49 19.49 0 0 0 10.65-2.88 18.44 18.44 0 0 1 10.17-2.76.5.5 0 0 0 0-1A19.5 19.5 0 0 0 271 99.23a18.42 18.42 0 0 1-10.15 2.77 18 18 0 0 1-7.33-1.34v1.09a19.29 19.29 0 0 0 7.33 1.25zm52.31 12a20.15 20.15 0 0 1-20.34 0 19.49 19.49 0 0 0-10.65-2.88.5.5 0 0 0 0 1 18.42 18.42 0 0 1 10.17 2.76 21.14 21.14 0 0 0 21.3 0 18.42 18.42 0 0 1 10.17-2.76.5.5 0 0 0 0-1 19.49 19.49 0 0 0-10.65 2.88zM66.42 136.42a19.92 19.92 0 0 0-10.89-2.94 19.92 19.92 0 0 0-10.89 2.94 18 18 0 0 1-9.93 2.7 18 18 0 0 1-9.93-2.7 19.92 19.92 0 0 0-10.89-2.94 1 1 0 0 0 0 2 18 18 0 0 1 9.93 2.7 19.92 19.92 0 0 0 10.89 2.94 19.92 19.92 0 0 0 10.89-2.94 19.64 19.64 0 0 1 19.87 0 21.8 21.8 0 0 0 6 2.44v-2.07a20.87 20.87 0 0 1-5.05-2.13z"/><path d="M261.52 111.19a19.93 19.93 0 0 0 10.89-2.94 19.65 19.65 0 0 1 19.87 0 21.65 21.65 0 0 0 21.77 0 18 18 0 0 1 9.94-2.7 1 1 0 1 0 0-2 19.93 19.93 0 0 0-10.89 2.94 19.65 19.65 0 0 1-19.87 0 21.65 21.65 0 0 0-21.77 0 18 18 0 0 1-9.94 2.7 17.44 17.44 0 0 1-9.24-2.33 12.63 12.63 0 0 1-1.05 1.71 19.45 19.45 0 0 0 10.29 2.62z"/></g><path d="M242.76 39.28a10.61 10.61 0 0 0 .2 2.92h.51a14.54 14.54 0 0 1-.71-2.92z" fill="#FFF" fill-rule="nonzero"/><path d="M274.63 43a.5.5 0 0 0 0-.48 11.69 11.69 0 0 1-.82-6.29 5.25 5.25 0 0 1 .52-1.39c.85-1.52 2.49-2.46 4.88-2.78 7.87-1.06 11 6.81 11.15 7.15a.51.51 0 0 0 1-.08c.07-.31 1-4.43 5.38-3.6 4.62.88 8.15 7.21 8.19 7.28a.5.5 0 0 0 .44.26h12.3a.5.5 0 0 0 0-1h-12c-.75-1.27-4.16-6.65-8.73-7.52a5.2 5.2 0 0 0-6.14 3.2c-1.28-2.37-4.91-7.58-11.67-6.65-2.72.37-4.61 1.48-5.62 3.29a8 8 0 0 0-.73 4.95c.135.995.373 1.974.71 2.92h-13.4a.5.5 0 0 0 0 1h14.13a.5.5 0 0 0 .41-.26z" fill="#D9ECFF" fill-rule="nonzero"/><path d="M259.9 47.06h58.23a1 1 0 1 0 0-2h-13.69c-1.13-2.11-4.19-7.16-8.06-7.89a4.6 4.6 0 0 0-5 1.92.49.49 0 0 1-.2.29 6.44 6.44 0 0 0-.73 1.78s-3.31-8.6-11.68-7.46a6.85 6.85 0 0 0-4.89 2.49 11.69 11.69 0 0 0 .82 6.29.5.5 0 0 1-.46.7h-1a13 13 0 0 0 .57 1.67h-14.17l9.46.18h-9.2a1 1 0 1 0 0 2v.03z" fill="#FFF" fill-rule="nonzero"/><g fill-rule="nonzero"><path d="M118.49 178.41a1 1 0 0 0-1-1H53.8a1 1 0 0 0 0 2h63.69a1 1 0 0 0 1-1zm82.39-1a1 1 0 1 0 0 2h21.59a1 1 0 1 0 0-2h-21.59zM116.64 226h-2.91l-.93.87a1 1 0 0 0 .68 1.73l46.74-.22a1 1 0 0 0 .56-1.82l-.55-.38h-3.54l-40.05-.18zm85.99-4.24c-.56.38-1.15.76-1.78 1.13a34.47 34.47 0 0 1-12 4.48 69.14 69.14 0 0 1-11.24.95c-1.19 0-2.11 0-2.72-.07l-.86-.06a.5.5 0 0 1-.37-.23l-1.52-2.4-2.22-3.5-1.24-1.94-2.45.12a1 1 0 0 0-.65 1.71l8.7 8.48a1 1 0 0 0 .7.28h.06l33.48-2a1 1 0 0 0 .57-1.78l-6.46-5.17z" fill="#D9ECFF"/><path d="M174.48 209.25c-1.48.6-5.74.86-12.37.78l1.74 1.74a.5.5 0 0 1-.32.85s-1.29.09-3.29.09c-4.39 0-12.41-.44-19.43-3.14l-6.34 4.14 30.61.62a.49.49 0 0 1 0-.33.5.5 0 0 1 .42-.27 69.42 69.42 0 0 0 11.76-1.67l-2.78-2.81z" fill="#FFF"/><path d="M162.34 211.68l-5.51-5.51c-1.42.4-7.46 1.77-12.55-2.12-3.5-2.68-4.89-7.92-5.28-9.77l-11.52 5.61c1 1.25 4.62 5.06 13.06 8.51 8.44 3.45 18.46 3.4 21.8 3.28zm26.37 14.71a35.51 35.51 0 0 0 19-10.11l-12.29-13.83c-.95 1.46-3.87 5.2-10.48 8.17-6.83 3.07-15.72 3.89-18.49 4.07l8 12.53a63.41 63.41 0 0 0 14.26-.83z" fill="#FFF"/><path d="M148.53 188.51l3-7.24a25 25 0 0 0 10.72-6.59 16.31 16.31 0 0 0 3.17-5.2l8.23.24a44.42 44.42 0 0 1-6.17 7.47c-6.45 6.36-15.83 10.17-18.95 11.32zm17.89 26.25c2.77-.19 11.66-1 18.49-4.07 6.61-3 9.53-6.71 10.48-8.17l12.29 13.83a35.51 35.51 0 0 1-19 10.11 63.41 63.41 0 0 1-14.31.83l-7.95-12.53z" stroke="#59ACFF"/><path d="M119.74 219.7l-5.51 5.3 45.41.18-6.87-4.73c-18.62.66-30.37.4-33.03-.75z" fill="#FFF"/><path d="M153.19 219.48a.55.55 0 0 0-.3-.09c-28.92 1.11-32.47-.39-32.85-.63a.5.5 0 0 0-.26-.16.49.49 0 0 0-.47.12l-6.68 6.36a.5.5 0 0 0 .34.86h3.66l40 .16h4.56a.5.5 0 0 0 .28-.91l-8.28-5.71zm-39 5.47l5.52-5.26c2.66 1.15 14.41 1.41 33 .7l6.87 4.73-45.39-.17z" fill="#59ACFF"/><path d="M219.92 199.69a49.53 49.53 0 0 1-8.12-8.69l-8.66 4.48c1.25 1.36 5.69 5.65 14.41 8.75 7.84 2.79 17.2 3.75 20.43 4l-2.39-2.86c-1.46-.18-10.44-1.68-15.67-5.68zm18.92-25.93a24.94 24.94 0 0 1-10.58 6.7l-4.57 6.47c3.29-.45 13.27-2.13 20.94-6.93 7.67-4.8 10.64-9.19 11.43-10.6l-12.47-3.63a24.19 24.19 0 0 1-4.75 7.99z" fill="#FFF"/><path d="M257.32 169.25a.5.5 0 0 0-.34-.62l-13.58-4a.5.5 0 0 0-.62.34 23.25 23.25 0 0 1-4.68 8.07 24.25 24.25 0 0 1-10.28 6.46.5.5 0 0 0-.28.19l-5.32 7.53a.5.5 0 0 0 .41.79c.13 0 13-1.28 22.48-7.21 8.74-5.47 11.46-10.29 12-11.33a.49.49 0 0 0 .21-.22zM244.63 180c-7.67 4.8-17.65 6.48-20.94 6.93l4.57-6.47a24.94 24.94 0 0 0 10.58-6.7 24.19 24.19 0 0 0 4.74-8l12.47 3.63c-.78 1.42-3.69 5.78-11.42 10.61z" fill="#59ACFF"/><path d="M277.74 177.41h-22.37a1 1 0 1 0 0 2h22.37a1 1 0 1 0 0-2z" fill="#D9ECFF"/></g><path d="M183.248 136.898c-3.393 4.12-7.539 8.049-12.436 11.789-19.248 14.699-27.19 12.003-29.384 10.416-2.195-1.587-21.585-23.228-31.187-35.967a2.745 2.745 0 0 1 1.81-4.37c8.846-1.242 16.448-4.833 22.808-10.773 2.87-2.68 5.488-5.944 7.855-9.79l2.781-.23-.998 9.14 11.591 1.452 1.767 11.905 12.36 2.223.213 12.405 12.82 1.8z" fill="#D9EBFF"/><path d="M120.109 133.979c-5.553 6.238-10.667 8.364-15.34 6.378m31.094 11.337c-5.554 6.238-10.667 8.364-15.34 6.378" stroke="#D9EBFF" stroke-width="2"/><g stroke="#59ACFF" stroke-width="2.2"><path d="M189.003 128.301c-3.734 4.53-8.294 8.853-13.68 12.968-21.17 16.172-29.9 13.213-32.31 11.47-2.413-1.744-23.716-25.523-34.265-39.522a3.018 3.018 0 0 1 1.99-4.806c9.726-1.37 18.088-5.323 25.084-11.858 3.156-2.948 6.037-6.538 8.642-10.768l3.058-.255-1.104 10.049 12.743 1.59 1.934 13.087 13.589 2.436.225 13.638 14.094 1.971z" fill="#F9F9FA"/><path d="M118.478 126.22c-6.11 6.856-11.735 9.193-16.875 7.012m34.197 12.449c-6.11 6.856-11.735 9.194-16.874 7.013"/></g><path d="M193.082 85.975a81.641 81.641 0 0 0-7.835-18.333c-7.295-12.583-16.754-24.999-28.378-37.248a3.3 3.3 0 0 1 1.195-5.346L203.78 7.226l31.243 9.037c5.401 5.445 10.288 11.58 14.66 18.402 4.184 6.53 7.803 13.545 10.858 21.046l-10.87-2.548-5.074 12.69-13.568-2.632-6.474 11.556-12.475-3.12-2.552 9.81-11.203-5.443-5.243 9.95z" fill="#D9EBFF"/><path d="M189.999 80.089a81.641 81.641 0 0 0-7.836-18.333c-7.127-12.294-17.486-22.974-31.075-32.042a3.3 3.3 0 0 1 .49-5.76l50.134-22.32 30.227 8.742c5.401 5.446 10.288 11.58 14.66 18.403 4.184 6.53 7.803 13.545 10.858 21.046l-10.87-2.548-5.074 12.69-13.567-2.632-6.475 11.556-12.475-3.12-2.552 9.81-11.203-5.443-5.242 9.95z" stroke="#59ACFF" stroke-width="2.2" fill="#F9F9FA"/><path d="M157.729 28.58a25.917 25.917 0 0 0-.452-.257 3.3 3.3 0 0 1 .263-5.905l45.182-19.976 29.078 8.41c5.187 5.23 9.88 11.121 14.078 17.673 3.989 6.224 7.443 12.908 10.362 20.05l-4.411-1.103c-3.423-7.04-6.946-13.4-10.567-19.078-8.721-13.676-11.018-11.628-26.267-5.56-9.879 3.932-7.689-12.931-14.494-12.35-4.443.38-18.7 6.412-42.772 18.097z" fill="#D9EBFF"/><path d="M231.38 10.611l-14.653 7.791c-2.081 1.107-4.671.306-5.785-1.79L203.1 1.865l28.28 8.747z" stroke="#5CAEFF" stroke-width="1.1" fill="#F9F9FA"/><path d="M183.626 39.822l1.753 2.814m29.855-15.494l1.753 2.813" stroke="#535A80" stroke-width="3.3" stroke-linecap="round" stroke-linejoin="round"/><path d="M205.262 46.653c2.53.069 3.451-2.793 1.62-5.965-1.831-3.172-3.501-4.572-5.113-3.423-1.613 1.15-.281 1.681 1.55 4.853 1.831 3.172-.588 4.466 1.943 4.535z" fill="#D8D8D8"/><path d="M214.979 33.916c3.226.876 5.494-.214 6.804-3.27m-37.264 18.05c.993-2.824 3.268-3.99 6.825-3.5" stroke="#C8C8CC" stroke-width="2.2" stroke-linecap="round" stroke-linejoin="round"/><path d="M244.523 25.89c-1.377 13.596-6.252 22.908-16.964 15.85m-52.361 10.683c-5.805 8.82-10.939 15.456-20.984 11.161" stroke="#5CAEFF" stroke-width="2"/><path d="M154.177 62.93c-1.477 2.733-3.437 3-5.88.801m5.391.043c.371-2.569-1.088-4.285-4.379-5.149m78.985-16.791c-1.477 2.734-3.437 3-5.879.802m5.39.042c.371-2.569-1.088-4.285-4.378-5.148" stroke="#59ACFF" stroke-width="2"/></g></svg>