<?xml version="1.0" encoding="UTF-8" standalone="no"?>
<!DOCTYPE svg PUBLIC "-//W3C//DTD SVG 1.1//EN" "http://www.w3.org/Graphics/SVG/1.1/DTD/svg11.dtd">
<svg width="100%" height="100%" viewBox="0 0 264 179" version="1.1" xmlns="http://www.w3.org/2000/svg" xmlns:xlink="http://www.w3.org/1999/xlink" xml:space="preserve" xmlns:serif="http://www.serif.com/" style="fill-rule:evenodd;clip-rule:evenodd;stroke-linejoin:round;stroke-miterlimit:1.41421;">
    <g transform="matrix(1,0,0,1,-50.1817,-11.5386)">
        <g>
            <g opacity="0.5">
                <path d="M105.47,94.88L126.79,94.89C126.79,94.89 120.12,79.98 134.29,78.05C146.92,76.33 151.91,89.32 151.91,89.32C151.91,89.32 153.41,81.83 160.92,83.27C168.33,84.68 173.79,96.6 173.79,96.6L192.36,96.6" style="fill:rgb(237,237,240);fill-rule:nonzero;"/>
                <path d="M192.72,93.09L188.71,93.09C188.43,93.09 188.21,92.87 188.21,92.59C188.21,92.31 188.43,92.09 188.71,92.09L192.72,92.09C193,92.09 193.22,92.31 193.22,92.59C193.22,92.86 193,93.09 192.72,93.09ZM179.71,93.08L178.71,93.08C178.43,93.08 178.21,92.86 178.21,92.58C178.21,92.3 178.43,92.08 178.71,92.08L179.71,92.08C179.99,92.08 180.21,92.3 180.21,92.58C180.21,92.86 179.99,93.08 179.71,93.08ZM174.71,93.08L174.15,93.08C173.96,93.08 173.79,92.97 173.7,92.8C173.59,92.59 173.18,91.81 172.5,90.72C172.35,90.49 172.43,90.18 172.66,90.03C172.89,89.88 173.2,89.96 173.35,90.19C173.88,91.04 174.25,91.71 174.45,92.08L174.71,92.08C174.99,92.08 175.21,92.3 175.21,92.58C175.21,92.86 174.99,93.08 174.71,93.08ZM127.15,92.47L125.83,92.47C125.55,92.47 125.33,92.25 125.33,91.97C125.33,91.69 125.55,91.47 125.83,91.47L126.41,91.47C126.32,91.22 126.21,90.91 126.09,90.55C126.01,90.29 126.15,90.01 126.41,89.92C126.67,89.84 126.95,89.98 127.04,90.24C127.34,91.17 127.6,91.76 127.6,91.77C127.67,91.92 127.66,92.1 127.56,92.25C127.46,92.4 127.32,92.47 127.15,92.47ZM117.83,92.47L105.83,92.47C105.55,92.47 105.33,92.25 105.33,91.97C105.33,91.69 105.55,91.47 105.83,91.47L117.83,91.47C118.11,91.47 118.33,91.69 118.33,91.97C118.33,92.25 118.11,92.47 117.83,92.47ZM125.7,86.99C125.45,86.99 125.23,86.8 125.2,86.55C125.16,86.21 125.13,85.87 125.11,85.52C125.09,85.24 125.3,85.01 125.58,84.99C125.85,84.98 126.09,85.18 126.11,85.46C126.13,85.79 126.16,86.11 126.2,86.43C126.23,86.7 126.04,86.95 125.76,86.99C125.74,86.99 125.72,86.99 125.7,86.99ZM151.84,85.95C151.65,85.95 151.48,85.85 151.39,85.67C151.27,85.42 151.12,85.13 150.94,84.8C150.81,84.56 150.9,84.25 151.14,84.12C151.38,83.99 151.69,84.08 151.82,84.32C152.01,84.66 152.16,84.97 152.29,85.23C152.41,85.48 152.31,85.78 152.06,85.9C151.99,85.94 151.92,85.95 151.84,85.95ZM167.96,84.7C167.84,84.7 167.71,84.65 167.61,84.56C165.45,82.49 163.29,81.24 161.18,80.84C159.74,80.57 158.43,80.62 157.3,81C157.04,81.09 156.75,80.95 156.67,80.68C156.58,80.42 156.72,80.14 156.99,80.05C158.29,79.62 159.77,79.55 161.38,79.86C163.68,80.3 166.01,81.64 168.31,83.84C168.51,84.03 168.52,84.35 168.33,84.55C168.22,84.64 168.09,84.7 167.96,84.7ZM149.16,81.74C149.01,81.74 148.87,81.68 148.77,81.55C148.14,80.77 147.47,80.05 146.77,79.42C146.57,79.23 146.55,78.92 146.74,78.71C146.93,78.5 147.24,78.49 147.45,78.68C148.19,79.35 148.9,80.11 149.55,80.92C149.72,81.13 149.69,81.45 149.47,81.62C149.38,81.7 149.27,81.74 149.16,81.74ZM128.68,77.92C128.53,77.92 128.39,77.86 128.29,77.73C128.12,77.51 128.15,77.2 128.37,77.03C129.91,75.79 132.01,74.99 134.59,74.64C136.56,74.37 138.46,74.44 140.25,74.84C140.52,74.9 140.69,75.17 140.63,75.44C140.57,75.71 140.31,75.88 140.03,75.82C138.35,75.45 136.57,75.38 134.72,75.64C132.32,75.97 130.39,76.7 128.99,77.82C128.9,77.88 128.79,77.92 128.68,77.92Z" style="fill:rgb(237,237,240);fill-rule:nonzero;"/>
                <path d="M193.33,96.88L105.46,96.86C104.91,96.86 104.46,96.41 104.46,95.86C104.46,95.31 104.91,94.86 105.46,94.86L193.33,94.88C193.88,94.88 194.33,95.33 194.33,95.88C194.33,96.43 193.88,96.88 193.33,96.88Z" style="fill:rgb(237,237,240);fill-rule:nonzero;"/>
            </g>
        </g>
        <g>
            <g opacity="0.5">
                <path d="M306.31,117.22C306.52,116.91 306.83,116.35 306.52,116.05C306.26,115.86 305.95,115.77 305.63,115.79C304.89,115.81 304.17,116.07 303.58,116.53C302.36,117.45 301.24,118.92 301.48,119.69C303.65,119.14 305.58,118.28 306.31,117.22Z" style="fill:rgb(237,237,240);fill-rule:nonzero;"/>
                <path d="M125.12,129.61C128.96,129.7 132.74,128.68 136.01,126.67C138.98,124.82 142.43,123.89 145.93,123.97C149.43,123.88 152.88,124.82 155.86,126.67C162.59,130.59 170.91,130.59 177.64,126.67C183.78,123.07 191.38,123.07 197.52,126.67C204.25,130.59 212.57,130.59 219.3,126.67C225.44,123.07 233.04,123.07 239.18,126.67C242.45,128.68 246.23,129.7 250.07,129.61C250.62,129.61 251.07,129.16 251.07,128.61C251.07,128.06 250.62,127.61 250.07,127.61C246.56,127.7 243.11,126.76 240.13,124.91C233.4,120.99 225.08,120.99 218.35,124.91C212.21,128.51 204.61,128.51 198.47,124.91C191.74,120.99 183.42,120.99 176.69,124.91C170.55,128.5 162.96,128.5 156.82,124.91C153.55,122.9 149.77,121.88 145.93,121.97C142.09,121.88 138.31,122.9 135.04,124.91C132.06,126.76 128.61,127.7 125.1,127.61C121.59,127.7 118.14,126.76 115.16,124.91C111.89,122.9 108.11,121.88 104.27,121.97C103.72,121.97 103.27,122.42 103.27,122.97C103.27,123.52 103.72,123.97 104.27,123.97C107.78,123.88 111.23,124.82 114.21,126.67C117.48,128.68 121.27,129.7 125.12,129.61Z" style="fill:rgb(237,237,240);fill-rule:nonzero;"/>
                <path d="M313.27,118.55C313.1,118.34 312.79,118.3 312.57,118.47C309.82,120.29 306.65,121.37 303.37,121.63C302.13,121.83 300.87,121.83 299.63,121.63C301.63,121.01 303.39,120.14 304.18,119C305.18,117.63 304.56,116.82 304.27,116.54C303.39,115.69 301.45,115.87 300.03,116.94C298.96,117.74 297.14,119.61 297.55,121.14C295.97,121.5 294.36,121.73 292.74,121.82C292.46,121.82 292.24,122.04 292.24,122.32C292.24,122.6 292.46,122.82 292.74,122.82C294.54,122.72 296.33,122.45 298.09,122.03C298.97,122.74 300.73,122.95 303.43,122.65C309.69,121.95 313,119.39 313.14,119.28C313.37,119.13 313.45,118.82 313.3,118.59C313.29,118.58 313.28,118.56 313.27,118.55ZM300.62,117.71C301.21,117.25 301.93,116.99 302.67,116.97C302.99,116.95 303.3,117.04 303.56,117.23C303.87,117.53 303.56,118.09 303.35,118.4C302.62,119.46 300.69,120.29 298.52,120.87C298.29,120.09 299.4,118.62 300.62,117.71Z" style="fill:rgb(237,237,240);fill-rule:nonzero;"/>
                <path d="M210.52,122.99C210.22,122.99 209.95,122.76 209.92,122.45C209.89,122.12 210.13,121.83 210.46,121.79C211.75,121.66 212.93,121.41 214.05,121.01C214.36,120.9 214.7,121.06 214.82,121.38C214.93,121.69 214.77,122.04 214.45,122.15C213.24,122.58 211.97,122.86 210.58,122.99C210.56,122.99 210.54,122.99 210.52,122.99Z" style="fill:rgb(237,237,240);fill-rule:nonzero;"/>
                <path d="M253.58,122.83C253.29,122.83 253.04,122.62 252.99,122.33C252.93,122 253.15,121.69 253.48,121.64C256.49,121.12 258.39,119.9 260.23,118.72C260.51,118.54 260.88,118.62 261.06,118.9C261.24,119.18 261.16,119.55 260.88,119.73C259.03,120.92 256.93,122.26 253.68,122.82C253.65,122.82 253.61,122.83 253.58,122.83Z" style="fill:rgb(237,237,240);fill-rule:nonzero;"/>
                <path d="M204.8,122.78C204.76,122.78 204.73,122.78 204.69,122.77C201.59,122.19 199.57,120.9 197.63,119.65L197.54,119.59C197.26,119.41 197.18,119.04 197.36,118.76C197.54,118.48 197.91,118.4 198.19,118.58L198.28,118.64C200.22,119.88 202.05,121.05 204.92,121.59C205.25,121.65 205.46,121.97 205.4,122.29C205.34,122.58 205.09,122.78 204.8,122.78Z" style="fill:rgb(237,237,240);fill-rule:nonzero;"/>
                <path d="M288.07,122.71C288.03,122.71 287.99,122.71 287.95,122.7C285.06,122.09 283.13,120.85 281.26,119.66L280.86,119.41C280.58,119.23 280.5,118.86 280.68,118.58C280.86,118.3 281.23,118.22 281.51,118.4L281.91,118.65C283.77,119.84 285.53,120.96 288.21,121.53C288.53,121.6 288.74,121.92 288.67,122.24C288.6,122.52 288.35,122.71 288.07,122.71Z" style="fill:rgb(237,237,240);fill-rule:nonzero;"/>
                <path d="M245.97,122.65C245.93,122.65 245.88,122.64 245.83,122.63C245.5,122.55 245.18,122.47 244.87,122.38C244.55,122.28 244.37,121.95 244.47,121.63C244.57,121.31 244.9,121.13 245.22,121.23C245.5,121.32 245.8,121.4 246.11,121.47C246.43,121.54 246.63,121.87 246.56,122.19C246.49,122.46 246.24,122.65 245.97,122.65Z" style="fill:rgb(237,237,240);fill-rule:nonzero;"/>
                <path d="M241.55,120.86C241.45,120.86 241.34,120.83 241.25,120.78C240.62,120.42 240.03,120.04 239.43,119.66C238.95,119.36 238.48,119.05 237.99,118.76C237.71,118.59 237.61,118.22 237.78,117.94C237.95,117.65 238.32,117.56 238.6,117.73C239.1,118.03 239.59,118.34 240.07,118.65C240.65,119.02 241.23,119.39 241.84,119.75C242.13,119.92 242.22,120.28 242.06,120.57C241.96,120.75 241.76,120.86 241.55,120.86Z" style="fill:rgb(237,237,240);fill-rule:nonzero;"/>
                <path d="M217.68,120.49C217.48,120.49 217.28,120.39 217.17,120.2C217,119.92 217.09,119.55 217.37,119.37C217.64,119.2 217.91,119.04 218.17,118.87C218.45,118.69 218.82,118.77 219,119.05C219.18,119.33 219.1,119.7 218.82,119.88C218.55,120.05 218.28,120.22 218,120.39C217.89,120.47 217.79,120.49 217.68,120.49Z" style="fill:rgb(237,237,240);fill-rule:nonzero;"/>
                <path d="M265.64,117.2C265.39,117.2 265.15,117.04 265.07,116.78C264.97,116.46 265.14,116.13 265.46,116.02C266.67,115.63 267.94,115.38 269.35,115.27C269.7,115.23 269.97,115.49 270,115.82C270.03,116.15 269.78,116.44 269.45,116.47C268.14,116.57 266.96,116.8 265.84,117.17C265.76,117.19 265.7,117.2 265.64,117.2Z" style="fill:rgb(237,237,240);fill-rule:nonzero;"/>
                <path d="M182.36,117.09C182.1,117.09 181.86,116.92 181.78,116.66C181.69,116.34 181.87,116.01 182.18,115.91C183.39,115.55 184.67,115.33 186.08,115.24C186.41,115.2 186.7,115.47 186.72,115.8C186.74,116.13 186.49,116.42 186.16,116.44C184.84,116.52 183.65,116.72 182.53,117.06C182.47,117.08 182.41,117.09 182.36,117.09Z" style="fill:rgb(237,237,240);fill-rule:nonzero;"/>
                <path d="M225.39,116.78C225.11,116.78 224.86,116.59 224.8,116.3C224.73,115.98 224.94,115.66 225.26,115.59C226.51,115.33 227.83,115.2 229.31,115.2C230.69,115.2 231.93,115.31 233.11,115.54C233.44,115.6 233.65,115.92 233.59,116.24C233.53,116.57 233.22,116.78 232.89,116.72C231.79,116.51 230.62,116.4 229.32,116.4C227.93,116.4 226.68,116.52 225.52,116.76C225.47,116.78 225.43,116.78 225.39,116.78Z" style="fill:rgb(237,237,240);fill-rule:nonzero;"/>
                <path d="M190.89,116.68C190.86,116.68 190.82,116.68 190.79,116.67C190.5,116.62 190.19,116.58 189.88,116.54C189.55,116.5 189.32,116.2 189.35,115.87C189.39,115.54 189.7,115.3 190.02,115.34C190.36,115.38 190.68,115.43 191,115.48C191.33,115.54 191.55,115.85 191.49,116.17C191.43,116.47 191.18,116.68 190.89,116.68Z" style="fill:rgb(237,237,240);fill-rule:nonzero;"/>
                <path d="M274.16,116.62C274.13,116.62 274.1,116.62 274.07,116.61C273.77,116.57 273.47,116.53 273.15,116.5C272.82,116.47 272.58,116.17 272.61,115.84C272.64,115.51 272.93,115.27 273.27,115.3C273.61,115.33 273.93,115.37 274.25,115.42C274.58,115.47 274.8,115.78 274.75,116.1C274.71,116.41 274.45,116.62 274.16,116.62Z" style="fill:rgb(237,237,240);fill-rule:nonzero;"/>
            </g>
        </g>
        <g>
            <g opacity="0.5">
                <path d="M221.43,31.94L242.75,31.95C242.75,31.95 236.08,17.04 250.25,15.11C262.88,13.39 267.87,26.38 267.87,26.38C267.87,26.38 269.37,18.89 276.88,20.33C284.29,21.74 289.75,33.66 289.75,33.66L308.32,33.66" style="fill:rgb(237,237,240);fill-rule:nonzero;"/>
                <path d="M308.69,30.15L304.68,30.15C304.4,30.15 304.18,29.93 304.18,29.65C304.18,29.37 304.4,29.15 304.68,29.15L308.69,29.15C308.97,29.15 309.19,29.37 309.19,29.65C309.19,29.92 308.96,30.15 308.69,30.15ZM295.68,30.14L294.68,30.14C294.4,30.14 294.18,29.92 294.18,29.64C294.18,29.36 294.4,29.14 294.68,29.14L295.68,29.14C295.96,29.14 296.18,29.36 296.18,29.64C296.18,29.92 295.95,30.14 295.68,30.14ZM290.68,30.14L290.12,30.14C289.93,30.14 289.76,30.03 289.67,29.86C289.56,29.65 289.15,28.87 288.47,27.78C288.32,27.55 288.4,27.24 288.63,27.09C288.86,26.94 289.17,27.02 289.32,27.25C289.85,28.1 290.22,28.77 290.42,29.14L290.68,29.14C290.96,29.14 291.18,29.36 291.18,29.64C291.18,29.92 290.95,30.14 290.68,30.14ZM243.12,29.53L241.8,29.53C241.52,29.53 241.3,29.31 241.3,29.03C241.3,28.75 241.52,28.53 241.8,28.53L242.38,28.53C242.29,28.28 242.18,27.97 242.06,27.61C241.98,27.35 242.12,27.07 242.38,26.98C242.64,26.9 242.92,27.04 243.01,27.3C243.31,28.23 243.57,28.82 243.57,28.83C243.64,28.98 243.63,29.16 243.53,29.31C243.43,29.46 243.29,29.53 243.12,29.53ZM233.8,29.53L221.8,29.53C221.52,29.53 221.3,29.31 221.3,29.03C221.3,28.75 221.52,28.53 221.8,28.53L233.8,28.53C234.08,28.53 234.3,28.75 234.3,29.03C234.3,29.31 234.07,29.53 233.8,29.53ZM241.67,24.05C241.42,24.05 241.2,23.86 241.17,23.61C241.13,23.27 241.1,22.93 241.08,22.58C241.06,22.3 241.27,22.07 241.55,22.05C241.82,22.04 242.06,22.24 242.08,22.52C242.1,22.85 242.13,23.17 242.17,23.49C242.2,23.76 242.01,24.01 241.73,24.05C241.7,24.05 241.68,24.05 241.67,24.05ZM267.81,23.01C267.62,23.01 267.45,22.91 267.36,22.73C267.24,22.48 267.09,22.19 266.91,21.86C266.78,21.62 266.87,21.31 267.11,21.18C267.35,21.05 267.66,21.14 267.79,21.38C267.98,21.72 268.13,22.03 268.26,22.29C268.38,22.54 268.28,22.84 268.03,22.96C267.96,23 267.88,23.01 267.81,23.01ZM283.93,21.76C283.81,21.76 283.68,21.71 283.58,21.62C281.42,19.55 279.26,18.3 277.15,17.9C275.71,17.63 274.4,17.68 273.27,18.06C273.01,18.15 272.72,18.01 272.64,17.74C272.55,17.48 272.69,17.2 272.96,17.11C274.26,16.68 275.74,16.61 277.35,16.92C279.65,17.36 281.98,18.7 284.28,20.9C284.48,21.09 284.49,21.41 284.3,21.61C284.19,21.7 284.06,21.76 283.93,21.76ZM265.13,18.8C264.98,18.8 264.84,18.74 264.74,18.61C264.11,17.83 263.44,17.11 262.74,16.48C262.54,16.29 262.52,15.98 262.71,15.77C262.9,15.56 263.21,15.55 263.42,15.74C264.16,16.41 264.87,17.17 265.52,17.98C265.69,18.19 265.66,18.51 265.44,18.68C265.35,18.76 265.24,18.8 265.13,18.8ZM244.64,14.98C244.49,14.98 244.35,14.92 244.25,14.79C244.08,14.57 244.11,14.26 244.33,14.09C245.87,12.85 247.97,12.05 250.55,11.7C252.52,11.43 254.42,11.5 256.21,11.9C256.48,11.96 256.65,12.23 256.59,12.5C256.53,12.77 256.27,12.94 255.99,12.88C254.31,12.51 252.53,12.44 250.68,12.7C248.28,13.03 246.35,13.76 244.95,14.88C244.86,14.95 244.75,14.98 244.64,14.98Z" style="fill:rgb(237,237,240);fill-rule:nonzero;"/>
                <path d="M309.3,33.94L221.43,33.92C220.88,33.92 220.43,33.47 220.43,32.92C220.43,32.37 220.88,31.92 221.43,31.92L309.3,31.94C309.85,31.94 310.3,32.39 310.3,32.94C310.3,33.49 309.85,33.94 309.3,33.94Z" style="fill:rgb(237,237,240);fill-rule:nonzero;"/>
            </g>
        </g>
        <g>
            <g opacity="0.5">
                <g>
                    <path d="M182.8,150.59C186.64,150.68 190.42,149.66 193.69,147.65C199.83,144.05 207.42,144.05 213.56,147.65C220.29,151.56 228.6,151.56 235.33,147.65C238.31,145.8 241.76,144.86 245.27,144.95C245.82,144.95 246.27,144.5 246.27,143.95C246.27,143.4 245.82,142.95 245.27,142.95C241.43,142.86 237.65,143.88 234.38,145.89C228.24,149.49 220.65,149.49 214.51,145.89C207.78,141.98 199.47,141.98 192.74,145.89C189.76,147.74 186.31,148.68 182.8,148.59C179.56,148.69 176.36,147.88 173.56,146.26C173.26,146.86 172.9,147.43 172.51,147.97C175.63,149.78 179.19,150.69 182.8,150.59Z" style="fill:rgb(237,237,240);fill-rule:nonzero;"/>
                    <g>
                        <path d="M226.93,157.84C226.64,157.84 226.39,157.63 226.34,157.34C226.28,157.01 226.5,156.7 226.83,156.65C229.84,156.13 231.74,154.91 233.58,153.73C233.86,153.55 234.23,153.63 234.41,153.91C234.59,154.19 234.51,154.56 234.23,154.74C232.38,155.93 230.28,157.27 227.03,157.83C227,157.84 226.96,157.84 226.93,157.84Z" style="fill:rgb(237,237,240);fill-rule:nonzero;"/>
                        <path d="M219.32,157.66C219.28,157.66 219.23,157.65 219.18,157.64C218.85,157.56 218.53,157.48 218.22,157.39C217.9,157.29 217.72,156.96 217.82,156.64C217.92,156.32 218.25,156.14 218.57,156.24C218.85,156.33 219.15,156.41 219.46,156.48C219.78,156.55 219.98,156.88 219.91,157.2C219.84,157.47 219.59,157.66 219.32,157.66Z" style="fill:rgb(237,237,240);fill-rule:nonzero;"/>
                        <path d="M214.9,155.87C214.8,155.87 214.69,155.84 214.6,155.79C213.97,155.43 213.38,155.05 212.78,154.67C212.3,154.37 211.83,154.06 211.34,153.77C211.06,153.6 210.96,153.23 211.13,152.95C211.3,152.66 211.67,152.57 211.95,152.74C212.45,153.04 212.94,153.35 213.42,153.66C214,154.03 214.58,154.4 215.19,154.76C215.48,154.93 215.57,155.29 215.41,155.58C215.31,155.76 215.11,155.87 214.9,155.87Z" style="fill:rgb(237,237,240);fill-rule:nonzero;"/>
                        <path d="M238.99,152.21C238.74,152.21 238.5,152.05 238.42,151.79C238.32,151.47 238.49,151.14 238.81,151.03C240.02,150.64 241.29,150.39 242.7,150.28C243.05,150.24 243.32,150.5 243.35,150.83C243.38,151.16 243.13,151.45 242.8,151.48C241.49,151.58 240.31,151.81 239.19,152.18C239.11,152.2 239.05,152.21 238.99,152.21Z" style="fill:rgb(237,237,240);fill-rule:nonzero;"/>
                        <path d="M198.74,151.79C198.46,151.79 198.21,151.6 198.15,151.31C198.08,150.99 198.29,150.67 198.61,150.6C199.86,150.34 201.18,150.21 202.66,150.21C204.04,150.21 205.28,150.32 206.46,150.55C206.79,150.61 207,150.93 206.94,151.25C206.88,151.58 206.57,151.79 206.24,151.73C205.14,151.52 203.97,151.41 202.67,151.41C201.28,151.41 200.03,151.53 198.87,151.77C198.82,151.79 198.78,151.79 198.74,151.79Z" style="fill:rgb(237,237,240);fill-rule:nonzero;"/>
                        <path d="M247.51,151.63C247.48,151.63 247.45,151.63 247.42,151.62C247.12,151.58 246.82,151.54 246.5,151.51C246.17,151.48 245.93,151.18 245.96,150.85C245.99,150.52 246.28,150.28 246.62,150.31C246.96,150.34 247.28,150.38 247.6,150.43C247.93,150.48 248.15,150.79 248.1,151.11C248.06,151.42 247.8,151.63 247.51,151.63Z" style="fill:rgb(237,237,240);fill-rule:nonzero;"/>
                    </g>
                </g>
                <path d="M272.47,147.27C272.3,147.06 271.99,147.02 271.77,147.19C269.02,149.01 265.85,150.09 262.57,150.35C261.33,150.55 260.07,150.55 258.83,150.35C260.83,149.73 262.59,148.86 263.38,147.72C264.38,146.35 263.76,145.54 263.47,145.26C262.59,144.41 260.65,144.59 259.23,145.66C258.16,146.46 256.34,148.33 256.75,149.86C255.17,150.22 253.56,150.45 251.94,150.54C251.66,150.54 251.44,150.76 251.44,151.04C251.44,151.32 251.66,151.54 251.94,151.54C253.74,151.44 255.53,151.17 257.29,150.75C258.17,151.46 259.93,151.67 262.63,151.37C268.89,150.67 272.2,148.11 272.34,148C272.57,147.85 272.65,147.54 272.5,147.31C272.49,147.3 272.48,147.29 272.47,147.27ZM259.82,146.43C260.41,145.97 261.13,145.71 261.87,145.69C262.19,145.67 262.5,145.76 262.76,145.95C263.07,146.25 262.76,146.81 262.55,147.12C261.82,148.18 259.89,149.01 257.72,149.59C257.49,148.81 258.6,147.34 259.82,146.43Z" style="fill:rgb(237,237,240);fill-rule:nonzero;"/>
            </g>
        </g>
        <g>
            <path d="M139.13,114.49L117.33,106.16C115.55,105.48 114.65,103.48 115.33,101.69L126.78,71.74C127.46,69.95 129.47,69.06 131.25,69.74L144.83,74.93C145.69,75.26 146.38,75.91 146.75,76.75L151.84,88.08C152.22,88.92 152.24,89.88 151.92,90.74L143.61,112.49C142.92,114.27 140.92,115.17 139.13,114.49Z" style="fill:rgb(69,161,255);fill-rule:nonzero;"/>
            <g>
                <path id="XMLID_2_" d="M145.68,93.72C145.44,93.2 145.02,92.8 144.48,92.6C143.94,92.4 143.36,92.42 142.84,92.65L136.1,95.7L146.02,69.37C146.44,68.26 145.88,67.03 144.77,66.61C143.66,66.19 142.43,66.75 142.01,67.86L132.09,94.19L129.04,87.45C128.8,86.93 128.38,86.53 127.84,86.33C127.3,86.13 126.72,86.15 126.2,86.38C125.68,86.62 125.28,87.04 125.08,87.58C124.88,88.12 124.9,88.7 125.13,89.22L130.31,100.67C130.55,101.19 130.97,101.59 131.51,101.79C132.05,101.99 132.63,101.97 133.15,101.74L144.6,96.56C145.12,96.32 145.52,95.9 145.72,95.36C145.93,94.83 145.91,94.25 145.68,93.72Z" style="fill:rgb(0,96,223);fill-rule:nonzero;"/>
                <clipPath id="_clip1">
                    <path d="M145.68,93.72C145.44,93.2 145.02,92.8 144.48,92.6C143.94,92.4 143.36,92.42 142.84,92.65L136.1,95.7L146.02,69.37C146.44,68.26 145.88,67.03 144.77,66.61C143.66,66.19 142.43,66.75 142.01,67.86L132.09,94.19L129.04,87.45C128.8,86.93 128.38,86.53 127.84,86.33C127.3,86.13 126.72,86.15 126.2,86.38C125.68,86.62 125.28,87.04 125.08,87.58C124.88,88.12 124.9,88.7 125.13,89.22L130.31,100.67C130.55,101.19 130.97,101.59 131.51,101.79C132.05,101.99 132.63,101.97 133.15,101.74L144.6,96.56C145.12,96.32 145.52,95.9 145.72,95.36C145.93,94.83 145.91,94.25 145.68,93.72Z"/>
                </clipPath>
                <g clip-path="url(#_clip1)">
                    <path d="M136.62,76.97L145.86,85.65L151.63,67.2L139.96,59.57L136.62,76.97Z" style="fill:url(#_Linear2);fill-rule:nonzero;"/>
                </g>
            </g>
            <path d="M168.32,57.02C166.2,52.42 162.86,48.61 158.7,45.92C161.05,48.14 162.82,51.23 163.83,55C165.45,60.99 164.99,67.99 162.54,74.72C162.39,75.13 162.13,75.48 161.82,75.7C161.74,75.76 161.65,75.8 161.57,75.84L167.15,77.94C167.55,78.09 167.99,78.07 168.37,77.9C168.76,77.72 169.05,77.4 169.2,77C171.55,70.44 171.24,63.35 168.32,57.02Z" style="fill:url(#_Linear3);fill-rule:nonzero;"/>
            <path d="M126.46,61.13C129.06,54.46 133.34,48.89 138.51,45.46C141.83,43.25 145.28,42.1 148.58,42.03C143.56,41.21 138.41,41.86 133.66,43.97C127.29,46.8 122.38,51.92 119.82,58.4C119.66,58.79 119.67,59.24 119.85,59.62C120.02,60.01 120.34,60.31 120.74,60.46L126.47,62.62C126.43,62.54 126.39,62.45 126.37,62.35C126.26,61.97 126.3,61.53 126.46,61.13Z" style="fill:url(#_Linear4);fill-rule:nonzero;"/>
            <path d="M162.54,74.72C164.99,67.99 165.45,60.98 163.83,55C162.81,51.24 161.05,48.15 158.7,45.92C157.39,45.08 156,44.34 154.54,43.73C155.84,45.1 156.42,48.05 156.16,52.27C155.85,57.45 154.32,63.96 151.86,70.58C151.71,70.98 151.52,71.35 151.32,71.61C151.23,71.73 151.14,71.82 151.05,71.88L161.56,75.84C161.65,75.81 161.73,75.76 161.81,75.7C162.13,75.49 162.39,75.13 162.54,74.72Z" style="fill:url(#_Linear5);fill-rule:nonzero;"/>
            <path d="M136.32,65.95C136.34,65.63 136.44,65.22 136.59,64.82C139.11,58.22 142.25,52.33 145.44,48.23C148.01,44.92 150.37,43.09 152.24,42.89C151.03,42.51 149.81,42.22 148.57,42.02C145.27,42.09 141.82,43.25 138.5,45.45C133.33,48.88 129.05,54.45 126.45,61.12C126.29,61.53 126.26,61.96 126.35,62.33C126.37,62.43 126.41,62.52 126.45,62.6L136.33,66.32C136.31,66.24 136.3,66.11 136.32,65.95Z" style="fill:url(#_Linear6);fill-rule:nonzero;"/>
            <path d="M152.24,42.9C150.36,43.09 148.01,44.93 145.44,48.24C142.25,52.34 139.11,58.23 136.59,64.83C136.44,65.23 136.34,65.64 136.32,65.96C136.31,66.11 136.32,66.24 136.34,66.34L151.05,71.88C151.13,71.82 151.22,71.73 151.32,71.61C151.51,71.36 151.71,70.98 151.86,70.58C154.32,63.96 155.85,57.46 156.16,52.27C156.42,48.06 155.84,45.1 154.54,43.73C154.25,43.61 153.96,43.49 153.67,43.38C153.19,43.21 152.72,43.05 152.24,42.9Z" style="fill:url(#_Linear7);fill-rule:nonzero;"/>
        </g>
        <path d="M232.86,27.14C228.84,27.55 223.78,31.49 218.28,38.58C211.45,47.37 204.72,60 199.31,74.14C198.98,75 198.77,75.87 198.72,76.56C198.7,76.89 198.72,77.16 198.77,77.37L230.31,89.25C230.49,89.13 230.68,88.94 230.88,88.68C231.3,88.13 231.71,87.34 232.03,86.47C237.3,72.28 240.57,58.35 241.25,47.23C241.8,38.2 240.57,31.87 237.78,28.93C237.16,28.67 236.54,28.41 235.91,28.17C234.9,27.8 233.88,27.46 232.86,27.14Z" style="fill:url(#_Linear8);fill-rule:nonzero;"/>
        <g>
            <path d="M204.77,180.58L158.04,162.72C154.22,161.26 152.3,156.97 153.76,153.15L178.29,88.95C179.75,85.12 184.05,83.2 187.88,84.66L216.98,95.78C218.82,96.48 220.3,97.88 221.11,99.68L232.01,123.97C232.82,125.77 232.88,127.82 232.17,129.66L214.35,176.28C212.89,180.13 208.6,182.05 204.77,180.58Z" style="fill:rgb(69,161,255);fill-rule:nonzero;"/>
            <g>
                <path id="XMLID_1_" d="M218.79,136.08C218.28,134.96 217.37,134.11 216.23,133.68C215.08,133.25 213.83,133.29 212.72,133.79L198.28,140.33L219.54,83.9C220.43,81.53 219.23,78.88 216.86,77.98C214.49,77.09 211.84,78.29 210.94,80.66L189.68,137.09L183.14,122.65C182.63,121.53 181.72,120.68 180.58,120.25C179.43,119.82 178.18,119.86 177.07,120.36C175.95,120.87 175.1,121.78 174.67,122.92C174.24,124.07 174.28,125.32 174.78,126.43L185.89,150.97C186.4,152.09 187.31,152.94 188.45,153.37C189.6,153.8 190.85,153.76 191.96,153.26L216.5,142.15C217.62,141.64 218.47,140.73 218.9,139.59C219.33,138.45 219.29,137.2 218.79,136.08Z" style="fill:rgb(0,96,223);fill-rule:nonzero;"/>
                <clipPath id="_clip9">
                    <path d="M218.79,136.08C218.28,134.96 217.37,134.11 216.23,133.68C215.08,133.25 213.83,133.29 212.72,133.79L198.28,140.33L219.54,83.9C220.43,81.53 219.23,78.88 216.86,77.98C214.49,77.09 211.84,78.29 210.94,80.66L189.68,137.09L183.14,122.65C182.63,121.53 181.72,120.68 180.58,120.25C179.43,119.82 178.18,119.86 177.07,120.36C175.95,120.87 175.1,121.78 174.67,122.92C174.24,124.07 174.28,125.32 174.78,126.43L185.89,150.97C186.4,152.09 187.31,152.94 188.45,153.37C189.6,153.8 190.85,153.76 191.96,153.26L216.5,142.15C217.62,141.64 218.47,140.73 218.9,139.59C219.33,138.45 219.29,137.2 218.79,136.08Z"/>
                </clipPath>
                <g clip-path="url(#_clip9)">
                    <path d="M199.39,100.16L219.18,118.78L231.56,79.23L206.54,62.89L199.39,100.16Z" style="fill:url(#_Linear10);fill-rule:nonzero;"/>
                </g>
            </g>
            <path d="M267.32,57.41C262.77,47.55 255.63,39.38 246.7,33.63C251.74,38.4 255.52,45.02 257.7,53.08C261.17,65.91 260.19,80.93 254.93,95.35C254.61,96.23 254.05,96.98 253.38,97.44C253.2,97.56 253.02,97.66 252.84,97.73L264.81,102.24C265.66,102.56 266.61,102.53 267.43,102.15C268.26,101.77 268.89,101.07 269.2,100.21C274.25,86.18 273.58,70.97 267.32,57.41Z" style="fill:url(#_Linear11);fill-rule:nonzero;"/>
            <path d="M177.6,66.22C183.17,51.91 192.34,39.98 203.42,32.63C210.54,27.9 217.93,25.43 225.01,25.27C214.25,23.51 203.2,24.9 193.02,29.42C179.37,35.48 168.84,46.46 163.36,60.34C163.03,61.19 163.05,62.13 163.41,62.96C163.78,63.79 164.47,64.44 165.32,64.76L177.6,69.39C177.51,69.21 177.44,69.02 177.38,68.81C177.18,68.02 177.26,67.09 177.6,66.22Z" style="fill:url(#_Linear12);fill-rule:nonzero;"/>
            <path d="M254.94,95.36C260.19,80.93 261.18,65.92 257.71,53.09C255.53,45.03 251.75,38.41 246.71,33.64C243.9,31.83 240.92,30.26 237.79,28.95C240.59,31.88 241.81,38.21 241.26,47.25C240.59,58.36 237.31,72.3 232.04,86.49C231.72,87.36 231.3,88.15 230.89,88.7C230.69,88.96 230.5,89.15 230.32,89.27L252.85,97.76C253.03,97.69 253.22,97.59 253.39,97.47C254.06,96.99 254.62,96.24 254.94,95.36Z" style="fill:url(#_Linear13);fill-rule:nonzero;"/>
            <path d="M198.73,76.56C198.78,75.88 198.99,75 199.32,74.14C204.72,60 211.46,47.37 218.29,38.58C223.8,31.49 228.85,27.55 232.87,27.14C230.28,26.33 227.65,25.7 225.01,25.27C217.93,25.43 210.54,27.9 203.42,32.63C192.34,39.98 183.18,51.91 177.6,66.22C177.26,67.09 177.18,68.03 177.38,68.82C177.43,69.03 177.51,69.22 177.6,69.4L198.78,77.38C198.72,77.16 198.7,76.89 198.73,76.56Z" style="fill:url(#_Linear14);fill-rule:nonzero;"/>
            <path d="M232.86,27.14C228.84,27.55 223.78,31.49 218.28,38.58C211.45,47.37 204.72,60 199.31,74.14C198.98,75 198.77,75.87 198.72,76.56C198.7,76.89 198.72,77.16 198.77,77.37L230.31,89.25C230.49,89.13 230.68,88.94 230.88,88.68C231.3,88.13 231.71,87.34 232.03,86.47C237.3,72.28 240.57,58.35 241.25,47.23C241.8,38.2 240.57,31.87 237.78,28.93C237.16,28.67 236.54,28.41 235.91,28.17C234.9,27.8 233.88,27.46 232.86,27.14Z" style="fill:url(#_Linear15);fill-rule:nonzero;"/>
        </g>
        <g>
            <path d="M269.57,162.35L258.74,158.21C257.85,157.87 257.41,156.88 257.75,155.99L263.44,141.11C263.78,140.22 264.77,139.78 265.66,140.12L272.41,142.7C272.84,142.86 273.18,143.19 273.37,143.6L275.9,149.23C276.09,149.65 276.1,150.12 275.94,150.55L271.81,161.36C271.46,162.24 270.46,162.69 269.57,162.35Z" style="fill:rgb(69,161,255);fill-rule:nonzero;"/>
            <g>
                <path id="XMLID_3_" d="M272.83,152.03C272.71,151.77 272.5,151.57 272.24,151.47C271.97,151.37 271.68,151.38 271.43,151.5L268.08,153.02L273.01,139.94C273.22,139.39 272.94,138.78 272.39,138.57C271.84,138.36 271.23,138.64 271.02,139.19L266.09,152.27L264.57,148.92C264.45,148.66 264.24,148.46 263.98,148.36C263.71,148.26 263.42,148.27 263.17,148.39C262.91,148.51 262.71,148.72 262.61,148.98C262.51,149.25 262.52,149.54 262.64,149.79L265.22,155.48C265.34,155.74 265.55,155.94 265.81,156.04C266.07,156.14 266.37,156.13 266.62,156.01L272.31,153.43C272.57,153.31 272.77,153.1 272.87,152.84C272.95,152.58 272.94,152.29 272.83,152.03Z" style="fill:rgb(0,96,223);fill-rule:nonzero;"/>
                <clipPath id="_clip16">
                    <path d="M272.83,152.03C272.71,151.77 272.5,151.57 272.24,151.47C271.97,151.37 271.68,151.38 271.43,151.5L268.08,153.02L273.01,139.94C273.22,139.39 272.94,138.78 272.39,138.57C271.84,138.36 271.23,138.64 271.02,139.19L266.09,152.27L264.57,148.92C264.45,148.66 264.24,148.46 263.98,148.36C263.71,148.26 263.42,148.27 263.17,148.39C262.91,148.51 262.71,148.72 262.61,148.98C262.51,149.25 262.52,149.54 262.64,149.79L265.22,155.48C265.34,155.74 265.55,155.94 265.81,156.04C266.07,156.14 266.37,156.13 266.62,156.01L272.31,153.43C272.57,153.31 272.77,153.1 272.87,152.84C272.95,152.58 272.94,152.29 272.83,152.03Z"/>
                </clipPath>
                <g clip-path="url(#_clip16)">
                    <path d="M268.33,143.7L272.92,148.02L275.79,138.85L269.98,135.06L268.33,143.7Z" style="fill:url(#_Linear17);fill-rule:nonzero;"/>
                </g>
            </g>
            <path d="M284.08,133.79C283.02,131.5 281.37,129.61 279.3,128.28C280.47,129.39 281.35,130.92 281.85,132.79C282.65,135.77 282.43,139.25 281.21,142.59C281.14,142.79 281.01,142.97 280.85,143.08C280.81,143.11 280.77,143.13 280.72,143.15L283.49,144.2C283.69,144.27 283.91,144.27 284.1,144.18C284.29,144.09 284.44,143.93 284.51,143.73C285.68,140.46 285.53,136.93 284.08,133.79Z" style="fill:url(#_Linear18);fill-rule:nonzero;"/>
            <path d="M263.28,135.83C264.57,132.51 266.7,129.75 269.27,128.04C270.92,126.94 272.63,126.37 274.28,126.33C271.79,125.92 269.22,126.24 266.86,127.29C263.7,128.69 261.25,131.24 259.98,134.46C259.9,134.66 259.91,134.88 259.99,135.07C260.08,135.26 260.23,135.41 260.43,135.49L263.28,136.56C263.26,136.52 263.24,136.47 263.23,136.43C263.18,136.25 263.2,136.03 263.28,135.83Z" style="fill:url(#_Linear19);fill-rule:nonzero;"/>
            <path d="M281.21,142.59C282.43,139.25 282.66,135.76 281.85,132.79C281.34,130.92 280.47,129.39 279.3,128.28C278.65,127.86 277.96,127.5 277.23,127.19C277.88,127.87 278.16,129.34 278.03,131.43C277.87,134.01 277.12,137.24 275.89,140.53C275.82,140.73 275.72,140.91 275.62,141.04C275.57,141.1 275.53,141.15 275.49,141.17L280.71,143.14C280.75,143.12 280.79,143.1 280.84,143.07C281,142.97 281.13,142.79 281.21,142.59Z" style="fill:url(#_Linear20);fill-rule:nonzero;"/>
            <path d="M268.17,138.23C268.18,138.07 268.23,137.87 268.31,137.67C269.56,134.39 271.12,131.46 272.71,129.43C273.99,127.79 275.16,126.87 276.09,126.78C275.49,126.59 274.88,126.45 274.27,126.35C272.63,126.39 270.92,126.96 269.26,128.06C266.69,129.76 264.57,132.53 263.27,135.85C263.19,136.05 263.17,136.27 263.22,136.45C263.23,136.5 263.25,136.54 263.27,136.58L268.18,138.43C268.17,138.37 268.17,138.31 268.17,138.23Z" style="fill:url(#_Linear21);fill-rule:nonzero;"/>
            <path d="M276.09,126.77C275.16,126.87 273.99,127.78 272.71,129.42C271.13,131.46 269.57,134.39 268.31,137.66C268.23,137.86 268.18,138.06 268.17,138.22C268.16,138.3 268.17,138.36 268.18,138.41L275.49,141.17C275.53,141.14 275.58,141.1 275.62,141.04C275.72,140.91 275.81,140.73 275.89,140.53C277.11,137.24 277.87,134.01 278.03,131.43C278.16,129.34 277.87,127.87 277.23,127.19C277.09,127.13 276.94,127.07 276.8,127.01C276.56,126.93 276.32,126.85 276.09,126.77Z" style="fill:url(#_Linear22);fill-rule:nonzero;"/>
        </g>
        <g>
            <path d="M77.27,189.52L52.69,180.13C50.68,179.36 49.67,177.11 50.44,175.1L63.34,141.33C64.11,139.31 66.37,138.3 68.38,139.08L83.68,144.93C84.65,145.3 85.43,146.04 85.85,146.98L91.58,159.76C92.01,160.71 92.04,161.78 91.67,162.75L82.3,187.27C81.54,189.28 79.28,190.29 77.27,189.52Z" style="fill:rgb(69,161,255);fill-rule:nonzero;"/>
            <g>
                <path id="XMLID_4_" d="M84.64,166.12C84.37,165.53 83.89,165.08 83.29,164.86C82.69,164.63 82.03,164.65 81.44,164.92L73.84,168.36L85.02,138.68C85.49,137.43 84.86,136.04 83.61,135.57C82.36,135.1 80.97,135.73 80.5,136.98L69.32,166.66L65.88,159.06C65.61,158.47 65.13,158.02 64.53,157.8C63.93,157.57 63.27,157.59 62.68,157.86C62.09,158.13 61.64,158.61 61.42,159.21C61.2,159.81 61.21,160.47 61.48,161.06L67.32,173.97C67.59,174.56 68.07,175.01 68.67,175.23C69.27,175.46 69.93,175.44 70.52,175.17L83.43,169.33C84.02,169.06 84.47,168.58 84.69,167.98C84.93,167.36 84.91,166.7 84.64,166.12Z" style="fill:rgb(0,96,223);fill-rule:nonzero;"/>
                <clipPath id="_clip23">
                    <path d="M84.64,166.12C84.37,165.53 83.89,165.08 83.29,164.86C82.69,164.63 82.03,164.65 81.44,164.92L73.84,168.36L85.02,138.68C85.49,137.43 84.86,136.04 83.61,135.57C82.36,135.1 80.97,135.73 80.5,136.98L69.32,166.66L65.88,159.06C65.61,158.47 65.13,158.02 64.53,157.8C63.93,157.57 63.27,157.59 62.68,157.86C62.09,158.13 61.64,158.61 61.42,159.21C61.2,159.81 61.21,160.47 61.48,161.06L67.32,173.97C67.59,174.56 68.07,175.01 68.67,175.23C69.27,175.46 69.93,175.44 70.52,175.17L83.43,169.33C84.02,169.06 84.47,168.58 84.69,167.98C84.93,167.36 84.91,166.7 84.64,166.12Z"/>
                </clipPath>
                <g clip-path="url(#_clip23)">
                    <path d="M74.44,147.22L84.85,157.02L91.36,136.21L78.2,127.62L74.44,147.22Z" style="fill:url(#_Linear24);fill-rule:nonzero;"/>
                </g>
            </g>
            <path d="M110.17,124.74C107.78,119.55 104.02,115.26 99.32,112.23C101.97,114.74 103.96,118.22 105.11,122.46C106.93,129.21 106.42,137.11 103.65,144.69C103.48,145.15 103.19,145.55 102.83,145.79C102.74,145.85 102.64,145.9 102.54,145.94L108.83,148.31C109.28,148.48 109.77,148.46 110.21,148.26C110.64,148.06 110.98,147.69 111.14,147.24C113.81,139.87 113.46,131.87 110.17,124.74Z" style="fill:url(#_Linear25);fill-rule:nonzero;"/>
            <path d="M62.98,129.37C65.91,121.85 70.73,115.57 76.56,111.7C80.31,109.21 84.19,107.91 87.92,107.83C82.26,106.9 76.45,107.63 71.1,110.01C63.92,113.2 58.38,118.97 55.5,126.27C55.32,126.72 55.33,127.21 55.53,127.65C55.72,128.09 56.09,128.43 56.53,128.6L62.99,131.03C62.94,130.94 62.9,130.84 62.88,130.73C62.76,130.32 62.8,129.83 62.98,129.37Z" style="fill:url(#_Linear26);fill-rule:nonzero;"/>
            <path d="M103.65,144.7C106.41,137.11 106.93,129.22 105.11,122.47C103.96,118.23 101.97,114.75 99.32,112.24C97.84,111.29 96.28,110.46 94.63,109.77C96.1,111.31 96.74,114.64 96.46,119.39C96.11,125.23 94.38,132.56 91.61,140.03C91.44,140.49 91.22,140.9 91,141.19C90.89,141.33 90.79,141.43 90.7,141.49L102.55,145.95C102.65,145.91 102.74,145.86 102.84,145.8C103.19,145.56 103.48,145.16 103.65,144.7Z" style="fill:url(#_Linear27);fill-rule:nonzero;"/>
            <path d="M74.09,134.81C74.11,134.45 74.23,133.99 74.4,133.54C77.24,126.1 80.79,119.46 84.38,114.84C87.28,111.11 89.94,109.04 92.05,108.82C90.69,108.39 89.31,108.06 87.92,107.83C84.19,107.91 80.31,109.21 76.56,111.7C70.73,115.57 65.91,121.84 62.98,129.37C62.8,129.83 62.76,130.32 62.87,130.74C62.9,130.85 62.94,130.95 62.98,131.04L74.12,135.24C74.09,135.13 74.08,134.99 74.09,134.81Z" style="fill:url(#_Linear28);fill-rule:nonzero;"/>
            <path d="M92.04,108.82C89.93,109.04 87.27,111.11 84.37,114.84C80.78,119.46 77.24,126.11 74.39,133.54C74.22,133.99 74.11,134.45 74.08,134.81C74.07,134.98 74.08,135.13 74.11,135.23L90.7,141.48C90.79,141.42 90.89,141.32 91,141.18C91.22,140.89 91.44,140.47 91.61,140.02C94.38,132.56 96.1,125.23 96.46,119.38C96.75,114.63 96.1,111.3 94.63,109.76C94.3,109.62 93.98,109.49 93.65,109.36C93.12,109.17 92.58,108.99 92.04,108.82Z" style="fill:url(#_Linear29);fill-rule:nonzero;"/>
        </g>
    </g>
    <defs>
        <linearGradient id="_Linear2" x1="0" y1="0" x2="1" y2="0" gradientUnits="userSpaceOnUse" gradientTransform="matrix(1.59681e-15,-26.0779,26.0779,1.59681e-15,144.128,85.6518)"><stop offset="0" style="stop-color:rgb(10,92,199);stop-opacity:1"/><stop offset="0" style="stop-color:rgb(10,92,199);stop-opacity:1"/><stop offset="1" style="stop-color:rgb(131,33,157);stop-opacity:1"/><stop offset="1" style="stop-color:rgb(131,33,157);stop-opacity:1"/></linearGradient>
        <linearGradient id="_Linear3" x1="0" y1="0" x2="1" y2="0" gradientUnits="userSpaceOnUse" gradientTransform="matrix(22.1565,50.0308,-50.0308,22.1565,148.016,28.2064)"><stop offset="0" style="stop-color:rgb(250,53,127);stop-opacity:1"/><stop offset="1" style="stop-color:rgb(120,120,255);stop-opacity:1"/><stop offset="1" style="stop-color:rgb(120,120,255);stop-opacity:1"/></linearGradient>
        <linearGradient id="_Linear4" x1="0" y1="0" x2="1" y2="0" gradientUnits="userSpaceOnUse" gradientTransform="matrix(49.3863,18.6083,-18.6083,49.3863,124.013,47.2236)"><stop offset="0" style="stop-color:rgb(255,243,97);stop-opacity:1"/><stop offset="1" style="stop-color:rgb(255,168,10);stop-opacity:1"/></linearGradient>
        <linearGradient id="_Linear5" x1="0" y1="0" x2="1" y2="0" gradientUnits="userSpaceOnUse" gradientTransform="matrix(15.9622,45.5041,-45.5041,15.9622,148.35,37.4201)"><stop offset="0" style="stop-color:rgb(255,81,98);stop-opacity:1"/><stop offset="1" style="stop-color:rgb(131,33,157);stop-opacity:1"/></linearGradient>
        <linearGradient id="_Linear6" x1="0" y1="0" x2="1" y2="0" gradientUnits="userSpaceOnUse" gradientTransform="matrix(6.638,13.7126,-13.7126,6.638,135.036,43.8416)"><stop offset="0" style="stop-color:rgb(255,217,67);stop-opacity:1"/><stop offset="1" style="stop-color:rgb(255,168,10);stop-opacity:1"/></linearGradient>
        <linearGradient id="_Linear7" x1="0" y1="0" x2="1" y2="0" gradientUnits="userSpaceOnUse" gradientTransform="matrix(7.67361,36.6506,-36.6506,7.67361,141.962,36.7113)"><stop offset="0" style="stop-color:rgb(255,135,72);stop-opacity:1"/><stop offset="0.13" style="stop-color:rgb(254,120,82);stop-opacity:1"/><stop offset="0.5" style="stop-color:rgb(252,84,106);stop-opacity:1"/><stop offset="0.81" style="stop-color:rgb(250,61,121);stop-opacity:1"/><stop offset="1" style="stop-color:rgb(250,53,127);stop-opacity:1"/></linearGradient>
        <linearGradient id="_Linear8" x1="0" y1="0" x2="1" y2="0" gradientUnits="userSpaceOnUse" gradientTransform="matrix(4.69647,51.7596,-51.7596,4.69647,216.443,19.2225)"><stop offset="0" style="stop-color:rgb(255,243,97);stop-opacity:1"/><stop offset="1" style="stop-color:rgb(255,168,10);stop-opacity:1"/></linearGradient>
        <linearGradient id="_Linear10" x1="0" y1="0" x2="1" y2="0" gradientUnits="userSpaceOnUse" gradientTransform="matrix(3.42253e-15,-55.8942,55.8942,3.42253e-15,215.472,118.78)"><stop offset="0" style="stop-color:rgb(10,92,199);stop-opacity:1"/><stop offset="0" style="stop-color:rgb(10,92,199);stop-opacity:1"/><stop offset="1" style="stop-color:rgb(131,33,157);stop-opacity:1"/><stop offset="1" style="stop-color:rgb(131,33,157);stop-opacity:1"/></linearGradient>
        <linearGradient id="_Linear11" x1="0" y1="0" x2="1" y2="0" gradientUnits="userSpaceOnUse" gradientTransform="matrix(47.4893,107.234,-107.234,47.4893,223.805,-4.3458)"><stop offset="0" style="stop-color:rgb(250,53,127);stop-opacity:1"/><stop offset="1" style="stop-color:rgb(120,120,255);stop-opacity:1"/><stop offset="1" style="stop-color:rgb(120,120,255);stop-opacity:1"/></linearGradient>
        <linearGradient id="_Linear12" x1="0" y1="0" x2="1" y2="0" gradientUnits="userSpaceOnUse" gradientTransform="matrix(105.852,39.8841,-39.8841,105.852,172.363,36.4203)"><stop offset="0" style="stop-color:rgb(255,243,97);stop-opacity:1"/><stop offset="1" style="stop-color:rgb(255,168,10);stop-opacity:1"/></linearGradient>
        <linearGradient id="_Linear13" x1="0" y1="0" x2="1" y2="0" gradientUnits="userSpaceOnUse" gradientTransform="matrix(34.2127,97.5317,-97.5317,34.2127,224.522,15.4024)"><stop offset="0" style="stop-color:rgb(255,81,98);stop-opacity:1"/><stop offset="1" style="stop-color:rgb(131,33,157);stop-opacity:1"/></linearGradient>
        <linearGradient id="_Linear14" x1="0" y1="0" x2="1" y2="0" gradientUnits="userSpaceOnUse" gradientTransform="matrix(14.2275,29.391,-29.391,14.2275,195.984,29.166)"><stop offset="0" style="stop-color:rgb(255,217,67);stop-opacity:1"/><stop offset="1" style="stop-color:rgb(255,168,10);stop-opacity:1"/></linearGradient>
        <linearGradient id="_Linear15" x1="0" y1="0" x2="1" y2="0" gradientUnits="userSpaceOnUse" gradientTransform="matrix(16.4472,78.5554,-78.5554,16.4472,210.834,13.8887)"><stop offset="0" style="stop-color:rgb(255,135,72);stop-opacity:1"/><stop offset="0.13" style="stop-color:rgb(254,120,82);stop-opacity:1"/><stop offset="0.5" style="stop-color:rgb(252,84,106);stop-opacity:1"/><stop offset="0.81" style="stop-color:rgb(250,61,121);stop-opacity:1"/><stop offset="1" style="stop-color:rgb(250,53,127);stop-opacity:1"/></linearGradient>
        <linearGradient id="_Linear17" x1="0" y1="0" x2="1" y2="0" gradientUnits="userSpaceOnUse" gradientTransform="matrix(7.93467e-16,-12.9583,12.9583,7.93467e-16,272.056,148.018)"><stop offset="0" style="stop-color:rgb(10,92,199);stop-opacity:1"/><stop offset="0" style="stop-color:rgb(10,92,199);stop-opacity:1"/><stop offset="1" style="stop-color:rgb(131,33,157);stop-opacity:1"/><stop offset="1" style="stop-color:rgb(131,33,157);stop-opacity:1"/></linearGradient>
        <linearGradient id="_Linear18" x1="0" y1="0" x2="1" y2="0" gradientUnits="userSpaceOnUse" gradientTransform="matrix(11.0097,24.8605,-24.8605,11.0097,273.988,119.473)"><stop offset="0" style="stop-color:rgb(250,53,127);stop-opacity:1"/><stop offset="1" style="stop-color:rgb(120,120,255);stop-opacity:1"/><stop offset="1" style="stop-color:rgb(120,120,255);stop-opacity:1"/></linearGradient>
        <linearGradient id="_Linear19" x1="0" y1="0" x2="1" y2="0" gradientUnits="userSpaceOnUse" gradientTransform="matrix(24.5402,9.24651,-9.24651,24.5402,262.063,128.92)"><stop offset="0" style="stop-color:rgb(255,243,97);stop-opacity:1"/><stop offset="1" style="stop-color:rgb(255,168,10);stop-opacity:1"/></linearGradient>
        <linearGradient id="_Linear20" x1="0" y1="0" x2="1" y2="0" gradientUnits="userSpaceOnUse" gradientTransform="matrix(7.9317,22.6113,-22.6113,7.9317,274.154,124.051)"><stop offset="0" style="stop-color:rgb(255,81,98);stop-opacity:1"/><stop offset="1" style="stop-color:rgb(131,33,157);stop-opacity:1"/></linearGradient>
        <linearGradient id="_Linear21" x1="0" y1="0" x2="1" y2="0" gradientUnits="userSpaceOnUse" gradientTransform="matrix(3.2985,6.8138,-6.8138,3.2985,267.538,127.242)"><stop offset="0" style="stop-color:rgb(255,217,67);stop-opacity:1"/><stop offset="1" style="stop-color:rgb(255,168,10);stop-opacity:1"/></linearGradient>
        <linearGradient id="_Linear22" x1="0" y1="0" x2="1" y2="0" gradientUnits="userSpaceOnUse" gradientTransform="matrix(3.81308,18.2119,-18.2119,3.81308,270.982,123.697)"><stop offset="0" style="stop-color:rgb(255,135,72);stop-opacity:1"/><stop offset="0.13" style="stop-color:rgb(254,120,82);stop-opacity:1"/><stop offset="0.5" style="stop-color:rgb(252,84,106);stop-opacity:1"/><stop offset="0.81" style="stop-color:rgb(250,61,121);stop-opacity:1"/><stop offset="1" style="stop-color:rgb(250,53,127);stop-opacity:1"/></linearGradient>
        <linearGradient id="_Linear24" x1="0" y1="0" x2="1" y2="0" gradientUnits="userSpaceOnUse" gradientTransform="matrix(1.80008e-15,-29.3976,29.3976,1.80008e-15,82.8973,157.016)"><stop offset="0" style="stop-color:rgb(10,92,199);stop-opacity:1"/><stop offset="0" style="stop-color:rgb(10,92,199);stop-opacity:1"/><stop offset="1" style="stop-color:rgb(131,33,157);stop-opacity:1"/><stop offset="1" style="stop-color:rgb(131,33,157);stop-opacity:1"/></linearGradient>
        <linearGradient id="_Linear25" x1="0" y1="0" x2="1" y2="0" gradientUnits="userSpaceOnUse" gradientTransform="matrix(24.9771,56.3998,-56.3998,24.9771,87.2799,92.2572)"><stop offset="0" style="stop-color:rgb(250,53,127);stop-opacity:1"/><stop offset="1" style="stop-color:rgb(120,120,255);stop-opacity:1"/><stop offset="1" style="stop-color:rgb(120,120,255);stop-opacity:1"/></linearGradient>
        <linearGradient id="_Linear26" x1="0" y1="0" x2="1" y2="0" gradientUnits="userSpaceOnUse" gradientTransform="matrix(55.6733,20.9771,-20.9771,55.6733,60.2207,113.698)"><stop offset="0" style="stop-color:rgb(255,243,97);stop-opacity:1"/><stop offset="1" style="stop-color:rgb(255,168,10);stop-opacity:1"/></linearGradient>
        <linearGradient id="_Linear27" x1="0" y1="0" x2="1" y2="0" gradientUnits="userSpaceOnUse" gradientTransform="matrix(17.9942,51.297,-51.297,17.9942,87.6569,102.644)"><stop offset="0" style="stop-color:rgb(255,81,98);stop-opacity:1"/><stop offset="1" style="stop-color:rgb(131,33,157);stop-opacity:1"/></linearGradient>
        <linearGradient id="_Linear28" x1="0" y1="0" x2="1" y2="0" gradientUnits="userSpaceOnUse" gradientTransform="matrix(7.483,15.4582,-15.4582,7.483,72.6475,109.883)"><stop offset="0" style="stop-color:rgb(255,217,67);stop-opacity:1"/><stop offset="1" style="stop-color:rgb(255,168,10);stop-opacity:1"/></linearGradient>
        <linearGradient id="_Linear29" x1="0" y1="0" x2="1" y2="0" gradientUnits="userSpaceOnUse" gradientTransform="matrix(8.6504,41.3164,-41.3164,8.6504,80.4547,101.848)"><stop offset="0" style="stop-color:rgb(255,135,72);stop-opacity:1"/><stop offset="0.13" style="stop-color:rgb(254,120,82);stop-opacity:1"/><stop offset="0.5" style="stop-color:rgb(252,84,106);stop-opacity:1"/><stop offset="0.81" style="stop-color:rgb(250,61,121);stop-opacity:1"/><stop offset="1" style="stop-color:rgb(250,53,127);stop-opacity:1"/></linearGradient>
    </defs>
</svg>
