<?xml version="1.0" encoding="UTF-8"?>
<svg width="40px" height="36px" viewBox="0 0 40 36" version="1.1" xmlns="http://www.w3.org/2000/svg" xmlns:xlink="http://www.w3.org/1999/xlink">
    <!-- Generator: sketchtool 53 (72520) - https://sketchapp.com -->
    <title>6EF867FA-4ABB-444A-A5BB-8FA5D52E0EEB</title>
    <desc>Created with sketchtool.</desc>
    <defs>
        <linearGradient x1="71.1627137%" y1="8.3795633%" x2="23.6307692%" y2="89.0750207%" id="linearGradient-1">
            <stop stop-color="#FF980E" offset="0%"></stop>
            <stop stop-color="#FF7139" offset="20.75%"></stop>
            <stop stop-color="#FF5854" offset="36.33%"></stop>
            <stop stop-color="#FF4F5E" offset="45.63%"></stop>
            <stop stop-color="#FF3750" offset="69.29%"></stop>
            <stop stop-color="#F92261" offset="85.75%"></stop>
            <stop stop-color="#F5156C" offset="100%"></stop>
        </linearGradient>
        <linearGradient x1="71.1627137%" y1="8.3795633%" x2="23.6307692%" y2="89.0750207%" id="linearGradient-2">
            <stop stop-color="#FFF44F" stop-opacity="0.8" offset="0%"></stop>
            <stop stop-color="#FFF44F" stop-opacity="0" offset="75%"></stop>
        </linearGradient>
        <linearGradient x1="14.3945107%" y1="105.534329%" x2="62.8615752%" y2="24.3294529%" id="linearGradient-3">
            <stop stop-color="#3A8EE6" offset="0%"></stop>
            <stop stop-color="#5C79F0" offset="23.59%"></stop>
            <stop stop-color="#9059FF" offset="62.93%"></stop>
            <stop stop-color="#C139E6" offset="100%"></stop>
        </linearGradient>
        <linearGradient x1="62.8713604%" y1="29.0228725%" x2="42.5369928%" y2="60.7429512%" id="linearGradient-4">
            <stop stop-color="#6E008B" stop-opacity="0.5" offset="0%"></stop>
            <stop stop-color="#C846CB" stop-opacity="0" offset="50%"></stop>
        </linearGradient>
        <linearGradient x1="73.7626536%" y1="58.1514822%" x2="20.9130221%" y2="45.4476366%" id="linearGradient-5">
            <stop stop-color="#6A2BEA" stop-opacity="0" offset="13.6%"></stop>
            <stop stop-color="#662CE6" stop-opacity="0.09459748" offset="29.95%"></stop>
            <stop stop-color="#592FDB" stop-opacity="0.1926" offset="46.89%"></stop>
            <stop stop-color="#4534C9" stop-opacity="0.2923" offset="64.1%"></stop>
            <stop stop-color="#283BAF" stop-opacity="0.393" offset="81.5%"></stop>
            <stop stop-color="#03448D" stop-opacity="0.4936" offset="98.9%"></stop>
            <stop stop-color="#00458B" stop-opacity="0.5" offset="100%"></stop>
        </linearGradient>
    </defs>
    <g id="Page-1" stroke="none" stroke-width="1" fill="none" fill-rule="evenodd">
        <g id="Send_Home-Spec" transform="translate(-24.000000, -31.000000)">
            <g id="Header" transform="translate(24.000000, 24.000000)">
                <g id="Send" transform="translate(0.000000, 7.000000)">
                    <g id="FF_Send_Logo">
                        <g id="Group">
                            <g>
                                <path d="M18.4801773,0.309677419 C8.4846097,0.309677419 0.34868259,8.28387097 0.34868259,18.0774194 C0.34868259,19.1225806 1.20101781,19.9741935 2.24706558,19.9741935 L16.5817943,19.9741935 L16.5817943,25.1612903 L16.5817943,25.1612903 L16.5817943,29.4193548 L12.1264056,25.0064516 C11.390298,24.2709677 10.1892801,24.2709677 9.41442994,25.0064516 C8.67832225,25.7419355 8.67832225,26.9419355 9.41442994,27.716129 L17.1241894,35.4193548 C17.162932,35.4580645 17.2016745,35.4967742 17.2791595,35.5354839 C17.2791595,35.5354839 17.2791595,35.5354839 17.317902,35.5354839 C17.3566445,35.5741935 17.395387,35.6129032 17.4341295,35.6129032 C17.4341295,35.6129032 17.4341295,35.6129032 17.472872,35.6129032 C17.5116145,35.6516129 17.5503571,35.6516129 17.5890996,35.6903226 C17.5890996,35.6903226 17.5890996,35.6903226 17.6278421,35.6903226 C17.6665846,35.7290323 17.7440696,35.7290323 17.7828121,35.7677419 C17.7828121,35.7677419 17.7828121,35.7677419 17.7828121,35.7677419 C17.8215546,35.8064516 17.8990396,35.8064516 17.9377822,35.8064516 C17.9377822,35.8064516 17.9377822,35.8064516 17.9377822,35.8064516 C17.9765247,35.8064516 18.0540097,35.8451613 18.0927522,35.8451613 C18.0927522,35.8451613 18.1314947,35.8451613 18.1314947,35.8451613 C18.1702372,35.8451613 18.2089797,35.8451613 18.2864647,35.883871 C18.3639498,35.883871 18.4026923,35.883871 18.4801773,35.883871 C18.5576623,35.883871 18.5964048,35.883871 18.6738898,35.883871 C18.7126324,35.883871 18.7513749,35.883871 18.8288599,35.8451613 C18.8288599,35.8451613 18.8676024,35.8451613 18.8676024,35.8451613 C18.9063449,35.8451613 18.9838299,35.8064516 19.0225724,35.8064516 C19.0225724,35.8064516 19.0225724,35.8064516 19.0225724,35.8064516 C19.0613149,35.8064516 19.1388,35.7677419 19.1775425,35.7290323 C19.1775425,35.7290323 19.1775425,35.7290323 19.1775425,35.7290323 C19.216285,35.6903226 19.29377,35.6903226 19.3325125,35.6516129 C19.3325125,35.6516129 19.3325125,35.6516129 19.3325125,35.6516129 C19.371255,35.6129032 19.4099975,35.6129032 19.44874,35.5741935 C19.44874,35.5741935 19.44874,35.5741935 19.4874826,35.5741935 C19.5262251,35.5354839 19.5649676,35.4967742 19.6037101,35.4967742 C19.6037101,35.4967742 19.6037101,35.4967742 19.6424526,35.4967742 C19.6811951,35.4580645 19.7199376,35.4193548 19.7974226,35.3806452 L27.5071821,27.6774194 C28.2432898,26.9419355 28.2432898,25.7419355 27.5071821,24.9677419 C26.7710744,24.2322581 25.5700566,24.2322581 24.7952064,24.9677419 L20.3785603,29.4193548 L20.3785603,20.0129032 L34.713289,20.0129032 C35.7593368,20.0129032 36.611672,19.1612903 36.611672,18.116129 C36.611672,8.28387097 28.4757449,0.309677419 18.4801773,0.309677419 Z M4.26167611,16.1806452 C5.23023886,9.40645161 11.2353279,4.14193548 18.4801773,4.14193548 C25.7250267,4.14193548 31.6913732,9.40645161 32.659936,16.1806452 L4.26167611,16.1806452 Z" id="Shape" fill="url(#linearGradient-1)" fill-rule="nonzero"></path>
                                <path d="M18.4801773,0.309677419 C8.4846097,0.309677419 0.34868259,8.28387097 0.34868259,18.0774194 C0.34868259,19.1225806 1.20101781,19.9741935 2.24706558,19.9741935 L16.5817943,19.9741935 L16.5817943,25.1612903 L16.5817943,25.1612903 L16.5817943,29.4193548 L12.1264056,25.0064516 C11.390298,24.2709677 10.1892801,24.2709677 9.41442994,25.0064516 C8.67832225,25.7419355 8.67832225,26.9419355 9.41442994,27.716129 L17.1241894,35.4193548 C17.162932,35.4580645 17.2016745,35.4967742 17.2791595,35.5354839 C17.2791595,35.5354839 17.2791595,35.5354839 17.317902,35.5354839 C17.3566445,35.5741935 17.395387,35.6129032 17.4341295,35.6129032 C17.4341295,35.6129032 17.4341295,35.6129032 17.472872,35.6129032 C17.5116145,35.6516129 17.5503571,35.6516129 17.5890996,35.6903226 C17.5890996,35.6903226 17.5890996,35.6903226 17.6278421,35.6903226 C17.6665846,35.7290323 17.7440696,35.7290323 17.7828121,35.7677419 C17.7828121,35.7677419 17.7828121,35.7677419 17.7828121,35.7677419 C17.8215546,35.8064516 17.8990396,35.8064516 17.9377822,35.8064516 C17.9377822,35.8064516 17.9377822,35.8064516 17.9377822,35.8064516 C17.9765247,35.8064516 18.0540097,35.8451613 18.0927522,35.8451613 C18.0927522,35.8451613 18.1314947,35.8451613 18.1314947,35.8451613 C18.1702372,35.8451613 18.2089797,35.8451613 18.2864647,35.883871 C18.3639498,35.883871 18.4026923,35.883871 18.4801773,35.883871 C18.5576623,35.883871 18.5964048,35.883871 18.6738898,35.883871 C18.7126324,35.883871 18.7513749,35.883871 18.8288599,35.8451613 C18.8288599,35.8451613 18.8676024,35.8451613 18.8676024,35.8451613 C18.9063449,35.8451613 18.9838299,35.8064516 19.0225724,35.8064516 C19.0225724,35.8064516 19.0225724,35.8064516 19.0225724,35.8064516 C19.0613149,35.8064516 19.1388,35.7677419 19.1775425,35.7290323 C19.1775425,35.7290323 19.1775425,35.7290323 19.1775425,35.7290323 C19.216285,35.6903226 19.29377,35.6903226 19.3325125,35.6516129 C19.3325125,35.6516129 19.3325125,35.6516129 19.3325125,35.6516129 C19.371255,35.6129032 19.4099975,35.6129032 19.44874,35.5741935 C19.44874,35.5741935 19.44874,35.5741935 19.4874826,35.5741935 C19.5262251,35.5354839 19.5649676,35.4967742 19.6037101,35.4967742 C19.6037101,35.4967742 19.6037101,35.4967742 19.6424526,35.4967742 C19.6811951,35.4580645 19.7199376,35.4193548 19.7974226,35.3806452 L27.5071821,27.6774194 C28.2432898,26.9419355 28.2432898,25.7419355 27.5071821,24.9677419 C26.7710744,24.2322581 25.5700566,24.2322581 24.7952064,24.9677419 L20.3785603,29.4193548 L20.3785603,20.0129032 L34.713289,20.0129032 C35.7593368,20.0129032 36.611672,19.1612903 36.611672,18.116129 C36.611672,8.28387097 28.4757449,0.309677419 18.4801773,0.309677419 Z M4.26167611,16.1806452 C5.23023886,9.40645161 11.2353279,4.14193548 18.4801773,4.14193548 C25.7250267,4.14193548 31.6913732,9.40645161 32.659936,16.1806452 L4.26167611,16.1806452 Z" id="Shape" fill="url(#linearGradient-2)" fill-rule="nonzero"></path>
                                <path d="M20.3785603,4.25806452 C26.7323319,5.10967742 31.7688582,9.98709677 32.659936,16.1806452 L24.2140688,16.1806452 C22.1219732,16.1806452 20.4173028,17.883871 20.4173028,19.9741935 L20.4173028,19.9741935 L34.713289,19.9741935 C35.7593368,19.9741935 36.611672,19.1225806 36.611672,18.0774194 C36.611672,11.3032258 31.8076008,7.97419355 27.7396372,6.07741935 C23.9816137,4.33548387 20.3785603,4.25806452 20.3785603,4.25806452 Z" id="Path" fill="url(#linearGradient-3)"></path>
                                <path d="M32.582451,15.7548387 C33.8609538,16.8 35.1781991,17.8064516 36.4179595,18.8903226 C36.534187,18.6580645 36.611672,18.3870968 36.611672,18.0774194 C36.611672,11.3032258 31.8076008,7.97419355 27.7396372,6.07741935 C23.9816137,4.33548387 20.3785603,4.25806452 20.3785603,4.25806452 C26.5773619,5.07096774 31.5364032,9.79354839 32.582451,15.7548387 Z" id="Path" fill="url(#linearGradient-4)"></path>
                            </g>
                            <path d="M32.3499959,16.1806452 L24.2140688,16.1806452 C22.1219732,16.1806452 20.4173028,17.883871 20.4173028,19.9741935 L34.713289,19.9741935 C35.2944267,19.9741935 35.8368218,19.7032258 36.1855044,19.2774194 C34.9070016,18.2322581 33.6284987,17.2258065 32.3499959,16.1806452 Z" id="Path" fill="url(#linearGradient-5)" opacity="0.9"></path>
                        </g>
                    </g>
                </g>
            </g>
        </g>
    </g>
</svg>