<svg id="Layer_1" data-name="Layer 1" xmlns="http://www.w3.org/2000/svg" xmlns:xlink="http://www.w3.org/1999/xlink" width="340" height="64" viewBox="0 0 340 64"><defs><linearGradient id="linear-gradient" x1="46.37" y1="59.71" x2="15.42" y2="6.11" gradientTransform="matrix(1, 0, 0, -1, 0, 64)" gradientUnits="userSpaceOnUse"><stop offset="0" stop-color="#ff980e"/><stop offset="0.21" stop-color="#ff7139"/><stop offset="0.36" stop-color="#ff5854"/><stop offset="0.46" stop-color="#ff4f5e"/><stop offset="0.69" stop-color="#ff3750"/><stop offset="0.86" stop-color="#f92261"/><stop offset="1" stop-color="#f5156c"/></linearGradient><linearGradient id="linear-gradient-2" x1="46.37" y1="59.71" x2="15.42" y2="6.11" gradientTransform="matrix(1, 0, 0, -1, 0, 64)" gradientUnits="userSpaceOnUse"><stop offset="0" stop-color="#fff44f" stop-opacity="0.8"/><stop offset="0.09" stop-color="#fff44f" stop-opacity="0.7"/><stop offset="0.75" stop-color="#fff44f" stop-opacity="0"/></linearGradient><linearGradient id="linear-gradient-3" x1="40.19" y1="26.08" x2="54.32" y2="50.55" gradientTransform="matrix(1, 0, 0, -1, 0, 64)" gradientUnits="userSpaceOnUse"><stop offset="0" stop-color="#3a8ee6"/><stop offset="0.24" stop-color="#5c79f0"/><stop offset="0.63" stop-color="#9059ff"/><stop offset="1" stop-color="#c139e6"/></linearGradient><linearGradient id="linear-gradient-4" x1="54.32" y1="50.58" x2="48.39" y2="40.31" gradientTransform="matrix(1, 0, 0, -1, 0, 64)" gradientUnits="userSpaceOnUse"><stop offset="0" stop-color="#6e008b" stop-opacity="0.5"/><stop offset="0.5" stop-color="#c846cb" stop-opacity="0"/></linearGradient><linearGradient id="linear-gradient-5" x1="56.96" y1="22.5" x2="41.98" y2="37.46" gradientTransform="matrix(1, 0, 0, -1, 0, 64)" gradientUnits="userSpaceOnUse"><stop offset="0.14" stop-color="#6a2bea" stop-opacity="0"/><stop offset="0.34" stop-color="#642de4" stop-opacity="0.03"/><stop offset="0.55" stop-color="#5131d3" stop-opacity="0.12"/><stop offset="0.76" stop-color="#3139b7" stop-opacity="0.27"/><stop offset="0.98" stop-color="#054490" stop-opacity="0.48"/><stop offset="1" stop-color="#00458b" stop-opacity="0.5"/></linearGradient></defs><title>Artboard 1</title><path d="M32.56,0C14.61,0,0,14.33,0,31.94a3.42,3.42,0,0,0,3.42,3.42H29.14V52.3l-8-8a3.42,3.42,0,1,0-4.84,4.84L30.14,63a2.73,2.73,0,0,0,.25.23l.23.17h.05l.24.14.27.13.28.1.29.07L32,64h1.27l.29-.07.29-.1.27-.13.24-.14.24-.17L35,63,48.8,49.18A3.43,3.43,0,0,0,44,44.34l-8,8v-17H61.7a3.42,3.42,0,0,0,3.42-3.42h0C65.12,14.33,50.51,0,32.56,0ZM7.09,28.51A25.54,25.54,0,0,1,32.56,6.85,25.55,25.55,0,0,1,58,28.51Z" style="fill:url(#linear-gradient)"/><path d="M32.56,0C14.61,0,0,14.33,0,31.94a3.42,3.42,0,0,0,3.42,3.42H29.14V52.3l-8-8a3.42,3.42,0,1,0-4.84,4.84L30.14,63a2.73,2.73,0,0,0,.25.23l.23.17h.05l.24.14.27.13.28.1.29.07L32,64h1.27l.29-.07.29-.1.27-.13.24-.14.24-.17L35,63,48.8,49.18A3.43,3.43,0,0,0,44,44.34l-8,8v-17H61.7a3.42,3.42,0,0,0,3.42-3.42h0C65.12,14.33,50.51,0,32.56,0ZM7.09,28.51A25.54,25.54,0,0,1,32.56,6.85,25.55,25.55,0,0,1,58,28.51Z" style="fill:url(#linear-gradient-2)"/><path d="M36,7.08A25.45,25.45,0,0,1,58,28.51H42.85A6.85,6.85,0,0,0,36,35.36H61.7a3.43,3.43,0,0,0,3.42-3.43c0-12.2-8.63-18.13-16-21.59A35.75,35.75,0,0,0,36,7.08Z" style="fill:url(#linear-gradient-3)"/><path d="M57.89,27.76c2.31,1.86,4.63,3.71,6.9,5.61a3.27,3.27,0,0,0,.33-1.44c0-12.2-8.63-18.13-16-21.59A35.75,35.75,0,0,0,36,7.08,25.47,25.47,0,0,1,57.89,27.76Z" style="fill:url(#linear-gradient-4)"/><path d="M57.5,28.51H42.85A6.85,6.85,0,0,0,36,35.36H61.7a3.36,3.36,0,0,0,2.64-1.28C62.09,32.19,59.79,30.36,57.5,28.51Z" style="opacity:0.8999999761581421;isolation:isolate;fill:url(#linear-gradient-5)"/><path d="M84,48h5.83V35.87H103.3V30.45H89.83V23.51H103.3V18H84Zm23.57,0h5.79V25.81h-5.79Zm2.88-32.12a3.46,3.46,0,0,0-2.59,1,3.62,3.62,0,0,0-1,2.65,3.57,3.57,0,0,0,1,2.59,3.52,3.52,0,0,0,2.61,1,3.46,3.46,0,0,0,3.65-3.26c0-.12,0-.23,0-.35a3.71,3.71,0,0,0-1-2.65,3.5,3.5,0,0,0-2.67-1Zm19.14,9.53a7.22,7.22,0,0,0-3.72.93,5.82,5.82,0,0,0-2.4,2.89V25.81h-5.59V48h5.63V36.29a5.27,5.27,0,0,1,1.31-4,4.94,4.94,0,0,1,3.49-1.21,6.33,6.33,0,0,1,1.73.23,4,4,0,0,1,1.23.55l2-5.59a7.51,7.51,0,0,0-1.66-.61,8.11,8.11,0,0,0-2-.26Zm23.94,3.19a11.15,11.15,0,0,0-3.61-2.37,12.08,12.08,0,0,0-4.6-.86,11.62,11.62,0,0,0-8.3,3.37,11.17,11.17,0,0,0-2.44,3.67,11.59,11.59,0,0,0-.89,4.54,12.24,12.24,0,0,0,.83,4.52,10.52,10.52,0,0,0,2.36,3.66,10.93,10.93,0,0,0,3.71,2.44,12.75,12.75,0,0,0,4.85.88,12.15,12.15,0,0,0,6.12-1.39,13.25,13.25,0,0,0,4.11-3.74L151,40.6a6.23,6.23,0,0,1-2.18,2.15,6.36,6.36,0,0,1-3.33.8,6.7,6.7,0,0,1-4.13-1.25,6,6,0,0,1-2.23-3.43h17.62V36.74a11.71,11.71,0,0,0-.87-4.56,10.5,10.5,0,0,0-2.35-3.59Zm-14.21,5.85a6.38,6.38,0,0,1,2.26-3.12,6.11,6.11,0,0,1,3.74-1.15,6.26,6.26,0,0,1,3.73,1.08,5.56,5.56,0,0,1,2.1,3.19ZM167,16.08a6.05,6.05,0,0,0-2.91,1.54,6.15,6.15,0,0,0-1.56,2.89,18.1,18.1,0,0,0-.48,4.52v.78H158.4v5.1h3.65V48h5.63V30.91H173v-5.1h-5.3V24.75a13.34,13.34,0,0,1,.12-2,2,2,0,0,1,.6-1.19,2.45,2.45,0,0,1,1.33-.57,15.25,15.25,0,0,1,2.34-.15H173V15.63h-1.48A19.06,19.06,0,0,0,167,16.08Zm27.4,12.65a12,12,0,0,0-16.72,0,10.87,10.87,0,0,0-2.46,3.67,11.61,11.61,0,0,0-.89,4.5,11.46,11.46,0,0,0,7.07,10.64,11.73,11.73,0,0,0,4.64.9,12,12,0,0,0,4.66-.9,11.26,11.26,0,0,0,3.72-2.49,11.83,11.83,0,0,0,2.46-3.67,11.31,11.31,0,0,0,.9-4.48A11.43,11.43,0,0,0,194.4,28.73ZM191.7,39.3a5.88,5.88,0,0,1-1.29,2,6.53,6.53,0,0,1-1.93,1.31,6,6,0,0,1-4.76,0,6.34,6.34,0,0,1-1.93-1.31,6.06,6.06,0,0,1-1.3-2,6.48,6.48,0,0,1,0-4.86,5.76,5.76,0,0,1,1.3-2,6.08,6.08,0,0,1,1.93-1.32,6,6,0,0,1,4.76,0,6.37,6.37,0,0,1,1.93,1.32,5.73,5.73,0,0,1,1.29,2A6.39,6.39,0,0,1,191.7,39.3Zm29.47-13.49h-6.65l-4.68,6.57-4.64-6.57h-6.74l7.84,10.8L198,48h6.82l5-6.94L214.89,48h6.86l-8.46-11.34Zm34,7.46a12.88,12.88,0,0,0-3.37-1.44c-1.25-.34-2.46-.63-3.63-.88l-3.08-.7a10.64,10.64,0,0,1-2.51-.86A4.54,4.54,0,0,1,240.87,28a3.61,3.61,0,0,1-.62-2.19,4.8,4.8,0,0,1,1.58-3.7c1.06-1,2.73-1.44,5-1.44a9.84,9.84,0,0,1,5.07,1.17,10.47,10.47,0,0,1,3.39,3.23l2.79-2.18A15.22,15.22,0,0,0,253.45,19a13.8,13.8,0,0,0-6.59-1.44,12.13,12.13,0,0,0-4.14.66A10.33,10.33,0,0,0,239.53,20a7.53,7.53,0,0,0-2.05,2.63,7.41,7.41,0,0,0-.72,3.24,6.7,6.7,0,0,0,.84,3.53,7.06,7.06,0,0,0,2.2,2.22A11.11,11.11,0,0,0,242.86,33c1.13.32,2.29.6,3.47.84l3.26.74a12.63,12.63,0,0,1,2.8,1,5.86,5.86,0,0,1,2,1.56,3.88,3.88,0,0,1,.74,2.42,5.2,5.2,0,0,1-1.81,4.09A7.83,7.83,0,0,1,248,45.2a11,11,0,0,1-9.89-5.38l-3,2.34a15.86,15.86,0,0,0,5.23,4.54,16.06,16.06,0,0,0,7.7,1.7,12.58,12.58,0,0,0,4.38-.72,10.14,10.14,0,0,0,3.3-2,8.79,8.79,0,0,0,2.1-2.85,8.09,8.09,0,0,0,.74-3.39,6.94,6.94,0,0,0-1-3.8,7.71,7.71,0,0,0-2.42-2.37Zm27.51-4.72a10.53,10.53,0,0,0-3.58-2.34,11.89,11.89,0,0,0-4.49-.84,11.6,11.6,0,0,0-4.62.9,11.35,11.35,0,0,0-3.66,2.46A11.84,11.84,0,0,0,263,37a12.21,12.21,0,0,0,.82,4.51,10.53,10.53,0,0,0,2.36,3.64,11.24,11.24,0,0,0,3.7,2.42,12.41,12.41,0,0,0,4.82.88A11.68,11.68,0,0,0,280.82,47,12.84,12.84,0,0,0,285,42.82l-2.88-1.69a7.85,7.85,0,0,1-7.43,4.27,9,9,0,0,1-3.22-.53,8.21,8.21,0,0,1-2.55-1.5,8,8,0,0,1-1.78-2.28,7.79,7.79,0,0,1-.87-2.91h19.59V36.66a11.75,11.75,0,0,0-.86-4.54,10.92,10.92,0,0,0-2.35-3.57ZM266.4,35.22a8.88,8.88,0,0,1,1-2.73,8.55,8.55,0,0,1,1.79-2.18,8,8,0,0,1,2.44-1.43,8.31,8.31,0,0,1,3-.52,7.45,7.45,0,0,1,7.84,6.86ZM308.82,28a8.11,8.11,0,0,0-3-2,10.89,10.89,0,0,0-3.92-.67,9.06,9.06,0,0,0-4.58,1.14,8.76,8.76,0,0,0-3.14,3V25.82h-3.29V48h3.37V35.67a7.92,7.92,0,0,1,.53-2.93,7,7,0,0,1,1.48-2.3,6.46,6.46,0,0,1,2.22-1.5,7,7,0,0,1,2.75-.54,6.33,6.33,0,0,1,5,1.93A7.46,7.46,0,0,1,308,35.51V48h3.41V35.34a12.46,12.46,0,0,0-.66-4.19A8.68,8.68,0,0,0,308.82,28Zm27-12.42v14.1a8.14,8.14,0,0,0-1.58-1.83,10.08,10.08,0,0,0-2-1.36,10.39,10.39,0,0,0-2.3-.84,10.22,10.22,0,0,0-2.4-.28,11.63,11.63,0,0,0-4.4.84,11.09,11.09,0,0,0-3.59,2.38,11.3,11.3,0,0,0-2.42,3.65,12.81,12.81,0,0,0,0,9.32,11.56,11.56,0,0,0,2.4,3.66,10.58,10.58,0,0,0,3.59,2.38,11.77,11.77,0,0,0,4.42.84,9.69,9.69,0,0,0,2.4-.31,11,11,0,0,0,2.3-.86,9.72,9.72,0,0,0,2-1.37,8.75,8.75,0,0,0,1.58-1.85v4h3.33V15.59Zm-.37,24.58a8.3,8.3,0,0,1-10.85,4.47h0a7.68,7.68,0,0,1-2.6-1.76,7.88,7.88,0,0,1-1.73-2.67,8.93,8.93,0,0,1-.62-3.35,8.67,8.67,0,0,1,.62-3.3A8,8,0,0,1,322,30.89a8.17,8.17,0,0,1,2.6-1.79,8.27,8.27,0,0,1,6.51,0,8.64,8.64,0,0,1,2.63,1.81,7.85,7.85,0,0,1,1.72,2.67,8.67,8.67,0,0,1,.62,3.26,8.86,8.86,0,0,1-.65,3.33Z" style="fill:#203"/></svg>