<?xml version="1.0" encoding="UTF-8"?>
<svg width="348px" height="210px" viewBox="0 0 348 210" version="1.1" xmlns="http://www.w3.org/2000/svg" xmlns:xlink="http://www.w3.org/1999/xlink">
    <!-- Generator: sketchtool 53.1 (72631) - https://sketchapp.com -->
    <title>27A08916-26BA-4E40-BE07-5F49802F2EFC</title>
    <desc>Created with sketchtool.</desc>
    <defs>
        <linearGradient x1="41.8088067%" y1="202.924064%" x2="57.7028735%" y2="-81.3762312%" id="linearGradient-1">
            <stop stop-color="#EDEDF0" offset="29.11%"></stop>
            <stop stop-color="#D9E4EF" offset="32.86%"></stop>
            <stop stop-color="#A5CCEE" offset="40.56%"></stop>
            <stop stop-color="#53A7EC" offset="51.45%"></stop>
            <stop stop-color="#47A1EB" offset="52.89%"></stop>
            <stop stop-color="#83219D" offset="71.86%"></stop>
        </linearGradient>
        <linearGradient x1="-28.1787365%" y1="-47.1973036%" x2="84.4756344%" y2="96.7280729%" id="linearGradient-2">
            <stop stop-color="#FA357F" offset="0%"></stop>
            <stop stop-color="#7878FF" offset="99.91%"></stop>
        </linearGradient>
        <linearGradient x1="20.1959513%" y1="50.3857706%" x2="169.064404%" y2="48.6797451%" id="linearGradient-3">
            <stop stop-color="#FFF361" offset="0%"></stop>
            <stop stop-color="#FFA80A" offset="100%"></stop>
        </linearGradient>
        <linearGradient x1="7.14415651%" y1="-13.348307%" x2="84.3260208%" y2="120.031607%" id="linearGradient-4">
            <stop stop-color="#FF5162" offset="0%"></stop>
            <stop stop-color="#83219D" offset="100%"></stop>
        </linearGradient>
        <linearGradient x1="34.0909977%" y1="25.5724875%" x2="59.4809257%" y2="63.1135354%" id="linearGradient-5">
            <stop stop-color="#FFD943" offset="0%"></stop>
            <stop stop-color="#FFA80A" offset="100%"></stop>
        </linearGradient>
        <linearGradient x1="21.6627754%" y1="-7.19126071%" x2="65.1350234%" y2="106.402717%" id="linearGradient-6">
            <stop stop-color="#FF8748" offset="0%"></stop>
            <stop stop-color="#FE7852" offset="13.28%"></stop>
            <stop stop-color="#FC546A" offset="50.49%"></stop>
            <stop stop-color="#FA3D79" offset="80.73%"></stop>
            <stop stop-color="#FA357F" offset="100%"></stop>
        </linearGradient>
    </defs>
    <g id="Page-1" stroke="none" stroke-width="1" fill="none" fill-rule="evenodd">
        <g id="Send_Expired-Link" transform="translate(-546.000000, -349.000000)" fill-rule="nonzero">
            <g id="firefox-send_illustrations-01" transform="translate(546.014493, 349.000000)">
                <g id="Group" transform="translate(0.000000, 41.705515)" fill="#EDEDF0" opacity="0.5">
                    <g transform="translate(31.196450, 119.702206)">
                        <g transform="translate(21.701878, 5.425470)" id="Path">
                            <path d="M1.62764089,3.36379116 L94.6066265,3.36379116 C95.3526286,3.36379116 95.9629939,2.75342583 95.9629939,2.00742376 C95.9629939,1.26142169 95.3526286,0.651056354 94.6066265,0.651056354 L1.62764089,0.651056354 C0.881638813,0.651056354 0.271273481,1.26142169 0.271273481,2.00742376 C0.271273481,2.75342583 0.881638813,3.36379116 1.62764089,3.36379116 Z"></path>
                        </g>
                        <g transform="translate(79.683802, 0.000000)" id="Path">
                            <path d="M0.735221199,1.89891437 L24.0647406,1.89891437 C24.4445234,1.89891437 24.7429243,1.60051354 24.7429243,1.22073066 C24.7429243,0.840947791 24.4445234,0.542546962 24.0647406,0.542546962 L0.735221199,0.542546962 C0.355438325,0.542546962 0.0570374962,0.840947791 0.0570374962,1.22073066 C0.0570374962,1.60051354 0.355438325,1.89891437 0.735221199,1.89891437 Z"></path>
                        </g>
                        <g transform="translate(0.000000, 13.221799)" id="Shape">
                            <path d="M0.542546962,0.938676309 C0.542546962,0.558893436 0.840947791,0.260492607 1.22073066,0.260492607 L5.28983288,0.260492607 C5.66961575,0.260492607 5.96801658,0.558893436 5.96801658,0.938676309 C5.96801658,1.31845918 5.66961575,1.61686001 5.28983288,1.61686001 L1.22073066,1.61686001 C0.840947791,1.61686001 0.542546962,1.31845918 0.542546962,0.938676309 Z M15.4625884,0.938676309 C15.4625884,0.558893436 15.7609892,0.260492607 16.1407721,0.260492607 L32.417181,0.260492607 C32.7969639,0.260492607 33.0953647,0.558893436 33.0953647,0.938676309 C33.0953647,1.31845918 32.7969639,1.61686001 32.417181,1.61686001 L16.1407721,1.61686001 C15.7609892,1.61686001 15.4625884,1.31845918 15.4625884,0.938676309 Z M43.9463039,0.938676309 C43.9463039,0.558893436 44.2447047,0.260492607 44.6244876,0.260492607 L45.980855,0.260492607 C46.3606379,0.260492607 46.6590387,0.558893436 46.6590387,0.938676309 C46.6590387,1.31845918 46.3606379,1.61686001 45.980855,1.61686001 L44.6244876,1.61686001 C44.2447047,1.61686001 43.9463039,1.31845918 43.9463039,0.938676309 Z M50.7281409,0.938676309 C50.7281409,0.558893436 51.0265418,0.260492607 51.4063246,0.260492607 L55.4754269,0.260492607 C55.8552097,0.260492607 56.1536106,0.558893436 56.1536106,0.938676309 C56.1536106,1.31845918 55.8552097,1.61686001 55.4754269,1.61686001 L51.4063246,1.61686001 C51.0265418,1.61686001 50.7281409,1.31845918 50.7281409,0.938676309 Z M65.6481824,0.938676309 C65.6481824,0.558893436 65.9465832,0.260492607 66.3263661,0.260492607 L82.602775,0.260492607 C82.9825578,0.260492607 83.2809587,0.558893436 83.2809587,0.938676309 C83.2809587,1.31845918 82.9825578,1.61686001 82.602775,1.61686001 L66.3263661,1.61686001 C65.9465832,1.61686001 65.6481824,1.31845918 65.6481824,0.938676309 Z"></path>
                        </g>
                    </g>
                    <g transform="translate(128.513029, 73.585715)">
                        <g transform="translate(26.112855, 5.425470)" id="Path">
                            <path d="M1.831096,3.26884545 L151.95384,3.26884545 C152.699842,3.26884545 153.310208,2.65848011 153.310208,1.91247804 C153.310208,1.16647597 152.699842,0.556110636 151.95384,0.556110636 L1.831096,0.556110636 C1.08509392,0.556110636 0.474728592,1.16647597 0.474728592,1.91247804 C0.474728592,2.65848011 1.08509392,3.26884545 1.831096,3.26884545 Z"></path>
                        </g>
                        <g transform="translate(47.472859, 0.000000)" id="Path">
                            <path d="M0.748784873,1.91247804 L38.401544,1.91247804 C38.7813269,1.91247804 39.0797277,1.61407721 39.0797277,1.23429434 C39.0797277,0.854511465 38.7813269,0.556110636 38.401544,0.556110636 L0.748784873,0.556110636 C0.369001999,0.556110636 0.0706011703,0.854511465 0.0706011703,1.23429434 C0.0706011703,1.61407721 0.382565673,1.91247804 0.748784873,1.91247804 Z"></path>
                        </g>
                        <g transform="translate(0.000000, 13.221799)" id="Shape">
                            <path d="M0.233365259,0.708093851 C0.233365259,0.328310977 0.531766088,0.0299101482 0.911548961,0.0299101482 L17.1879578,0.0299101482 C17.5677407,0.0299101482 17.8661415,0.328310977 17.8661415,0.708093851 C17.8661415,1.08787672 17.5677407,1.38627755 17.1879578,1.38627755 L0.911548961,1.38627755 C0.531766088,1.38627755 0.233365259,1.08787672 0.233365259,0.708093851 Z M27.3607134,0.708093851 C27.3607134,0.328310977 27.6591142,0.0299101482 28.0388971,0.0299101482 L32.1079993,0.0299101482 C32.4877821,0.0299101482 32.786183,0.328310977 32.786183,0.708093851 C32.786183,1.08787672 32.4877821,1.38627755 32.1079993,1.38627755 L28.0388971,1.38627755 C27.6591142,1.38627755 27.3607134,1.08787672 27.3607134,0.708093851 Z M36.8552852,0.708093851 C36.8552852,0.328310977 37.153686,0.0299101482 37.5334689,0.0299101482 L38.8898363,0.0299101482 C39.2696192,0.0299101482 39.56802,0.328310977 39.56802,0.708093851 C39.56802,1.08787672 39.2696192,1.38627755 38.8898363,1.38627755 L37.5334689,1.38627755 C37.153686,1.38627755 36.8552852,1.08787672 36.8552852,0.708093851 Z M50.4189592,0.708093851 C50.4189592,0.328310977 50.7173601,0.0299101482 51.0971429,0.0299101482 L67.3735518,0.0299101482 C67.7533347,0.0299101482 68.0517355,0.328310977 68.0517355,0.708093851 C68.0517355,1.08787672 67.7533347,1.38627755 67.3735518,1.38627755 L51.0971429,1.38627755 C50.7173601,1.38627755 50.4189592,1.08787672 50.4189592,0.708093851 Z M77.5463073,0.708093851 C77.5463073,0.328310977 77.8447082,0.0299101482 78.224491,0.0299101482 L82.2935933,0.0299101482 C82.6733761,0.0299101482 82.971777,0.328310977 82.971777,0.708093851 C82.971777,1.08787672 82.6733761,1.38627755 82.2935933,1.38627755 L78.224491,1.38627755 C77.8447082,1.38627755 77.5463073,1.08787672 77.5463073,0.708093851 Z M87.0408792,0.708093851 C87.0408792,0.328310977 87.33928,0.0299101482 87.7190629,0.0299101482 L89.0754303,0.0299101482 C89.4552132,0.0299101482 89.753614,0.328310977 89.753614,0.708093851 C89.753614,1.08787672 89.4552132,1.38627755 89.0754303,1.38627755 L87.7190629,1.38627755 C87.33928,1.38627755 87.0408792,1.08787672 87.0408792,0.708093851 Z M100.604553,0.708093851 C100.604553,0.328310977 100.902954,0.0299101482 101.282737,0.0299101482 L117.559146,0.0299101482 C117.938929,0.0299101482 118.237329,0.328310977 118.237329,0.708093851 C118.237329,1.08787672 117.938929,1.38627755 117.559146,1.38627755 L101.282737,1.38627755 C100.902954,1.38627755 100.604553,1.08787672 100.604553,0.708093851 Z M127.731901,0.708093851 C127.731901,0.328310977 128.030302,0.0299101482 128.410085,0.0299101482 L132.479187,0.0299101482 C132.85897,0.0299101482 133.157371,0.328310977 133.157371,0.708093851 C133.157371,1.08787672 132.85897,1.38627755 132.479187,1.38627755 L128.410085,1.38627755 C128.030302,1.38627755 127.731901,1.08787672 127.731901,0.708093851 Z M137.226473,0.708093851 C137.226473,0.328310977 137.524874,0.0299101482 137.904657,0.0299101482 L139.261024,0.0299101482 C139.640807,0.0299101482 139.939208,0.328310977 139.939208,0.708093851 C139.939208,1.08787672 139.640807,1.38627755 139.261024,1.38627755 L137.904657,1.38627755 C137.524874,1.38627755 137.226473,1.08787672 137.226473,0.708093851 Z M150.790147,0.708093851 C150.790147,0.328310977 151.088548,0.0299101482 151.468331,0.0299101482 L167.74474,0.0299101482 C168.124523,0.0299101482 168.422923,0.328310977 168.422923,0.708093851 C168.422923,1.08787672 168.124523,1.38627755 167.74474,1.38627755 L151.468331,1.38627755 C151.088548,1.38627755 150.790147,1.08787672 150.790147,0.708093851 Z M177.917495,0.708093851 C177.917495,0.328310977 178.215896,0.0299101482 178.595679,0.0299101482 L182.664781,0.0299101482 C183.044564,0.0299101482 183.342965,0.328310977 183.342965,0.708093851 C183.342965,1.08787672 183.044564,1.38627755 182.664781,1.38627755 L178.595679,1.38627755 C178.215896,1.38627755 177.917495,1.08787672 177.917495,0.708093851 Z M187.412067,0.708093851 C187.412067,0.328310977 187.710468,0.0299101482 188.090251,0.0299101482 L189.446618,0.0299101482 C189.826401,0.0299101482 190.124802,0.328310977 190.124802,0.708093851 C190.124802,1.08787672 189.826401,1.38627755 189.446618,1.38627755 L188.090251,1.38627755 C187.710468,1.38627755 187.412067,1.08787672 187.412067,0.708093851 Z M200.975741,0.708093851 C200.975741,0.328310977 201.274142,0.0299101482 201.653925,0.0299101482 L217.930334,0.0299101482 C218.310117,0.0299101482 218.608517,0.328310977 218.608517,0.708093851 C218.608517,1.08787672 218.310117,1.38627755 217.930334,1.38627755 L201.653925,1.38627755 C201.274142,1.38627755 200.975741,1.08787672 200.975741,0.708093851 Z"></path>
                        </g>
                    </g>
                    <g>
                        <path d="M2.21087887,33.3287299 L36.6897383,33.3287299 C36.6897383,33.3287299 25.9066174,9.21251748 48.8020992,6.09287245 C69.2289923,3.31231927 77.2993784,24.3088867 77.2993784,24.3088867 C77.2993784,24.3088867 79.7272761,12.1965258 91.8667643,14.515914 C103.843489,16.7946113 112.687004,36.0685921 112.687004,36.0685921 L142.716978,36.0685921" id="Path"></path>
                        <g transform="translate(1.356367, 0.000000)" id="Shape">
                            <path d="M141.957413,30.371849 L133.08677,30.371849 C132.639169,30.371849 132.286513,30.0191935 132.286513,29.5715922 C132.286513,29.123991 132.639169,28.7713355 133.08677,28.7713355 L141.957413,28.7713355 C142.405014,28.7713355 142.757669,29.123991 142.757669,29.5715922 C142.757669,30.0191935 142.405014,30.371849 141.957413,30.371849 Z M118.722839,30.371849 L117.122325,30.371849 C116.674724,30.371849 116.322069,30.0191935 116.322069,29.5715922 C116.322069,29.123991 116.674724,28.7713355 117.122325,28.7713355 L118.722839,28.7713355 C119.17044,28.7713355 119.523096,29.123991 119.523096,29.5715922 C119.523096,30.0191935 119.156877,30.371849 118.722839,30.371849 Z M35.9166089,29.4088281 L33.3530745,29.4088281 C32.9054732,29.4088281 32.5528177,29.0561726 32.5528177,28.6085714 C32.5528177,28.1609701 32.9054732,27.8083146 33.3530745,27.8083146 L34.7365692,27.8083146 C34.6280598,27.5234774 34.5059868,27.1708219 34.37035,26.7774754 C34.2347133,26.3570015 34.4517321,25.9094002 34.872206,25.7601998 C35.2926799,25.6245631 35.7402811,25.8415819 35.8894815,26.2620558 C36.3099554,27.4963501 36.6490473,28.2559158 36.6490473,28.2694795 C36.7575567,28.5136257 36.7304293,28.7984628 36.5947926,29.0290453 C36.4455922,29.2731914 36.1878824,29.4088281 35.9166089,29.4088281 Z M20.5896572,29.4088281 L1.43774945,29.4088281 C0.990148206,29.4088281 0.63749268,29.0561726 0.63749268,28.6085714 C0.63749268,28.1609701 0.990148206,27.8083146 1.43774945,27.8083146 L20.5896572,27.8083146 C21.0372585,27.8083146 21.389914,28.1609701 21.389914,28.6085714 C21.389914,29.0561726 21.0236948,29.4088281 20.5896572,29.4088281 Z M111.371328,29.3274461 C111.08649,29.3274461 110.815217,29.1782457 110.67958,28.9205359 C110.164161,28.0117697 109.323213,26.5740203 108.197428,24.8921247 C107.953282,24.5259055 108.048227,24.0240495 108.414447,23.7799034 C108.780666,23.5357573 109.282522,23.630703 109.526668,23.9969222 C110.67958,25.7195088 111.547655,27.1979493 112.076639,28.1338428 C112.293657,28.5136257 112.158021,29.0019179 111.764674,29.2189367 C111.629037,29.2867551 111.493401,29.3274461 111.371328,29.3274461 Z M33.6379116,21.1214233 C33.2445651,21.1214233 32.9054732,20.8365861 32.8512185,20.4296759 C32.7698365,19.9006926 32.7155818,19.344582 32.6748908,18.7884714 C32.6341998,18.3544338 32.9732916,17.9610872 33.4073292,17.9339599 C33.8684941,17.9068325 34.2347133,18.218797 34.2618406,18.6663983 C34.3025317,19.1953816 34.3567864,19.7108012 34.4381684,20.2126571 C34.5059868,20.6466947 34.1940223,21.0536049 33.7599847,21.1078596 C33.7192937,21.1214233 33.6786027,21.1214233 33.6379116,21.1214233 Z M75.2105726,17.6084317 C74.9257354,17.6084317 74.654462,17.4592313 74.5052616,17.1879578 C74.2746791,16.7674839 74.0169693,16.306319 73.7321321,15.8315904 C73.5015497,15.4518075 73.6236227,14.9635153 74.0034056,14.7329328 C74.3831885,14.5023504 74.8714808,14.6244234 75.1020632,15.0042063 C75.400464,15.5060622 75.6717375,15.9807908 75.9158837,16.4283921 C76.1193388,16.8217386 75.983702,17.2964672 75.5903555,17.513486 C75.4682824,17.5813044 75.3326457,17.6084317 75.2105726,17.6084317 Z M100.547516,15.5738806 C100.357624,15.5738806 100.181297,15.5060622 100.032096,15.3839892 C96.9802695,12.7662001 93.9420065,11.1521229 90.9715618,10.5824486 C88.0553719,10.0263379 85.4782739,10.3111751 83.3352134,11.4098327 C82.9418668,11.6132878 82.4671382,11.4505237 82.2636831,11.0707408 C82.060228,10.6773943 82.2094284,10.2026657 82.602775,9.99921057 C85.0578,8.72422521 88.0011172,8.39869704 91.2699627,9.02262604 C94.5116808,9.64655505 97.8076536,11.3691417 101.076499,14.1768222 C101.415591,14.4616593 101.442718,14.9635153 101.157881,15.3026071 C100.981553,15.4789349 100.764535,15.5738806 100.547516,15.5738806 Z M70.6803055,11.0436135 C70.4632867,11.0436135 70.2327042,10.9486678 70.0835038,10.77234 C69.0391009,9.565173 67.913316,8.46651541 66.7604037,7.50349455 C66.4213118,7.21865739 66.3806208,6.71680145 66.665458,6.3777096 C66.9502951,6.03861775 67.452151,5.99792673 67.7912429,6.28276388 C69.0119736,7.30003944 70.1920132,8.46651541 71.2906708,9.72793709 C71.575508,10.0670289 71.5483806,10.5688849 71.2092888,10.853722 C71.0465247,10.9757951 70.8566332,11.0436135 70.6803055,11.0436135 Z M37.7748322,6.39127328 C37.5578134,6.39127328 37.3407947,6.29632756 37.1780306,6.13356347 C36.8796297,5.80803529 36.9067571,5.30617935 37.2322853,5.00777852 C39.782256,2.70195394 43.3766296,1.20994979 47.9204604,0.599584458 C50.7010136,0.219801585 53.4273121,0.260492607 56.0044101,0.708093851 C56.4384477,0.789475895 56.7232849,1.19638612 56.6554665,1.63042369 C56.5740845,2.06446126 56.1671742,2.36286208 55.7331367,2.28148004 C53.3188027,1.86100614 50.7552683,1.8338788 48.1374792,2.18653432 C43.9191766,2.76977231 40.6096401,4.11257604 38.3038155,6.20138184 C38.1546151,6.32345491 37.9647237,6.39127328 37.7748322,6.39127328 Z"></path>
                        </g>
                        <g transform="translate(0.000000, 32.894692)" id="Path">
                            <path d="M144.303928,3.6079373 L2.1973152,3.6079373 C1.31567638,3.6079373 0.596801658,2.88906257 0.596801658,2.00742376 C0.596801658,1.12578495 1.31567638,0.406910221 2.1973152,0.406910221 L144.303928,0.406910221 C145.185567,0.406910221 145.904442,1.12578495 145.904442,2.00742376 C145.904442,2.88906257 145.185567,3.6079373 144.303928,3.6079373 Z"></path>
                        </g>
                    </g>
                    <g transform="translate(225.156989, 1.356367)">
                        <path d="M2.10236948,18.9919265 L21.349223,18.9919265 C21.349223,18.9919265 15.3269517,5.53676181 28.1039326,3.80061153 C39.4974188,2.25435269 44.0141223,13.9598034 44.0141223,13.9598034 C44.0141223,13.9598034 45.3704897,7.20509372 52.1523267,8.49364275 C58.839218,9.76862812 63.7763954,20.5246216 63.7763954,20.5246216 L80.5275328,20.5246216" id="Path"></path>
                        <g transform="translate(1.356367, 0.000000)" id="Shape">
                            <path d="M20.5489662,16.8353023 L1.32924006,16.8353023 C0.881638813,16.8353023 0.528983288,16.4826468 0.528983288,16.0350455 C0.528983288,15.5874443 0.881638813,15.2347888 1.32924006,15.2347888 L20.5489662,15.2347888 C20.9965674,15.2347888 21.349223,15.5874443 21.349223,16.0350455 C21.349223,16.4826468 20.9965674,16.8353023 20.5489662,16.8353023 Z M79.7544034,16.5775925 L79.0084013,16.5775925 C78.5608001,16.5775925 78.2081446,16.224937 78.2081446,15.7773357 C78.2081446,15.3297345 78.5608001,14.977079 79.0084013,14.977079 L79.7544034,14.977079 C80.2020047,14.977079 80.5546602,15.3297345 80.5546602,15.7773357 C80.5546602,16.224937 80.2020047,16.5775925 79.7544034,16.5775925 Z M72.6063472,16.5775925 L67.8048066,16.5775925 C67.3572053,16.5775925 67.0045498,16.224937 67.0045498,15.7773357 C67.0045498,15.3297345 67.3572053,14.977079 67.8048066,14.977079 L72.6063472,14.977079 C73.0539484,14.977079 73.406604,15.3297345 73.406604,15.7773357 C73.406604,16.224937 73.0539484,16.5775925 72.6063472,16.5775925 Z M43.2545565,11.7896155 C42.9290284,11.7896155 42.6306275,11.5725968 42.5085545,11.2741959 L42.3864814,10.9893588 C42.2237173,10.6231396 42.3593541,10.189102 42.6984459,9.9856469 C43.444448,7.74764068 45.5468175,4.56017728 49.7379927,4.56017728 C50.307667,4.56017728 50.9180324,4.61443198 51.5419614,4.73650504 C53.929168,5.18410629 56.3299383,6.58116471 58.6900176,8.85986195 C59.0019821,9.17182646 59.0155458,9.6736824 58.7035813,9.9856469 C58.3916168,10.3111751 57.8897608,10.3111751 57.5777963,9.99921057 C55.4482995,7.93753212 53.3188027,6.68967411 51.2435606,6.29632756 C50.7145773,6.20138184 50.2127213,6.14712714 49.7379927,6.14712714 C45.1263436,6.14712714 44.0819407,10.9351041 44.0412496,11.1385592 C43.9598676,11.5319057 43.6343394,11.7896155 43.2545565,11.7896155 Z M20.9694401,4.64155932 C20.7795486,4.64155932 20.6032209,4.57374095 20.4540205,4.45166789 C20.1149286,4.16683073 20.0742376,3.66497479 20.3590747,3.32588294 C21.4170413,2.07802493 22.8954818,1.15569509 24.7537051,0.57245711 C25.174179,0.43682037 25.6217803,0.680966503 25.757417,1.1014404 C25.8930538,1.52191429 25.6489076,1.96951554 25.2284337,2.10515228 C23.6686112,2.59344454 22.4478806,3.35301029 21.5798054,4.35672217 C21.430605,4.54661361 21.2000225,4.64155932 20.9694401,4.64155932 Z M32.8919096,1.95595186 C32.8240912,1.95595186 32.7562728,1.94238819 32.6748908,1.92882452 C32.2001622,1.80675145 31.7118699,1.69824206 31.210014,1.63042369 C30.7759764,1.56260532 30.4640119,1.15569509 30.5318303,0.721657525 C30.5996487,0.287619955 31.0065589,0.00278280005 31.4405964,0.0434738222 C32.0102708,0.124855866 32.5663814,0.246928933 33.0953647,0.382565673 C33.5158386,0.50463874 33.7735484,0.938676309 33.665039,1.3591502 C33.5700933,1.71180573 33.2445651,1.95595186 32.8919096,1.95595186 Z"></path>
                        </g>
                        <g transform="translate(0.000000, 18.989144)" id="Path">
                            <path d="M81.7618272,3.21737355 L2.455025,3.21737355 C1.57338619,3.21737355 0.854511465,2.49849883 0.854511465,1.61686001 C0.854511465,0.735221199 1.57338619,0.0163464741 2.455025,0.0163464741 L81.7618272,0.0163464741 C82.643466,0.0163464741 83.3623407,0.735221199 83.3623407,1.61686001 C83.3623407,2.49849883 82.643466,3.21737355 81.7618272,3.21737355 Z"></path>
                        </g>
                    </g>
                </g>
                <path d="M138.227402,209.870729 C135.067066,209.870729 132.150876,208.636434 129.980688,206.398428 C129.465269,205.855881 129.478832,205.00137 130.007816,204.48595 C130.550363,203.97053 131.404874,203.97053 131.920294,204.513077 C133.575062,206.2221 135.799505,207.157994 138.173148,207.157994 L140.953701,207.14443 C140.953701,207.14443 140.953701,207.14443 140.953701,207.14443 C141.699703,207.14443 142.310068,207.754795 142.310068,208.500797 C142.310068,209.2468 141.713266,209.857165 140.953701,209.857165 L138.227402,209.870729 Z M151.818204,209.816474 C151.072202,209.816474 150.461836,209.206109 150.461836,208.460106 C150.461836,207.714104 151.058638,207.103739 151.818204,207.103739 L162.669143,207.063048 C162.669143,207.063048 162.669143,207.063048 162.669143,207.063048 C163.415145,207.063048 164.02551,207.673413 164.02551,208.419415 C164.02551,209.165418 163.428709,209.775783 162.669143,209.775783 L151.818204,209.816474 C151.818204,209.816474 151.818204,209.816474 151.818204,209.816474 Z M173.520082,209.735092 C172.77408,209.735092 172.163715,209.124726 172.163715,208.378724 C172.163715,207.632722 172.760516,207.022357 173.520082,207.022357 L184.371021,206.981666 C184.371021,206.981666 184.371021,206.981666 184.371021,206.981666 C185.117023,206.981666 185.727389,207.592031 185.727389,208.338033 C185.727389,209.084035 185.130587,209.694401 184.371021,209.694401 L173.520082,209.735092 C173.520082,209.735092 173.520082,209.735092 173.520082,209.735092 Z M195.221961,209.640146 C194.475959,209.640146 193.865593,209.029781 193.865593,208.283779 C193.865593,207.537777 194.462395,206.927411 195.221961,206.927411 L206.0729,206.88672 C206.506937,206.88672 206.940975,206.846029 207.361449,206.791775 C208.093887,206.683265 208.799198,207.185121 208.907708,207.931123 C209.016217,208.677125 208.514361,209.368873 207.768359,209.477382 C207.212248,209.558764 206.642574,209.613019 206.0729,209.613019 L195.221961,209.640146 C195.221961,209.640146 195.221961,209.640146 195.221961,209.640146 Z M215.526781,202.885436 C215.37758,202.885436 215.22838,202.858309 215.079179,202.804054 C214.373868,202.559908 214.007649,201.773215 214.251795,201.067904 C214.590887,200.118447 214.753651,199.128299 214.753651,198.111023 L214.726524,190.745948 C214.726524,189.999946 215.323326,189.389581 216.082891,189.389581 C216.082891,189.389581 216.082891,189.389581 216.082891,189.389581 C216.828893,189.389581 217.439259,189.999946 217.439259,190.745948 L217.466386,198.111023 C217.466386,199.440263 217.249367,200.742376 216.801766,201.990234 C216.598311,202.546345 216.082891,202.885436 215.526781,202.885436 Z M128.108901,196.700401 C127.362899,196.700401 126.752534,196.090036 126.752534,195.344034 L126.711843,184.493094 C126.711843,183.747092 127.308645,183.136727 128.06821,183.136727 C128.06821,183.136727 128.06821,183.136727 128.06821,183.136727 C128.814212,183.136727 129.424578,183.733529 129.424578,184.493094 L129.465269,195.344034 C129.478832,196.090036 128.868467,196.700401 128.108901,196.700401 C128.122465,196.700401 128.122465,196.700401 128.108901,196.700401 Z M216.028637,181.251376 C215.282635,181.251376 214.672269,180.654575 214.672269,179.895009 L214.631578,169.04407 C214.631578,168.298068 215.22838,167.687702 215.987946,167.687702 C215.987946,167.687702 215.987946,167.687702 215.987946,167.687702 C216.733948,167.687702 217.344313,168.284504 217.344313,169.04407 L217.385004,179.895009 C217.385004,180.641011 216.788202,181.251376 216.028637,181.251376 C216.028637,181.251376 216.028637,181.251376 216.028637,181.251376 Z M128.027519,174.998523 C127.281517,174.998523 126.671152,174.401721 126.671152,173.642155 L126.630461,162.791216 C126.630461,162.045214 127.227263,161.434849 127.986828,161.434849 C127.986828,161.434849 127.986828,161.434849 127.986828,161.434849 C128.73283,161.434849 129.343196,162.03165 129.343196,162.791216 L129.383887,173.642155 C129.383887,174.388157 128.773521,174.998523 128.027519,174.998523 C128.027519,174.998523 128.027519,174.998523 128.027519,174.998523 Z M215.947255,159.549498 C215.201252,159.549498 214.590887,158.952696 214.590887,158.19313 L214.550196,147.342191 C214.550196,146.596189 215.146998,145.985824 215.906564,145.985824 C215.906564,145.985824 215.906564,145.985824 215.906564,145.985824 C216.652566,145.985824 217.262931,146.582625 217.262931,147.342191 L217.303622,158.19313 C217.303622,158.939133 216.693257,159.549498 215.947255,159.549498 C215.947255,159.549498 215.947255,159.549498 215.947255,159.549498 Z M127.932574,153.296644 C127.186572,153.296644 126.576206,152.699842 126.576206,151.940277 L126.535515,141.089337 C126.535515,140.343335 127.132317,139.73297 127.891883,139.73297 C127.891883,139.73297 127.891883,139.73297 127.891883,139.73297 C128.637885,139.73297 129.24825,140.329772 129.24825,141.089337 L129.288941,151.940277 C129.288941,152.686279 128.692139,153.296644 127.932574,153.296644 C127.932574,153.296644 127.932574,153.296644 127.932574,153.296644 Z M215.852309,137.847619 C215.106307,137.847619 214.495941,137.250818 214.495941,136.491252 L214.468814,130.414726 C214.468814,129.031231 214.129722,127.6613 213.49223,126.440569 C213.153138,125.775949 213.410847,124.962129 214.075468,124.609473 C214.740088,124.270382 215.553908,124.528091 215.906564,125.192711 C216.733948,126.793225 217.181549,128.597194 217.195113,130.401162 L217.22224,136.477688 C217.208676,137.237254 216.611875,137.847619 215.852309,137.847619 C215.852309,137.847619 215.852309,137.847619 215.852309,137.847619 Z M127.851192,131.594766 C127.10519,131.594766 126.494824,130.997964 126.494824,130.238398 L126.454133,119.387459 C126.454133,118.641457 127.050935,118.031092 127.810501,118.031092 C128.597194,117.990401 129.166868,118.627893 129.166868,119.387459 L129.207559,130.238398 C129.207559,130.9844 128.597194,131.594766 127.851192,131.594766 C127.851192,131.594766 127.851192,131.594766 127.851192,131.594766 Z M207.361449,119.238259 C207.022357,119.238259 206.669701,119.102622 206.411992,118.844912 L198.694261,111.222127 C198.165278,110.693144 198.151714,109.838632 198.680697,109.309649 C199.209681,108.780666 200.064192,108.767102 200.593176,109.296085 L208.310906,116.91887 C208.839889,117.447854 208.853453,118.302365 208.32447,118.831348 C208.06676,119.102622 207.714104,119.238259 207.361449,119.238259 Z M127.756246,109.892887 C127.010244,109.892887 126.399878,109.296085 126.399878,108.53652 L126.386315,105.281238 C126.386315,102.337921 127.471409,99.5709312 129.451705,97.4414344 C129.967125,96.8988874 130.821636,96.8581964 131.364183,97.373616 C131.90673,97.8890356 131.947421,98.7435471 131.432002,99.286094 C129.926434,100.900171 129.09905,103.016104 129.09905,105.226983 L129.112613,108.522956 C129.112613,109.282522 128.515812,109.892887 127.756246,109.892887 C127.756246,109.892887 127.756246,109.892887 127.756246,109.892887 Z M191.925988,103.979125 C191.586896,103.979125 191.23424,103.843489 190.976531,103.585779 L186.202117,98.8656201 C185.347606,98.0246724 184.343894,97.373616 183.218109,96.9395784 C182.526362,96.6683049 182.173706,95.8816119 182.44498,95.1898645 C182.716253,94.4981171 183.502946,94.1454616 184.194694,94.4167351 C185.65957,94.9864094 186.975247,95.8409208 188.101032,96.9531421 L192.875445,101.673301 C193.404428,102.202284 193.417992,103.056795 192.889009,103.585779 C192.631299,103.843489 192.278643,103.979125 191.925988,103.979125 Z M140.384026,96.5191045 C139.638024,96.5191045 139.027659,95.9223029 139.027659,95.1627371 C139.027659,94.4167351 139.624461,93.8063697 140.384026,93.8063697 L151.234966,93.7656787 C151.234966,93.7656787 151.234966,93.7656787 151.234966,93.7656787 C151.980968,93.7656787 152.591333,94.3624804 152.591333,95.1220461 C152.591333,95.8680482 151.994531,96.4784135 151.234966,96.4784135 L140.384026,96.5191045 C140.39759,96.5191045 140.39759,96.5191045 140.384026,96.5191045 Z M162.085905,96.4241588 C161.339903,96.4241588 160.729537,95.8273572 160.729537,95.0677914 C160.729537,94.3217893 161.326339,93.711424 162.085905,93.711424 L172.936844,93.670733 C172.936844,93.670733 172.936844,93.670733 172.936844,93.670733 C173.682846,93.670733 174.293212,94.2675346 174.293212,95.0271004 C174.293212,95.7731025 173.69641,96.3834678 172.936844,96.3834678 L162.085905,96.4241588 C162.099469,96.4241588 162.099469,96.4241588 162.085905,96.4241588 Z" id="Shape" fill="#EDEDF0"></path>
                <g id="Group" transform="translate(139.705843, 71.887472)">
                    <path d="M57.9033245,71.4127439 C56.2349926,71.4263075 54.6751701,72.0909276 53.5086941,73.2709672 L38.4394523,88.6114826 L38.0461057,44.5024146 L25.5403982,39.4296005 L25.9744358,88.719992 L10.6339205,73.6507501 C9.44031714,72.4842741 7.88049462,71.8467814 6.21216271,71.8603451 C4.54383081,71.8739088 2.98400829,72.5385288 1.81753232,73.7185685 C0.651056354,74.9121718 0.013563674,76.4719943 0.0271273481,78.1403262 C0.0406910221,79.8086581 0.705311051,81.3684806 1.88535069,82.5349566 L27.9547322,108.143173 C29.1483355,109.309649 30.708158,109.947142 32.37649,109.933578 C34.0448219,109.920014 35.6046444,109.255394 36.7711203,108.075355 L62.379337,82.0059733 C63.5458129,80.81237 64.1833056,79.2525475 64.1697419,77.5842156 C64.1561783,75.9158837 63.4915582,74.3560611 62.3115186,73.1895852 C61.1314789,72.0231092 59.5716564,71.3991802 57.9033245,71.4127439 Z" id="Path" fill="#EDEDF0"></path>
                    <path d="M37.7205775,6.80896437 C37.6934502,3.37735484 34.872206,0.610365332 31.4405964,0.63749268 C28.0089869,0.664620028 25.2419974,3.48586423 25.2691248,6.91747376 L25.5539619,39.4160368 L38.0596694,44.4888509 L37.7205775,6.80896437 Z" id="Path" fill="url(#linearGradient-1)"></path>
                </g>
                <path d="M224.926407,21.8103879 C214.346741,11.5562503 201.31205,4.73372224 187.205829,1.81753232 C195.913708,5.3847786 203.943403,11.9089058 210.643858,21.0372585 C221.318469,35.577517 227.422123,55.0413893 227.829033,75.8751926 C227.85616,77.150178 227.517068,78.3709087 226.893139,79.2796748 C226.730375,79.5238209 226.540484,79.7272761 226.350593,79.9171675 L243.698532,79.7679671 C244.932826,79.7544034 246.112866,79.2525475 246.967377,78.3709087 C247.821889,77.4892698 248.296617,76.2956665 248.255926,75.0613722 C247.767634,54.8108068 239.480229,35.9030452 224.926407,21.8103879 Z" id="Path" fill="url(#linearGradient-2)"></path>
                <path d="M115.725267,76.8653408 C115.765958,56.0451012 121.530519,36.4591558 131.947421,21.7425695 C138.647876,12.275125 146.772517,5.53397901 155.656723,1.87178702 C141.184283,4.91005001 127.891883,12.0716699 117.230835,22.7734087 C102.921159,37.1102122 94.9728457,56.1536106 94.837209,76.4041759 C94.8236453,77.6384703 95.3119375,78.8185099 96.1935764,79.7001487 C97.0616515,80.5682239 98.2552548,81.0565161 99.4895491,81.0429524 L117.28509,80.8801884 C117.081634,80.7038606 116.905307,80.5004055 116.728979,80.2562593 C116.091486,79.3474932 115.725267,78.1267625 115.725267,76.8653408 Z" id="Path" fill="url(#linearGradient-3)"></path>
                <path d="M227.829033,75.8751926 C227.422123,55.054953 221.304906,35.577517 210.643858,21.0372585 C203.943403,11.9089058 195.913708,5.3847786 187.205829,1.81753232 C182.770508,0.908766161 178.226677,0.379782873 173.628592,0.257709807 C178.60646,2.60422542 183.245236,10.0099914 186.975247,21.7018785 C191.559769,36.0929366 194.245376,55.3126628 194.51665,75.8480653 C194.530213,77.0959233 194.394576,78.3030903 194.136867,79.1982928 C194.014794,79.6323303 193.865593,79.9714222 193.702829,80.2020047 L226.364156,79.9171675 C226.554048,79.7272761 226.743939,79.5238209 226.906703,79.2796748 C227.517068,78.3709087 227.85616,77.150178 227.829033,75.8751926 Z" id="Path" fill="url(#linearGradient-4)"></path>
                <path d="M147.518519,79.605203 C147.247245,78.7100005 147.084481,77.5028335 147.084481,76.2549755 C147.003099,55.719573 149.336051,36.4455922 153.676427,21.9867156 C157.175855,10.321956 161.638304,2.8754989 166.521226,0.379782873 C162.845471,0.623929006 159.210406,1.11222127 155.656723,1.85822334 C146.772517,5.52041534 138.634312,12.275125 131.947421,21.7290058 C121.530519,36.4455922 115.779522,56.0315375 115.725267,76.8517772 C115.725267,78.1267625 116.077923,79.3474932 116.715415,80.2426957 C116.891743,80.4868418 117.068071,80.6902969 117.271526,80.8666247 L147.96612,80.5953512 C147.81692,80.3783324 147.654156,80.0392406 147.518519,79.605203 Z" id="Path" fill="url(#linearGradient-5)"></path>
                <path d="M166.521226,0.379782873 C161.638304,2.8754989 157.162291,10.321956 153.676427,21.9867156 C149.349615,36.4455922 147.003099,55.719573 147.084481,76.2549755 C147.084481,77.5028335 147.247245,78.7100005 147.518519,79.605203 C147.654156,80.0392406 147.803356,80.3647687 147.979684,80.6089149 L193.689265,80.2020047 C193.85203,79.9578585 194.00123,79.6323303 194.123303,79.1982928 C194.381013,78.3030903 194.51665,77.0959233 194.503086,75.8480653 C194.218249,55.3126628 191.546205,36.0929366 186.961683,21.7018785 C183.231673,10.0099914 178.592896,2.60422542 173.615028,0.257709807 C172.706262,0.230582459 171.797496,0.203455111 170.875166,0.217018785 C169.423853,0.230582459 167.972539,0.298400829 166.521226,0.379782873 Z" id="Path" fill="url(#linearGradient-6)"></path>
            </g>
        </g>
    </g>
</svg>