<?xml version="1.0" standalone="no"?>
<!DOCTYPE svg PUBLIC "-//W3C//DTD SVG 20010904//EN"
 "http://www.w3.org/TR/2001/REC-SVG-20010904/DTD/svg10.dtd">
<svg version="1.0" xmlns="http://www.w3.org/2000/svg"
 width="700.000000pt" height="700.000000pt" viewBox="0 0 700.000000 700.000000"
 preserveAspectRatio="xMidYMid meet">
<metadata>
Created by potrace 1.11, written by Peter Selinger 2001-2013
</metadata>
<g transform="translate(0.000000,700.000000) scale(0.100000,-0.100000)"
fill="#000000" stroke="none">
<path d="M3279 6996 c-2 -2 -40 -6 -84 -10 -44 -3 -98 -8 -120 -11 -22 -3 -58
-7 -80 -10 -22 -3 -51 -7 -65 -10 -14 -3 -52 -10 -85 -16 -274 -49 -603 -159
-879 -294 -874 -428 -1546 -1218 -1816 -2135 -12 -41 -26 -86 -31 -100 -7 -21
-17 -62 -34 -140 -16 -77 -45 -237 -50 -285 -4 -33 -9 -69 -11 -80 -10 -54
-18 -205 -19 -340 0 -143 2 -153 27 -208 49 -104 122 -171 223 -206 59 -20 77
-20 1464 -21 773 0 1407 -2 1409 -5 6 -6 9 -1803 3 -1829 -3 -14 -108 87 -445
427 -243 245 -459 456 -482 470 -124 76 -296 68 -412 -19 -117 -89 -168 -229
-136 -381 19 -93 54 -144 215 -308 81 -82 196 -200 256 -261 146 -151 936
-954 1045 -1064 121 -121 210 -161 347 -156 62 2 85 8 126 31 28 15 61 34 75
41 14 8 121 111 239 231 117 120 398 406 625 637 760 773 708 716 741 809 37
102 30 199 -22 304 -109 220 -403 265 -584 89 -42 -41 -491 -501 -734 -752
-63 -65 -115 -112 -116 -104 -4 64 0 1822 5 1827 3 3 628 6 1388 5 948 -1
1400 2 1438 10 117 22 210 96 264 208 l31 65 -1 180 c0 155 -5 230 -29 412 -2
17 -9 60 -16 95 -6 35 -13 76 -16 92 -2 16 -20 90 -38 165 -116 472 -343 932
-654 1326 -30 39 -60 75 -66 82 -360 404 -677 654 -1112 874 -286 145 -636
262 -943 315 -101 17 -103 18 -195 29 -33 3 -71 9 -85 12 -31 5 -555 14 -561
9z m427 -760 c530 -39 1049 -239 1486 -573 123 -94 359 -324 459 -448 293
-362 512 -854 574 -1287 l7 -48 -853 -1 c-470 0 -1700 -1 -2734 -1 l-1880 -1
1 34 c0 30 7 76 18 134 14 72 62 240 95 336 203 595 612 1105 1163 1450 178
112 434 227 638 288 58 17 119 36 135 41 25 7 104 24 214 45 13 2 49 7 80 11
31 3 59 8 62 10 3 1 55 6 115 10 60 3 110 7 111 8 4 3 231 -2 309 -8z"/>
</g>
</svg>
