<?xml version="1.0" encoding="UTF-8"?>
<svg width="118px" height="59px" viewBox="0 0 118 59" version="1.1" xmlns="http://www.w3.org/2000/svg" xmlns:xlink="http://www.w3.org/1999/xlink">
    <!-- Generator: Sketch 51.1 (57501) - http://www.bohemiancoding.com/sketch -->
    <title>Group</title>
    <desc>Created with Sketch.</desc>
    <defs></defs>
    <g id="Page-1" stroke="none" stroke-width="1" fill="none" fill-rule="evenodd">
        <g id="Group" transform="translate(2.000000, -5.000000)">
            <g id="Group-5" transform="translate(86.841503, 34.526577) rotate(3.000000) translate(-86.841503, -34.526577) translate(54.341503, 2.526577)">
                <circle id="Oval-2" stroke-opacity="0.5" stroke="#0C0C0D" stroke-width="3" transform="translate(32.499214, 31.954331) rotate(11.000000) translate(-32.499214, -31.954331) " cx="32.4992143" cy="31.9543312" r="27.0650466"></circle>
                <path d="M28.020207,44.1875925 C27.4974152,44.1874763 26.9960763,43.9712589 26.6264624,43.5864984 L20.7124121,37.431951 C19.9653252,36.6269796 19.9760096,35.3474371 20.736426,34.5560981 C21.4968423,33.7647591 22.726385,33.7536403 23.4999012,34.5311077 L27.7521034,38.9562273 L40.2031506,20.4454003 C40.831247,19.5292815 42.051282,19.3107606 42.9375457,19.9556419 C43.8238095,20.6005231 44.0454042,21.868032 43.4341935,22.7964374 L29.6347427,43.3115953 C29.3022783,43.8117461 28.7737147,44.1326132 28.1917144,44.1875925 C28.1345816,44.1905933 28.0773398,44.1905933 28.020207,44.1875925 Z" id="Shape" fill="#12BC00" fill-rule="nonzero"></path>
            </g>
            <path d="M0,19.8728801 C3.80326861,19.2140466 7.96993528,19.2140466 12.5,19.8728801 C19.2950971,20.8611303 28.3355757,25.3728801 35,25.3728801 C41.6644243,25.3728801 47.8955852,19.5814393 55.5,18.3728801 C60.5696098,17.5671739 65.4029432,18.0671739 70,19.8728801" id="Line" stroke-opacity="0.5" stroke="#0C0C0D" stroke-width="3" stroke-linecap="square"></path>
            <path d="M0,29.8728801 C3.80326861,29.2140466 7.96993528,29.2140466 12.5,29.8728801 C19.2950971,30.8611303 28.3355757,35.3728801 35,35.3728801 C41.6644243,35.3728801 47.8955852,29.5814393 55.5,28.3728801 C60.5696098,27.5671739 65.4029432,28.0671739 70,29.8728801" id="Line" stroke-opacity="0.5" stroke="#0C0C0D" stroke-width="3" stroke-linecap="square"></path>
            <path d="M0,38.8728801 C3.80326861,38.2140466 7.96993528,38.2140466 12.5,38.8728801 C19.2950971,39.8611303 28.3355757,44.3728801 35,44.3728801 C41.6644243,44.3728801 47.8955852,38.5814393 55.5,37.3728801 C60.5696098,36.5671739 65.4029432,37.0671739 70,38.8728801" id="Line" stroke-opacity="0.5" stroke="#0C0C0D" stroke-width="3" stroke-linecap="square"></path>
            <path d="M0,48.8728801 C3.80326861,48.2140466 7.96993528,48.2140466 12.5,48.8728801 C19.2950971,49.8611303 28.3355757,54.3728801 35,54.3728801 C41.6644243,54.3728801 47.8955852,48.5814393 55.5,47.3728801 C60.5696098,46.5671739 65.4029432,47.0671739 70,48.8728801" id="Line" stroke-opacity="0.5" stroke="#0C0C0D" stroke-width="3" stroke-linecap="square"></path>
        </g>
    </g>
</svg>