<svg width="1440" height="909" viewBox="0 0 1440 909" xmlns="http://www.w3.org/2000/svg" xmlns:xlink="http://www.w3.org/1999/xlink"><defs><path id="a" d="M0 .792h1440v938.017H0z"/></defs><g transform="translate(0 -.792)" fill="none" fill-rule="evenodd"><mask id="b" fill="#fff"><use xlink:href="#a"/></mask><use fill-opacity="0" fill="#FFF" xlink:href="#a"/><g mask="url(#b)" fill="#FFF" fill-rule="nonzero"><g transform="translate(-41 -205.882)"><ellipse cx="43.481" cy="716.468" rx="43.451" ry="43.638"/><path d="M398.104 765.687c34.625 0 62.68-28.181 62.68-62.95 0-34.773-28.06-62.95-62.68-62.95-113.635 0-206.08-92.842-206.08-206.966 0-114.125 92.445-206.968 206.08-206.968 34.625 0 62.68-28.181 62.68-62.95 0-34.768-28.06-62.95-62.68-62.95-182.755 0-331.446 149.331-331.446 332.872 0 183.542 148.691 332.862 331.446 332.862zM107.785 1107.526l112.947-113.433a26.513 26.513 0 007.712-18.705 26.513 26.513 0 00-7.712-18.705L107.785 843.255c-10.288-10.333-26.966-10.333-37.255 0-10.288 10.332-10.288 27.082 0 37.415l94.323 94.723-94.323 94.718c-10.288 10.332-10.288 27.082 0 37.415a26.195 26.195 0 0018.63 7.75 26.234 26.234 0 0018.625-7.75zM1243.533 742.37l308.143-309.463c13.473-13.53 21.043-31.89 21.043-51.033 0-19.145-7.57-37.503-21.043-51.034L1243.533 21.377c-28.072-28.182-73.569-28.182-101.64 0-28.062 28.182-28.062 73.885 0 102.067l257.333 258.43-257.333 258.43c-28.062 28.181-28.062 73.884 0 102.066 14.036 14.096 32.425 21.14 50.82 21.14 18.384 0 36.784-7.049 50.82-21.14z"/><ellipse cx="1417.39" cy="673.515" rx="30" ry="30.129"/><path d="M1068.443 969.594c0 15.73 12.69 28.475 28.353 28.475 15.663 0 28.353-12.745 28.353-28.475 0-51.623 41.817-93.624 93.223-93.624s93.223 41.996 93.223 93.624c0 15.73 12.69 28.475 28.353 28.475 15.663 0 28.353-12.745 28.353-28.475 0-83.023-67.257-150.574-149.929-150.574s-149.93 67.546-149.93 150.574z"/></g></g></g></svg>