<svg xmlns="http://www.w3.org/2000/svg" xmlns:xlink="http://www.w3.org/1999/xlink"><symbol id="icon" viewBox="0 0 26 32"><defs><path d="M21.848 31.665H2.89c-1.563 0-2.786-1.29-2.786-2.786V2.786C.104 1.223 1.395 0 2.89 0h11.824c.747 0 1.495.272 1.97.815L23.82 7.95c.544.544.815 1.223.815 1.97v18.96c0 1.494-1.223 2.785-2.786 2.785z" id="path-1"/></defs><g id="Page-1" stroke="none" stroke-width="1" fill="none" fill-rule="evenodd"><g id="Send_Ready_to_Send-Spec" transform="translate(-277 -206)"><g id="List-Item-1" transform="translate(253 192)"><g id="Locked-File-Icon" transform="translate(24 14)"><g id="File-Icon"><mask id="mask-2" fill="#fff"><use xlink:href="#path-1"/></mask><use id="Mask" fill="#45a1ff" xlink:href="#path-1"/><path d="M24.303 10.647h-7.52a2.731 2.731 0 01-2.732-2.73V.395M7.283 8.939h1.636M7.283 15.78h10.258M7.283 22.62h10.258" id="Path" stroke="currentColor" stroke-width="2" stroke-linecap="round" mask="url(#mask-2)"/></g></g></g></g></g></symbol></svg>