<svg width="336" height="210" viewBox="0 0 336 210" xmlns="http://www.w3.org/2000/svg"><defs><linearGradient x1="-28.184%" y1="-47.212%" x2="84.47%" y2="96.713%" id="a"><stop stop-color="#FA357F" offset="0%"/><stop stop-color="#7878FF" offset="99.91%"/></linearGradient><linearGradient x1="20.196%" y1="50.386%" x2="169.064%" y2="48.68%" id="b"><stop stop-color="#FFF361" offset="0%"/><stop stop-color="#FFA80A" offset="100%"/></linearGradient><linearGradient x1="7.139%" y1="-13.363%" x2="84.321%" y2="120.017%" id="c"><stop stop-color="#FF5162" offset="0%"/><stop stop-color="#83219D" offset="100%"/></linearGradient><linearGradient x1="50.047%" y1="98.747%" x2="50.047%" y2="63.977%" id="d"><stop stop-color="#008787" offset=".43%"/><stop stop-color="#005E5E" offset="99.91%"/></linearGradient><linearGradient x1="34.087%" y1="25.558%" x2="59.477%" y2="63.099%" id="e"><stop stop-color="#FFD943" offset="0%"/><stop stop-color="#FFA80A" offset="100%"/></linearGradient><linearGradient x1="21.663%" y1="-7.191%" x2="65.135%" y2="106.403%" id="f"><stop stop-color="#FF8748" offset="0%"/><stop stop-color="#FE7852" offset="13.28%"/><stop stop-color="#FC546A" offset="50.49%"/><stop stop-color="#FA3D79" offset="80.73%"/><stop stop-color="#FA357F" offset="100%"/></linearGradient></defs><g fill-rule="nonzero" fill="none"><ellipse fill="#EDEDF0" opacity=".5" cx="165.887" cy="198.411" rx="73.526" ry="11.563"/><g fill="#EDEDF0" opacity=".5"><path d="M52.763 164.692h89.971c.722 0 1.313-.59 1.313-1.312 0-.722-.59-1.313-1.313-1.313H52.762c-.721 0-1.312.591-1.312 1.313s.59 1.313 1.313 1.313zM108.006 158.025h22.575a.65.65 0 00.656-.656.65.65 0 00-.656-.656h-22.575a.65.65 0 00-.657.656.65.65 0 00.657.656zM30.712 169.89a.65.65 0 01.657-.656h3.937a.65.65 0 01.657.656.65.65 0 01-.657.656H31.37a.65.65 0 01-.657-.656zm14.438 0a.65.65 0 01.656-.656h15.75a.65.65 0 01.657.656.65.65 0 01-.657.656h-15.75a.65.65 0 01-.656-.656zm27.563 0a.65.65 0 01.656-.656h1.312a.65.65 0 01.657.656.65.65 0 01-.657.656H73.37a.65.65 0 01-.656-.656zm6.562 0a.65.65 0 01.656-.656h3.938a.65.65 0 01.656.656.65.65 0 01-.656.656H79.93a.65.65 0 01-.656-.656zm14.438 0a.65.65 0 01.656-.656h15.75a.65.65 0 01.656.656.65.65 0 01-.656.656h-15.75a.65.65 0 01-.657-.656zM151.397 119.976h145.267c.722 0 1.313-.591 1.313-1.313s-.59-1.312-1.313-1.312H151.397c-.722 0-1.313.59-1.313 1.312 0 .722.591 1.313 1.313 1.313zM171.019 113.413h36.435a.65.65 0 00.656-.656.65.65 0 00-.656-.656h-36.435a.65.65 0 00-.656.656c0 .367.301.656.656.656zM124.582 125.042a.65.65 0 01.657-.656h15.75a.65.65 0 01.656.656.65.65 0 01-.656.656h-15.75a.65.65 0 01-.657-.656zm26.25 0a.65.65 0 01.657-.656h3.937a.65.65 0 01.656.656.65.65 0 01-.656.656h-3.937a.65.65 0 01-.657-.656zm9.188 0a.65.65 0 01.656-.656h1.313a.65.65 0 01.656.656.65.65 0 01-.656.656h-1.313a.65.65 0 01-.656-.656zm13.125 0a.65.65 0 01.656-.656h15.75a.65.65 0 01.656.656.65.65 0 01-.656.656h-15.75a.65.65 0 01-.656-.656zm26.25 0a.65.65 0 01.656-.656h3.938a.65.65 0 01.656.656.65.65 0 01-.656.656h-3.938a.65.65 0 01-.656-.656zm9.187 0a.65.65 0 01.657-.656h1.312a.65.65 0 01.656.656.65.65 0 01-.656.656h-1.312a.65.65 0 01-.657-.656zm13.125 0a.65.65 0 01.657-.656h15.75a.65.65 0 01.656.656.65.65 0 01-.656.656h-15.75a.65.65 0 01-.657-.656zm26.25 0a.65.65 0 01.657-.656h3.937a.65.65 0 01.656.656.65.65 0 01-.656.656h-3.937a.65.65 0 01-.657-.656zm9.188 0a.65.65 0 01.656-.656h1.313a.65.65 0 01.656.656.65.65 0 01-.656.656H257.8a.65.65 0 01-.656-.656zm13.125 0a.65.65 0 01.656-.656h15.75a.65.65 0 01.656.656.65.65 0 01-.656.656h-15.75a.65.65 0 01-.656-.656zm26.25 0a.65.65 0 01.656-.656h3.938a.65.65 0 01.656.656.65.65 0 01-.656.656h-3.938a.65.65 0 01-.656-.656zm9.188 0a.65.65 0 01.656-.656h1.312a.65.65 0 01.656.656.65.65 0 01-.656.656h-1.312a.65.65 0 01-.656-.656zm13.124 0a.65.65 0 01.657-.656h15.75a.65.65 0 01.656.656.65.65 0 01-.656.656h-15.75a.65.65 0 01-.656-.656z"/><g><path d="M2.14 72.608h33.363S25.07 49.27 47.223 46.252C66.99 43.563 74.8 63.88 74.8 63.88s2.35-11.72 14.097-9.476c11.589 2.205 20.147 20.856 20.147 20.856H138.1"/><path d="M138.679 69.746h-8.584a.768.768 0 01-.774-.774c0-.433.34-.774.774-.774h8.584c.433 0 .774.34.774.774a.768.768 0 01-.774.774zm-22.483 0h-1.55a.768.768 0 01-.773-.774c0-.433.34-.774.774-.774h1.549c.433 0 .774.34.774.774a.776.776 0 01-.774.774zm-80.129-.932h-2.48a.768.768 0 01-.775-.774c0-.433.342-.774.775-.774h1.339a35.658 35.658 0 01-.355-.998.783.783 0 01.486-.984.783.783 0 01.984.485c.407 1.195.735 1.93.735 1.943a.81.81 0 01-.052.735.764.764 0 01-.656.367zm-14.83 0H2.703a.768.768 0 01-.775-.774c0-.433.342-.774.775-.774h18.532c.433 0 .775.34.775.774a.776.776 0 01-.775.774zm87.845-.078a.752.752 0 01-.67-.394 61.805 61.805 0 00-2.401-3.898.778.778 0 01.21-1.077.778.778 0 011.076.21 62.868 62.868 0 012.467 4.004c.21.367.08.84-.301 1.05a.878.878 0 01-.381.105zm-75.22-7.941a.765.765 0 01-.76-.67 20.276 20.276 0 01-.171-1.587c-.04-.42.288-.801.708-.827.447-.027.801.275.827.708.04.512.092 1.011.17 1.497a.76.76 0 01-.655.866c-.04.013-.08.013-.119.013zm40.229-3.4a.774.774 0 01-.683-.406 38.745 38.745 0 00-.748-1.313.771.771 0 01.263-1.063.771.771 0 011.063.263c.288.485.55.945.787 1.378.197.38.066.84-.315 1.05a.763.763 0 01-.367.092zm24.517-1.968a.78.78 0 01-.499-.184c-2.953-2.533-5.893-4.095-8.767-4.646-2.822-.538-5.316-.263-7.39.8a.776.776 0 01-1.036-.328.764.764 0 01.328-1.037c2.375-1.233 5.224-1.548 8.387-.945 3.136.604 6.326 2.271 9.489 4.988a.77.77 0 01.079 1.09.841.841 0 01-.59.262zm-28.901-4.384a.77.77 0 01-.578-.262 28.057 28.057 0 00-3.215-3.163.771.771 0 01-.092-1.09.771.771 0 011.09-.092 30.003 30.003 0 013.385 3.334.77.77 0 01-.078 1.09.873.873 0 01-.512.183zm-31.841-4.502a.828.828 0 01-.578-.25.77.77 0 01.053-1.088c2.467-2.232 5.945-3.676 10.342-4.266 2.69-.368 5.329-.328 7.823.105.42.079.695.472.63.892a.772.772 0 01-.893.63c-2.336-.406-4.817-.433-7.35-.091-4.082.564-7.284 1.863-9.516 3.885a.815.815 0 01-.511.183zM139.637 75.679H2.127a1.552 1.552 0 01-1.55-1.549c0-.853.696-1.549 1.55-1.549h137.51c.853 0 1.549.696 1.549 1.549s-.696 1.549-1.55 1.549z"/></g><g><path d="M219.91 60.047h18.624s-5.828-13.02 6.536-14.7c11.025-1.496 15.396 9.83 15.396 9.83s1.312-6.536 7.875-5.289c6.47 1.234 11.248 11.642 11.248 11.642h16.21"/><path d="M239.072 57.96h-18.598a.768.768 0 01-.775-.774c0-.433.342-.775.775-.775h18.598c.433 0 .774.342.774.775a.768.768 0 01-.774.774zm57.29-.25h-.721a.768.768 0 01-.775-.774c0-.433.341-.774.775-.774h.721c.434 0 .775.341.775.774a.768.768 0 01-.774.775zm-6.916 0h-4.647a.768.768 0 01-.774-.774c0-.433.341-.774.774-.774h4.647c.433 0 .774.341.774.774a.768.768 0 01-.774.775zm-28.403-4.633a.8.8 0 01-.722-.498l-.118-.276a.771.771 0 01.302-.971c.722-2.166 2.756-5.25 6.812-5.25.551 0 1.142.052 1.745.17 2.31.434 4.634 1.786 6.917 3.99a.769.769 0 01.014 1.09.757.757 0 01-1.09.013c-2.06-1.995-4.121-3.202-6.13-3.583a8.291 8.291 0 00-1.456-.144c-4.463 0-5.473 4.633-5.513 4.83a.771.771 0 01-.76.63zm-21.564-6.916a.78.78 0 01-.499-.184.771.771 0 01-.092-1.09c1.024-1.207 2.454-2.1 4.253-2.664a.778.778 0 01.97.512.778.778 0 01-.511.971c-1.51.473-2.69 1.208-3.53 2.179a.746.746 0 01-.591.276zm11.537-2.6c-.066 0-.132-.012-.21-.025-.46-.119-.932-.224-1.418-.29a.78.78 0 01-.656-.879c.066-.42.46-.695.88-.656.55.079 1.089.197 1.6.328a.79.79 0 01.552.945.784.784 0 01-.748.578zM296.993 63.157H220.25a1.552 1.552 0 01-1.55-1.548c0-.853.697-1.549 1.55-1.549h76.742c.853 0 1.548.696 1.548 1.549s-.695 1.548-1.549 1.548z"/></g></g><path d="M199.014 201.705l-65.65.276c-5.369.026-9.753-4.319-9.766-9.687l-.367-90.208c-.027-5.381 4.33-9.765 9.712-9.791l40.884-.17a9.665 9.665 0 016.891 2.821l24.846 24.57a9.796 9.796 0 012.9 6.89l.276 65.508c.013 5.381-4.331 9.765-9.726 9.791z" fill="#2AC3A2"/><path d="M127.09 21.105c-10.238-9.923-22.851-16.524-36.501-19.346 8.426 3.452 16.196 9.765 22.68 18.598 10.33 14.07 16.235 32.904 16.63 53.064.025 1.234-.303 2.415-.906 3.295a4.057 4.057 0 01-.525.617l16.786-.145a4.474 4.474 0 003.163-1.352 4.403 4.403 0 001.247-3.202c-.472-19.596-8.491-37.892-22.575-51.529z" fill="url(#a)" transform="translate(90.563)"/><path d="M21.42 74.38c.04-20.147 5.617-39.1 15.697-53.34C43.602 11.877 51.463 5.354 60.06 1.81c-14.004 2.94-26.867 9.87-37.183 20.226C9.03 35.91 1.339 54.337 1.207 73.933a4.434 4.434 0 001.313 3.19 4.453 4.453 0 003.19 1.299l17.22-.158a3.455 3.455 0 01-.539-.603c-.617-.88-.971-2.061-.971-3.282z" fill="url(#b)" transform="translate(90.563)"/><path d="M129.898 73.421c-.394-20.147-6.313-38.994-16.63-53.064-6.483-8.833-14.253-15.146-22.68-18.598A75.438 75.438 0 0077.452.249C82.268 2.52 86.756 9.686 90.366 21c4.436 13.926 7.035 32.524 7.297 52.395.013 1.208-.118 2.376-.367 3.242-.119.42-.263.748-.42.971l31.605-.276c.183-.183.367-.38.525-.616.59-.88.918-2.061.892-3.295z" fill="url(#c)" transform="translate(90.563)"/><path d="M75.679 111.221a5.898 5.898 0 01-5.907-5.906V28.941a5.898 5.898 0 015.907-5.907 5.898 5.898 0 015.906 5.907v76.374a5.907 5.907 0 01-5.906 5.906z" fill="url(#d)" transform="translate(90.563)"/><path d="M52.185 77.03c-.263-.866-.42-2.034-.42-3.241-.079-19.872 2.179-38.522 6.379-52.513C61.53 9.988 65.848 2.782 70.574.367A75.576 75.576 0 0060.06 1.798c-8.597 3.544-16.472 10.08-22.943 19.228-10.08 14.24-15.644 33.193-15.697 53.34 0 1.234.341 2.415.958 3.281.17.237.341.434.538.604l29.702-.262c-.144-.21-.302-.538-.433-.958z" fill="url(#e)" transform="translate(90.563)"/><path d="M70.573.367c-4.725 2.416-9.056 9.621-12.43 20.909-4.186 13.99-6.457 32.642-6.378 52.513 0 1.207.157 2.375.42 3.242.131.42.276.735.446.97l44.231-.393c.158-.236.302-.551.42-.971.25-.866.381-2.034.368-3.242-.276-19.871-2.861-38.47-7.297-52.395C86.743 9.686 82.254 2.52 77.438.25a59.239 59.239 0 00-2.652-.04 90.362 90.362 0 00-4.213.158z" fill="url(#f)" transform="translate(90.563)"/><path d="M160.886 175.967a6.498 6.498 0 01-4.594-1.903L136.79 154.56a6.496 6.496 0 010-9.2 6.496 6.496 0 019.2 0l14.031 14.03 24.662-35.11a6.503 6.503 0 019.056-1.6c2.94 2.06 3.662 6.116 1.601 9.056l-29.098 41.462a6.47 6.47 0 01-4.764 2.743c-.21.013-.394.026-.59.026z" fill="#008787"/></g></svg>