<svg width="336" height="210" viewBox="0 0 336 210" xmlns="http://www.w3.org/2000/svg"><defs><linearGradient x1="-28.184%" y1="-47.212%" x2="84.47%" y2="96.713%" id="linearGradient-1"><stop stop-color="#FA357F" offset="0%"/><stop stop-color="#7878FF" offset="99.91%"/></linearGradient><linearGradient x1="20.196%" y1="50.386%" x2="169.064%" y2="48.68%" id="linearGradient-2"><stop stop-color="#FFF361" offset="0%"/><stop stop-color="#FFA80A" offset="100%"/></linearGradient><linearGradient x1="7.139%" y1="-13.363%" x2="84.321%" y2="120.017%" id="linearGradient-3"><stop stop-color="#FF5162" offset="0%"/><stop stop-color="#83219D" offset="100%"/></linearGradient><linearGradient x1="50.047%" y1="98.747%" x2="50.047%" y2="63.977%" id="linearGradient-4"><stop stop-color="#008787" offset=".43%"/><stop stop-color="#005E5E" offset="99.91%"/></linearGradient><linearGradient x1="34.087%" y1="25.558%" x2="59.477%" y2="63.099%" id="linearGradient-5"><stop stop-color="#FFD943" offset="0%"/><stop stop-color="#FFA80A" offset="100%"/></linearGradient><linearGradient x1="21.663%" y1="-7.191%" x2="65.135%" y2="106.403%" id="linearGradient-6"><stop stop-color="#FF8748" offset="0%"/><stop stop-color="#FE7852" offset="13.28%"/><stop stop-color="#FC546A" offset="50.49%"/><stop stop-color="#FA3D79" offset="80.73%"/><stop stop-color="#FA357F" offset="100%"/></linearGradient></defs><g id="Page-1" stroke="none" stroke-width="1" fill="none" fill-rule="evenodd"><g id="Send_Download-Completed" transform="translate(-552 -339)" fill-rule="nonzero"><g id="firefox-send_illustrations-03" transform="translate(552 339)"><ellipse id="Oval" fill="#EDEDF0" opacity=".5" cx="165.887" cy="198.411" rx="73.526" ry="11.563"/><g id="Group" fill="#EDEDF0" opacity=".5"><g transform="translate(30.188 156.188)"><path d="M1.575 3.255h89.972c.722 0 1.312-.59 1.312-1.313 0-.721-.59-1.312-1.312-1.312H1.575C.853.63.262 1.22.262 1.943c0 .721.591 1.312 1.313 1.312z" transform="translate(21 5.25)" id="Path"/><path d="M1.693 1.837h22.575a.65.65 0 00.656-.656.65.65 0 00-.656-.656H1.693a.65.65 0 00-.656.656.65.65 0 00.656.656z" transform="translate(76.125)" id="Path"/><path d="M.525 1.89a.65.65 0 01.656-.656H5.12a.65.65 0 01.656.656.65.65 0 01-.656.656H1.18a.65.65 0 01-.656-.656zm14.438 0a.65.65 0 01.656-.656h15.75a.65.65 0 01.656.656.65.65 0 01-.656.656h-15.75a.65.65 0 01-.656-.656zm27.562 0a.65.65 0 01.656-.656h1.313a.65.65 0 01.656.656.65.65 0 01-.656.656H43.18a.65.65 0 01-.656-.656zm6.563 0a.65.65 0 01.656-.656h3.937a.65.65 0 01.657.656.65.65 0 01-.657.656h-3.937a.65.65 0 01-.657-.656zm14.437 0a.65.65 0 01.656-.656h15.75a.65.65 0 01.657.656.65.65 0 01-.657.656h-15.75a.65.65 0 01-.656-.656z" transform="translate(0 11.813)" id="Shape"/></g><g transform="translate(123.375 111.563)"><path d="M1.772 3.163h145.267c.722 0 1.313-.59 1.313-1.312 0-.722-.59-1.313-1.313-1.313H1.772c-.722 0-1.313.59-1.313 1.313 0 .721.591 1.312 1.313 1.312z" transform="translate(26.25 5.25)" id="Path"/><path d="M1.706 1.85h36.435a.65.65 0 00.657-.656.65.65 0 00-.657-.656H1.706a.65.65 0 00-.656.656c0 .368.302.657.656.657z" transform="translate(45.938)" id="Path"/><path d="M1.208 1.667a.65.65 0 01.656-.656h15.75a.65.65 0 01.656.656.65.65 0 01-.656.656H1.864a.65.65 0 01-.657-.656zm26.25 0a.65.65 0 01.656-.656h3.937a.65.65 0 01.657.656.65.65 0 01-.657.656h-3.937a.65.65 0 01-.657-.656zm9.187 0a.65.65 0 01.656-.656h1.313a.65.65 0 01.656.656.65.65 0 01-.656.656H37.3a.65.65 0 01-.656-.656zm13.125 0a.65.65 0 01.656-.656h15.75a.65.65 0 01.656.656.65.65 0 01-.656.656h-15.75a.65.65 0 01-.656-.656zm26.25 0a.65.65 0 01.656-.656h3.938a.65.65 0 01.656.656.65.65 0 01-.656.656h-3.938a.65.65 0 01-.656-.656zm9.188 0a.65.65 0 01.656-.656h1.312a.65.65 0 01.656.656.65.65 0 01-.656.656h-1.312a.65.65 0 01-.657-.656zm13.124 0a.65.65 0 01.657-.656h15.75a.65.65 0 01.656.656.65.65 0 01-.656.656h-15.75a.65.65 0 01-.657-.656zm26.25 0a.65.65 0 01.657-.656h3.937a.65.65 0 01.657.656.65.65 0 01-.657.656h-3.937a.65.65 0 01-.657-.656zm9.188 0a.65.65 0 01.656-.656h1.313a.65.65 0 01.656.656.65.65 0 01-.656.656h-1.313a.65.65 0 01-.656-.656zm13.125 0a.65.65 0 01.656-.656h15.75a.65.65 0 01.657.656.65.65 0 01-.657.656h-15.75a.65.65 0 01-.656-.656zm26.25 0a.65.65 0 01.656-.656h3.938a.65.65 0 01.656.656.65.65 0 01-.656.656H173.8a.65.65 0 01-.656-.656zm9.188 0a.65.65 0 01.656-.656h1.312a.65.65 0 01.657.656.65.65 0 01-.657.656h-1.312a.65.65 0 01-.656-.656zm13.125 0a.65.65 0 01.656-.656h15.75a.65.65 0 01.656.656.65.65 0 01-.656.656h-15.75a.65.65 0 01-.656-.656z" transform="translate(0 11.813)" id="Shape"/></g><g transform="translate(0 39.375)"><path d="M2.14 33.233h33.363S25.07 9.896 47.223 6.878C66.99 4.187 74.8 24.504 74.8 24.504s2.35-11.72 14.097-9.476c11.589 2.205 20.147 20.856 20.147 20.856H138.1" id="Path"/><path d="M137.366 30.371h-8.584a.768.768 0 01-.774-.774c0-.433.341-.774.774-.774h8.584c.433 0 .775.34.775.774a.768.768 0 01-.775.774zm-22.483 0h-1.549a.768.768 0 01-.774-.774c0-.433.341-.774.774-.774h1.55c.432 0 .773.34.773.774a.776.776 0 01-.774.774zm-80.128-.932h-2.48a.768.768 0 01-.775-.774c0-.433.341-.774.774-.774h1.34a35.658 35.658 0 01-.355-.998.783.783 0 01.485-.984.783.783 0 01.985.485c.407 1.195.735 1.93.735 1.943a.81.81 0 01-.053.735.764.764 0 01-.656.367zm-14.831 0H1.39a.768.768 0 01-.774-.774c0-.433.341-.774.774-.774h18.533c.433 0 .774.34.774.774a.776.776 0 01-.774.774zm87.845-.078a.752.752 0 01-.669-.394 61.805 61.805 0 00-2.402-3.898.778.778 0 01.21-1.076.778.778 0 011.076.21 62.868 62.868 0 012.468 4.003c.21.367.079.84-.302 1.05a.878.878 0 01-.38.105zM32.55 21.42a.765.765 0 01-.761-.67 20.276 20.276 0 01-.17-1.587c-.04-.42.288-.801.708-.827.446-.027.8.275.827.708.04.512.092 1.011.17 1.497a.76.76 0 01-.656.866c-.04.013-.079.013-.118.013zm40.228-3.4a.774.774 0 01-.682-.406 38.745 38.745 0 00-.749-1.313.771.771 0 01.263-1.063.771.771 0 011.063.263c.289.485.551.945.788 1.378.197.38.065.84-.315 1.05a.763.763 0 01-.368.092zm24.518-1.968a.78.78 0 01-.5-.184c-2.952-2.533-5.892-4.095-8.767-4.646-2.822-.538-5.315-.263-7.389.8a.776.776 0 01-1.037-.328.764.764 0 01.328-1.037c2.376-1.233 5.224-1.548 8.387-.944 3.137.603 6.326 2.27 9.49 4.987a.77.77 0 01.078 1.09.841.841 0 01-.59.262zm-28.902-4.384a.77.77 0 01-.577-.262A28.057 28.057 0 0064.6 8.242a.771.771 0 01-.092-1.089.771.771 0 011.09-.092 30.003 30.003 0 013.386 3.334.77.77 0 01-.079 1.09.873.873 0 01-.512.183zm-31.84-4.502a.828.828 0 01-.578-.25.77.77 0 01.052-1.089c2.468-2.23 5.946-3.675 10.343-4.265 2.69-.368 5.328-.328 7.822.105.42.079.696.472.63.892a.772.772 0 01-.892.63c-2.337-.406-4.817-.433-7.35-.091-4.082.564-7.285 1.863-9.516 3.885a.815.815 0 01-.512.183z" transform="translate(1.313)" id="Shape"/><path d="M139.637 3.491H2.127a1.552 1.552 0 01-1.55-1.549c0-.853.696-1.548 1.55-1.548h137.51c.853 0 1.549.695 1.549 1.548 0 .854-.696 1.55-1.55 1.55z" transform="translate(0 32.813)" id="Path"/></g><g transform="translate(217.875 40.688)"><path d="M2.034 19.36H20.66S14.83 6.34 27.195 4.66c11.025-1.497 15.396 9.83 15.396 9.83s1.312-6.536 7.875-5.29c6.47 1.234 11.248 11.643 11.248 11.643h16.21" id="Path"/><path d="M19.884 17.273H1.286a.768.768 0 01-.774-.775c0-.433.341-.774.774-.774h18.598c.433 0 .775.341.775.774a.768.768 0 01-.775.774zm57.291-.25h-.722a.768.768 0 01-.774-.774c0-.433.341-.775.774-.775h.722c.433 0 .774.342.774.775a.768.768 0 01-.774.774zm-6.917 0h-4.646a.768.768 0 01-.774-.774c0-.433.34-.775.774-.775h4.646c.433 0 .775.342.775.775a.768.768 0 01-.775.774zM41.856 12.39a.8.8 0 01-.722-.499l-.118-.275a.771.771 0 01.302-.972c.721-2.165 2.756-5.25 6.811-5.25.552 0 1.142.053 1.746.171 2.31.433 4.633 1.785 6.917 3.99a.769.769 0 01.013 1.09.757.757 0 01-1.09.013c-2.06-1.995-4.12-3.203-6.129-3.584a8.291 8.291 0 00-1.457-.144c-4.462 0-5.473 4.633-5.512 4.83a.771.771 0 01-.761.63zM20.29 5.473a.78.78 0 01-.498-.184A.771.771 0 0119.7 4.2c1.023-1.208 2.454-2.1 4.252-2.664a.778.778 0 01.971.511.778.778 0 01-.511.972c-1.51.472-2.691 1.207-3.531 2.178a.746.746 0 01-.59.276zm11.537-2.599c-.066 0-.131-.013-.21-.026-.46-.118-.932-.223-1.417-.289a.78.78 0 01-.657-.879c.066-.42.46-.696.88-.656.551.079 1.09.197 1.601.328a.79.79 0 01.551.945.784.784 0 01-.748.577z" transform="translate(1.313)" id="Shape"/><path d="M79.118 4.095H2.376a1.552 1.552 0 01-1.55-1.549c0-.853.697-1.548 1.55-1.548h76.742c.853 0 1.548.695 1.548 1.548 0 .853-.695 1.549-1.548 1.549z" transform="translate(0 18.375)" id="Path"/></g></g><path d="M199.014 201.705l-65.65.276c-5.369.026-9.753-4.319-9.766-9.687l-.367-90.208c-.027-5.381 4.33-9.765 9.712-9.791l40.884-.17a9.665 9.665 0 016.891 2.821l24.846 24.57a9.796 9.796 0 012.9 6.89l.276 65.508c.013 5.381-4.331 9.765-9.726 9.791z" id="Path" fill="#2AC3A2"/><g id="Group" transform="translate(90.563)"><path d="M127.09 21.105c-10.238-9.923-22.851-16.524-36.501-19.346 8.426 3.452 16.196 9.765 22.68 18.598 10.33 14.07 16.235 32.904 16.63 53.064.025 1.234-.303 2.415-.906 3.295a4.057 4.057 0 01-.525.617l16.786-.145a4.474 4.474 0 003.163-1.352 4.403 4.403 0 001.247-3.202c-.472-19.596-8.491-37.892-22.575-51.529z" id="Path" fill="url(#linearGradient-1)"/><path d="M21.42 74.38c.04-20.147 5.617-39.1 15.697-53.34C43.602 11.877 51.463 5.354 60.06 1.81c-14.004 2.94-26.867 9.87-37.183 20.226C9.03 35.91 1.339 54.337 1.207 73.933a4.434 4.434 0 001.313 3.19 4.453 4.453 0 003.19 1.299l17.22-.158a3.455 3.455 0 01-.539-.603c-.617-.88-.971-2.061-.971-3.282z" id="Path" fill="url(#linearGradient-2)"/><path d="M129.898 73.421c-.394-20.147-6.313-38.994-16.63-53.064-6.483-8.833-14.253-15.146-22.68-18.598A75.438 75.438 0 0077.452.249C82.268 2.52 86.756 9.686 90.366 21c4.436 13.926 7.035 32.524 7.297 52.395.013 1.208-.118 2.376-.367 3.242-.119.42-.263.748-.42.971l31.605-.276c.183-.183.367-.38.525-.616.59-.88.918-2.061.892-3.295z" id="Path" fill="url(#linearGradient-3)"/><path d="M75.679 111.221a5.898 5.898 0 01-5.907-5.906V28.941a5.898 5.898 0 015.907-5.907 5.898 5.898 0 015.906 5.907v76.374a5.907 5.907 0 01-5.906 5.906z" id="Path" fill="url(#linearGradient-4)"/><path d="M52.185 77.03c-.263-.866-.42-2.034-.42-3.241-.079-19.872 2.179-38.522 6.379-52.513C61.53 9.988 65.848 2.782 70.574.367A75.576 75.576 0 0060.06 1.798c-8.597 3.544-16.472 10.08-22.943 19.228-10.08 14.24-15.644 33.193-15.697 53.34 0 1.234.341 2.415.958 3.281.17.237.341.434.538.604l29.702-.262c-.144-.21-.302-.538-.433-.958z" id="Path" fill="url(#linearGradient-5)"/><path d="M70.573.367c-4.725 2.416-9.056 9.621-12.43 20.909-4.186 13.99-6.457 32.642-6.378 52.513 0 1.207.157 2.375.42 3.242.131.42.276.735.446.97l44.231-.393c.158-.236.302-.551.42-.971.25-.866.381-2.034.368-3.242-.276-19.871-2.861-38.47-7.297-52.395C86.743 9.686 82.254 2.52 77.438.25a59.239 59.239 0 00-2.652-.04 90.362 90.362 0 00-4.213.158z" id="Path" fill="url(#linearGradient-6)"/></g><path d="M160.886 175.967a6.498 6.498 0 01-4.594-1.903L136.79 154.56a6.496 6.496 0 010-9.2 6.496 6.496 0 019.2 0l14.031 14.03 24.662-35.11a6.503 6.503 0 019.056-1.6c2.94 2.06 3.662 6.116 1.601 9.056l-29.098 41.462a6.47 6.47 0 01-4.764 2.743c-.21.013-.394.026-.59.026z" id="Path" fill="#008787"/></g></g></g></svg>