<svg width="356" height="210" viewBox="0 0 356 210" xmlns="http://www.w3.org/2000/svg"><defs><linearGradient x1="58.313%" y1="123.961%" x2="40.138%" y2="-37.272%" id="a"><stop stop-color="#0A5CC7" offset=".43%"/><stop stop-color="#83219D" offset="99.91%"/></linearGradient><linearGradient x1="-28.175%" y1="-47.211%" x2="84.48%" y2="96.715%" id="b"><stop stop-color="#FA357F" offset="0%"/><stop stop-color="#7878FF" offset="99.91%"/></linearGradient><linearGradient x1="20.19%" y1="50.397%" x2="169.058%" y2="48.691%" id="c"><stop stop-color="#FFF361" offset="0%"/><stop stop-color="#FFA80A" offset="100%"/></linearGradient><linearGradient x1="7.148%" y1="-13.361%" x2="84.33%" y2="120.018%" id="d"><stop stop-color="#FF5162" offset="0%"/><stop stop-color="#83219D" offset="100%"/></linearGradient><linearGradient x1="34.084%" y1="25.56%" x2="59.474%" y2="63.101%" id="e"><stop stop-color="#FFD943" offset="0%"/><stop stop-color="#FFA80A" offset="100%"/></linearGradient><linearGradient x1="21.668%" y1="-7.197%" x2="65.14%" y2="106.397%" id="f"><stop stop-color="#FF8748" offset="0%"/><stop stop-color="#FE7852" offset="13.28%"/><stop stop-color="#FC546A" offset="50.49%"/><stop stop-color="#FA3D79" offset="80.73%"/><stop stop-color="#FA357F" offset="100%"/></linearGradient></defs><g fill-rule="nonzero" fill="none"><g fill="#EDEDF0" opacity=".5"><path d="M55.936 174.425h95.334c.765 0 1.39-.626 1.39-1.39 0-.765-.625-1.391-1.39-1.391H55.936c-.765 0-1.391.626-1.391 1.39 0 .765.626 1.391 1.39 1.391zM114.485 167.36h23.921c.39 0 .695-.306.695-.695a.689.689 0 00-.695-.695h-23.92a.689.689 0 00-.696.695c0 .39.306.695.695.695zM32.572 179.932c0-.389.305-.695.695-.695h4.172c.39 0 .695.306.695.695 0 .39-.306.696-.695.696h-4.172a.707.707 0 01-.695-.696zm15.298 0c0-.389.305-.695.695-.695h16.689c.389 0 .695.306.695.695 0 .39-.306.696-.695.696h-16.69a.707.707 0 01-.694-.696zm29.205 0c0-.389.306-.695.695-.695h1.39c.39 0 .696.306.696.695 0 .39-.306.696-.695.696h-1.39a.707.707 0 01-.696-.696zm6.953 0c0-.389.306-.695.696-.695h4.172c.39 0 .695.306.695.695 0 .39-.306.696-.695.696h-4.172a.707.707 0 01-.696-.696zm15.298 0c0-.389.306-.695.696-.695h16.689c.389 0 .695.306.695.695 0 .39-.306.696-.695.696h-16.69a.707.707 0 01-.695-.696zM160.463 127.03h153.926c.765 0 1.39-.627 1.39-1.392 0-.764-.625-1.39-1.39-1.39H160.463c-.765 0-1.39.626-1.39 1.39 0 .765.611 1.391 1.39 1.391zM181.254 120.075h38.607c.39 0 .695-.305.695-.695a.689.689 0 00-.695-.695h-38.607a.689.689 0 00-.695.695c0 .39.306.695.695.695zM132.036 132.411c0-.39.306-.695.696-.695h16.689c.389 0 .695.306.695.695 0 .39-.306.696-.695.696h-16.69a.697.697 0 01-.695-.696zm27.815 0c0-.39.306-.695.695-.695h4.173c.389 0 .695.306.695.695 0 .39-.306.696-.695.696h-4.173a.697.697 0 01-.695-.696zm9.735 0c0-.39.306-.695.695-.695h1.391c.39 0 .696.306.696.695 0 .39-.306.696-.696.696h-1.39a.697.697 0 01-.696-.696zm13.907 0c0-.39.306-.695.696-.695h16.688c.39 0 .696.306.696.695 0 .39-.306.696-.696.696H184.19a.697.697 0 01-.696-.696zm27.815 0c0-.39.306-.695.695-.695h4.172c.39 0 .696.306.696.695 0 .39-.306.696-.696.696h-4.172a.697.697 0 01-.695-.696zm9.735 0c0-.39.306-.695.695-.695h1.391c.39 0 .696.306.696.695 0 .39-.306.696-.696.696h-1.39a.697.697 0 01-.696-.696zm13.907 0c0-.39.306-.695.696-.695h16.688c.39 0 .696.306.696.695 0 .39-.306.696-.696.696h-16.688a.697.697 0 01-.696-.696zm27.815 0c0-.39.306-.695.695-.695h4.172c.39 0 .696.306.696.695 0 .39-.306.696-.696.696h-4.172a.697.697 0 01-.695-.696zm9.735 0c0-.39.306-.695.695-.695h1.391c.39 0 .695.306.695.695 0 .39-.306.696-.695.696h-1.39a.697.697 0 01-.696-.696zm13.907 0c0-.39.306-.695.696-.695h16.688c.39 0 .696.306.696.695 0 .39-.306.696-.696.696h-16.688a.697.697 0 01-.696-.696zm27.815 0c0-.39.306-.695.695-.695h4.172c.39 0 .696.306.696.695 0 .39-.306.696-.696.696h-4.172a.697.697 0 01-.695-.696zm9.735 0c0-.39.306-.695.695-.695h1.391c.39 0 .695.306.695.695 0 .39-.306.696-.695.696h-1.39a.697.697 0 01-.696-.696zm13.907 0c0-.39.306-.695.696-.695h16.688c.39 0 .696.306.696.695 0 .39-.306.696-.696.696H338.56a.697.697 0 01-.696-.696z"/><g><path d="M2.295 76.852h35.353S26.59 52.125 50.067 48.926c20.944-2.851 29.22 18.677 29.22 18.677s2.488-12.419 14.936-10.04c12.28 2.336 21.347 22.098 21.347 22.098h30.79"/><path d="M146.987 73.82h-9.096a.813.813 0 01-.82-.82c0-.46.361-.821.82-.821h9.096c.459 0 .82.361.82.82 0 .46-.375.82-.82.82zm-23.837 0h-1.641a.813.813 0 01-.82-.82c0-.46.36-.821.82-.821h1.64c.46 0 .821.361.821.82 0 .46-.361.82-.82.82zm-84.89-.988H35.63a.813.813 0 01-.82-.82c0-.459.361-.82.82-.82h1.419a37.784 37.784 0 01-.376-1.058.83.83 0 01.515-1.043.83.83 0 011.043.515c.43 1.266.779 2.044.779 2.058a.858.858 0 01-.056.779.827.827 0 01-.695.39zm-15.73 0H2.907a.813.813 0 01-.82-.82c0-.459.361-.82.82-.82h19.637c.46 0 .82.361.82.82a.843.843 0 01-.834.82zm93.082-.097a.797.797 0 01-.71-.417 65.489 65.489 0 00-2.544-4.13.825.825 0 01.222-1.141.825.825 0 011.14.223 66.614 66.614 0 012.615 4.241c.223.39.084.89-.32 1.113a.71.71 0 01-.403.111zm-79.689-8.4a.81.81 0 01-.806-.71 21.485 21.485 0 01-.181-1.682.813.813 0 01.75-.876c.474-.028.85.292.877.75.042.543.097 1.072.18 1.586a.806.806 0 01-.695.918c-.055.014-.097.014-.125.014zm42.612-3.602a.82.82 0 01-.723-.431c-.237-.431-.5-.904-.793-1.39a.817.817 0 01.278-1.127.817.817 0 011.127.278c.306.514.584 1.001.834 1.46.209.403.07.89-.333 1.113a.947.947 0 01-.39.097zm25.979-2.1a.826.826 0 01-.529-.195c-3.129-2.684-6.244-4.339-9.29-4.923-2.99-.57-5.632-.278-7.83.849a.822.822 0 01-1.098-.348.81.81 0 01.348-1.099c2.517-1.307 5.535-1.64 8.886-1.001 3.324.64 6.704 2.406 10.055 5.285a.816.816 0 01.084 1.154.844.844 0 01-.626.278zM73.89 54.002a.815.815 0 01-.612-.278 29.73 29.73 0 00-3.407-3.352.817.817 0 01-.097-1.154.817.817 0 011.154-.097 31.79 31.79 0 013.588 3.532.816.816 0 01-.084 1.154.864.864 0 01-.542.195zm-33.739-4.77a.878.878 0 01-.612-.264.815.815 0 01.056-1.155c2.614-2.364 6.3-3.894 10.959-4.52 2.85-.389 5.646-.347 8.288.112.445.083.737.5.668.945a.818.818 0 01-.946.668c-2.475-.431-5.104-.46-7.788-.097-4.325.598-7.718 1.974-10.083 4.116a.864.864 0 01-.542.195zM148.002 80.092H2.295a1.644 1.644 0 01-1.64-1.641c0-.904.736-1.641 1.64-1.641h145.707c.904 0 1.641.737 1.641 1.641a1.644 1.644 0 01-1.641 1.641z"/></g><g><path d="M233.059 63.528h19.734s-6.174-13.796 6.926-15.576c11.682-1.585 16.313 10.417 16.313 10.417s1.391-6.926 8.345-5.605c6.856 1.308 11.918 12.336 11.918 12.336h17.176"/><path d="M253.364 61.317h-19.707a.813.813 0 01-.82-.82c0-.46.361-.82.82-.82h19.707c.459 0 .82.36.82.82 0 .459-.361.82-.82.82zm60.705-.25h-.765a.813.813 0 01-.82-.82c0-.46.361-.821.82-.821h.765c.459 0 .82.361.82.82 0 .46-.375.82-.82.82zm-7.33 0h-4.922a.813.813 0 01-.821-.82c0-.46.362-.821.82-.821h4.924c.459 0 .82.361.82.82 0 .46-.361.82-.82.82zm-30.109-4.91a.847.847 0 01-.764-.528l-.126-.292a.817.817 0 01.32-1.03c.765-2.294 2.92-5.562 7.218-5.562.584 0 1.21.056 1.85.18 2.447.46 4.91 1.892 7.329 4.229.32.32.334.834.014 1.154a.802.802 0 01-1.154.014c-2.184-2.114-4.367-3.394-6.495-3.797a8.786 8.786 0 00-1.544-.153c-4.728 0-5.8 4.91-5.84 5.118a.83.83 0 01-.808.668zm-22.835-7.329a.826.826 0 01-.529-.194.817.817 0 01-.097-1.155c1.085-1.279 2.6-2.225 4.506-2.823a.824.824 0 011.029.543.824.824 0 01-.542 1.029c-1.6.5-2.851 1.28-3.741 2.308a.81.81 0 01-.626.292zm12.21-2.767c-.07 0-.139-.014-.222-.028a13.05 13.05 0 00-1.502-.306.827.827 0 01-.696-.932c.07-.445.487-.737.932-.695.584.083 1.155.209 1.697.348.431.125.695.57.584 1.001a.815.815 0 01-.793.612zM314.736 66.825h-81.315a1.644 1.644 0 01-1.642-1.642c0-.904.738-1.64 1.642-1.64h81.315c.904 0 1.641.736 1.641 1.64 0 .904-.737 1.642-1.64 1.642z"/></g></g><path d="M202.658 170.475a6.372 6.372 0 00-4.506 1.906L182.7 188.11l-.404-45.227-12.822-5.2.445 50.538-15.73-15.45a6.36 6.36 0 00-4.533-1.837 6.372 6.372 0 00-4.506 1.906 6.36 6.36 0 00-1.836 4.534 6.372 6.372 0 001.906 4.505l26.73 26.257a6.36 6.36 0 004.533 1.836 6.372 6.372 0 004.506-1.905l26.257-26.73a6.36 6.36 0 001.836-4.534 6.372 6.372 0 00-1.906-4.506 6.373 6.373 0 00-4.52-1.822z" fill="#0060DF"/><path d="M86.017 80.607c-.028-3.519-2.921-6.356-6.44-6.328-3.518.028-6.355 2.92-6.327 6.439l.278 33.322 12.822 5.201-.333-38.634z" fill="url(#a)" transform="translate(95.947)"/><path d="M134.706 22.28C123.858 11.765 110.493 4.77 96.03 1.78c8.928 3.658 17.161 10.347 24.032 19.707 10.945 14.908 17.203 34.88 17.62 56.227.028 1.307-.32 2.559-.96 3.49a4.3 4.3 0 01-.556.654l17.788-.153a4.74 4.74 0 003.351-1.432 4.666 4.666 0 001.321-3.394c-.5-20.763-8.998-40.15-23.92-54.6z" fill="url(#b)" transform="translate(95.947)"/><path d="M22.752 78.715c.042-21.347 5.953-41.43 16.633-56.519 6.87-9.707 15.201-16.62 24.31-20.374C48.856 4.937 35.227 12.28 24.296 23.253 9.624 37.967 1.474 57.493 1.336 78.243a4.698 4.698 0 001.39 3.379c.89.89 2.114 1.39 3.38 1.377l18.246-.167c-.209-.181-.39-.39-.57-.64-.668-.918-1.03-2.17-1.03-3.477z" fill="url(#c)" transform="translate(95.947)"/><path d="M137.682 77.714c-.417-21.348-6.69-41.319-17.62-56.227-6.87-9.36-15.104-16.05-24.032-19.707A79.934 79.934 0 0082.109.18c5.104 2.407 9.86 10 13.684 21.988 4.701 14.756 7.455 34.462 7.733 55.518.014 1.28-.125 2.517-.39 3.435-.125.445-.278.793-.445 1.03l33.49-.293a4.3 4.3 0 00.555-.653c.626-.932.974-2.198.946-3.491z" fill="url(#d)" transform="translate(95.947)"/><path d="M55.351 81.538c-.278-.917-.445-2.155-.445-3.435-.083-21.055 2.309-40.818 6.759-55.643C65.253 10.5 69.828 2.865 74.835.306a80.08 80.08 0 00-11.14 1.516c-9.109 3.755-17.453 10.68-24.31 20.374-10.68 15.09-16.577 35.172-16.633 56.52 0 1.307.362 2.558 1.016 3.476.18.25.361.459.57.64l31.472-.278c-.167-.237-.32-.57-.459-1.016z" fill="url(#e)" transform="translate(95.947)"/><path d="M74.821.306C69.815 2.865 65.225 10.5 61.651 22.46c-4.436 14.825-6.842 34.588-6.759 55.643 0 1.28.167 2.518.445 3.435.14.445.292.78.473 1.03l46.867-.418c.167-.25.32-.584.446-1.029.264-.918.403-2.155.389-3.435-.292-21.056-3.032-40.762-7.733-55.518C91.955 10.18 87.2 2.587 82.095.181a62.77 62.77 0 00-2.81-.042 68.4 68.4 0 00-4.464.167z" fill="url(#f)" transform="translate(95.947)"/></g></svg>