<svg width="356" height="210" viewBox="0 0 356 210" xmlns="http://www.w3.org/2000/svg"><defs><linearGradient x1="58.313%" y1="123.961%" x2="40.138%" y2="-37.272%" id="linearGradient-1"><stop stop-color="#0A5CC7" offset=".43%"/><stop stop-color="#83219D" offset="99.91%"/></linearGradient><linearGradient x1="-28.175%" y1="-47.211%" x2="84.48%" y2="96.715%" id="linearGradient-2"><stop stop-color="#FA357F" offset="0%"/><stop stop-color="#7878FF" offset="99.91%"/></linearGradient><linearGradient x1="20.19%" y1="50.397%" x2="169.058%" y2="48.691%" id="linearGradient-3"><stop stop-color="#FFF361" offset="0%"/><stop stop-color="#FFA80A" offset="100%"/></linearGradient><linearGradient x1="7.148%" y1="-13.361%" x2="84.33%" y2="120.018%" id="linearGradient-4"><stop stop-color="#FF5162" offset="0%"/><stop stop-color="#83219D" offset="100%"/></linearGradient><linearGradient x1="34.084%" y1="25.56%" x2="59.474%" y2="63.101%" id="linearGradient-5"><stop stop-color="#FFD943" offset="0%"/><stop stop-color="#FFA80A" offset="100%"/></linearGradient><linearGradient x1="21.668%" y1="-7.197%" x2="65.14%" y2="106.397%" id="linearGradient-6"><stop stop-color="#FF8748" offset="0%"/><stop stop-color="#FE7852" offset="13.28%"/><stop stop-color="#FC546A" offset="50.49%"/><stop stop-color="#FA3D79" offset="80.73%"/><stop stop-color="#FA357F" offset="100%"/></linearGradient></defs><g id="Page-1" stroke="none" stroke-width="1" fill="none" fill-rule="evenodd"><g id="Send_Went_Wrong" transform="translate(-542 -304)" fill-rule="nonzero"><g id="firefox-send_illustrations-02" transform="translate(541.987 304)"><g id="Group" fill="#EDEDF0" opacity=".5"><g transform="translate(31.987 165.497)"><path d="M1.71 3.366h95.335c.765 0 1.39-.626 1.39-1.391s-.625-1.39-1.39-1.39H1.711C.946.584.32 1.21.32 1.974c0 .765.626 1.39 1.39 1.39z" transform="translate(22.252 5.563)" id="Path"/><path d="M1.85 1.864h23.92c.39 0 .696-.306.696-.696a.689.689 0 00-.696-.695H1.85a.689.689 0 00-.696.695c0 .39.306.696.696.696z" transform="translate(80.662)" id="Path"/><path d="M.598 1.92c0-.39.306-.696.695-.696h4.173c.389 0 .695.306.695.695 0 .39-.306.696-.695.696H1.293a.707.707 0 01-.695-.696zm15.298 0c0-.39.306-.696.695-.696h16.69c.389 0 .694.306.694.695 0 .39-.305.696-.695.696H16.591a.707.707 0 01-.695-.696zm29.205 0c0-.39.306-.696.696-.696h1.39c.39 0 .696.306.696.695 0 .39-.306.696-.696.696h-1.39a.707.707 0 01-.696-.696zm6.954 0c0-.39.306-.696.695-.696h4.173c.389 0 .695.306.695.695 0 .39-.306.696-.695.696H52.75a.707.707 0 01-.695-.696zm15.298 0c0-.39.306-.696.695-.696h16.69c.388 0 .694.306.694.695 0 .39-.306.696-.695.696H68.048a.707.707 0 01-.695-.696z" transform="translate(0 12.517)" id="Shape"/></g><g transform="translate(130.728 118.212)"><path d="M1.933 3.254H155.86c.765 0 1.39-.626 1.39-1.39 0-.765-.625-1.391-1.39-1.391H1.933c-.765 0-1.39.626-1.39 1.39 0 .765.611 1.391 1.39 1.391z" transform="translate(27.815 5.563)" id="Path"/><path d="M1.864 1.864H40.47c.39 0 .696-.306.696-.696a.689.689 0 00-.696-.695H1.864a.689.689 0 00-.696.695c0 .39.306.696.696.696z" transform="translate(48.675)" id="Path"/><path d="M1.321 1.683c0-.39.306-.696.696-.696h16.688c.39 0 .696.306.696.696 0 .39-.306.695-.696.695H2.017a.697.697 0 01-.696-.695zm27.815 0c0-.39.306-.696.695-.696h4.172c.39 0 .696.306.696.696 0 .39-.306.695-.696.695h-4.172a.697.697 0 01-.695-.695zm9.735 0c0-.39.306-.696.695-.696h1.391c.39 0 .695.306.695.696 0 .39-.306.695-.695.695h-1.39a.697.697 0 01-.696-.695zm13.907 0c0-.39.306-.696.696-.696h16.688c.39 0 .696.306.696.696 0 .39-.306.695-.696.695H53.474a.697.697 0 01-.696-.695zm27.815 0c0-.39.306-.696.695-.696h4.172c.39 0 .696.306.696.696 0 .39-.306.695-.696.695h-4.172a.697.697 0 01-.695-.695zm9.735 0c0-.39.306-.696.695-.696h1.39c.39 0 .696.306.696.696 0 .39-.306.695-.695.695h-1.39a.697.697 0 01-.696-.695zm13.907 0c0-.39.306-.696.695-.696h16.69c.389 0 .695.306.695.696 0 .39-.306.695-.696.695H104.93a.697.697 0 01-.695-.695zm27.815 0c0-.39.306-.696.695-.696h4.172c.39 0 .696.306.696.696 0 .39-.306.695-.696.695h-4.172a.697.697 0 01-.695-.695zm9.735 0c0-.39.306-.696.695-.696h1.39c.39 0 .696.306.696.696 0 .39-.306.695-.695.695h-1.39a.697.697 0 01-.696-.695zm13.907 0c0-.39.306-.696.695-.696h16.69c.389 0 .695.306.695.696 0 .39-.306.695-.696.695h-16.689a.697.697 0 01-.695-.695zm27.815 0c0-.39.306-.696.695-.696h4.172c.39 0 .696.306.696.696 0 .39-.306.695-.696.695h-4.172a.697.697 0 01-.695-.695zm9.735 0c0-.39.306-.696.695-.696h1.39c.39 0 .696.306.696.696 0 .39-.306.695-.695.695h-1.39a.697.697 0 01-.696-.695zm13.907 0c0-.39.306-.696.695-.696h16.69c.389 0 .694.306.694.696 0 .39-.305.695-.695.695h-16.689a.697.697 0 01-.695-.695z" transform="translate(0 12.517)" id="Shape"/></g><g transform="translate(0 41.722)"><path d="M2.309 35.13H37.66S26.605 10.403 50.08 7.204c20.944-2.851 29.218 18.677 29.218 18.677s2.49-12.419 14.937-10.04c12.28 2.336 21.347 22.098 21.347 22.098h30.791" id="Path"/><path d="M145.61 32.098h-9.096a.813.813 0 01-.82-.82c0-.46.361-.821.82-.821h9.095c.46 0 .82.362.82.82 0 .46-.375.821-.82.821zm-23.838 0h-1.64a.813.813 0 01-.821-.82c0-.46.361-.821.82-.821h1.641c.46 0 .82.362.82.82 0 .46-.36.821-.82.821zm-84.89-.987h-2.628a.813.813 0 01-.82-.82c0-.46.36-.821.82-.821h1.418a37.784 37.784 0 01-.375-1.057.83.83 0 01.514-1.043.83.83 0 011.043.514c.431 1.266.78 2.044.78 2.058a.858.858 0 01-.057.78.827.827 0 01-.695.389zm-15.729 0H1.53a.813.813 0 01-.82-.82c0-.46.36-.821.82-.821h19.637c.459 0 .82.361.82.82a.843.843 0 01-.834.82zm93.081-.098a.797.797 0 01-.709-.417 65.489 65.489 0 00-2.545-4.13.825.825 0 01.223-1.14.825.825 0 011.14.222 66.614 66.614 0 012.615 4.241c.222.39.083.89-.32 1.113a.71.71 0 01-.404.111zm-79.688-8.4a.81.81 0 01-.807-.709 21.485 21.485 0 01-.18-1.683.813.813 0 01.75-.876c.473-.028.849.292.876.751.042.542.098 1.07.181 1.585a.806.806 0 01-.695.918c-.056.014-.097.014-.125.014zm42.612-3.602a.82.82 0 01-.724-.43c-.236-.432-.5-.905-.792-1.392a.817.817 0 01.278-1.126.817.817 0 011.126.278c.306.515.584 1.001.835 1.46.208.404.07.89-.334 1.113a.947.947 0 01-.39.097zm25.978-2.1a.826.826 0 01-.528-.194c-3.13-2.685-6.244-4.34-9.29-4.924-2.99-.57-5.633-.278-7.83.849a.822.822 0 01-1.099-.348.81.81 0 01.348-1.099c2.517-1.307 5.535-1.64 8.887-1.001 3.324.64 6.703 2.406 10.055 5.285a.816.816 0 01.083 1.154.844.844 0 01-.626.278zm-30.623-4.63a.815.815 0 01-.612-.279 29.73 29.73 0 00-3.408-3.352.817.817 0 01-.097-1.154.817.817 0 011.154-.097 31.79 31.79 0 013.588 3.532.816.816 0 01-.083 1.154.864.864 0 01-.542.195zM38.773 7.51a.878.878 0 01-.611-.264.815.815 0 01.055-1.155c2.615-2.364 6.3-3.894 10.96-4.52 2.85-.389 5.646-.347 8.288.112.445.083.737.5.667.945a.818.818 0 01-.945.668c-2.476-.431-5.104-.459-7.788-.097-4.325.598-7.719 1.975-10.083 4.116a.864.864 0 01-.542.195z" transform="translate(1.39)" id="Shape"/><path d="M148.015 3.602H2.31A1.644 1.644 0 01.668 1.961c0-.904.737-1.641 1.64-1.641h145.707c.904 0 1.641.737 1.641 1.64a1.644 1.644 0 01-1.64 1.642z" transform="translate(0 34.768)" id="Path"/></g><g transform="translate(230.86 43.113)"><path d="M2.211 20.416h19.735S15.77 6.62 28.872 4.84c11.682-1.586 16.313 10.416 16.313 10.416s1.39-6.926 8.344-5.604c6.856 1.307 11.919 12.335 11.919 12.335h17.175" id="Path"/><path d="M21.125 18.205H1.42a.813.813 0 01-.821-.82c0-.46.362-.821.82-.821h19.707c.46 0 .82.361.82.82 0 .459-.36.82-.82.82zm60.705-.25h-.764a.813.813 0 01-.821-.821c0-.46.362-.82.82-.82h.765c.46 0 .821.36.821.82 0 .459-.376.82-.82.82zm-7.329 0h-4.923a.813.813 0 01-.82-.821c0-.46.361-.82.82-.82h4.923c.46 0 .82.36.82.82 0 .459-.36.82-.82.82zm-30.109-4.91a.847.847 0 01-.765-.528l-.125-.292a.817.817 0 01.32-1.03c.765-2.294 2.92-5.563 7.218-5.563.584 0 1.21.056 1.85.181 2.447.46 4.909 1.892 7.329 4.228.32.32.333.834.013 1.154a.802.802 0 01-1.154.014c-2.183-2.114-4.367-3.393-6.495-3.796a8.786 8.786 0 00-1.543-.153c-4.729 0-5.8 4.909-5.841 5.117a.83.83 0 01-.807.668zm-22.836-7.33a.826.826 0 01-.528-.194.817.817 0 01-.098-1.154c1.085-1.28 2.601-2.225 4.506-2.823a.824.824 0 011.03.542.824.824 0 01-.543 1.03c-1.6.5-2.85 1.279-3.74 2.308a.81.81 0 01-.627.292zm12.21-2.767c-.069 0-.138-.014-.222-.027a13.05 13.05 0 00-1.502-.306.827.827 0 01-.695-.932c.07-.445.487-.737.932-.696.584.084 1.154.209 1.696.348.432.125.696.57.585 1.001a.815.815 0 01-.793.612z" transform="translate(1.39)" id="Shape"/><path d="M83.889 4.242H2.573A1.644 1.644 0 01.932 2.6c0-.904.737-1.641 1.64-1.641H83.89c.904 0 1.64.737 1.64 1.64 0 .905-.736 1.642-1.64 1.642z" transform="translate(0 19.47)" id="Path"/></g></g><g id="Group" transform="translate(95.96)"><path d="M106.71 170.475a6.372 6.372 0 00-4.505 1.906L86.754 188.11l-.404-45.227-12.822-5.2.445 50.538-15.73-15.45a6.36 6.36 0 00-4.533-1.837 6.372 6.372 0 00-4.506 1.906 6.36 6.36 0 00-1.836 4.534 6.372 6.372 0 001.906 4.505l26.73 26.257a6.36 6.36 0 004.533 1.836 6.372 6.372 0 004.506-1.905l26.257-26.73a6.36 6.36 0 001.836-4.534 6.372 6.372 0 00-1.906-4.506 6.373 6.373 0 00-4.52-1.822z" id="Path" fill="#0060DF"/><path d="M86.017 80.607c-.028-3.519-2.921-6.356-6.44-6.328-3.518.028-6.355 2.92-6.327 6.439l.278 33.322 12.822 5.201-.333-38.634z" id="Path" fill="url(#linearGradient-1)"/><path d="M134.706 22.28C123.858 11.765 110.493 4.77 96.03 1.78c8.928 3.658 17.161 10.347 24.032 19.707 10.945 14.908 17.203 34.88 17.62 56.227.028 1.307-.32 2.559-.96 3.49a4.3 4.3 0 01-.556.654l17.788-.153a4.74 4.74 0 003.351-1.432 4.666 4.666 0 001.321-3.394c-.5-20.763-8.998-40.15-23.92-54.6z" id="Path" fill="url(#linearGradient-2)"/><path d="M22.752 78.715c.042-21.347 5.953-41.43 16.633-56.519 6.87-9.707 15.201-16.62 24.31-20.374C48.856 4.937 35.227 12.28 24.296 23.253 9.624 37.967 1.474 57.493 1.336 78.243a4.698 4.698 0 001.39 3.379c.89.89 2.114 1.39 3.38 1.377l18.246-.167c-.209-.181-.39-.39-.57-.64-.668-.918-1.03-2.17-1.03-3.477z" id="Path" fill="url(#linearGradient-3)"/><path d="M137.682 77.714c-.417-21.348-6.69-41.319-17.62-56.227-6.87-9.36-15.104-16.05-24.032-19.707A79.934 79.934 0 0082.109.18c5.104 2.407 9.86 10 13.684 21.988 4.701 14.756 7.455 34.462 7.733 55.518.014 1.28-.125 2.517-.39 3.435-.125.445-.278.793-.445 1.03l33.49-.293a4.3 4.3 0 00.555-.653c.626-.932.974-2.198.946-3.491z" id="Path" fill="url(#linearGradient-4)"/><path d="M55.351 81.538c-.278-.917-.445-2.155-.445-3.435-.083-21.055 2.309-40.818 6.759-55.643C65.253 10.5 69.828 2.865 74.835.306a80.08 80.08 0 00-11.14 1.516c-9.109 3.755-17.453 10.68-24.31 20.374-10.68 15.09-16.577 35.172-16.633 56.52 0 1.307.362 2.558 1.016 3.476.18.25.361.459.57.64l31.472-.278c-.167-.237-.32-.57-.459-1.016z" id="Path" fill="url(#linearGradient-5)"/><path d="M74.821.306C69.815 2.865 65.225 10.5 61.651 22.46c-4.436 14.825-6.842 34.588-6.759 55.643 0 1.28.167 2.518.445 3.435.14.445.292.78.473 1.03l46.867-.418c.167-.25.32-.584.446-1.029.264-.918.403-2.155.389-3.435-.292-21.056-3.032-40.762-7.733-55.518C91.955 10.18 87.2 2.587 82.095.181a62.77 62.77 0 00-2.81-.042 68.4 68.4 0 00-4.464.167z" id="Path" fill="url(#linearGradient-6)"/></g></g></g></g></svg>