<svg viewBox="0 0 65 64" height="64" width="65" xmlns="http://www.w3.org/2000/svg"><defs><linearGradient id="linear-gradient" x1="46.37" y1="59.71" x2="15.42" y2="6.11" gradientTransform="matrix(1 0 0 -1 0 64)" gradientUnits="userSpaceOnUse"><stop offset="0" stop-color="#ff980e"/><stop offset=".21" stop-color="#ff7139"/><stop offset=".36" stop-color="#ff5854"/><stop offset=".46" stop-color="#ff4f5e"/><stop offset=".69" stop-color="#ff3750"/><stop offset=".86" stop-color="#f92261"/><stop offset="1" stop-color="#f5156c"/></linearGradient><linearGradient id="linear-gradient-2" x1="46.37" y1="59.71" x2="15.42" y2="6.11" gradientTransform="matrix(1 0 0 -1 0 64)" gradientUnits="userSpaceOnUse"><stop offset="0" stop-color="#fff44f" stop-opacity=".8"/><stop offset=".09" stop-color="#fff44f" stop-opacity=".7"/><stop offset=".75" stop-color="#fff44f" stop-opacity="0"/></linearGradient><linearGradient id="linear-gradient-3" x1="40.19" y1="26.08" x2="54.32" y2="50.55" gradientTransform="matrix(1 0 0 -1 0 64)" gradientUnits="userSpaceOnUse"><stop offset="0" stop-color="#3a8ee6"/><stop offset=".24" stop-color="#5c79f0"/><stop offset=".63" stop-color="#9059ff"/><stop offset="1" stop-color="#c139e6"/></linearGradient><linearGradient id="linear-gradient-4" x1="54.32" y1="50.58" x2="48.39" y2="40.31" gradientTransform="matrix(1 0 0 -1 0 64)" gradientUnits="userSpaceOnUse"><stop offset="0" stop-color="#6e008b" stop-opacity=".5"/><stop offset=".5" stop-color="#c846cb" stop-opacity="0"/></linearGradient><linearGradient id="linear-gradient-5" x1="56.96" y1="22.5" x2="41.98" y2="37.46" gradientTransform="matrix(1 0 0 -1 0 64)" gradientUnits="userSpaceOnUse"><stop offset=".14" stop-color="#6a2bea" stop-opacity="0"/><stop offset=".34" stop-color="#642de4" stop-opacity=".03"/><stop offset=".55" stop-color="#5131d3" stop-opacity=".12"/><stop offset=".76" stop-color="#3139b7" stop-opacity=".27"/><stop offset=".98" stop-color="#054490" stop-opacity=".48"/><stop offset="1" stop-color="#00458b" stop-opacity=".5"/></linearGradient></defs><path d="M32.56 0C14.61 0 0 14.33 0 31.94a3.42 3.42 0 003.42 3.42h25.72V52.3l-8-8a3.42 3.42 0 10-4.84 4.84L30.14 63a2.73 2.73 0 00.25.23l.23.17h.05l.24.14.27.13.28.1.29.07.25.16h1.27l.29-.07.29-.1.27-.13.24-.14.24-.17.4-.39 13.8-13.82a3.43 3.43 0 00-4.8-4.84l-8 8v-17h25.7a3.42 3.42 0 003.42-3.42C65.12 14.33 50.51 0 32.56 0zM7.09 28.51A25.54 25.54 0 0132.56 6.85 25.55 25.55 0 0158 28.51z" fill="url(#linear-gradient)"/><path d="M32.56 0C14.61 0 0 14.33 0 31.94a3.42 3.42 0 003.42 3.42h25.72V52.3l-8-8a3.42 3.42 0 10-4.84 4.84L30.14 63a2.73 2.73 0 00.25.23l.23.17h.05l.24.14.27.13.28.1.29.07.25.16h1.27l.29-.07.29-.1.27-.13.24-.14.24-.17.4-.39 13.8-13.82a3.43 3.43 0 00-4.8-4.84l-8 8v-17h25.7a3.42 3.42 0 003.42-3.42C65.12 14.33 50.51 0 32.56 0zM7.09 28.51A25.54 25.54 0 0132.56 6.85 25.55 25.55 0 0158 28.51z" fill="url(#linear-gradient-2)"/><path d="M36 7.08a25.45 25.45 0 0122 21.43H42.85A6.85 6.85 0 0036 35.36h25.7a3.43 3.43 0 003.42-3.43c0-12.2-8.63-18.13-16-21.59A35.75 35.75 0 0036 7.08z" fill="url(#linear-gradient-3)"/><path d="M57.89 27.76c2.31 1.86 4.63 3.71 6.9 5.61a3.27 3.27 0 00.33-1.44c0-12.2-8.63-18.13-16-21.59A35.75 35.75 0 0036 7.08a25.47 25.47 0 0121.89 20.68z" fill="url(#linear-gradient-4)"/><path d="M57.5 28.51H42.85A6.85 6.85 0 0036 35.36h25.7a3.36 3.36 0 002.64-1.28c-2.25-1.89-4.55-3.72-6.84-5.57z" opacity=".9" fill="url(#linear-gradient-5)"/></svg>