<svg viewBox="0 0 264 179" xmlns="http://www.w3.org/2000/svg" fill-rule="evenodd" clip-rule="evenodd" stroke-linejoin="round" stroke-miterlimit="1.414"><g opacity=".5" fill="#ededf0" fill-rule="nonzero"><path d="M55.288 83.341l21.32.01s-6.67-14.91 7.5-16.84c12.63-1.72 17.62 11.27 17.62 11.27s1.5-7.49 9.01-6.05c7.41 1.41 12.87 13.33 12.87 13.33h18.57"/><path d="M142.538 81.551h-4.01c-.28 0-.5-.22-.5-.5s.22-.5.5-.5h4.01c.28 0 .5.22.5.5 0 .27-.22.5-.5.5zm-13.01-.01h-1c-.28 0-.5-.22-.5-.5s.22-.5.5-.5h1c.28 0 .5.22.5.5s-.22.5-.5.5zm-5 0h-.56c-.19 0-.36-.11-.45-.28-.11-.21-.52-.99-1.2-2.08a.504.504 0 01.16-.69c.23-.15.54-.07.69.16.53.85.9 1.52 1.1 1.89h.26c.28 0 .5.22.5.5s-.22.5-.5.5zm-47.56-.61h-1.32c-.28 0-.5-.22-.5-.5s.22-.5.5-.5h.58c-.09-.25-.2-.56-.32-.92a.51.51 0 01.32-.63c.26-.08.54.06.63.32.3.93.56 1.52.56 1.53.07.15.06.33-.04.48-.1.15-.24.22-.41.22zm-9.32 0h-12c-.28 0-.5-.22-.5-.5s.22-.5.5-.5h12c.28 0 .5.22.5.5s-.22.5-.5.5zm7.87-5.48c-.25 0-.47-.19-.5-.44-.04-.34-.07-.68-.09-1.03-.02-.28.19-.51.47-.53.27-.01.51.19.53.47.02.33.05.65.09.97a.51.51 0 01-.44.56h-.06zm26.14-1.04c-.19 0-.36-.1-.45-.28-.12-.25-.27-.54-.45-.87a.506.506 0 01.2-.68c.24-.13.55-.04.68.2.19.34.34.65.47.91a.5.5 0 01-.23.67.42.42 0 01-.22.05zm16.12-1.25c-.12 0-.25-.05-.35-.14-2.16-2.07-4.32-3.32-6.43-3.72-1.44-.27-2.75-.22-3.88.16a.489.489 0 01-.63-.32c-.09-.26.05-.54.32-.63 1.3-.43 2.78-.5 4.39-.19 2.3.44 4.63 1.78 6.93 3.98.2.19.21.51.02.71-.11.09-.24.15-.37.15zm-18.8-2.96c-.15 0-.29-.06-.39-.19-.63-.78-1.3-1.5-2-2.13-.2-.19-.22-.5-.03-.71.19-.21.5-.22.71-.03.74.67 1.45 1.43 2.1 2.24.17.21.14.53-.08.7-.09.08-.2.12-.31.12zm-20.48-3.82c-.15 0-.29-.06-.39-.19a.495.495 0 01.08-.7c1.54-1.24 3.64-2.04 6.22-2.39 1.97-.27 3.87-.2 5.66.2a.503.503 0 01-.22.98c-1.68-.37-3.46-.44-5.31-.18-2.4.33-4.33 1.06-5.73 2.18-.09.06-.2.1-.31.1zM143.148 85.341l-87.87-.02c-.55 0-1-.45-1-1s.45-1 1-1l87.87.02c.55 0 1 .45 1 1s-.45 1-1 1z"/></g><g opacity=".5" fill="#ededf0" fill-rule="nonzero"><path d="M256.128 105.681c.21-.31.52-.87.21-1.17-.26-.19-.57-.28-.89-.26-.74.02-1.46.28-2.05.74-1.22.92-2.34 2.39-2.1 3.16 2.17-.55 4.1-1.41 4.83-2.47zM74.938 118.071c3.84.09 7.62-.93 10.89-2.94 2.97-1.85 6.42-2.78 9.92-2.7 3.5-.09 6.95.85 9.93 2.7a21.639 21.639 0 0021.78 0c6.14-3.6 13.74-3.6 19.88 0a21.639 21.639 0 0021.78 0c6.14-3.6 13.74-3.6 19.88 0 3.27 2.01 7.05 3.03 10.89 2.94.55 0 1-.45 1-1s-.45-1-1-1c-3.51.09-6.96-.85-9.94-2.7a21.639 21.639 0 00-21.78 0c-6.14 3.6-13.74 3.6-19.88 0a21.639 21.639 0 00-21.78 0 19.676 19.676 0 01-19.87 0 19.899 19.899 0 00-10.89-2.94c-3.84-.09-7.62.93-10.89 2.94a17.962 17.962 0 01-9.94 2.7c-3.51.09-6.96-.85-9.94-2.7a19.899 19.899 0 00-10.89-2.94c-.55 0-1 .45-1 1s.45 1 1 1c3.51-.09 6.96.85 9.94 2.7 3.27 2.01 7.06 3.03 10.91 2.94z"/><path d="M263.088 107.011a.504.504 0 00-.7-.08c-2.75 1.82-5.92 2.9-9.2 3.16-1.24.2-2.5.2-3.74 0 2-.62 3.76-1.49 4.55-2.63 1-1.37.38-2.18.09-2.46-.88-.85-2.82-.67-4.24.4-1.07.8-2.89 2.67-2.48 4.2-1.58.36-3.19.59-4.81.68-.28 0-.5.22-.5.5s.22.5.5.5c1.8-.1 3.59-.37 5.35-.79.88.71 2.64.92 5.34.62 6.26-.7 9.57-3.26 9.71-3.37.23-.15.31-.46.16-.69-.01-.01-.02-.03-.03-.04zm-12.65-.84c.59-.46 1.31-.72 2.05-.74.32-.02.63.07.89.26.31.3 0 .86-.21 1.17-.73 1.06-2.66 1.89-4.83 2.47-.23-.78.88-2.25 2.1-3.16zM160.338 111.451c-.3 0-.57-.23-.6-.54-.03-.33.21-.62.54-.66 1.29-.13 2.47-.38 3.59-.78.31-.11.65.05.77.37.11.31-.05.66-.37.77-1.21.43-2.48.71-3.87.84h-.06zM203.398 111.291a.6.6 0 01-.59-.5c-.06-.33.16-.64.49-.69 3.01-.52 4.91-1.74 6.75-2.92.28-.18.65-.1.83.18.18.28.1.65-.18.83-1.85 1.19-3.95 2.53-7.2 3.09-.03 0-.07.01-.1.01zM154.618 111.241c-.04 0-.07 0-.11-.01-3.1-.58-5.12-1.87-7.06-3.12l-.09-.06a.599.599 0 01-.18-.83c.18-.28.55-.36.83-.18l.09.06c1.94 1.24 3.77 2.41 6.64 2.95a.6.6 0 01.48.7.61.61 0 01-.6.49zM237.888 111.171c-.04 0-.08 0-.12-.01-2.89-.61-4.82-1.85-6.69-3.04l-.4-.25a.599.599 0 01-.18-.83c.18-.28.55-.36.83-.18l.4.25c1.86 1.19 3.62 2.31 6.3 2.88.32.07.53.39.46.71-.07.28-.32.47-.6.47zM195.788 111.111c-.04 0-.09-.01-.14-.02-.33-.08-.65-.16-.96-.25-.32-.1-.5-.43-.4-.75.1-.32.43-.5.75-.4.28.09.58.17.89.24.32.07.52.4.45.72-.07.27-.32.46-.59.46zM191.368 109.321c-.1 0-.21-.03-.3-.08-.63-.36-1.22-.74-1.82-1.12-.48-.3-.95-.61-1.44-.9a.602.602 0 01-.21-.82c.17-.29.54-.38.82-.21.5.3.99.61 1.47.92.58.37 1.16.74 1.77 1.1.29.17.38.53.22.82-.1.18-.3.29-.51.29zM167.498 108.951c-.2 0-.4-.1-.51-.29a.614.614 0 01.2-.83c.27-.17.54-.33.8-.5.28-.18.65-.1.83.18.18.28.1.65-.18.83-.27.17-.54.34-.82.51-.11.08-.21.1-.32.1zM215.458 105.661a.606.606 0 01-.18-1.18c1.21-.39 2.48-.64 3.89-.75.35-.04.62.22.65.55.03.33-.22.62-.55.65-1.31.1-2.49.33-3.61.7-.08.02-.14.03-.2.03zM132.178 105.551c-.26 0-.5-.17-.58-.43-.09-.32.09-.65.4-.75 1.21-.36 2.49-.58 3.9-.67.33-.04.62.23.64.56.02.33-.23.62-.56.64-1.32.08-2.51.28-3.63.62-.06.02-.12.03-.17.03zM175.208 105.241a.602.602 0 01-.13-1.19c1.25-.26 2.57-.39 4.05-.39 1.38 0 2.62.11 3.8.34a.6.6 0 01-.22 1.18c-1.1-.21-2.27-.32-3.57-.32-1.39 0-2.64.12-3.8.36-.05.02-.09.02-.13.02zM140.708 105.141c-.03 0-.07 0-.1-.01-.29-.05-.6-.09-.91-.13a.613.613 0 01-.53-.67c.04-.33.35-.57.67-.53.34.04.66.09.98.14.33.06.55.37.49.69-.06.3-.31.51-.6.51zM223.978 105.081c-.03 0-.06 0-.09-.01-.3-.04-.6-.08-.92-.11a.605.605 0 01-.54-.66.6.6 0 01.66-.54c.34.03.66.07.98.12.33.05.55.36.5.68-.04.31-.3.52-.59.52z"/></g><g opacity=".5" fill="#ededf0" fill-rule="nonzero"><path d="M171.248 20.401l21.32.01s-6.67-14.91 7.5-16.84c12.63-1.72 17.62 11.27 17.62 11.27s1.5-7.49 9.01-6.05c7.41 1.41 12.87 13.33 12.87 13.33h18.57"/><path d="M258.508 18.611h-4.01c-.28 0-.5-.22-.5-.5s.22-.5.5-.5h4.01c.28 0 .5.22.5.5 0 .27-.23.5-.5.5zm-13.01-.01h-1c-.28 0-.5-.22-.5-.5s.22-.5.5-.5h1c.28 0 .5.22.5.5s-.23.5-.5.5zm-5 0h-.56c-.19 0-.36-.11-.45-.28-.11-.21-.52-.99-1.2-2.08a.504.504 0 01.16-.69c.23-.15.54-.07.69.16.53.85.9 1.52 1.1 1.89h.26c.28 0 .5.22.5.5s-.23.5-.5.5zm-47.56-.61h-1.32c-.28 0-.5-.22-.5-.5s.22-.5.5-.5h.58c-.09-.25-.2-.56-.32-.92a.51.51 0 01.32-.63c.26-.08.54.06.63.32.3.93.56 1.52.56 1.53.07.15.06.33-.04.48-.1.15-.24.22-.41.22zm-9.32 0h-12c-.28 0-.5-.22-.5-.5s.22-.5.5-.5h12c.28 0 .5.22.5.5s-.23.5-.5.5zm7.87-5.48c-.25 0-.47-.19-.5-.44-.04-.34-.07-.68-.09-1.03-.02-.28.19-.51.47-.53.27-.01.51.19.53.47.02.33.05.65.09.97a.51.51 0 01-.44.56h-.06zm26.14-1.04c-.19 0-.36-.1-.45-.28-.12-.25-.27-.54-.45-.87a.506.506 0 01.2-.68c.24-.13.55-.04.68.2.19.34.34.65.47.91a.5.5 0 01-.45.72zm16.12-1.25c-.12 0-.25-.05-.35-.14-2.16-2.07-4.32-3.32-6.43-3.72-1.44-.27-2.75-.22-3.88.16a.489.489 0 01-.63-.32c-.09-.26.05-.54.32-.63 1.3-.43 2.78-.5 4.39-.19 2.3.44 4.63 1.78 6.93 3.98.2.19.21.51.02.71-.11.09-.24.15-.37.15zm-18.8-2.96c-.15 0-.29-.06-.39-.19-.63-.78-1.3-1.5-2-2.13-.2-.19-.22-.5-.03-.71.19-.21.5-.22.71-.03.74.67 1.45 1.43 2.1 2.24.17.21.14.53-.08.7-.09.08-.2.12-.31.12zm-20.49-3.82c-.15 0-.29-.06-.39-.19a.495.495 0 01.08-.7c1.54-1.24 3.64-2.04 6.22-2.39 1.97-.27 3.87-.2 5.66.2a.503.503 0 01-.22.98c-1.68-.37-3.46-.44-5.31-.18-2.4.33-4.33 1.06-5.73 2.18a.5.5 0 01-.31.1zM259.118 22.401l-87.87-.02c-.55 0-1-.45-1-1s.45-1 1-1l87.87.02c.55 0 1 .45 1 1s-.45 1-1 1z"/></g><g opacity=".5" fill="#ededf0" fill-rule="nonzero"><path d="M132.618 139.051c3.84.09 7.62-.93 10.89-2.94 6.14-3.6 13.73-3.6 19.87 0a21.668 21.668 0 0021.77 0c2.98-1.85 6.43-2.79 9.94-2.7.55 0 1-.45 1-1s-.45-1-1-1c-3.84-.09-7.62.93-10.89 2.94-6.14 3.6-13.73 3.6-19.87 0a21.668 21.668 0 00-21.77 0 17.962 17.962 0 01-9.94 2.7c-3.24.1-6.44-.71-9.24-2.33-.3.6-.66 1.17-1.05 1.71a19.43 19.43 0 0010.29 2.62zM176.748 146.301a.6.6 0 01-.59-.5c-.06-.33.16-.64.49-.69 3.01-.52 4.91-1.74 6.75-2.92.28-.18.65-.1.83.18.18.28.1.65-.18.83-1.85 1.19-3.95 2.53-7.2 3.09-.03.01-.07.01-.1.01zM169.138 146.121c-.04 0-.09-.01-.14-.02-.33-.08-.65-.16-.96-.25-.32-.1-.5-.43-.4-.75.1-.32.43-.5.75-.4.28.09.58.17.89.24.32.07.52.4.45.72-.07.27-.32.46-.59.46zM164.718 144.331c-.1 0-.21-.03-.3-.08-.63-.36-1.22-.74-1.82-1.12-.48-.3-.95-.61-1.44-.9a.602.602 0 01-.21-.82c.17-.29.54-.38.82-.21.5.3.99.61 1.47.92.58.37 1.16.74 1.77 1.1.29.17.38.53.22.82-.1.18-.3.29-.51.29zM188.808 140.671a.606.606 0 01-.18-1.18c1.21-.39 2.48-.64 3.89-.75.35-.04.62.22.65.55.03.33-.22.62-.55.65-1.31.1-2.49.33-3.61.7-.08.02-.14.03-.2.03z"/><path d="M148.558 140.251a.602.602 0 01-.13-1.19c1.25-.26 2.57-.39 4.05-.39 1.38 0 2.62.11 3.8.34a.6.6 0 01-.22 1.18c-1.1-.21-2.27-.32-3.57-.32-1.39 0-2.64.12-3.8.36-.05.02-.09.02-.13.02zM197.328 140.091c-.03 0-.06 0-.09-.01-.3-.04-.6-.08-.92-.11a.605.605 0 01-.54-.66.6.6 0 01.66-.54c.34.03.66.07.98.12.33.05.55.36.5.68-.04.31-.3.52-.59.52zM222.288 135.731a.504.504 0 00-.7-.08c-2.75 1.82-5.92 2.9-9.2 3.16-1.24.2-2.5.2-3.74 0 2-.62 3.76-1.49 4.55-2.63 1-1.37.38-2.18.09-2.46-.88-.85-2.82-.67-4.24.4-1.07.8-2.89 2.67-2.48 4.2-1.58.36-3.19.59-4.81.68-.28 0-.5.22-.5.5s.22.5.5.5c1.8-.1 3.59-.37 5.35-.79.88.71 2.64.92 5.34.62 6.26-.7 9.57-3.26 9.71-3.37.23-.15.31-.46.16-.69a.138.138 0 01-.03-.04zm-12.65-.84c.59-.46 1.31-.72 2.05-.74.32-.02.63.07.89.26.31.3 0 .86-.21 1.17-.73 1.06-2.66 1.89-4.83 2.47-.23-.78.88-2.25 2.1-3.16z"/></g><path d="M88.948 102.951l-21.8-8.33a3.468 3.468 0 01-2-4.47l11.45-29.95a3.463 3.463 0 014.47-2l13.58 5.19c.86.33 1.55.98 1.92 1.82l5.09 11.33c.38.84.4 1.8.08 2.66l-8.31 21.75a3.483 3.483 0 01-4.48 2z" fill="#45a1ff" fill-rule="nonzero"/><g transform="translate(-50.182 -11.539)"><path id="XMLID_2_" d="M145.68 93.72a2.13 2.13 0 00-1.2-1.12c-.54-.2-1.12-.18-1.64.05l-6.74 3.05 9.92-26.33c.42-1.11-.14-2.34-1.25-2.76-1.11-.42-2.34.14-2.76 1.25l-9.92 26.33-3.05-6.74a2.13 2.13 0 00-1.2-1.12 2.13 2.13 0 00-2.76 1.25c-.2.54-.18 1.12.05 1.64l5.18 11.45c.24.52.66.92 1.2 1.12.54.2 1.12.18 1.64-.05l11.45-5.18c.52-.24.92-.66 1.12-1.2.21-.53.19-1.11-.04-1.64z" fill="#0060df" fill-rule="nonzero"/><clipPath id="_clip1"><path d="M145.68 93.72a2.13 2.13 0 00-1.2-1.12c-.54-.2-1.12-.18-1.64.05l-6.74 3.05 9.92-26.33c.42-1.11-.14-2.34-1.25-2.76-1.11-.42-2.34.14-2.76 1.25l-9.92 26.33-3.05-6.74a2.13 2.13 0 00-1.2-1.12 2.13 2.13 0 00-2.76 1.25c-.2.54-.18 1.12.05 1.64l5.18 11.45c.24.52.66.92 1.2 1.12.54.2 1.12.18 1.64-.05l11.45-5.18c.52-.24.92-.66 1.12-1.2.21-.53.19-1.11-.04-1.64z"/></clipPath><g clip-path="url(#_clip1)"><path d="M136.62 76.97l9.24 8.68 5.77-18.45-11.67-7.63-3.34 17.4z" fill="url(#_Linear2)" fill-rule="nonzero"/></g></g><path d="M168.32 57.02c-2.12-4.6-5.46-8.41-9.62-11.1 2.35 2.22 4.12 5.31 5.13 9.08 1.62 5.99 1.16 12.99-1.29 19.72-.15.41-.41.76-.72.98-.08.06-.17.1-.25.14l5.58 2.1c.4.15.84.13 1.22-.04.39-.18.68-.5.83-.9 2.35-6.56 2.04-13.65-.88-19.98z" fill="url(#_Linear3)" fill-rule="nonzero" transform="translate(-50.182 -11.539)"/><path d="M126.46 61.13c2.6-6.67 6.88-12.24 12.05-15.67 3.32-2.21 6.77-3.36 10.07-3.43-5.02-.82-10.17-.17-14.92 1.94-6.37 2.83-11.28 7.95-13.84 14.43-.16.39-.15.84.03 1.22.17.39.49.69.89.84l5.73 2.16c-.04-.08-.08-.17-.1-.27-.11-.38-.07-.82.09-1.22z" fill="url(#_Linear4)" fill-rule="nonzero" transform="translate(-50.182 -11.539)"/><path d="M162.54 74.72c2.45-6.73 2.91-13.74 1.29-19.72-1.02-3.76-2.78-6.85-5.13-9.08-1.31-.84-2.7-1.58-4.16-2.19 1.3 1.37 1.88 4.32 1.62 8.54-.31 5.18-1.84 11.69-4.3 18.31-.15.4-.34.77-.54 1.03-.09.12-.18.21-.27.27l10.51 3.96c.09-.03.17-.08.25-.14.32-.21.58-.57.73-.98z" fill="url(#_Linear5)" fill-rule="nonzero" transform="translate(-50.182 -11.539)"/><path d="M136.32 65.95c.02-.32.12-.73.27-1.13 2.52-6.6 5.66-12.49 8.85-16.59 2.57-3.31 4.93-5.14 6.8-5.34a26.08 26.08 0 00-3.67-.87c-3.3.07-6.75 1.23-10.07 3.43-5.17 3.43-9.45 9-12.05 15.67-.16.41-.19.84-.1 1.21.02.1.06.19.1.27l9.88 3.72c-.02-.08-.03-.21-.01-.37z" fill="url(#_Linear6)" fill-rule="nonzero" transform="translate(-50.182 -11.539)"/><path d="M152.24 42.9c-1.88.19-4.23 2.03-6.8 5.34-3.19 4.1-6.33 9.99-8.85 16.59-.15.4-.25.81-.27 1.13-.01.15 0 .28.02.38l14.71 5.54c.08-.06.17-.15.27-.27.19-.25.39-.63.54-1.03 2.46-6.62 3.99-13.12 4.3-18.31.26-4.21-.32-7.17-1.62-8.54-.29-.12-.58-.24-.87-.35-.48-.17-.95-.33-1.43-.48z" fill="url(#_Linear7)" fill-rule="nonzero" transform="translate(-50.182 -11.539)"/><path d="M232.86 27.14c-4.02.41-9.08 4.35-14.58 11.44-6.83 8.79-13.56 21.42-18.97 35.56-.33.86-.54 1.73-.59 2.42-.02.33 0 .6.05.81l31.54 11.88c.18-.12.37-.31.57-.57.42-.55.83-1.34 1.15-2.21 5.27-14.19 8.54-28.12 9.22-39.24.55-9.03-.68-15.36-3.47-18.3-.62-.26-1.24-.52-1.87-.76-1.01-.37-2.03-.71-3.05-1.03z" fill="url(#_Linear8)" fill-rule="nonzero" transform="translate(-50.182 -11.539)"/><g><path d="M154.588 169.041l-46.73-17.86c-3.82-1.46-5.74-5.75-4.28-9.57l24.53-64.2c1.46-3.83 5.76-5.75 9.59-4.29l29.1 11.12c1.84.7 3.32 2.1 4.13 3.9l10.9 24.29c.81 1.8.87 3.85.16 5.69l-17.82 46.62a7.403 7.403 0 01-9.58 4.3z" fill="#45a1ff" fill-rule="nonzero"/><g transform="translate(-50.182 -11.539)"><path id="XMLID_1_" d="M218.79 136.08a4.59 4.59 0 00-6.07-2.29l-14.44 6.54 21.26-56.43c.89-2.37-.31-5.02-2.68-5.92-2.37-.89-5.02.31-5.92 2.68l-21.26 56.43-6.54-14.44a4.59 4.59 0 00-6.07-2.29 4.59 4.59 0 00-2.29 6.07l11.11 24.54a4.59 4.59 0 006.07 2.29l24.54-11.11a4.594 4.594 0 002.29-6.07z" fill="#0060df" fill-rule="nonzero"/><clipPath id="_clip9"><path d="M218.79 136.08a4.59 4.59 0 00-6.07-2.29l-14.44 6.54 21.26-56.43c.89-2.37-.31-5.02-2.68-5.92-2.37-.89-5.02.31-5.92 2.68l-21.26 56.43-6.54-14.44a4.59 4.59 0 00-6.07-2.29 4.59 4.59 0 00-2.29 6.07l11.11 24.54a4.59 4.59 0 006.07 2.29l24.54-11.11a4.594 4.594 0 002.29-6.07z"/></clipPath><g clip-path="url(#_clip9)"><path d="M199.39 100.16l19.79 18.62 12.38-39.55-25.02-16.34-7.15 37.27z" fill="url(#_Linear10)" fill-rule="nonzero"/></g></g><path d="M267.32 57.41c-4.55-9.86-11.69-18.03-20.62-23.78 5.04 4.77 8.82 11.39 11 19.45 3.47 12.83 2.49 27.85-2.77 42.27-.32.88-.88 1.63-1.55 2.09-.18.12-.36.22-.54.29l11.97 4.51a3.381 3.381 0 004.39-2.03c5.05-14.03 4.38-29.24-1.88-42.8z" fill="url(#_Linear11)" fill-rule="nonzero" transform="translate(-50.182 -11.539)"/><path d="M177.6 66.22c5.57-14.31 14.74-26.24 25.82-33.59 7.12-4.73 14.51-7.2 21.59-7.36-10.76-1.76-21.81-.37-31.99 4.15-13.65 6.06-24.18 17.04-29.66 30.92-.33.85-.31 1.79.05 2.62a3.41 3.41 0 001.91 1.8l12.28 4.63c-.09-.18-.16-.37-.22-.58-.2-.79-.12-1.72.22-2.59z" fill="url(#_Linear12)" fill-rule="nonzero" transform="translate(-50.182 -11.539)"/><path d="M254.94 95.36c5.25-14.43 6.24-29.44 2.77-42.27-2.18-8.06-5.96-14.68-11-19.45a57.347 57.347 0 00-8.92-4.69c2.8 2.93 4.02 9.26 3.47 18.3-.67 11.11-3.95 25.05-9.22 39.24-.32.87-.74 1.66-1.15 2.21-.2.26-.39.45-.57.57l22.53 8.49c.18-.07.37-.17.54-.29.67-.48 1.23-1.23 1.55-2.11z" fill="url(#_Linear13)" fill-rule="nonzero" transform="translate(-50.182 -11.539)"/><path d="M198.73 76.56c.05-.68.26-1.56.59-2.42 5.4-14.14 12.14-26.77 18.97-35.56 5.51-7.09 10.56-11.03 14.58-11.44-2.59-.81-5.22-1.44-7.86-1.87-7.08.16-14.47 2.63-21.59 7.36-11.08 7.35-20.24 19.28-25.82 33.59-.34.87-.42 1.81-.22 2.6.05.21.13.4.22.58l21.18 7.98c-.06-.22-.08-.49-.05-.82z" fill="url(#_Linear14)" fill-rule="nonzero" transform="translate(-50.182 -11.539)"/><path d="M232.86 27.14c-4.02.41-9.08 4.35-14.58 11.44-6.83 8.79-13.56 21.42-18.97 35.56-.33.86-.54 1.73-.59 2.42-.02.33 0 .6.05.81l31.54 11.88c.18-.12.37-.31.57-.57.42-.55.83-1.34 1.15-2.21 5.27-14.19 8.54-28.12 9.22-39.24.55-9.03-.68-15.36-3.47-18.3-.62-.26-1.24-.52-1.87-.76-1.01-.37-2.03-.71-3.05-1.03z" fill="url(#_Linear15)" fill-rule="nonzero" transform="translate(-50.182 -11.539)"/></g><g><path d="M219.388 150.811l-10.83-4.14a1.714 1.714 0 01-.99-2.22l5.69-14.88c.34-.89 1.33-1.33 2.22-.99l6.75 2.58c.43.16.77.49.96.9l2.53 5.63c.19.42.2.89.04 1.32l-4.13 10.81c-.35.88-1.35 1.33-2.24.99z" fill="#45a1ff" fill-rule="nonzero"/><g transform="translate(-50.182 -11.539)"><path id="XMLID_3_" d="M272.83 152.03c-.12-.26-.33-.46-.59-.56-.27-.1-.56-.09-.81.03l-3.35 1.52 4.93-13.08c.21-.55-.07-1.16-.62-1.37-.55-.21-1.16.07-1.37.62l-4.93 13.08-1.52-3.35c-.12-.26-.33-.46-.59-.56-.27-.1-.56-.09-.81.03-.26.12-.46.33-.56.59-.1.27-.09.56.03.81l2.58 5.69c.12.26.33.46.59.56.26.1.56.09.81-.03l5.69-2.58c.26-.12.46-.33.56-.59.08-.26.07-.55-.04-.81z" fill="#0060df" fill-rule="nonzero"/><clipPath id="_clip16"><path d="M272.83 152.03c-.12-.26-.33-.46-.59-.56-.27-.1-.56-.09-.81.03l-3.35 1.52 4.93-13.08c.21-.55-.07-1.16-.62-1.37-.55-.21-1.16.07-1.37.62l-4.93 13.08-1.52-3.35c-.12-.26-.33-.46-.59-.56-.27-.1-.56-.09-.81.03-.26.12-.46.33-.56.59-.1.27-.09.56.03.81l2.58 5.69c.12.26.33.46.59.56.26.1.56.09.81-.03l5.69-2.58c.26-.12.46-.33.56-.59.08-.26.07-.55-.04-.81z"/></clipPath><g clip-path="url(#_clip16)"><path d="M268.33 143.7l4.59 4.32 2.87-9.17-5.81-3.79-1.65 8.64z" fill="url(#_Linear17)" fill-rule="nonzero"/></g></g><path d="M284.08 133.79a13.002 13.002 0 00-4.78-5.51c1.17 1.11 2.05 2.64 2.55 4.51.8 2.98.58 6.46-.64 9.8-.07.2-.2.38-.36.49-.04.03-.08.05-.13.07l2.77 1.05c.2.07.42.07.61-.02a.79.79 0 00.41-.45 13.07 13.07 0 00-.43-9.94z" fill="url(#_Linear18)" fill-rule="nonzero" transform="translate(-50.182 -11.539)"/><path d="M263.28 135.83c1.29-3.32 3.42-6.08 5.99-7.79 1.65-1.1 3.36-1.67 5.01-1.71-2.49-.41-5.06-.09-7.42.96-3.16 1.4-5.61 3.95-6.88 7.17-.08.2-.07.42.01.61.09.19.24.34.44.42l2.85 1.07a.694.694 0 01-.05-.13c-.05-.18-.03-.4.05-.6z" fill="url(#_Linear19)" fill-rule="nonzero" transform="translate(-50.182 -11.539)"/><path d="M281.21 142.59c1.22-3.34 1.45-6.83.64-9.8-.51-1.87-1.38-3.4-2.55-4.51-.65-.42-1.34-.78-2.07-1.09.65.68.93 2.15.8 4.24-.16 2.58-.91 5.81-2.14 9.1-.07.2-.17.38-.27.51-.05.06-.09.11-.13.13l5.22 1.97c.04-.02.08-.04.13-.07.16-.1.29-.28.37-.48z" fill="url(#_Linear20)" fill-rule="nonzero" transform="translate(-50.182 -11.539)"/><path d="M268.17 138.23c.01-.16.06-.36.14-.56 1.25-3.28 2.81-6.21 4.4-8.24 1.28-1.64 2.45-2.56 3.38-2.65-.6-.19-1.21-.33-1.82-.43-1.64.04-3.35.61-5.01 1.71-2.57 1.7-4.69 4.47-5.99 7.79-.08.2-.1.42-.05.6.01.05.03.09.05.13l4.91 1.85c-.01-.06-.01-.12-.01-.2z" fill="url(#_Linear21)" fill-rule="nonzero" transform="translate(-50.182 -11.539)"/><path d="M276.09 126.77c-.93.1-2.1 1.01-3.38 2.65-1.58 2.04-3.14 4.97-4.4 8.24-.08.2-.13.4-.14.56-.01.08 0 .14.01.19l7.31 2.76c.04-.03.09-.07.13-.13.1-.13.19-.31.27-.51 1.22-3.29 1.98-6.52 2.14-9.1.13-2.09-.16-3.56-.8-4.24-.14-.06-.29-.12-.43-.18-.24-.08-.48-.16-.71-.24z" fill="url(#_Linear22)" fill-rule="nonzero" transform="translate(-50.182 -11.539)"/></g><g><path d="M27.088 177.981l-24.58-9.39a3.896 3.896 0 01-2.25-5.03l12.9-33.77a3.89 3.89 0 015.04-2.25l15.3 5.85c.97.37 1.75 1.11 2.17 2.05l5.73 12.78c.43.95.46 2.02.09 2.99l-9.37 24.52a3.892 3.892 0 01-5.03 2.25z" fill="#45a1ff" fill-rule="nonzero"/><g transform="translate(-50.182 -11.539)"><path id="XMLID_4_" d="M84.64 166.12c-.27-.59-.75-1.04-1.35-1.26-.6-.23-1.26-.21-1.85.06l-7.6 3.44 11.18-29.68c.47-1.25-.16-2.64-1.41-3.11-1.25-.47-2.64.16-3.11 1.41l-11.18 29.68-3.44-7.6c-.27-.59-.75-1.04-1.35-1.26-.6-.23-1.26-.21-1.85.06-.59.27-1.04.75-1.26 1.35-.22.6-.21 1.26.06 1.85l5.84 12.91c.27.59.75 1.04 1.35 1.26.6.23 1.26.21 1.85-.06l12.91-5.84c.59-.27 1.04-.75 1.26-1.35.24-.62.22-1.28-.05-1.86z" fill="#0060df" fill-rule="nonzero"/><clipPath id="_clip23"><path d="M84.64 166.12c-.27-.59-.75-1.04-1.35-1.26-.6-.23-1.26-.21-1.85.06l-7.6 3.44 11.18-29.68c.47-1.25-.16-2.64-1.41-3.11-1.25-.47-2.64.16-3.11 1.41l-11.18 29.68-3.44-7.6c-.27-.59-.75-1.04-1.35-1.26-.6-.23-1.26-.21-1.85.06-.59.27-1.04.75-1.26 1.35-.22.6-.21 1.26.06 1.85l5.84 12.91c.27.59.75 1.04 1.35 1.26.6.23 1.26.21 1.85-.06l12.91-5.84c.59-.27 1.04-.75 1.26-1.35.24-.62.22-1.28-.05-1.86z"/></clipPath><g clip-path="url(#_clip23)"><path d="M74.44 147.22l10.41 9.8 6.51-20.81-13.16-8.59-3.76 19.6z" fill="url(#_Linear24)" fill-rule="nonzero"/></g></g><path d="M110.17 124.74a29.515 29.515 0 00-10.85-12.51c2.65 2.51 4.64 5.99 5.79 10.23 1.82 6.75 1.31 14.65-1.46 22.23-.17.46-.46.86-.82 1.1-.09.06-.19.11-.29.15l6.29 2.37c.45.17.94.15 1.38-.05.43-.2.77-.57.93-1.02 2.67-7.37 2.32-15.37-.97-22.5z" fill="url(#_Linear25)" fill-rule="nonzero" transform="translate(-50.182 -11.539)"/><path d="M62.98 129.37c2.93-7.52 7.75-13.8 13.58-17.67 3.75-2.49 7.63-3.79 11.36-3.87-5.66-.93-11.47-.2-16.82 2.18-7.18 3.19-12.72 8.96-15.6 16.26-.18.45-.17.94.03 1.38.19.44.56.78 1 .95l6.46 2.43a.977.977 0 01-.11-.3c-.12-.41-.08-.9.1-1.36z" fill="url(#_Linear26)" fill-rule="nonzero" transform="translate(-50.182 -11.539)"/><path d="M103.65 144.7c2.76-7.59 3.28-15.48 1.46-22.23-1.15-4.24-3.14-7.72-5.79-10.23-1.48-.95-3.04-1.78-4.69-2.47 1.47 1.54 2.11 4.87 1.83 9.62-.35 5.84-2.08 13.17-4.85 20.64-.17.46-.39.87-.61 1.16a1.4 1.4 0 01-.3.3l11.85 4.46c.1-.04.19-.09.29-.15.35-.24.64-.64.81-1.1z" fill="url(#_Linear27)" fill-rule="nonzero" transform="translate(-50.182 -11.539)"/><path d="M74.09 134.81c.02-.36.14-.82.31-1.27 2.84-7.44 6.39-14.08 9.98-18.7 2.9-3.73 5.56-5.8 7.67-6.02-1.36-.43-2.74-.76-4.13-.99-3.73.08-7.61 1.38-11.36 3.87-5.83 3.87-10.65 10.14-13.58 17.67-.18.46-.22.95-.11 1.37.03.11.07.21.11.3l11.14 4.2c-.03-.11-.04-.25-.03-.43z" fill="url(#_Linear28)" fill-rule="nonzero" transform="translate(-50.182 -11.539)"/><path d="M92.04 108.82c-2.11.22-4.77 2.29-7.67 6.02-3.59 4.62-7.13 11.27-9.98 18.7-.17.45-.28.91-.31 1.27-.01.17 0 .32.03.42l16.59 6.25c.09-.06.19-.16.3-.3.22-.29.44-.71.61-1.16 2.77-7.46 4.49-14.79 4.85-20.64.29-4.75-.36-8.08-1.83-9.62-.33-.14-.65-.27-.98-.4-.53-.19-1.07-.37-1.61-.54z" fill="url(#_Linear29)" fill-rule="nonzero" transform="translate(-50.182 -11.539)"/></g><defs><linearGradient id="_Linear15" x1="0" y1="0" x2="1" y2="0" gradientUnits="userSpaceOnUse" gradientTransform="rotate(78.175 96.868 136.718) scale(80.2587)"><stop offset="0" stop-color="#ff8748"/><stop offset=".13" stop-color="#fe7852"/><stop offset=".5" stop-color="#fc546a"/><stop offset=".81" stop-color="#fa3d79"/><stop offset="1" stop-color="#fa357f"/></linearGradient><linearGradient id="_Linear2" x1="0" y1="0" x2="1" y2="0" gradientUnits="userSpaceOnUse" gradientTransform="rotate(-90 114.89 -29.238) scale(26.0779)"><stop offset="0" stop-color="#0a5cc7"/><stop offset="0" stop-color="#0a5cc7"/><stop offset="1" stop-color="#83219d"/><stop offset="1" stop-color="#83219d"/></linearGradient><linearGradient id="_Linear4" x1="0" y1="0" x2="1" y2="0" gradientUnits="userSpaceOnUse" gradientTransform="rotate(20.646 -67.626 364.036) scale(52.7757)"><stop offset="0" stop-color="#fff361"/><stop offset="1" stop-color="#ffa80a"/></linearGradient><linearGradient id="_Linear5" x1="0" y1="0" x2="1" y2="0" gradientUnits="userSpaceOnUse" gradientTransform="scale(48.2226) rotate(70.67 .99 2.558)"><stop offset="0" stop-color="#ff5162"/><stop offset="1" stop-color="#83219d"/></linearGradient><linearGradient id="_Linear6" x1="0" y1="0" x2="1" y2="0" gradientUnits="userSpaceOnUse" gradientTransform="rotate(64.169 32.553 129.618) scale(15.2348)"><stop offset="0" stop-color="#ffd943"/><stop offset="1" stop-color="#ffa80a"/></linearGradient><linearGradient id="_Linear7" x1="0" y1="0" x2="1" y2="0" gradientUnits="userSpaceOnUse" gradientTransform="scale(37.4453) rotate(78.175 1.292 2.824)"><stop offset="0" stop-color="#ff8748"/><stop offset=".13" stop-color="#fe7852"/><stop offset=".5" stop-color="#fc546a"/><stop offset=".81" stop-color="#fa3d79"/><stop offset="1" stop-color="#fa357f"/></linearGradient><linearGradient id="_Linear8" x1="0" y1="0" x2="1" y2="0" gradientUnits="userSpaceOnUse" gradientTransform="scale(51.97223) rotate(84.815 1.88 2.465)"><stop offset="0" stop-color="#fff361"/><stop offset="1" stop-color="#ffa80a"/></linearGradient><linearGradient id="_Linear10" x1="0" y1="0" x2="1" y2="0" gradientUnits="userSpaceOnUse" gradientTransform="rotate(-90 167.126 -48.346) scale(55.8942)"><stop offset="0" stop-color="#0a5cc7"/><stop offset="0" stop-color="#0a5cc7"/><stop offset="1" stop-color="#83219d"/><stop offset="1" stop-color="#83219d"/></linearGradient><linearGradient id="_Linear11" x1="0" y1="0" x2="1" y2="0" gradientUnits="userSpaceOnUse" gradientTransform="rotate(66.114 115.241 169.769) scale(117.279)"><stop offset="0" stop-color="#fa357f"/><stop offset="1" stop-color="#7878ff"/><stop offset="1" stop-color="#7878ff"/></linearGradient><linearGradient id="_Linear12" x1="0" y1="0" x2="1" y2="0" gradientUnits="userSpaceOnUse" gradientTransform="rotate(20.646 -13.794 491.357) scale(113.1167)"><stop offset="0" stop-color="#fff361"/><stop offset="1" stop-color="#ffa80a"/></linearGradient><linearGradient id="_Linear13" x1="0" y1="0" x2="1" y2="0" gradientUnits="userSpaceOnUse" gradientTransform="rotate(70.67 101.398 166.048) scale(103.3583)"><stop offset="0" stop-color="#ff5162"/><stop offset="1" stop-color="#83219d"/></linearGradient><linearGradient id="_Linear14" x1="0" y1="0" x2="1" y2="0" gradientUnits="userSpaceOnUse" gradientTransform="rotate(64.169 74.73 170.888) scale(32.6535)"><stop offset="0" stop-color="#ffd943"/><stop offset="1" stop-color="#ffa80a"/></linearGradient><linearGradient id="_Linear3" x1="0" y1="0" x2="1" y2="0" gradientUnits="userSpaceOnUse" gradientTransform="rotate(66.114 52.338 127.819) scale(54.7174)"><stop offset="0" stop-color="#fa357f"/><stop offset="1" stop-color="#7878ff"/><stop offset="1" stop-color="#7878ff"/></linearGradient><linearGradient id="_Linear17" x1="0" y1="0" x2="1" y2="0" gradientUnits="userSpaceOnUse" gradientTransform="rotate(-90 210.037 -62.019) scale(12.9583)"><stop offset="0" stop-color="#0a5cc7"/><stop offset="0" stop-color="#0a5cc7"/><stop offset="1" stop-color="#83219d"/><stop offset="1" stop-color="#83219d"/></linearGradient><linearGradient id="_Linear18" x1="0" y1="0" x2="1" y2="0" gradientUnits="userSpaceOnUse" gradientTransform="rotate(66.113 45.207 270.232) scale(27.1893)"><stop offset="0" stop-color="#fa357f"/><stop offset="1" stop-color="#7878ff"/><stop offset="1" stop-color="#7878ff"/></linearGradient><linearGradient id="_Linear19" x1="0" y1="0" x2="1" y2="0" gradientUnits="userSpaceOnUse" gradientTransform="scale(26.2244) rotate(20.646 -8.498 29.89)"><stop offset="0" stop-color="#fff361"/><stop offset="1" stop-color="#ffa80a"/></linearGradient><linearGradient id="_Linear20" x1="0" y1="0" x2="1" y2="0" gradientUnits="userSpaceOnUse" gradientTransform="rotate(70.67 49.588 255.376) scale(23.9621)"><stop offset="0" stop-color="#ff5162"/><stop offset="1" stop-color="#83219d"/></linearGradient><linearGradient id="_Linear21" x1="0" y1="0" x2="1" y2="0" gradientUnits="userSpaceOnUse" gradientTransform="rotate(64.169 32.287 276.996) scale(7.5702)"><stop offset="0" stop-color="#ffd943"/><stop offset="1" stop-color="#ffa80a"/></linearGradient><linearGradient id="_Linear22" x1="0" y1="0" x2="1" y2="0" gradientUnits="userSpaceOnUse" gradientTransform="scale(18.6068) rotate(78.175 3.19 12.288)"><stop offset="0" stop-color="#ff8748"/><stop offset=".13" stop-color="#fe7852"/><stop offset=".5" stop-color="#fc546a"/><stop offset=".81" stop-color="#fa3d79"/><stop offset="1" stop-color="#fa357f"/></linearGradient><linearGradient id="_Linear24" x1="0" y1="0" x2="1" y2="0" gradientUnits="userSpaceOnUse" gradientTransform="rotate(-90 119.957 37.06) scale(29.3976)"><stop offset="0" stop-color="#0a5cc7"/><stop offset="0" stop-color="#0a5cc7"/><stop offset="1" stop-color="#83219d"/><stop offset="1" stop-color="#83219d"/></linearGradient><linearGradient id="_Linear25" x1="0" y1="0" x2="1" y2="0" gradientUnits="userSpaceOnUse" gradientTransform="rotate(66.113 -27.238 113.183) scale(61.683)"><stop offset="0" stop-color="#fa357f"/><stop offset="1" stop-color="#7878ff"/><stop offset="1" stop-color="#7878ff"/></linearGradient><linearGradient id="_Linear26" x1="0" y1="0" x2="1" y2="0" gradientUnits="userSpaceOnUse" gradientTransform="scale(59.4942) rotate(20.646 -4.74 3.734)"><stop offset="0" stop-color="#fff361"/><stop offset="1" stop-color="#ffa80a"/></linearGradient><linearGradient id="_Linear27" x1="0" y1="0" x2="1" y2="0" gradientUnits="userSpaceOnUse" gradientTransform="rotate(70.67 -28.563 113.143) scale(54.3615)"><stop offset="0" stop-color="#ff5162"/><stop offset="1" stop-color="#83219d"/></linearGradient><linearGradient id="_Linear28" x1="0" y1="0" x2="1" y2="0" gradientUnits="userSpaceOnUse" gradientTransform="scale(17.1741) rotate(64.169 -2.988 6.573)"><stop offset="0" stop-color="#ffd943"/><stop offset="1" stop-color="#ffa80a"/></linearGradient><linearGradient id="_Linear29" x1="0" y1="0" x2="1" y2="0" gradientUnits="userSpaceOnUse" gradientTransform="scale(42.2123) rotate(78.175 -.532 2.38)"><stop offset="0" stop-color="#ff8748"/><stop offset=".13" stop-color="#fe7852"/><stop offset=".5" stop-color="#fc546a"/><stop offset=".81" stop-color="#fa3d79"/><stop offset="1" stop-color="#fa357f"/></linearGradient></defs></svg>