<svg width="348" height="210" viewBox="0 0 348 210" xmlns="http://www.w3.org/2000/svg"><defs><linearGradient x1="41.809%" y1="202.924%" x2="57.703%" y2="-81.376%" id="a"><stop stop-color="#EDEDF0" offset="29.11%"/><stop stop-color="#D9E4EF" offset="32.86%"/><stop stop-color="#A5CCEE" offset="40.56%"/><stop stop-color="#53A7EC" offset="51.45%"/><stop stop-color="#47A1EB" offset="52.89%"/><stop stop-color="#83219D" offset="71.86%"/></linearGradient><linearGradient x1="-28.179%" y1="-47.197%" x2="84.476%" y2="96.728%" id="b"><stop stop-color="#FA357F" offset="0%"/><stop stop-color="#7878FF" offset="99.91%"/></linearGradient><linearGradient x1="20.196%" y1="50.386%" x2="169.064%" y2="48.68%" id="c"><stop stop-color="#FFF361" offset="0%"/><stop stop-color="#FFA80A" offset="100%"/></linearGradient><linearGradient x1="7.144%" y1="-13.348%" x2="84.326%" y2="120.032%" id="d"><stop stop-color="#FF5162" offset="0%"/><stop stop-color="#83219D" offset="100%"/></linearGradient><linearGradient x1="34.091%" y1="25.572%" x2="59.481%" y2="63.114%" id="e"><stop stop-color="#FFD943" offset="0%"/><stop stop-color="#FFA80A" offset="100%"/></linearGradient><linearGradient x1="21.663%" y1="-7.191%" x2="65.135%" y2="106.403%" id="f"><stop stop-color="#FF8748" offset="0%"/><stop stop-color="#FE7852" offset="13.28%"/><stop stop-color="#FC546A" offset="50.49%"/><stop stop-color="#FA3D79" offset="80.73%"/><stop stop-color="#FA357F" offset="100%"/></linearGradient></defs><g fill-rule="nonzero" fill="none"><g fill="#EDEDF0" opacity=".5"><path d="M54.54 170.197h92.98a1.36 1.36 0 001.356-1.356 1.36 1.36 0 00-1.357-1.357H54.54a1.36 1.36 0 00-1.356 1.357c0 .746.61 1.356 1.356 1.356zM111.63 163.307h23.33c.38 0 .678-.299.678-.679a.672.672 0 00-.679-.678H111.63a.672.672 0 00-.678.678c0 .38.298.679.678.679zM31.753 175.568c0-.38.299-.678.679-.678H36.5c.38 0 .678.298.678.678 0 .38-.298.678-.678.678h-4.07a.672.672 0 01-.678-.678zm14.92 0c0-.38.299-.678.679-.678h16.276c.38 0 .678.298.678.678 0 .38-.298.678-.678.678H47.352a.672.672 0 01-.678-.678zm28.484 0c0-.38.299-.678.678-.678h1.357c.38 0 .678.298.678.678 0 .38-.298.678-.678.678h-1.357a.672.672 0 01-.678-.678zm6.782 0c0-.38.298-.678.678-.678h4.07c.38 0 .678.298.678.678 0 .38-.299.678-.679.678h-4.069a.672.672 0 01-.678-.678zm14.92 0c0-.38.299-.678.678-.678h16.277c.38 0 .678.298.678.678 0 .38-.298.678-.678.678H97.537a.672.672 0 01-.678-.678zM156.471 123.986h150.123a1.36 1.36 0 001.357-1.357 1.36 1.36 0 00-1.357-1.356H156.471a1.36 1.36 0 00-1.356 1.356c0 .746.61 1.357 1.356 1.357zM176.75 117.204h37.652c.38 0 .678-.299.678-.678a.672.672 0 00-.678-.679h-37.653a.672.672 0 00-.678.679c0 .38.312.678.678.678zM128.76 129.221c0-.38.3-.678.68-.678h16.275c.38 0 .679.298.679.678 0 .38-.299.678-.679.678H129.44a.672.672 0 01-.678-.678zm27.128 0c0-.38.299-.678.678-.678h4.07c.38 0 .678.298.678.678 0 .38-.299.678-.678.678h-4.07a.672.672 0 01-.678-.678zm9.495 0c0-.38.298-.678.678-.678h1.356c.38 0 .679.298.679.678 0 .38-.299.678-.679.678h-1.356a.672.672 0 01-.678-.678zm13.563 0c0-.38.299-.678.679-.678H195.9c.38 0 .678.298.678.678 0 .38-.298.678-.678.678h-16.276a.672.672 0 01-.679-.678zm27.128 0c0-.38.298-.678.678-.678h4.07c.379 0 .677.298.677.678 0 .38-.298.678-.678.678h-4.069a.672.672 0 01-.678-.678zm9.494 0c0-.38.299-.678.679-.678h1.356c.38 0 .678.298.678.678 0 .38-.298.678-.678.678h-1.356a.672.672 0 01-.679-.678zm13.564 0c0-.38.298-.678.678-.678h16.277c.38 0 .678.298.678.678 0 .38-.299.678-.678.678H229.81a.672.672 0 01-.678-.678zm27.127 0c0-.38.299-.678.679-.678h4.069c.38 0 .678.298.678.678 0 .38-.299.678-.678.678h-4.07a.672.672 0 01-.678-.678zm9.495 0c0-.38.298-.678.678-.678h1.357c.38 0 .678.298.678.678 0 .38-.299.678-.678.678h-1.357a.672.672 0 01-.678-.678zm13.564 0c0-.38.298-.678.678-.678h16.276c.38 0 .678.298.678.678 0 .38-.298.678-.678.678h-16.276a.672.672 0 01-.678-.678zm27.127 0c0-.38.298-.678.678-.678h4.07c.38 0 .677.298.677.678 0 .38-.298.678-.678.678h-4.069a.672.672 0 01-.678-.678zm9.495 0c0-.38.298-.678.678-.678h1.356c.38 0 .678.298.678.678 0 .38-.298.678-.678.678h-1.356a.672.672 0 01-.678-.678zm13.563 0c0-.38.299-.678.678-.678h16.277c.38 0 .678.298.678.678 0 .38-.298.678-.678.678H330.18a.672.672 0 01-.678-.678z"/><g><path d="M2.225 75.034h34.48S25.92 50.918 48.816 47.798c20.426-2.78 28.497 18.216 28.497 18.216s2.428-12.112 14.567-9.793c11.977 2.28 20.82 21.553 20.82 21.553h30.03"/><path d="M143.328 72.077h-8.87a.793.793 0 01-.8-.8c0-.447.352-.8.8-.8h8.87c.448 0 .8.353.8.8 0 .448-.352.8-.8.8zm-23.234 0h-1.6a.793.793 0 01-.801-.8c0-.447.353-.8.8-.8h1.6c.448 0 .801.353.801.8 0 .448-.366.8-.8.8zm-82.807-.963h-2.563a.793.793 0 01-.8-.8c0-.448.352-.8.8-.8h1.383a36.85 36.85 0 01-.366-1.031.81.81 0 01.502-1.017.81.81 0 011.017.502c.42 1.234.76 1.993.76 2.007a.836.836 0 01-.054.76.79.79 0 01-.679.38zm-15.326 0H2.809a.793.793 0 01-.8-.8c0-.448.352-.8.8-.8H21.96c.447 0 .8.352.8.8 0 .448-.366.8-.8.8zm90.781-.081a.777.777 0 01-.692-.407 63.87 63.87 0 00-2.482-4.028.804.804 0 01.217-1.113.804.804 0 011.113.217 64.97 64.97 0 012.55 4.137.791.791 0 01-.312 1.085.907.907 0 01-.394.109zM35.01 62.827a.79.79 0 01-.787-.692 20.954 20.954 0 01-.176-1.641.793.793 0 01.732-.855c.461-.027.828.285.855.733.04.529.095 1.044.176 1.546a.786.786 0 01-.678.895c-.04.014-.082.014-.122.014zm41.572-3.513a.8.8 0 01-.705-.42 40.04 40.04 0 00-.773-1.357.797.797 0 01.271-1.099.797.797 0 011.099.272c.298.502.57.976.814 1.424a.804.804 0 01-.326 1.085.788.788 0 01-.38.095zm25.337-2.035a.806.806 0 01-.515-.19c-3.052-2.617-6.09-4.231-9.06-4.801-2.917-.556-5.494-.271-7.637.827a.801.801 0 01-1.071-.339.79.79 0 01.339-1.071c2.455-1.275 5.398-1.6 8.667-.977 3.242.624 6.538 2.347 9.806 5.154.34.285.367.787.082 1.126a.87.87 0 01-.61.271zm-29.867-4.53a.795.795 0 01-.597-.271 28.995 28.995 0 00-3.323-3.269.797.797 0 01-.095-1.126.797.797 0 011.126-.095 31.005 31.005 0 013.5 3.445c.284.34.257.841-.082 1.126a.902.902 0 01-.529.19zm-32.905-4.652a.856.856 0 01-.597-.258.795.795 0 01.054-1.126c2.55-2.306 6.144-3.798 10.688-4.408 2.78-.38 5.507-.339 8.084.109a.808.808 0 01.651.922.797.797 0 01-.922.651c-2.414-.42-4.978-.448-7.596-.095-4.218.583-7.527 1.926-9.833 4.015a.843.843 0 01-.53.19zM144.318 78.208H2.212c-.882 0-1.6-.719-1.6-1.6 0-.882.718-1.6 1.6-1.6h142.106c.882 0 1.6.718 1.6 1.6 0 .881-.718 1.6-1.6 1.6z"/></g><g><path d="M227.274 62.054h19.247s-6.023-13.455 6.754-15.192c11.394-1.546 15.91 10.16 15.91 10.16s1.357-6.755 8.139-5.466c6.687 1.275 11.624 12.03 11.624 12.03h16.751"/><path d="M247.077 59.897h-19.22a.793.793 0 01-.8-.8c0-.448.352-.8.8-.8h19.22c.447 0 .8.352.8.8 0 .448-.353.8-.8.8zm59.205-.258h-.746a.793.793 0 01-.8-.8c0-.447.353-.8.8-.8h.746c.448 0 .8.353.8.8 0 .448-.352.8-.8.8zm-7.148 0h-4.801a.793.793 0 01-.8-.8c0-.447.352-.8.8-.8h4.801c.448 0 .8.353.8.8 0 .448-.352.8-.8.8zm-29.352-4.788a.827.827 0 01-.746-.515l-.122-.285a.797.797 0 01.312-1.003c.746-2.238 2.849-5.426 7.04-5.426.57 0 1.18.054 1.804.176 2.387.448 4.788 1.845 7.148 4.124a.794.794 0 01.013 1.126.782.782 0 01-1.125.013c-2.13-2.062-4.26-3.31-6.335-3.703a8.569 8.569 0 00-1.505-.149c-4.612 0-5.656 4.788-5.697 4.991a.797.797 0 01-.787.651zm-22.285-7.148a.806.806 0 01-.515-.19.797.797 0 01-.095-1.125c1.058-1.248 2.536-2.17 4.395-2.754a.804.804 0 011.003.53.804.804 0 01-.529 1.003c-1.56.488-2.78 1.248-3.648 2.252a.771.771 0 01-.61.284zm11.923-2.685c-.068 0-.136-.014-.217-.027-.475-.122-.963-.23-1.465-.299a.806.806 0 01-.678-.908c.067-.434.474-.72.908-.679.57.082 1.126.204 1.655.34.42.122.678.556.57.976a.81.81 0 01-.773.597zM306.933 65.268h-79.306c-.882 0-1.601-.718-1.601-1.6 0-.882.719-1.6 1.6-1.6h79.307c.882 0 1.6.718 1.6 1.6 0 .882-.718 1.6-1.6 1.6z"/></g></g><path d="M138.242 209.87c-3.16 0-6.077-1.234-8.247-3.472a1.363 1.363 0 01.027-1.912c.543-.515 1.397-.515 1.913.027a8.635 8.635 0 006.253 2.645l2.78-.014c.746 0 1.357.61 1.357 1.357 0 .746-.597 1.356-1.357 1.356l-2.726.014zm13.59-.054a1.36 1.36 0 01-1.356-1.356c0-.746.597-1.356 1.357-1.356l10.85-.041c.747 0 1.357.61 1.357 1.356 0 .746-.597 1.357-1.356 1.357l-10.851.04zm21.703-.08a1.36 1.36 0 01-1.357-1.357c0-.746.597-1.357 1.357-1.357l10.85-.04c.747 0 1.357.61 1.357 1.356 0 .746-.597 1.356-1.356 1.356l-10.851.041zm21.701-.096a1.36 1.36 0 01-1.356-1.356c0-.746.597-1.357 1.356-1.357l10.851-.04c.434 0 .868-.041 1.289-.095a1.36 1.36 0 011.546 1.14 1.353 1.353 0 01-1.14 1.545c-.555.082-1.125.136-1.695.136l-10.85.027zm20.305-6.755c-.149 0-.298-.027-.447-.08-.706-.245-1.072-1.032-.828-1.737.34-.95.502-1.94.502-2.957l-.027-7.365c0-.746.597-1.356 1.356-1.356.746 0 1.357.61 1.357 1.356l.027 7.365c0 1.33-.217 2.631-.665 3.88a1.353 1.353 0 01-1.275.894zm-87.418-6.185a1.36 1.36 0 01-1.356-1.356l-.04-10.85c0-.747.596-1.357 1.356-1.357.746 0 1.356.597 1.356 1.356l.04 10.851a1.343 1.343 0 01-1.356 1.356c.014 0 .014 0 0 0zm87.92-15.449a1.352 1.352 0 01-1.356-1.356l-.04-10.85c0-.747.596-1.357 1.355-1.357.746 0 1.357.597 1.357 1.356l.04 10.851c0 .746-.596 1.356-1.356 1.356zM128.042 175a1.352 1.352 0 01-1.356-1.357l-.041-10.85c0-.747.597-1.357 1.356-1.357.746 0 1.357.597 1.357 1.356l.04 10.851a1.36 1.36 0 01-1.356 1.357zm87.92-15.45a1.352 1.352 0 01-1.357-1.356l-.04-10.85c0-.747.596-1.357 1.356-1.357.746 0 1.356.597 1.356 1.356l.041 10.851a1.36 1.36 0 01-1.356 1.356zm-88.015-6.252a1.352 1.352 0 01-1.356-1.357l-.041-10.85c0-.747.597-1.357 1.356-1.357.746 0 1.357.597 1.357 1.356l.04 10.851c0 .746-.596 1.357-1.356 1.357zm87.92-15.45a1.352 1.352 0 01-1.357-1.356l-.027-6.076c0-1.384-.339-2.754-.976-3.974a1.368 1.368 0 01.583-1.832 1.368 1.368 0 011.831.584 11.597 11.597 0 011.289 5.208l.027 6.077c-.014.76-.61 1.37-1.37 1.37zm-88.001-6.252a1.352 1.352 0 01-1.357-1.357l-.04-10.85c0-.747.596-1.357 1.356-1.357.787-.04 1.356.597 1.356 1.356l.041 10.851a1.36 1.36 0 01-1.356 1.357zm79.51-12.357c-.34 0-.692-.135-.95-.393l-7.717-7.623a1.35 1.35 0 01-.014-1.912 1.35 1.35 0 011.913-.014l7.717 7.623a1.35 1.35 0 01.014 1.912c-.258.272-.61.407-.963.407zm-79.605-9.345a1.352 1.352 0 01-1.357-1.356l-.013-3.256c0-2.943 1.085-5.71 3.065-7.84.516-.542 1.37-.583 1.913-.067.542.515.583 1.37.067 1.912a8.688 8.688 0 00-2.332 5.941l.013 3.296c0 .76-.597 1.37-1.356 1.37zm64.17-5.914c-.34 0-.692-.136-.95-.393l-4.774-4.72a8.69 8.69 0 00-2.984-1.926 1.358 1.358 0 01-.774-1.75 1.358 1.358 0 011.75-.773c1.465.57 2.78 1.424 3.907 2.536l4.774 4.72a1.35 1.35 0 01.014 1.913c-.258.257-.61.393-.964.393zm-51.542-7.46a1.352 1.352 0 01-1.357-1.356c0-.746.597-1.357 1.357-1.357l10.85-.04c.746 0 1.357.596 1.357 1.356 0 .746-.597 1.356-1.357 1.356l-10.85.041c.013 0 .013 0 0 0zm21.701-.095a1.352 1.352 0 01-1.356-1.356c0-.746.597-1.357 1.356-1.357l10.851-.04c.746 0 1.357.597 1.357 1.356 0 .746-.597 1.356-1.357 1.356l-10.85.041c.013 0 .013 0 0 0zM197.624 143.3a6.214 6.214 0 00-4.395 1.858l-15.07 15.341-.393-44.11-12.505-5.072.434 49.29-15.34-15.069a6.202 6.202 0 00-4.423-1.79 6.214 6.214 0 00-4.394 1.858 6.202 6.202 0 00-1.79 4.422 6.214 6.214 0 001.858 4.394l26.07 25.609a6.202 6.202 0 004.42 1.79 6.214 6.214 0 004.395-1.858l25.609-26.07a6.202 6.202 0 001.79-4.421 6.214 6.214 0 00-1.858-4.395 6.136 6.136 0 00-4.408-1.777z" fill="#EDEDF0"/><path d="M37.72 6.809C37.694 3.377 34.873.61 31.44.637c-3.431.028-6.198 2.849-6.17 6.28l.284 32.499 12.506 5.073-.34-37.68z" fill="url(#a)" transform="translate(139.72 71.887)"/><path d="M224.926 21.81c-10.58-10.254-23.614-17.076-37.72-19.992 8.708 3.567 16.737 10.09 23.438 19.22 10.674 14.54 16.778 34.003 17.185 54.837.027 1.275-.312 2.496-.936 3.405a4.193 4.193 0 01-.542.637l17.348-.149a4.623 4.623 0 003.268-1.397 4.55 4.55 0 001.289-3.31c-.488-20.25-8.776-39.158-23.33-53.25z" fill="url(#b)" transform="translate(.014)"/><path d="M115.725 76.865c.041-20.82 5.806-40.406 16.222-55.122 6.7-9.468 14.826-16.209 23.71-19.871-14.473 3.038-27.765 10.2-38.426 20.901-14.31 14.337-22.258 33.38-22.394 53.631a4.582 4.582 0 001.357 3.296 4.602 4.602 0 003.296 1.343l17.795-.163a3.57 3.57 0 01-.556-.624c-.638-.909-1.004-2.13-1.004-3.39z" fill="url(#c)" transform="translate(.014)"/><path d="M227.829 75.875c-.407-20.82-6.524-40.297-17.185-54.838-6.7-9.128-14.73-15.652-23.438-19.22a77.959 77.959 0 00-13.577-1.56c4.977 2.347 9.616 9.753 13.346 21.445 4.585 14.39 7.27 33.61 7.542 54.146.013 1.248-.122 2.455-.38 3.35-.122.434-.271.773-.434 1.004l32.661-.285c.19-.19.38-.393.543-.637.61-.91.95-2.13.922-3.405z" fill="url(#d)" transform="translate(.014)"/><path d="M147.519 79.605c-.272-.895-.435-2.102-.435-3.35-.08-20.535 2.252-39.81 6.592-54.268 3.5-11.665 7.962-19.112 12.845-21.607-3.676.244-7.31.732-10.864 1.478-8.884 3.662-17.023 10.417-23.71 19.871-10.416 14.717-16.167 34.303-16.222 55.123 0 1.275.353 2.495.99 3.39.177.245.353.448.557.625l30.694-.272c-.15-.217-.312-.556-.447-.99z" fill="url(#e)" transform="translate(.014)"/><path d="M166.521.38c-4.883 2.495-9.359 9.942-12.845 21.607-4.326 14.459-6.673 33.733-6.592 54.268 0 1.248.163 2.455.435 3.35.135.434.284.76.46 1.004l45.71-.407c.163-.244.312-.57.434-1.004.258-.895.394-2.102.38-3.35-.285-20.535-2.957-39.755-7.541-54.146-3.73-11.692-8.37-19.098-13.347-21.444a61.219 61.219 0 00-2.74-.041 93.382 93.382 0 00-4.354.163z" fill="url(#f)" transform="translate(.014)"/></g></svg>