<svg width="348" height="210" viewBox="0 0 348 210" xmlns="http://www.w3.org/2000/svg"><defs><linearGradient x1="41.809%" y1="202.924%" x2="57.703%" y2="-81.376%" id="linearGradient-1"><stop stop-color="#EDEDF0" offset="29.11%"/><stop stop-color="#D9E4EF" offset="32.86%"/><stop stop-color="#A5CCEE" offset="40.56%"/><stop stop-color="#53A7EC" offset="51.45%"/><stop stop-color="#47A1EB" offset="52.89%"/><stop stop-color="#83219D" offset="71.86%"/></linearGradient><linearGradient x1="-28.179%" y1="-47.197%" x2="84.476%" y2="96.728%" id="linearGradient-2"><stop stop-color="#FA357F" offset="0%"/><stop stop-color="#7878FF" offset="99.91%"/></linearGradient><linearGradient x1="20.196%" y1="50.386%" x2="169.064%" y2="48.68%" id="linearGradient-3"><stop stop-color="#FFF361" offset="0%"/><stop stop-color="#FFA80A" offset="100%"/></linearGradient><linearGradient x1="7.144%" y1="-13.348%" x2="84.326%" y2="120.032%" id="linearGradient-4"><stop stop-color="#FF5162" offset="0%"/><stop stop-color="#83219D" offset="100%"/></linearGradient><linearGradient x1="34.091%" y1="25.572%" x2="59.481%" y2="63.114%" id="linearGradient-5"><stop stop-color="#FFD943" offset="0%"/><stop stop-color="#FFA80A" offset="100%"/></linearGradient><linearGradient x1="21.663%" y1="-7.191%" x2="65.135%" y2="106.403%" id="linearGradient-6"><stop stop-color="#FF8748" offset="0%"/><stop stop-color="#FE7852" offset="13.28%"/><stop stop-color="#FC546A" offset="50.49%"/><stop stop-color="#FA3D79" offset="80.73%"/><stop stop-color="#FA357F" offset="100%"/></linearGradient></defs><g id="Page-1" stroke="none" stroke-width="1" fill="none" fill-rule="evenodd"><g id="Send_Expired-Link" transform="translate(-546 -349)" fill-rule="nonzero"><g id="firefox-send_illustrations-01" transform="translate(546.014 349)"><g id="Group" fill="#EDEDF0" opacity=".5"><g transform="translate(31.196 161.408)"><path d="M1.628 3.364h92.979a1.36 1.36 0 001.356-1.357A1.36 1.36 0 0094.607.651H1.627A1.36 1.36 0 00.272 2.007c0 .746.61 1.357 1.357 1.357z" transform="translate(21.702 5.425)" id="Path"/><path d="M.735 1.899h23.33c.38 0 .678-.298.678-.678a.672.672 0 00-.678-.678H.735a.672.672 0 00-.678.678c0 .38.298.678.678.678z" transform="translate(79.684)" id="Path"/><path d="M.543.939C.543.559.84.26 1.22.26H5.29c.38 0 .678.299.678.679 0 .38-.298.678-.678.678H1.22A.672.672 0 01.544.939zm14.92 0c0-.38.298-.679.678-.679h16.276c.38 0 .678.299.678.679 0 .38-.298.678-.678.678H16.141a.672.672 0 01-.678-.678zm28.483 0c0-.38.299-.679.678-.679h1.357c.38 0 .678.299.678.679 0 .38-.298.678-.678.678h-1.357a.672.672 0 01-.678-.678zm6.782 0c0-.38.299-.679.678-.679h4.07c.38 0 .678.299.678.679 0 .38-.299.678-.679.678h-4.069a.672.672 0 01-.678-.678zm14.92 0c0-.38.299-.679.678-.679h16.277c.38 0 .678.299.678.679 0 .38-.298.678-.678.678H66.326a.672.672 0 01-.678-.678z" transform="translate(0 13.222)" id="Shape"/></g><g transform="translate(128.513 115.291)"><path d="M1.831 3.269h150.123a1.36 1.36 0 001.356-1.357 1.36 1.36 0 00-1.356-1.356H1.83A1.36 1.36 0 00.475 1.912c0 .746.61 1.357 1.356 1.357z" transform="translate(26.113 5.425)" id="Path"/><path d="M.749 1.912h37.653c.38 0 .678-.298.678-.678a.672.672 0 00-.678-.678H.749a.672.672 0 00-.678.678c0 .38.312.678.678.678z" transform="translate(47.473)" id="Path"/><path d="M.233.708C.233.328.532.03.912.03h16.276c.38 0 .678.298.678.678 0 .38-.298.678-.678.678H.912A.672.672 0 01.233.708zm27.128 0c0-.38.298-.678.678-.678h4.069c.38 0 .678.298.678.678 0 .38-.298.678-.678.678h-4.07a.672.672 0 01-.677-.678zm9.494 0c0-.38.299-.678.678-.678h1.357c.38 0 .678.298.678.678 0 .38-.298.678-.678.678h-1.357a.672.672 0 01-.678-.678zm13.564 0c0-.38.298-.678.678-.678h16.277c.38 0 .678.298.678.678 0 .38-.299.678-.678.678H51.097a.672.672 0 01-.678-.678zm27.127 0c0-.38.299-.678.678-.678h4.07c.38 0 .678.298.678.678 0 .38-.299.678-.678.678h-4.07a.672.672 0 01-.678-.678zm9.495 0c0-.38.298-.678.678-.678h1.356c.38 0 .679.298.679.678 0 .38-.299.678-.679.678H87.72a.672.672 0 01-.678-.678zm13.564 0c0-.38.298-.678.678-.678h16.276c.38 0 .678.298.678.678 0 .38-.298.678-.678.678h-16.276a.672.672 0 01-.678-.678zm27.127 0c0-.38.298-.678.678-.678h4.07c.379 0 .677.298.677.678 0 .38-.298.678-.678.678h-4.069a.672.672 0 01-.678-.678zm9.494 0c0-.38.299-.678.679-.678h1.356c.38 0 .678.298.678.678 0 .38-.298.678-.678.678h-1.356a.672.672 0 01-.679-.678zm13.564 0c0-.38.299-.678.678-.678h16.277c.38 0 .678.298.678.678 0 .38-.298.678-.678.678h-16.277a.672.672 0 01-.678-.678zm27.127 0c0-.38.299-.678.679-.678h4.069c.38 0 .678.298.678.678 0 .38-.298.678-.678.678h-4.07a.672.672 0 01-.678-.678zm9.495 0c0-.38.298-.678.678-.678h1.357c.38 0 .678.298.678.678 0 .38-.299.678-.678.678h-1.357a.672.672 0 01-.678-.678zm13.564 0c0-.38.298-.678.678-.678h16.276c.38 0 .679.298.679.678 0 .38-.299.678-.679.678h-16.276a.672.672 0 01-.678-.678z" transform="translate(0 13.222)" id="Shape"/></g><g transform="translate(0 41.706)"><path d="M2.21 33.329h34.48S25.907 9.213 48.802 6.093C69.23 3.313 77.3 24.309 77.3 24.309s2.428-12.112 14.568-9.793c11.976 2.279 20.82 21.553 20.82 21.553h30.03" id="Path"/><path d="M141.957 30.372h-8.87a.793.793 0 01-.8-.8c0-.448.352-.8.8-.8h8.87c.448 0 .8.352.8.8 0 .447-.352.8-.8.8zm-23.234 0h-1.6a.793.793 0 01-.8-.8c0-.448.352-.8.8-.8h1.6c.447 0 .8.352.8.8 0 .447-.366.8-.8.8zm-82.806-.963h-2.564a.793.793 0 01-.8-.8c0-.448.352-.8.8-.8h1.384a36.85 36.85 0 01-.367-1.032.81.81 0 01.502-1.017.81.81 0 011.017.502c.421 1.234.76 1.994.76 2.007a.836.836 0 01-.054.76.79.79 0 01-.678.38zm-15.327 0H1.438a.793.793 0 01-.8-.8c0-.448.352-.8.8-.8H20.59c.447 0 .8.352.8.8 0 .447-.366.8-.8.8zm90.781-.082a.777.777 0 01-.691-.406 63.87 63.87 0 00-2.483-4.029.804.804 0 01.217-1.112.804.804 0 011.113.217 64.97 64.97 0 012.55 4.137.791.791 0 01-.312 1.085.907.907 0 01-.394.108zm-77.733-8.206a.79.79 0 01-.787-.691 20.954 20.954 0 01-.176-1.642.793.793 0 01.732-.854c.461-.027.828.285.855.732.04.53.095 1.045.176 1.547a.786.786 0 01-.678.895c-.04.013-.081.013-.122.013zm41.573-3.513a.8.8 0 01-.706-.42 40.04 40.04 0 00-.773-1.356.797.797 0 01.271-1.1.797.797 0 011.1.272c.297.502.569.977.813 1.424a.804.804 0 01-.326 1.085.788.788 0 01-.38.095zm25.337-2.034a.806.806 0 01-.516-.19c-3.052-2.618-6.09-4.232-9.06-4.802-2.917-.556-5.494-.27-7.637.828a.801.801 0 01-1.071-.34.79.79 0 01.339-1.07C85.058 8.723 88 8.398 91.27 9.022c3.242.624 6.538 2.346 9.806 5.154.34.285.367.787.082 1.126a.87.87 0 01-.61.27zm-29.868-4.53a.795.795 0 01-.596-.272 28.995 28.995 0 00-3.324-3.269.797.797 0 01-.095-1.125.797.797 0 011.126-.095 31.005 31.005 0 013.5 3.445c.285.339.257.84-.082 1.126a.902.902 0 01-.529.19zM37.775 6.39a.856.856 0 01-.597-.257.795.795 0 01.054-1.126C39.782 2.702 43.377 1.21 47.92.6c2.781-.38 5.507-.34 8.084.108a.808.808 0 01.651.922.797.797 0 01-.922.651c-2.414-.42-4.978-.447-7.596-.094-4.218.583-7.527 1.926-9.833 4.014a.843.843 0 01-.53.19z" transform="translate(1.356)" id="Shape"/><path d="M144.304 3.608H2.197c-.881 0-1.6-.719-1.6-1.6 0-.882.719-1.601 1.6-1.601h142.107c.882 0 1.6.719 1.6 1.6 0 .882-.718 1.6-1.6 1.6z" transform="translate(0 32.895)" id="Path"/></g><g transform="translate(225.157 43.062)"><path d="M2.102 18.992H21.35S15.327 5.537 28.104 3.8c11.393-1.547 15.91 10.159 15.91 10.159s1.356-6.755 8.138-5.466c6.687 1.275 11.624 12.03 11.624 12.03h16.752" id="Path"/><path d="M20.549 16.835H1.329a.793.793 0 01-.8-.8c0-.448.353-.8.8-.8h19.22c.448 0 .8.352.8.8 0 .448-.352.8-.8.8zm59.205-.257h-.746a.793.793 0 01-.8-.8c0-.448.353-.8.8-.8h.746c.448 0 .8.352.8.8 0 .447-.352.8-.8.8zm-7.148 0h-4.801a.793.793 0 01-.8-.8c0-.448.352-.8.8-.8h4.801c.448 0 .8.352.8.8 0 .447-.352.8-.8.8zM43.255 11.79a.827.827 0 01-.746-.516l-.123-.285a.797.797 0 01.312-1.003c.746-2.238 2.849-5.426 7.04-5.426.57 0 1.18.054 1.804.177 2.387.447 4.788 1.844 7.148 4.123a.794.794 0 01.014 1.126.782.782 0 01-1.126.013c-2.13-2.061-4.26-3.31-6.334-3.703a8.569 8.569 0 00-1.506-.149c-4.612 0-5.656 4.788-5.697 4.992a.797.797 0 01-.786.65zM20.969 4.642a.806.806 0 01-.515-.19.797.797 0 01-.095-1.126c1.058-1.248 2.536-2.17 4.395-2.754a.804.804 0 011.003.53.804.804 0 01-.529 1.003c-1.56.488-2.78 1.248-3.648 2.252a.771.771 0 01-.61.285zm11.923-2.686c-.068 0-.136-.014-.217-.027-.475-.122-.963-.23-1.465-.299a.806.806 0 01-.678-.908c.068-.434.475-.72.909-.679.57.082 1.125.204 1.654.34.42.122.679.556.57.976a.81.81 0 01-.773.597z" transform="translate(1.356)" id="Shape"/><path d="M81.762 3.217H2.455c-.882 0-1.6-.719-1.6-1.6 0-.882.718-1.6 1.6-1.6h79.307c.881 0 1.6.718 1.6 1.6 0 .881-.719 1.6-1.6 1.6z" transform="translate(0 18.99)" id="Path"/></g></g><path d="M138.227 209.87c-3.16 0-6.076-1.234-8.246-3.472a1.363 1.363 0 01.027-1.912c.542-.515 1.397-.515 1.912.027a8.635 8.635 0 006.253 2.645l2.78-.014c.747 0 1.357.61 1.357 1.357 0 .746-.597 1.356-1.356 1.356l-2.727.014zm13.591-.054a1.36 1.36 0 01-1.356-1.356c0-.746.597-1.356 1.356-1.356l10.851-.041c.746 0 1.357.61 1.357 1.356 0 .746-.597 1.357-1.357 1.357l-10.85.04zm21.702-.08a1.36 1.36 0 01-1.356-1.357c0-.746.597-1.357 1.356-1.357l10.851-.04c.746 0 1.356.61 1.356 1.356 0 .746-.596 1.356-1.356 1.356l-10.85.041zm21.702-.096a1.36 1.36 0 01-1.356-1.356c0-.746.596-1.357 1.356-1.357l10.85-.04c.435 0 .869-.041 1.29-.095a1.36 1.36 0 011.546 1.14 1.353 1.353 0 01-1.14 1.545c-.556.082-1.125.136-1.695.136l-10.851.027zm20.305-6.755c-.15 0-.299-.027-.448-.08-.705-.245-1.071-1.032-.827-1.737.339-.95.502-1.94.502-2.957l-.027-7.365c0-.746.596-1.356 1.356-1.356.746 0 1.356.61 1.356 1.356l.027 7.365c0 1.33-.217 2.631-.664 3.88a1.353 1.353 0 01-1.275.894zm-87.418-6.185a1.36 1.36 0 01-1.356-1.356l-.041-10.85c0-.747.597-1.357 1.356-1.357.746 0 1.357.597 1.357 1.356l.04 10.851a1.343 1.343 0 01-1.356 1.356c.013 0 .013 0 0 0zm87.92-15.449a1.352 1.352 0 01-1.357-1.356l-.04-10.85c0-.747.596-1.357 1.356-1.357.746 0 1.356.597 1.356 1.356l.041 10.851c0 .746-.597 1.356-1.356 1.356zM128.028 175a1.352 1.352 0 01-1.357-1.357l-.04-10.85c0-.747.596-1.357 1.356-1.357.746 0 1.356.597 1.356 1.356l.04 10.851a1.36 1.36 0 01-1.355 1.357zm87.92-15.45a1.352 1.352 0 01-1.357-1.356l-.04-10.85c0-.747.596-1.357 1.356-1.357.746 0 1.356.597 1.356 1.356l.04 10.851a1.36 1.36 0 01-1.356 1.356zm-88.015-6.252a1.352 1.352 0 01-1.357-1.357l-.04-10.85c0-.747.596-1.357 1.356-1.357.746 0 1.356.597 1.356 1.356l.04 10.851c0 .746-.596 1.357-1.355 1.357zm87.92-15.45a1.352 1.352 0 01-1.357-1.356l-.027-6.076c0-1.384-.34-2.754-.977-3.974a1.368 1.368 0 01.583-1.832 1.368 1.368 0 011.832.584 11.597 11.597 0 011.288 5.208l.027 6.077c-.013.76-.61 1.37-1.37 1.37zm-88.002-6.252a1.352 1.352 0 01-1.356-1.357l-.04-10.85c0-.747.596-1.357 1.356-1.357.786-.04 1.356.597 1.356 1.356l.04 10.851a1.36 1.36 0 01-1.356 1.357zm79.51-12.357c-.339 0-.691-.135-.949-.393l-7.718-7.623a1.35 1.35 0 01-.013-1.912 1.35 1.35 0 011.912-.014l7.718 7.623a1.35 1.35 0 01.013 1.912c-.257.272-.61.407-.963.407zm-79.605-9.345a1.352 1.352 0 01-1.356-1.356l-.014-3.256c0-2.943 1.085-5.71 3.066-7.84.515-.542 1.37-.583 1.912-.067.543.515.583 1.37.068 1.912a8.688 8.688 0 00-2.333 5.941l.014 3.296c0 .76-.597 1.37-1.357 1.37zm64.17-5.914c-.34 0-.692-.136-.95-.393l-4.774-4.72a8.69 8.69 0 00-2.984-1.926 1.358 1.358 0 01-.773-1.75 1.358 1.358 0 011.75-.773c1.465.57 2.78 1.424 3.906 2.536l4.774 4.72a1.35 1.35 0 01.014 1.913c-.258.257-.61.393-.963.393zm-51.542-7.46a1.352 1.352 0 01-1.356-1.356c0-.746.596-1.357 1.356-1.357l10.851-.04c.746 0 1.356.596 1.356 1.356 0 .746-.596 1.356-1.356 1.356l-10.851.041c.014 0 .014 0 0 0zm21.702-.095a1.352 1.352 0 01-1.356-1.356c0-.746.596-1.357 1.356-1.357l10.85-.04c.747 0 1.357.597 1.357 1.356 0 .746-.597 1.356-1.356 1.356l-10.851.041c.013 0 .013 0 0 0z" id="Shape" fill="#EDEDF0"/><g id="Group" transform="translate(139.706 71.887)"><path d="M57.903 71.413a6.214 6.214 0 00-4.394 1.858l-15.07 15.34-.393-44.109L25.54 39.43l.434 49.29-15.34-15.07a6.202 6.202 0 00-4.422-1.79 6.214 6.214 0 00-4.394 1.859 6.202 6.202 0 00-1.79 4.421 6.214 6.214 0 001.857 4.395l26.07 25.608a6.202 6.202 0 004.421 1.79 6.214 6.214 0 004.395-1.858L62.38 82.006a6.202 6.202 0 001.79-4.422 6.214 6.214 0 00-1.857-4.394 6.136 6.136 0 00-4.409-1.777z" id="Path" fill="#EDEDF0"/><path d="M37.72 6.809C37.694 3.377 34.873.61 31.44.637c-3.431.028-6.198 2.849-6.17 6.28l.284 32.499 12.506 5.073-.34-37.68z" id="Path" fill="url(#linearGradient-1)"/></g><path d="M224.926 21.81c-10.58-10.254-23.614-17.076-37.72-19.992 8.708 3.567 16.737 10.09 23.438 19.22 10.674 14.54 16.778 34.003 17.185 54.837.027 1.275-.312 2.496-.936 3.405a4.193 4.193 0 01-.542.637l17.348-.149a4.623 4.623 0 003.268-1.397 4.55 4.55 0 001.289-3.31c-.488-20.25-8.776-39.158-23.33-53.25z" id="Path" fill="url(#linearGradient-2)"/><path d="M115.725 76.865c.041-20.82 5.806-40.406 16.222-55.122 6.7-9.468 14.826-16.209 23.71-19.871-14.473 3.038-27.765 10.2-38.426 20.901-14.31 14.337-22.258 33.38-22.394 53.631a4.582 4.582 0 001.357 3.296 4.602 4.602 0 003.296 1.343l17.795-.163a3.57 3.57 0 01-.556-.624c-.638-.909-1.004-2.13-1.004-3.39z" id="Path" fill="url(#linearGradient-3)"/><path d="M227.829 75.875c-.407-20.82-6.524-40.297-17.185-54.838-6.7-9.128-14.73-15.652-23.438-19.22a77.959 77.959 0 00-13.577-1.56c4.977 2.347 9.616 9.753 13.346 21.445 4.585 14.39 7.27 33.61 7.542 54.146.013 1.248-.122 2.455-.38 3.35-.122.434-.271.773-.434 1.004l32.661-.285c.19-.19.38-.393.543-.637.61-.91.95-2.13.922-3.405z" id="Path" fill="url(#linearGradient-4)"/><path d="M147.519 79.605c-.272-.895-.435-2.102-.435-3.35-.08-20.535 2.252-39.81 6.592-54.268 3.5-11.665 7.962-19.112 12.845-21.607-3.676.244-7.31.732-10.864 1.478-8.884 3.662-17.023 10.417-23.71 19.871-10.416 14.717-16.167 34.303-16.222 55.123 0 1.275.353 2.495.99 3.39.177.245.353.448.557.625l30.694-.272c-.15-.217-.312-.556-.447-.99z" id="Path" fill="url(#linearGradient-5)"/><path d="M166.521.38c-4.883 2.495-9.359 9.942-12.845 21.607-4.326 14.459-6.673 33.733-6.592 54.268 0 1.248.163 2.455.435 3.35.135.434.284.76.46 1.004l45.71-.407c.163-.244.312-.57.434-1.004.258-.895.394-2.102.38-3.35-.285-20.535-2.957-39.755-7.541-54.146-3.73-11.692-8.37-19.098-13.347-21.444a61.219 61.219 0 00-2.74-.041 93.382 93.382 0 00-4.354.163z" id="Path" fill="url(#linearGradient-6)"/></g></g></g></svg>