<svg version="1.0" xmlns="http://www.w3.org/2000/svg" width="933.333" height="933.333" viewBox="0 0 700 700"><path d="M327.9.4c-.2.2-4 .6-8.4 1-4.4.3-9.8.8-12 1.1-2.2.3-5.8.7-8 1-2.2.3-5.1.7-6.5 1-1.4.3-5.2 1-8.5 1.6-27.4 4.9-60.3 15.9-87.9 29.4C109.2 78.3 42 157.3 15 249c-1.2 4.1-2.6 8.6-3.1 10-.7 2.1-1.7 6.2-3.4 14-1.6 7.7-4.5 23.7-5 28.5-.4 3.3-.9 6.9-1.1 8-1 5.4-1.8 20.5-1.9 34 0 14.3.2 15.3 2.7 20.8 4.9 10.4 12.2 17.1 22.3 20.6 5.9 2 7.7 2 146.4 2.1 77.3 0 140.7.2 140.9.5.6.6.9 180.3.3 182.9-.3 1.4-10.8-8.7-44.5-42.7-24.3-24.5-45.9-45.6-48.2-47-12.4-7.6-29.6-6.8-41.2 1.9-11.7 8.9-16.8 22.9-13.6 38.1 1.9 9.3 5.4 14.4 21.5 30.8 8.1 8.2 19.6 20 25.6 26.1 14.6 15.1 93.6 95.4 104.5 106.4 12.1 12.1 21 16.1 34.7 15.6 6.2-.2 8.5-.8 12.6-3.1 2.8-1.5 6.1-3.4 7.5-4.1 1.4-.8 12.1-11.1 23.9-23.1 11.7-12 39.8-40.6 62.5-63.7 76-77.3 70.8-71.6 74.1-80.9 3.7-10.2 3-19.9-2.2-30.4-10.9-22-40.3-26.5-58.4-8.9-4.2 4.1-49.1 50.1-73.4 75.2-6.3 6.5-11.5 11.2-11.6 10.4-.4-6.4 0-182.2.5-182.7.3-.3 62.8-.6 138.8-.5 94.8.1 140-.2 143.8-1 11.7-2.2 21-9.6 26.4-20.8l3.1-6.5-.1-18c0-15.5-.5-23-2.9-41.2-.2-1.7-.9-6-1.6-9.5-.6-3.5-1.3-7.6-1.6-9.2-.2-1.6-2-9-3.8-16.5-11.6-47.2-34.3-93.2-65.4-132.6-3-3.9-6-7.5-6.6-8.2-36-40.4-67.7-65.4-111.2-87.4-28.6-14.5-63.6-26.2-94.3-31.5-10.1-1.7-10.3-1.8-19.5-2.9-3.3-.3-7.1-.9-8.5-1.2-3.1-.5-55.5-1.4-56.1-.9zm42.7 76c53 3.9 104.9 23.9 148.6 57.3 12.3 9.4 35.9 32.4 45.9 44.8 29.3 36.2 51.2 85.4 57.4 128.7l.7 4.8-85.3.1c-47 0-170 .1-273.4.1l-188 .1.1-3.4c0-3 .7-7.6 1.8-13.4 1.4-7.2 6.2-24 9.5-33.6 20.3-59.5 61.2-110.5 116.3-145 17.8-11.2 43.4-22.7 63.8-28.8 5.8-1.7 11.9-3.6 13.5-4.1 2.5-.7 10.4-2.4 21.4-4.5 1.3-.2 4.9-.7 8-1.1 3.1-.3 5.9-.8 6.2-1 .3-.1 5.5-.6 11.5-1 6-.3 11-.7 11.1-.8.4-.3 23.1.2 30.9.8z"/></svg>