<svg xmlns="http://www.w3.org/2000/svg" xmlns:xlink="http://www.w3.org/1999/xlink"><symbol id="a" viewBox="66 0 340 64"><path d="M84 48h5.83V35.87h13.47v-5.42H89.83v-6.94h13.47V18H84zm23.57 0h5.79V25.81h-5.79zm2.88-32.12a3.46 3.46 0 00-2.59 1 3.62 3.62 0 00-1 2.65 3.57 3.57 0 001 2.59 3.52 3.52 0 002.61 1 3.46 3.46 0 003.65-3.26v-.35a3.71 3.71 0 00-1-2.65 3.5 3.5 0 00-2.67-1zm19.14 9.53a7.22 7.22 0 00-3.72.93 5.82 5.82 0 00-2.4 2.89v-3.42h-5.59V48h5.63V36.29a5.27 5.27 0 011.31-4 4.94 4.94 0 013.49-1.21 6.33 6.33 0 011.73.23 4 4 0 011.23.55l2-5.59a7.51 7.51 0 00-1.66-.61 8.11 8.11 0 00-2-.26zm23.94 3.19a11.15 11.15 0 00-3.61-2.37 12.08 12.08 0 00-4.6-.86 11.62 11.62 0 00-8.3 3.37 11.17 11.17 0 00-2.44 3.67 11.59 11.59 0 00-.89 4.54 12.24 12.24 0 00.83 4.52 10.52 10.52 0 002.36 3.66 10.93 10.93 0 003.71 2.44 12.75 12.75 0 004.85.88 12.15 12.15 0 006.12-1.39 13.25 13.25 0 004.11-3.74L151 40.6a6.23 6.23 0 01-2.18 2.15 6.36 6.36 0 01-3.33.8 6.7 6.7 0 01-4.13-1.25 6 6 0 01-2.23-3.43h17.62v-2.13a11.71 11.71 0 00-.87-4.56 10.5 10.5 0 00-2.35-3.59zm-14.21 5.85a6.38 6.38 0 012.26-3.12 6.11 6.11 0 013.74-1.15 6.26 6.26 0 013.73 1.08 5.56 5.56 0 012.1 3.19zM167 16.08a6.05 6.05 0 00-2.91 1.54 6.15 6.15 0 00-1.56 2.89 18.1 18.1 0 00-.48 4.52v.78h-3.65v5.1h3.65V48h5.63V30.91H173v-5.1h-5.3v-1.06a13.34 13.34 0 01.12-2 2 2 0 01.6-1.19 2.45 2.45 0 011.33-.57 15.25 15.25 0 012.34-.15h.91v-5.21h-1.48a19.06 19.06 0 00-4.52.45zm27.4 12.65a12 12 0 00-16.72 0 10.87 10.87 0 00-2.46 3.67 11.61 11.61 0 00-.89 4.5 11.46 11.46 0 007.07 10.64 11.73 11.73 0 004.64.9 12 12 0 004.66-.9 11.26 11.26 0 003.72-2.49 11.83 11.83 0 002.46-3.67 11.31 11.31 0 00.9-4.48 11.43 11.43 0 00-3.38-8.17zm-2.7 10.57a5.88 5.88 0 01-1.29 2 6.53 6.53 0 01-1.93 1.31 6 6 0 01-4.76 0 6.34 6.34 0 01-1.93-1.31 6.06 6.06 0 01-1.3-2 6.48 6.48 0 010-4.86 5.76 5.76 0 011.3-2 6.08 6.08 0 011.93-1.32 6 6 0 014.76 0 6.37 6.37 0 011.93 1.32 5.73 5.73 0 011.29 2 6.39 6.39 0 010 4.86zm29.47-13.49h-6.65l-4.68 6.57-4.64-6.57h-6.74l7.84 10.8L198 48h6.82l5-6.94 5.07 6.94h6.86l-8.46-11.34zm34 7.46a12.88 12.88 0 00-3.37-1.44c-1.25-.34-2.46-.63-3.63-.88l-3.08-.7a10.64 10.64 0 01-2.51-.86 4.54 4.54 0 01-1.71-1.39 3.61 3.61 0 01-.62-2.19 4.8 4.8 0 011.58-3.7c1.06-1 2.73-1.44 5-1.44a9.84 9.84 0 015.07 1.17 10.47 10.47 0 013.39 3.23l2.79-2.18a15.22 15.22 0 00-4.63-3.89 13.8 13.8 0 00-6.59-1.44 12.13 12.13 0 00-4.14.66 10.33 10.33 0 00-3.19 1.78 7.53 7.53 0 00-2.05 2.63 7.41 7.41 0 00-.72 3.24 6.7 6.7 0 00.84 3.53 7.06 7.06 0 002.2 2.22 11.11 11.11 0 003.06 1.38c1.13.32 2.29.6 3.47.84l3.26.74a12.63 12.63 0 012.8 1 5.86 5.86 0 012 1.56 3.88 3.88 0 01.74 2.42 5.2 5.2 0 01-1.81 4.09A7.83 7.83 0 01248 45.2a11 11 0 01-9.89-5.38l-3 2.34a15.86 15.86 0 005.23 4.54 16.06 16.06 0 007.7 1.7 12.58 12.58 0 004.38-.72 10.14 10.14 0 003.3-2 8.79 8.79 0 002.1-2.85 8.09 8.09 0 00.74-3.39 6.94 6.94 0 00-1-3.8 7.71 7.71 0 00-2.42-2.37zm27.51-4.72a10.53 10.53 0 00-3.58-2.34 11.89 11.89 0 00-4.49-.84 11.6 11.6 0 00-4.62.9 11.35 11.35 0 00-3.66 2.46A11.84 11.84 0 00263 37a12.21 12.21 0 00.82 4.51 10.53 10.53 0 002.36 3.64 11.24 11.24 0 003.7 2.42 12.41 12.41 0 004.82.88 11.68 11.68 0 006.12-1.45 12.84 12.84 0 004.18-4.18l-2.88-1.69a7.85 7.85 0 01-7.43 4.27 9 9 0 01-3.22-.53 8.21 8.21 0 01-2.55-1.5 8 8 0 01-1.78-2.28 7.79 7.79 0 01-.87-2.91h19.59v-1.52a11.75 11.75 0 00-.86-4.54 10.92 10.92 0 00-2.35-3.57zm-16.28 6.67a8.88 8.88 0 011-2.73 8.55 8.55 0 011.79-2.18 8 8 0 012.44-1.43 8.31 8.31 0 013-.52 7.45 7.45 0 017.84 6.86zM308.82 28a8.11 8.11 0 00-3-2 10.89 10.89 0 00-3.92-.67 9.06 9.06 0 00-4.58 1.14 8.76 8.76 0 00-3.14 3v-3.65h-3.29V48h3.37V35.67a7.92 7.92 0 01.53-2.93 7 7 0 011.48-2.3 6.46 6.46 0 012.22-1.5 7 7 0 012.75-.54 6.33 6.33 0 015 1.93 7.46 7.46 0 011.76 5.18V48h3.41V35.34a12.46 12.46 0 00-.66-4.19 8.68 8.68 0 00-1.93-3.15zm27-12.42v14.1a8.14 8.14 0 00-1.58-1.83 10.08 10.08 0 00-2-1.36 10.39 10.39 0 00-2.3-.84 10.22 10.22 0 00-2.4-.28 11.63 11.63 0 00-4.4.84 11.09 11.09 0 00-3.59 2.38 11.3 11.3 0 00-2.42 3.65 12.81 12.81 0 000 9.32 11.56 11.56 0 002.4 3.66 10.58 10.58 0 003.59 2.38 11.77 11.77 0 004.42.84 9.69 9.69 0 002.4-.31 11 11 0 002.3-.86 9.72 9.72 0 002-1.37 8.75 8.75 0 001.58-1.85v4h3.33V15.59zm-.37 24.58a8.3 8.3 0 01-10.85 4.47 7.68 7.68 0 01-2.6-1.76 7.88 7.88 0 01-1.73-2.67 8.93 8.93 0 01-.62-3.35 8.67 8.67 0 01.62-3.3 8 8 0 011.73-2.66 8.17 8.17 0 012.6-1.79 8.27 8.27 0 016.51 0 8.64 8.64 0 012.63 1.81 7.85 7.85 0 011.72 2.67 8.67 8.67 0 01.62 3.26 8.86 8.86 0 01-.65 3.33z" fill="currentColor"/></symbol><use xlink:href="#a"/></svg>